<svg width="2000" height="11330" viewBox="0 0 2000 11330" fill="none" xmlns="http://www.w3.org/2000/svg">
<g clip-path="url(#clip0_91_31)">
<path d="M558.542 -210.819L2434.15 143.167L2112.78 2149.29L1217.32 1980.29L1378 977.227L1378.46 974.372L1376.23 976.13L318.17 1810.54C317.972 1810.47 317.719 1810.39 317.412 1810.3C316.553 1810.02 315.267 1809.6 313.582 1809.03C310.207 1807.87 305.222 1806.07 298.789 1803.51C285.925 1798.4 267.273 1790.25 244.153 1778.11C197.912 1753.84 133.795 1713.64 62.3545 1649.92C-100.938 1504.28 -361.475 1137.41 -280.522 659.432C-215.941 278.07 -6.13031 60.5201 187.539 -61.7134C284.392 -122.832 377.202 -160.12 445.799 -182.127C480.096 -193.131 508.338 -200.313 527.999 -204.742C537.831 -206.956 545.518 -208.483 550.743 -209.457C553.355 -209.943 555.354 -210.292 556.696 -210.518C557.367 -210.63 557.875 -210.714 558.214 -210.768C558.352 -210.789 558.46 -210.808 558.542 -210.819ZM293.035 1615.95L293.678 1616.33L294.254 1615.87L647.461 1337.32L647.794 1337.06L647.862 1336.63L859.225 17.2148L859.402 16.1126L858.317 15.9077L562.866 -39.8532L562.638 -39.8962L562.413 -39.8434C456.823 -14.1526 356.315 29.0928 264.819 88.2046L264.816 88.2063C54.2361 224.891 -75.1695 427.838 -119.816 691.323C-149.87 868.742 -127.232 1043.89 -52.572 1211.86C26.3719 1389.44 136.035 1495.59 167.785 1523.91C206.505 1558.78 248.465 1589.62 293.035 1615.95ZM838.143 1184.45L837.686 1187.3L839.915 1185.55L2038.26 240.5L2040.21 238.968L2037.76 238.505L1021.52 46.7095L1020.44 46.5046L1020.26 47.6069L838.143 1184.45ZM1404.98 1844.42L1404.81 1845.52L1405.89 1845.73L1977.12 1953.54L1978.2 1953.74L1978.38 1952.64L2244.04 294.249L2244.5 291.394L2242.27 293.152L1568.68 824.354L1568.35 824.616L1568.28 825.042L1404.98 1844.42Z" stroke="white" stroke-opacity="0.4" stroke-width="1.95049"/>
<path d="M795.506 389.086L2313.23 578.495L2141.27 2193.36L1416.67 2102.93L1502.65 1295.5L1502.89 1293.2L1501.19 1294.71L689.089 2012.09C688.928 2012.05 688.722 2012 688.472 2011.94C687.772 2011.76 686.724 2011.49 685.349 2011.11C682.596 2010.36 678.526 2009.17 673.263 2007.45C662.739 2004.01 647.449 1998.43 628.409 1989.91C590.329 1972.85 537.249 1943.98 477.298 1896.72C340.27 1788.71 115.905 1509.18 160.387 1124.2C195.871 817.047 354.687 633.276 504.634 526.274C579.623 472.77 652.387 438.462 706.405 417.529C733.413 407.063 755.733 399.942 771.296 395.44C779.078 393.189 785.171 391.592 789.316 390.557C791.387 390.041 792.974 389.663 794.04 389.417C794.572 389.295 794.976 389.203 795.245 389.143C795.355 389.119 795.44 389.099 795.506 389.086ZM660.658 1858.23L661.19 1858.5L661.632 1858.11L932.729 1618.63L932.985 1618.41L933.021 1618.06L1046.12 555.973L1046.21 555.086L1045.33 554.976L806.257 525.14L806.073 525.117L805.894 525.17C722.397 550.868 643.718 590.306 572.936 641.945L572.934 641.946C410.055 761.302 315.033 929.46 290.495 1141.68C273.98 1284.57 299.581 1423.05 366.554 1553.25C437.369 1690.88 529.749 1770.07 556.393 1791.07C588.899 1816.95 623.829 1839.45 660.658 1858.23ZM1078.98 1487.36L1078.73 1489.66L1080.44 1488.15L2000.21 675.647L2001.7 674.33L1999.72 674.083L1177.4 571.458L1176.52 571.348L1176.42 572.235L1078.98 1487.36ZM1561.23 1985.36L1561.13 1986.25L1562.01 1986.36L2024.24 2044.04L2025.12 2044.15L2025.21 2043.27L2167.36 708.314L2167.61 706.016L2165.9 707.527L1648.9 1164.23L1648.64 1164.45L1648.61 1164.79L1561.23 1985.36Z" stroke="white" stroke-opacity="0.4" stroke-width="1.56103"/>
<path d="M1010.92 855.535L2234.91 931.462L2165.98 2227.08L1581.62 2190.83L1616.08 1543.02L1616.18 1541.18L1614.87 1542.47L994.844 2154.4C994.713 2154.38 994.545 2154.35 994.342 2154.31C993.774 2154.2 992.923 2154.04 991.805 2153.81C989.568 2153.34 986.256 2152.59 981.967 2151.48C973.389 2149.26 960.901 2145.57 945.284 2139.72C914.049 2128.01 870.294 2107.62 820.251 2072.92C705.867 1993.61 514.204 1781.9 533.431 1472.86C548.767 1226.29 668.168 1071.96 783.737 979.261C841.533 932.909 898.366 901.966 940.75 882.611C961.941 872.934 979.519 866.155 991.796 861.796C997.934 859.617 1002.75 858.043 1006.02 857.014C1007.66 856.5 1008.92 856.121 1009.76 855.871C1010.18 855.748 1010.5 855.655 1010.71 855.594C1010.8 855.569 1010.87 855.549 1010.92 855.535ZM965.508 2033.18L965.946 2033.37L966.283 2033.03L1173.26 1828.75L1173.46 1828.56L1173.47 1828.28L1218.81 976.161L1218.85 975.449L1218.14 975.405L1025.33 963.445L1025.18 963.435L1025.04 963.487C959.245 988.097 897.893 1023.42 843.388 1068.08L843.386 1068.08C717.983 1171.27 649.024 1309.99 638.411 1480.35C631.271 1595.06 657.684 1704.17 716.888 1804.63C779.487 1910.83 856.873 1969.38 879.113 1984.8C906.259 2003.82 935.202 2020.03 965.508 2033.18ZM1284.83 1716.89L1284.74 1718.73L1286.04 1717.45L1988.28 1024.37L1989.42 1023.25L1987.82 1023.15L1324.64 982.012L1323.93 981.968L1323.9 982.68L1284.83 1716.89ZM1692.42 2089.98L1692.38 2090.69L1693.09 2090.73L2065.86 2113.86L2066.56 2113.9L2066.6 2113.19L2123.58 1042.15L2123.68 1040.3L2122.38 1041.59L1727.65 1431.16L1727.46 1431.35L1727.44 1431.63L1692.42 2089.98Z" stroke="white" stroke-opacity="0.4" stroke-width="1.24938"/>
<path d="M1203.38 1216.65L2187.21 1216.65L2187.21 2252.74L1717.51 2252.74L1717.51 1734.7L1717.51 1733.22L1716.51 1734.31L1245.86 2252.71C1245.76 2252.7 1245.62 2252.68 1245.46 2252.66C1245 2252.6 1244.31 2252.52 1243.4 2252.39C1241.59 2252.12 1238.91 2251.69 1235.42 2251.02C1228.46 2249.67 1218.3 2247.35 1205.53 2243.46C1180.01 2235.67 1144.09 2221.58 1102.52 2196.4C1007.5 2138.84 844.925 1979.57 847.157 1732.3C848.933 1535.01 938.013 1406.1 1026.65 1326.5C1070.98 1286.7 1115.19 1259.23 1148.32 1241.7C1164.88 1232.94 1178.68 1226.67 1188.33 1222.59C1193.15 1220.55 1196.94 1219.06 1199.52 1218.08C1200.81 1217.58 1201.8 1217.22 1202.47 1216.98C1202.8 1216.86 1203.05 1216.77 1203.22 1216.71C1203.29 1216.69 1203.34 1216.67 1203.38 1216.65ZM1217.2 2157.54L1217.55 2157.67L1217.81 2157.38L1374.92 1984.33L1375.07 1984.17L1375.07 1983.95L1375.07 1302.52L1375.07 1301.95L1374.5 1301.95L1219.53 1301.95L1219.41 1301.95L1219.3 1302C1167.63 1324.87 1119.99 1356.06 1078.22 1394.35L1078.22 1394.35C982.155 1482.79 932.822 1596.77 931.581 1733.08C930.749 1824.87 956.56 1910.53 1008.27 1987.67C1062.95 2069.22 1127.44 2112.06 1145.92 2123.25C1168.48 2137.07 1192.36 2148.56 1217.2 2157.54ZM1459.54 1889.65L1459.54 1891.13L1460.53 1890.04L1993.58 1302.9L1994.45 1301.95L1993.16 1301.95L1460.11 1301.95L1459.54 1301.95L1459.54 1302.52L1459.54 1889.65ZM1801.97 2166.87L1801.97 2167.44L1802.54 2167.44L2102.17 2167.44L2102.74 2167.44L2102.74 2166.87L2102.74 1310.38L2102.74 1308.9L2101.75 1310L1802.12 1640.02L1801.97 1640.18L1801.97 1640.4L1801.97 2166.87Z" stroke="white" stroke-opacity="0.4"/>
<path d="M1090.25 5128.04L-891.572 3887.43L276.943 2084.45L1223.11 2676.75L638.855 3578.24L637.192 3580.81L640.419 3580.16L2173.15 3271.54C2173.35 3271.7 2173.61 3271.9 2173.92 3272.14C2174.78 3272.81 2176.07 3273.84 2177.74 3275.21C2181.1 3277.95 2186.02 3282.08 2192.28 3287.65C2204.8 3298.77 2222.65 3315.63 2243.96 3338.5C2286.59 3384.24 2343.06 3454.05 2398.4 3550.3C2524.89 3770.28 2672.76 4252.44 2389.38 4679.92C2163.3 5021 1838.47 5133 1570.14 5159.75C1435.96 5173.11 1315.92 5165.17 1229.42 5153.88C1186.17 5148.24 1151.31 5141.76 1127.27 5136.7C1115.25 5134.16 1105.93 5131.98 1099.62 5130.44C1096.47 5129.66 1094.07 5129.05 1092.46 5128.63C1091.65 5128.42 1091.04 5128.26 1090.64 5128.15C1090.47 5128.1 1090.34 5128.07 1090.25 5128.04ZM2123.57 3473.31L2122.99 3472.63L2122.16 3472.8L1610.49 3575.83L1610.01 3575.92L1609.76 3576.31L841.235 4762.12L840.593 4763.11L841.74 4763.82L1153.92 4959.25L1154.16 4959.4L1154.44 4959.46C1284.3 4984.81 1415.46 4990.62 1542.77 4976.65L1542.77 4976.65C1836.04 4943.88 2063.97 4807.74 2220.2 4572.1C2325.39 4413.43 2370 4231.82 2352.84 4032.37C2334.67 3821.5 2253.07 3665.63 2228.48 3622.86C2198.62 3570.36 2163.48 3520.26 2123.57 3473.31ZM1333.27 3633.88L1334.93 3631.31L1331.7 3631.96L-404.263 3981.5L-407.077 3982.07L-404.487 3983.69L669.294 4655.87L670.441 4656.59L671.083 4655.6L1333.27 3633.88ZM956.119 2719.66L956.761 2718.67L955.615 2717.95L352.046 2340.12L350.899 2339.4L350.257 2340.39L-615.712 3830.85L-617.375 3833.41L-614.148 3832.76L361.627 3636.29L362.109 3636.2L362.357 3635.81L956.119 2719.66Z" stroke="white" stroke-opacity="0.4" stroke-width="1.68124"/>
<path d="M1062.53 4429.87L-580.057 3520.61L262.348 2027.87L1046.56 2461.97L625.36 3208.34L624.161 3210.47L626.703 3209.81L1833.99 2897.91C1834.16 2898.03 1834.37 2898.17 1834.63 2898.35C1835.35 2898.86 1836.43 2899.62 1837.83 2900.65C1840.65 2902.7 1844.78 2905.8 1850.05 2909.99C1860.59 2918.37 1875.66 2931.11 1893.8 2948.51C1930.08 2983.33 1978.6 3036.82 2027.53 3111.53C2139.38 3282.27 2281.32 3661.98 2076.54 4016.18C1913.17 4298.78 1659.63 4402.18 1446.92 4434.94C1340.55 4451.32 1244.4 4450.04 1174.83 4444.67C1140.05 4441.98 1111.93 4438.27 1092.5 4435.23C1082.78 4433.71 1075.24 4432.36 1070.13 4431.39C1067.58 4430.9 1065.63 4430.52 1064.33 4430.25C1063.68 4430.11 1063.18 4430.01 1062.85 4429.94C1062.72 4429.91 1062.61 4429.89 1062.53 4429.87ZM1804.47 3061.52L1803.98 3061.01L1803.32 3061.18L1400.3 3165.3L1399.92 3165.39L1399.74 3165.71L845.697 4147.48L845.234 4148.3L846.185 4148.83L1104.93 4292.06L1105.13 4292.17L1105.35 4292.2C1210.21 4307 1315.11 4306.1 1415.97 4289.53L1415.98 4289.53C1648.28 4250.89 1823.32 4132.27 1936.22 3937.03C2012.24 3805.56 2038.79 3658.29 2015.17 3499.35C1990.19 3331.32 1917.35 3210 1895.6 3176.8C1869.17 3136.04 1838.64 3097.42 1804.47 3061.52ZM1182.05 3223.5L1183.25 3221.38L1180.7 3222.03L-186.657 3575.29L-188.873 3575.87L-186.727 3577.05L703.256 4069.71L704.207 4070.23L704.67 4069.41L1182.05 3223.5ZM835.72 2507.62L836.183 2506.8L835.233 2506.27L334.976 2229.35L334.026 2228.83L333.563 2229.65L-362.823 3463.64L-364.021 3465.76L-361.48 3465.11L407.107 3266.54L407.487 3266.45L407.666 3266.13L835.72 2507.62Z" stroke="white" stroke-opacity="0.4" stroke-width="1.34562"/>
<path d="M1005.69 3872.15L-349.808 3213.79L247.896 1983.19L895.046 2297.51L596.194 2912.81L595.343 2914.56L597.338 2913.93L1544.85 2613.16C1544.99 2613.25 1545.17 2613.36 1545.38 2613.49C1545.98 2613.86 1546.88 2614.43 1548.05 2615.19C1550.4 2616.71 1553.85 2619.02 1558.26 2622.15C1567.08 2628.41 1579.74 2637.97 1595.08 2651.14C1625.75 2677.47 1667.12 2718.24 1709.86 2775.97C1807.57 2907.92 1939.69 3205.88 1793.96 3498.08C1677.7 3731.22 1480.6 3824.72 1312.56 3859.95C1228.53 3877.56 1151.76 3880.61 1096.01 3879.25C1068.13 3878.57 1045.51 3876.79 1029.86 3875.18C1022.03 3874.37 1015.95 3873.61 1011.83 3873.05C1009.77 3872.77 1008.19 3872.54 1007.14 3872.38C1006.61 3872.3 1006.21 3872.24 1005.95 3872.2C1005.84 3872.18 1005.76 3872.17 1005.69 3872.15ZM1529.45 2745.38L1529.03 2744.99L1528.51 2745.15L1212.21 2845.56L1211.91 2845.65L1211.78 2845.91L818.675 3655.27L818.346 3655.95L819.131 3656.33L1032.65 3760.04L1032.82 3760.12L1033 3760.14C1117.37 3767.55 1201.01 3762.39 1280.64 3744.86L1280.64 3744.86C1464.03 3704.1 1597.75 3601.73 1678.1 3440.66C1732.19 3332.2 1746.04 3213.19 1719.3 3086.96C1691.01 2953.5 1626.87 2859.46 1607.87 2833.81C1584.76 2802.3 1558.49 2772.67 1529.45 2745.38ZM1041.01 2901.38L1041.86 2899.63L1039.86 2900.27L-33.2802 3240.92L-35.0199 3241.47L-33.2488 3242.33L701.183 3599.04L701.968 3599.43L702.296 3598.75L1041.01 2901.38ZM729.132 2342.97L729.461 2342.29L728.676 2341.91L315.855 2141.4L315.07 2141.02L314.742 2141.7L-179.359 3158.99L-180.21 3160.74L-178.215 3160.11L424.993 2968.64L425.291 2968.54L425.418 2968.28L729.132 2342.97Z" stroke="white" stroke-opacity="0.4" stroke-width="1.07703"/>
<path d="M558.542 5328.18L2434.15 5682.17L2112.78 7688.29L1217.32 7519.29L1378 6516.23L1378.46 6513.37L1376.23 6515.13L318.17 7349.53C317.972 7349.47 317.719 7349.39 317.412 7349.3C316.553 7349.02 315.267 7348.6 313.582 7348.02C310.207 7346.87 305.222 7345.07 298.789 7342.51C285.925 7337.4 267.273 7329.25 244.153 7317.11C197.912 7292.84 133.795 7252.64 62.3545 7188.92C-100.938 7043.28 -361.475 6676.41 -280.522 6198.43C-215.941 5817.07 -6.13031 5599.52 187.539 5477.29C284.392 5416.17 377.202 5378.88 445.799 5356.87C480.096 5345.87 508.338 5338.69 527.999 5334.26C537.831 5332.04 545.518 5330.52 550.743 5329.54C553.355 5329.06 555.354 5328.71 556.696 5328.48C557.367 5328.37 557.875 5328.29 558.214 5328.23C558.352 5328.21 558.46 5328.19 558.542 5328.18ZM293.035 7154.94L293.678 7155.32L294.254 7154.87L647.461 6876.32L647.794 6876.06L647.862 6875.63L859.225 5556.21L859.402 5555.11L858.317 5554.91L562.866 5499.15L562.638 5499.1L562.413 5499.16C456.823 5524.85 356.315 5568.09 264.819 5627.2L264.816 5627.21C54.2361 5763.89 -75.1695 5966.84 -119.816 6230.32C-149.87 6407.74 -127.232 6582.89 -52.572 6750.86C26.3719 6928.44 136.035 7034.59 167.785 7062.91C206.505 7097.78 248.465 7128.62 293.035 7154.94ZM838.143 6723.45L837.686 6726.3L839.915 6724.55L2038.26 5779.5L2040.21 5777.97L2037.76 5777.5L1021.52 5585.71L1020.44 5585.5L1020.26 5586.61L838.143 6723.45ZM1404.98 7383.42L1404.81 7384.52L1405.89 7384.73L1977.12 7492.54L1978.2 7492.74L1978.38 7491.64L2244.04 5833.25L2244.5 5830.39L2242.27 5832.15L1568.68 6363.35L1568.35 6363.62L1568.28 6364.04L1404.98 7383.42Z" stroke="white" stroke-opacity="0.4" stroke-width="1.95049"/>
<path d="M795.506 5928.09L2313.23 6117.49L2141.27 7732.36L1416.67 7641.93L1502.65 6834.5L1502.89 6832.2L1501.19 6833.71L689.089 7551.09C688.928 7551.05 688.722 7551 688.472 7550.94C687.772 7550.76 686.724 7550.49 685.349 7550.11C682.596 7549.36 678.526 7548.17 673.263 7546.45C662.739 7543.01 647.449 7537.43 628.409 7528.9C590.329 7511.85 537.249 7482.98 477.298 7435.72C340.27 7327.71 115.905 7048.18 160.387 6663.2C195.871 6356.05 354.687 6172.28 504.634 6065.27C579.623 6011.77 652.387 5977.46 706.405 5956.53C733.413 5946.06 755.733 5938.94 771.296 5934.44C779.078 5932.19 785.171 5930.59 789.316 5929.56C791.387 5929.04 792.974 5928.66 794.04 5928.42C794.572 5928.29 794.976 5928.2 795.245 5928.14C795.355 5928.12 795.44 5928.1 795.506 5928.09ZM660.658 7397.23L661.19 7397.5L661.632 7397.11L932.729 7157.63L932.985 7157.41L933.021 7157.06L1046.12 6094.97L1046.21 6094.09L1045.33 6093.98L806.257 6064.14L806.073 6064.12L805.894 6064.17C722.397 6089.87 643.718 6129.31 572.936 6180.94L572.934 6180.95C410.055 6300.3 315.033 6468.46 290.495 6680.68C273.98 6823.57 299.581 6962.05 366.554 7092.24C437.369 7229.88 529.749 7309.07 556.393 7330.07C588.899 7355.95 623.829 7378.45 660.658 7397.23ZM1078.98 7026.36L1078.73 7028.66L1080.44 7027.15L2000.21 6214.65L2001.7 6213.33L1999.72 6213.08L1177.4 6110.46L1176.52 6110.35L1176.42 6111.23L1078.98 7026.36ZM1561.23 7524.36L1561.13 7525.25L1562.01 7525.36L2024.24 7583.04L2025.12 7583.15L2025.21 7582.27L2167.36 6247.31L2167.61 6245.02L2165.9 6246.53L1648.9 6703.22L1648.64 6703.45L1648.61 6703.79L1561.23 7524.36Z" stroke="white" stroke-opacity="0.4" stroke-width="1.56103"/>
<path d="M1010.92 6394.53L2234.91 6470.46L2165.98 7766.08L1581.62 7729.83L1616.08 7082.02L1616.18 7080.18L1614.87 7081.47L994.844 7693.4C994.713 7693.37 994.545 7693.34 994.342 7693.31C993.774 7693.2 992.923 7693.04 991.805 7692.8C989.568 7692.34 986.256 7691.59 981.967 7690.48C973.389 7688.26 960.901 7684.57 945.284 7678.72C914.049 7667.01 870.294 7646.62 820.251 7611.92C705.867 7532.61 514.204 7320.9 533.431 7011.86C548.767 6765.29 668.168 6610.96 783.737 6518.26C841.533 6471.91 898.366 6440.97 940.75 6421.61C961.941 6411.93 979.519 6405.15 991.796 6400.8C997.934 6398.62 1002.75 6397.04 1006.02 6396.01C1007.66 6395.5 1008.92 6395.12 1009.76 6394.87C1010.18 6394.75 1010.5 6394.65 1010.71 6394.59C1010.8 6394.57 1010.87 6394.55 1010.92 6394.53ZM965.508 7572.17L965.946 7572.36L966.283 7572.03L1173.26 7367.75L1173.46 7367.56L1173.47 7367.28L1218.81 6515.16L1218.85 6514.45L1218.14 6514.4L1025.33 6502.44L1025.18 6502.43L1025.04 6502.49C959.245 6527.1 897.893 6562.42 843.388 6607.08L843.386 6607.08C717.983 6710.26 649.024 6848.99 638.411 7019.35C631.271 7134.06 657.684 7243.17 716.888 7343.63C779.487 7449.83 856.873 7508.38 879.113 7523.8C906.259 7542.82 935.202 7559.03 965.508 7572.17ZM1284.83 7255.89L1284.74 7257.73L1286.04 7256.44L1988.28 6563.37L1989.42 6562.25L1987.82 6562.15L1324.64 6521.01L1323.93 6520.97L1323.9 6521.68L1284.83 7255.89ZM1692.42 7628.98L1692.38 7629.69L1693.09 7629.73L2065.86 7652.86L2066.56 7652.9L2066.6 7652.19L2123.58 6581.14L2123.68 6579.3L2122.38 6580.59L1727.65 6970.16L1727.46 6970.35L1727.44 6970.63L1692.42 7628.98Z" stroke="white" stroke-opacity="0.4" stroke-width="1.24938"/>
<path d="M1203.38 6755.65L2187.21 6755.65L2187.21 7791.74L1717.51 7791.74L1717.51 7273.69L1717.51 7272.22L1716.51 7273.31L1245.86 7791.71C1245.76 7791.7 1245.62 7791.68 1245.46 7791.66C1245 7791.6 1244.31 7791.52 1243.4 7791.38C1241.59 7791.12 1238.91 7790.69 1235.42 7790.02C1228.46 7788.67 1218.3 7786.35 1205.53 7782.46C1180.01 7774.67 1144.09 7760.58 1102.52 7735.39C1007.5 7677.84 844.925 7518.57 847.157 7271.3C848.933 7074.01 938.013 6945.1 1026.65 6865.5C1070.98 6825.7 1115.19 6798.23 1148.32 6780.7C1164.88 6771.94 1178.68 6765.67 1188.33 6761.59C1193.15 6759.55 1196.94 6758.06 1199.52 6757.07C1200.81 6756.58 1201.8 6756.22 1202.47 6755.98C1202.8 6755.86 1203.05 6755.77 1203.22 6755.71C1203.29 6755.69 1203.34 6755.67 1203.38 6755.65ZM1217.2 7696.54L1217.55 7696.67L1217.81 7696.38L1374.92 7523.33L1375.07 7523.17L1375.07 7522.95L1375.07 6841.52L1375.07 6840.95L1374.5 6840.95L1219.53 6840.95L1219.41 6840.95L1219.3 6841C1167.63 6863.87 1119.99 6895.06 1078.22 6933.35L1078.22 6933.35C982.155 7021.79 932.822 7135.77 931.581 7272.08C930.749 7363.87 956.56 7449.52 1008.27 7526.67C1062.95 7608.22 1127.44 7651.06 1145.92 7662.25C1168.48 7676.07 1192.36 7687.56 1217.2 7696.54ZM1459.54 7428.65L1459.54 7430.13L1460.53 7429.04L1993.58 6841.9L1994.45 6840.95L1993.16 6840.95L1460.11 6840.95L1459.54 6840.95L1459.54 6841.52L1459.54 7428.65ZM1801.97 7705.87L1801.97 7706.44L1802.54 7706.44L2102.17 7706.44L2102.74 7706.44L2102.74 7705.87L2102.74 6849.38L2102.74 6847.9L2101.75 6849L1802.12 7179.02L1801.97 7179.18L1801.97 7179.4L1801.97 7705.87Z" stroke="white" stroke-opacity="0.4"/>
<path d="M1090.25 10667L-891.572 9426.43L276.943 7623.45L1223.11 8215.75L638.855 9117.24L637.192 9119.81L640.419 9119.16L2173.15 8810.54C2173.35 8810.7 2173.61 8810.9 2173.92 8811.14C2174.78 8811.81 2176.07 8812.84 2177.74 8814.21C2181.1 8816.95 2186.02 8821.08 2192.28 8826.65C2204.8 8837.77 2222.65 8854.63 2243.96 8877.5C2286.59 8923.24 2343.06 8993.05 2398.4 9089.3C2524.89 9309.28 2672.76 9791.44 2389.38 10218.9C2163.3 10560 1838.47 10672 1570.14 10698.7C1435.96 10712.1 1315.92 10704.2 1229.42 10692.9C1186.17 10687.2 1151.31 10680.8 1127.27 10675.7C1115.25 10673.2 1105.93 10671 1099.62 10669.4C1096.47 10668.7 1094.07 10668 1092.46 10667.6C1091.65 10667.4 1091.04 10667.3 1090.64 10667.1C1090.47 10667.1 1090.34 10667.1 1090.25 10667ZM2123.57 9012.31L2122.99 9011.63L2122.16 9011.8L1610.49 9114.82L1610.01 9114.92L1609.76 9115.31L841.235 10301.1L840.593 10302.1L841.74 10302.8L1153.92 10498.2L1154.16 10498.4L1154.44 10498.5C1284.3 10523.8 1415.46 10529.6 1542.77 10515.7L1542.77 10515.6C1836.04 10482.9 2063.97 10346.7 2220.2 10111.1C2325.39 9952.43 2370 9770.82 2352.84 9571.37C2334.67 9360.5 2253.07 9204.63 2228.48 9161.86C2198.62 9109.36 2163.48 9059.26 2123.57 9012.31ZM1333.27 9172.88L1334.93 9170.31L1331.7 9170.96L-404.263 9520.5L-407.077 9521.07L-404.487 9522.69L669.294 10194.9L670.441 10195.6L671.083 10194.6L1333.27 9172.88ZM956.119 8258.66L956.761 8257.67L955.615 8256.95L352.046 7879.12L350.899 7878.4L350.257 7879.39L-615.712 9369.85L-617.375 9372.41L-614.148 9371.76L361.627 9175.29L362.109 9175.2L362.357 9174.81L956.119 8258.66Z" stroke="white" stroke-opacity="0.4" stroke-width="1.68124"/>
<path d="M1062.53 9968.87L-580.057 9059.61L262.348 7566.87L1046.56 8000.97L625.36 8747.34L624.161 8749.47L626.703 8748.81L1833.99 8436.91C1834.16 8437.03 1834.37 8437.17 1834.63 8437.35C1835.35 8437.86 1836.43 8438.62 1837.83 8439.65C1840.65 8441.7 1844.78 8444.8 1850.05 8448.99C1860.59 8457.37 1875.66 8470.11 1893.8 8487.51C1930.08 8522.32 1978.6 8575.82 2027.53 8650.53C2139.38 8821.27 2281.32 9200.98 2076.54 9555.18C1913.17 9837.78 1659.63 9941.18 1446.92 9973.94C1340.55 9990.32 1244.4 9989.04 1174.83 9983.67C1140.05 9980.98 1111.93 9977.27 1092.5 9974.23C1082.78 9972.71 1075.24 9971.36 1070.13 9970.39C1067.58 9969.9 1065.63 9969.51 1064.33 9969.25C1063.68 9969.11 1063.18 9969.01 1062.85 9968.94C1062.72 9968.91 1062.61 9968.89 1062.53 9968.87ZM1804.47 8600.52L1803.98 8600L1803.32 8600.17L1400.3 8704.3L1399.92 8704.39L1399.74 8704.71L845.697 9686.48L845.234 9687.3L846.185 9687.83L1104.93 9831.06L1105.13 9831.17L1105.35 9831.2C1210.21 9846 1315.11 9845.1 1415.97 9828.53L1415.98 9828.53C1648.28 9789.89 1823.32 9671.27 1936.22 9476.03C2012.24 9344.56 2038.79 9197.29 2015.17 9038.35C1990.19 8870.32 1917.35 8749 1895.6 8715.8C1869.17 8675.04 1838.64 8636.42 1804.47 8600.52ZM1182.05 8762.5L1183.25 8760.38L1180.7 8761.03L-186.657 9114.29L-188.873 9114.87L-186.727 9116.05L703.256 9608.71L704.207 9609.23L704.67 9608.41L1182.05 8762.5ZM835.72 8046.62L836.183 8045.8L835.233 8045.27L334.976 7768.35L334.026 7767.83L333.563 7768.65L-362.823 9002.64L-364.021 9004.76L-361.48 9004.11L407.107 8805.54L407.487 8805.45L407.666 8805.13L835.72 8046.62Z" stroke="white" stroke-opacity="0.4" stroke-width="1.34562"/>
<path d="M1005.69 9411.15L-349.808 8752.79L247.896 7522.19L895.046 7836.51L596.194 8451.81L595.343 8453.56L597.338 8452.93L1544.85 8152.16C1544.99 8152.25 1545.17 8152.35 1545.38 8152.49C1545.98 8152.86 1546.88 8153.43 1548.05 8154.19C1550.4 8155.71 1553.85 8158.02 1558.26 8161.15C1567.08 8167.41 1579.74 8176.97 1595.08 8190.14C1625.75 8216.47 1667.12 8257.24 1709.86 8314.97C1807.57 8446.92 1939.69 8744.88 1793.96 9037.08C1677.7 9270.22 1480.6 9363.72 1312.56 9398.95C1228.53 9416.56 1151.76 9419.61 1096.01 9418.25C1068.13 9417.57 1045.51 9415.79 1029.86 9414.18C1022.03 9413.37 1015.95 9412.61 1011.83 9412.05C1009.77 9411.77 1008.19 9411.54 1007.14 9411.38C1006.61 9411.3 1006.21 9411.24 1005.95 9411.2C1005.84 9411.18 1005.76 9411.17 1005.69 9411.15ZM1529.45 8284.38L1529.03 8283.99L1528.51 8284.15L1212.21 8384.56L1211.91 8384.65L1211.78 8384.91L818.675 9194.27L818.346 9194.95L819.131 9195.33L1032.65 9299.04L1032.82 9299.12L1033 9299.14C1117.37 9306.55 1201.01 9301.39 1280.64 9283.86L1280.64 9283.86C1464.03 9243.1 1597.75 9140.73 1678.1 8979.66C1732.19 8871.2 1746.04 8752.19 1719.3 8625.96C1691.01 8492.5 1626.87 8398.46 1607.87 8372.81C1584.76 8341.3 1558.49 8311.67 1529.45 8284.38ZM1041.01 8440.38L1041.86 8438.63L1039.86 8439.27L-33.2802 8779.92L-35.0199 8780.47L-33.2488 8781.33L701.183 9138.04L701.968 9138.42L702.296 9137.75L1041.01 8440.38ZM729.132 7881.97L729.461 7881.29L728.676 7880.91L315.855 7680.4L315.07 7680.02L314.742 7680.7L-179.359 8697.99L-180.21 8699.74L-178.215 8699.11L424.993 8507.63L425.291 8507.54L425.418 8507.28L729.132 7881.97Z" stroke="white" stroke-opacity="0.4" stroke-width="1.07703"/>
</g>
<defs>
<clipPath id="clip0_91_31">
<rect width="2000" height="11330" fill="white"/>
</clipPath>
</defs>
</svg>
