<svg width="384" height="51" viewBox="0 0 384 51" fill="none" xmlns="http://www.w3.org/2000/svg">
<g clip-path="url(#clip0_269_14)">
<path fill-rule="evenodd" clip-rule="evenodd" d="M0 50.0909V0H22.7567V25.0455L45.5136 0C45.5136 0 48.4444 0.289878 52.4671 2.72485C57.0644 5.50768 64.9304 13.2068 64.8224 25.1614C64.65 44.2354 47.5824 50.0909 47.5824 50.0909H0ZM46.9009 4.6508C48.0996 5.08391 49.2521 5.63787 50.3408 6.30427C51.2315 6.84344 54.3451 8.90969 56.9851 12.8439C59.4815 16.5648 60.7274 20.6961 60.6871 25.1231C60.6274 31.6987 58.2459 37.196 53.6084 41.4618C51.5921 43.3089 49.2917 44.8135 46.7974 45.9167H39.3072V13.0082L46.9009 4.6508ZM35.1696 17.562L9.40614 45.9167H35.1696V17.562ZM18.6192 4.17424V29.5992L4.1376 45.5372V4.17424H18.6192Z" fill="white"/>
</g>
<path d="M80.8621 7.312H82.7701V23.764H80.8621V20.902C79.3741 21.55 77.8501 22.102 76.2901 22.558L75.8221 20.686C77.5741 20.314 79.2541 19.762 80.8621 19.03V13.846H76.2001V12.064H80.8621V7.312ZM86.9461 23.584C85.5781 23.584 84.8941 22.882 84.8941 21.478V7.312H86.7841V13C88.2841 12.448 89.6941 11.734 91.0141 10.858L92.0941 12.388C90.1861 13.468 88.4161 14.272 86.7841 14.8V21.19C86.7841 21.622 86.9761 21.838 87.3601 21.838H89.5561C89.8681 21.838 90.1021 21.706 90.2581 21.442C90.3781 21.154 90.4681 20.188 90.5281 18.544L92.2921 19.12C92.1841 21.22 91.9681 22.492 91.6441 22.936C91.3201 23.368 90.7321 23.584 89.8801 23.584H86.9461ZM95.9821 11.902H108.024V17.518H103.002V21.892C103.002 23.116 102.366 23.728 101.094 23.728H99.1501L98.7181 21.928C99.4381 22.012 100.014 22.054 100.446 22.054C100.902 22.054 101.13 21.844 101.13 21.424V17.518H95.9821V11.902ZM106.152 15.7V13.72H97.8541V15.7H106.152ZM102.138 7.168C102.378 7.732 102.606 8.332 102.822 8.968H110.04V10.714H93.9481V8.968H100.878C100.638 8.368 100.41 7.876 100.194 7.492L102.138 7.168ZM106.17 18.256C107.718 19.552 109.032 20.83 110.112 22.09L108.726 23.476C107.814 22.228 106.542 20.89 104.91 19.462L106.17 18.256ZM99.0961 19.426C97.9561 21.01 96.5941 22.372 95.0101 23.512L93.8221 21.964C95.3821 20.92 96.6961 19.684 97.7641 18.256L99.0961 19.426ZM118.464 7.78H127.464V16.51H123.918V18.166H127.644V19.912H123.918V21.586H128.22V23.404H117.744V21.586H122.046V19.912H118.284V18.166H122.046V16.51H118.464V7.78ZM125.664 14.854V12.946H123.918V14.854H125.664ZM122.046 14.854V12.946H120.264V14.854H122.046ZM120.264 11.344H122.046V9.436H120.264V11.344ZM123.918 9.436V11.344H125.664V9.436H123.918ZM112.092 13.684H113.802V10.012H111.822V8.23H117.672V10.012H115.71V13.684H117.456V15.484H115.71V18.832C116.382 18.58 117.006 18.328 117.582 18.076V19.876C115.938 20.572 114.114 21.178 112.11 21.694L111.642 19.894C112.278 19.786 112.998 19.63 113.802 19.426V15.484H112.092V13.684ZM137.112 10.048H131.046V8.23H145.104V10.048H139.02V21.334H145.878V23.17H130.11V21.334H137.112V10.048ZM148.02 11.74H154.842C154.962 10.744 155.028 9.778 155.04 8.842V7.222H156.948V8.41C156.948 9.538 156.882 10.648 156.75 11.74H163.968V13.576H157.182C158.478 17.332 160.878 20.236 164.382 22.288L163.194 23.836C159.798 21.736 157.416 18.838 156.048 15.142C154.824 19.15 152.412 22.102 148.812 23.998L147.606 22.414C151.242 20.65 153.546 17.704 154.518 13.576H148.02V11.74ZM181.86 10.696V15.178H179.988V12.496H167.982V15.178H166.128V10.696H169.296C168.732 9.736 168.168 8.914 167.604 8.23L169.314 7.402C169.878 8.158 170.466 9.076 171.078 10.156L169.998 10.696H173.562C173.034 9.616 172.476 8.668 171.888 7.852L173.598 7.024C174.234 7.984 174.798 8.956 175.29 9.94L173.796 10.696H176.55C177.258 9.604 177.876 8.416 178.404 7.132L180.348 7.852C179.748 9.016 179.166 9.964 178.602 10.696H181.86ZM169.116 13.468H178.89V15.124C177.774 15.844 176.532 16.546 175.164 17.23V17.734H181.806V19.498H175.164V22.126C175.164 23.254 174.57 23.818 173.382 23.818H171.078L170.61 22.108C171.258 22.144 171.966 22.162 172.734 22.162C173.094 22.162 173.274 21.94 173.274 21.496V19.498H166.236V17.734H173.274V16.402C174.618 15.826 175.572 15.4 176.136 15.124H169.116V13.468ZM193.488 14.134C193.872 14.134 194.196 14.272 194.46 14.548C194.736 14.8 194.874 15.124 194.874 15.52C194.874 15.892 194.736 16.216 194.46 16.492C194.184 16.768 193.86 16.906 193.488 16.906C193.092 16.906 192.768 16.768 192.516 16.492C192.24 16.228 192.102 15.904 192.102 15.52C192.102 15.112 192.24 14.788 192.516 14.548C192.756 14.272 193.08 14.134 193.488 14.134ZM207.402 9.976C207.138 10.36 206.79 10.768 206.358 11.2H208.698C208.77 10.792 208.824 10.384 208.86 9.976H207.402ZM204.936 12.91V11.2H205.728L204.846 10.102C205.662 9.394 206.388 8.368 207.024 7.024L208.716 7.402C208.548 7.834 208.416 8.146 208.32 8.338H213.162V9.976H210.624C210.576 10.492 210.534 10.9 210.498 11.2H213.666V12.91H210.12L210.066 13.072C211.434 13.768 212.556 14.446 213.432 15.106L212.37 16.168H219.282V23.926H217.374V23.26H209.058V23.926H207.168V16.6C206.664 16.888 206.214 17.134 205.818 17.338L204.558 15.808C206.394 14.992 207.594 14.026 208.158 12.91H204.936ZM209.058 21.604H217.374V20.56H209.058V21.604ZM209.058 18.94H217.374V17.824H209.058V18.94ZM211.794 16.168C211.182 15.616 210.402 15.046 209.454 14.458C209.034 15.07 208.482 15.64 207.798 16.168H211.794ZM214.152 8.392H220.596V15.286H214.152V8.392ZM218.76 13.648V10.048H215.988V13.648H218.76ZM225.528 17.86V19.03H229.056V17.86H225.528ZM229.056 16.312V15.07H225.528V16.312H229.056ZM225.528 20.578V23.908H223.71V13.45H230.874V21.802C230.874 23.122 230.262 23.782 229.038 23.782H227.652L227.202 22.036L228.444 22.126C228.852 22.126 229.056 21.886 229.056 21.406V20.578H225.528ZM234.024 15.25C232.716 15.25 232.062 14.518 232.062 13.054V7.294H233.916V9.346C235.776 9.046 237.252 8.752 238.344 8.464L238.956 10.12C237.468 10.444 235.788 10.75 233.916 11.038V12.658C233.916 13.258 234.126 13.558 234.546 13.558H236.598C236.85 13.558 237.036 13.468 237.156 13.288C237.288 13.084 237.372 12.502 237.408 11.542L239.154 12.118C239.01 13.618 238.776 14.524 238.452 14.836C238.116 15.112 237.618 15.25 236.958 15.25H234.024ZM233.916 21.478C233.916 21.79 234.12 21.946 234.528 21.946H236.598C236.862 21.946 237.048 21.856 237.156 21.676C237.3 21.484 237.39 20.896 237.426 19.912L239.136 20.47C238.992 21.994 238.758 22.9 238.434 23.188C238.098 23.464 237.606 23.602 236.958 23.602H234.006C232.71 23.602 232.062 23.026 232.062 21.874V15.844H233.916V17.734C235.572 17.554 237.048 17.266 238.344 16.87L238.956 18.544C237.42 18.952 235.74 19.246 233.916 19.426V21.478ZM229.596 8.464C230.604 9.844 231.408 11.074 232.008 12.154L230.46 13.252L229.884 12.136C227.892 12.448 225.666 12.67 223.206 12.802L222.702 11.236C223.05 11.116 223.332 10.96 223.548 10.768C224.592 9.556 225.396 8.362 225.96 7.186L227.76 7.726C227.04 9.13 226.224 10.27 225.312 11.146C226.248 11.086 227.508 10.972 229.092 10.804C228.996 10.648 228.684 10.174 228.156 9.382L229.596 8.464ZM245.922 11.074L245.67 13.342H255.606C255.606 18.622 255.312 21.682 254.724 22.522C254.136 23.326 252.882 23.728 250.962 23.728C250.338 23.728 249.564 23.698 248.64 23.638L248.136 21.928C249.384 22.024 250.2 22.072 250.584 22.072C252.072 22.072 252.96 21.742 253.248 21.082C253.56 20.386 253.716 18.394 253.716 15.106H243.564L244.446 7.15L246.336 7.294L246.12 9.274H256.11V11.074H245.922ZM240.954 17.518H252.33V19.318H240.954V17.518ZM274.308 15.07H271.248V16.06H274.47V17.5H271.248V18.4H275.028V19.912H271.248V21.388H269.466V19.912H266.748V18.4H269.466V17.5H267.324V16.06H269.466V15.07H267.45V13.594H269.466V12.568H266.748V11.092H269.466V10.048H267.45V8.572H269.466V7.33H271.248V8.572H274.308V11.092H275.28V12.568H274.308V15.07ZM271.248 10.048V11.092H272.652V10.048H271.248ZM271.248 12.568V13.594H272.652V12.568H271.248ZM262.842 8.95C262.566 9.814 262.26 10.636 261.924 11.416V23.926H260.124V14.692C259.776 15.196 259.44 15.658 259.116 16.078L258.486 14.062C259.806 12.13 260.784 9.844 261.42 7.204L263.112 7.996L262.896 8.734H266.694V10.264C266.094 11.524 265.458 12.664 264.786 13.684H266.802V14.728C266.742 16.84 266.412 18.634 265.812 20.11C266.34 20.602 266.88 20.968 267.432 21.208C268.368 21.604 269.808 21.838 271.752 21.91C272.508 21.91 273.702 21.886 275.334 21.838L274.992 23.602H272.886C269.598 23.566 267.366 23.218 266.19 22.558C265.722 22.294 265.32 22.012 264.984 21.712C264.408 22.564 263.712 23.284 262.896 23.872L261.978 22.234C262.71 21.73 263.31 21.094 263.778 20.326C263.07 19.282 262.512 18.016 262.104 16.528L263.616 15.934C263.82 16.87 264.15 17.734 264.606 18.526C264.918 17.53 265.11 16.438 265.182 15.25H262.626V13.918C263.382 12.874 264.078 11.734 264.714 10.498H262.842V8.95ZM291.336 17.248H286.962V18.112C287.478 18.592 287.97 19 288.438 19.336C289.338 18.736 290.088 18.07 290.688 17.338L292.02 18.49C291.36 19.138 290.622 19.708 289.806 20.2C290.862 20.8 291.996 21.31 293.208 21.73L292.254 23.404C290.238 22.552 288.474 21.436 286.962 20.056V22.09C286.962 23.218 286.386 23.782 285.234 23.782H283.308L282.93 22.09C283.542 22.162 284.106 22.198 284.622 22.198C284.97 22.198 285.144 22.012 285.144 21.64V20.506C283.692 21.466 282.03 22.33 280.158 23.098L279.438 21.424C280.65 20.992 281.694 20.566 282.57 20.146C281.778 19.642 281.01 19.252 280.266 18.976L281.166 17.662C282.03 17.986 282.822 18.4 283.542 18.904L282.804 20.038C283.728 19.582 284.508 19.144 285.144 18.724V17.248H280.878V15.736H285.144V14.836H279.78C279.672 18.58 279.072 21.58 277.98 23.836L276.558 22.576C277.458 20.608 277.926 17.866 277.962 14.35V8.284H284.694C284.526 7.96 284.364 7.684 284.208 7.456L286.17 7.132C286.338 7.492 286.5 7.876 286.656 8.284H292.776V9.958H286.962V10.876H291.336V13.324H292.956V14.836H291.336V17.248ZM279.798 13.324H285.144V12.388H280.986V10.876H285.144V9.958H279.798V13.324ZM286.962 12.388V13.324H289.554V12.388H286.962ZM289.554 14.836H286.962V15.736H289.554V14.836ZM297.078 7.438C298.254 8.338 299.226 9.208 299.994 10.048L298.716 11.344C298.02 10.504 297.042 9.616 295.782 8.68L297.078 7.438ZM294.684 12.568H298.842V20.038C299.502 19.45 300.06 18.94 300.516 18.508L301.038 20.488C299.898 21.532 298.638 22.498 297.258 23.386L296.538 21.694C296.85 21.418 297.006 21.082 297.006 20.686V14.368H294.684V12.568ZM301.128 14.728H309.912V16.438C309.408 17.998 308.58 19.342 307.428 20.47C308.532 21.178 309.888 21.814 311.496 22.378L310.488 23.998C308.676 23.254 307.194 22.456 306.042 21.604C304.626 22.6 302.904 23.392 300.876 23.98L299.832 22.396C301.68 21.856 303.252 21.172 304.548 20.344C303.372 19.168 302.574 17.896 302.154 16.528H301.128V14.728ZM303.918 16.528C304.326 17.584 304.986 18.514 305.898 19.318C306.81 18.49 307.518 17.56 308.022 16.528H303.918ZM302.352 7.762H308.832V11.488C308.832 11.896 309.054 12.1 309.498 12.1H311.046V13.81H308.994C307.65 13.81 306.978 13.18 306.978 11.92V9.526H304.206V10.012C304.206 11.884 303.246 13.33 301.326 14.35L300.066 12.91C301.59 12.274 302.352 11.374 302.352 10.21V7.762ZM318.354 12.406H322.998V7.186H324.942V12.406H329.352V14.278H324.942V23.926H322.998V14.278H318.354V12.406ZM315.186 7.33C316.302 8.194 317.274 9.07 318.102 9.958L316.806 11.272C316.134 10.456 315.15 9.574 313.854 8.626L315.186 7.33ZM312.684 12.532H316.968V20.056C317.496 19.6 318.054 19.096 318.642 18.544L319.128 20.47C317.94 21.562 316.692 22.534 315.384 23.386L314.664 21.694C314.988 21.418 315.15 21.094 315.15 20.722V14.332H312.684V12.532ZM336.93 7.816H346.236V15.124H342.438V16.384H346.992V18.112H343.914C344.658 19.444 345.852 20.668 347.496 21.784L346.29 23.278C344.514 21.73 343.242 20.008 342.474 18.112H342.438V23.854H340.692V18.112H340.674C339.834 20.188 338.478 21.91 336.606 23.278L335.634 21.694C337.242 20.71 338.436 19.516 339.216 18.112H336.21V16.384H340.692V15.124H336.93V7.816ZM344.526 13.54V12.262H342.438V13.54H344.526ZM340.692 13.54V12.262H338.64V13.54H340.692ZM338.64 10.75H340.692V9.436H338.64V10.75ZM342.438 9.436V10.75H344.526V9.436H342.438ZM333.186 7.348C334.302 8.2 335.268 9.07 336.084 9.958L334.806 11.254C334.158 10.462 333.174 9.586 331.854 8.626L333.186 7.348ZM330.63 12.532H334.77V19.732C335.274 19.252 335.67 18.868 335.958 18.58L336.444 20.506C335.424 21.514 334.344 22.414 333.204 23.206L332.484 21.532C332.808 21.28 332.97 20.962 332.97 20.578V14.332H330.63V12.532ZM360.834 21.856C362.67 21.856 364.152 21.814 365.28 21.73L364.956 23.602H361.266C356.982 23.602 354.294 23.374 353.202 22.918C352.386 22.558 351.654 21.976 351.006 21.172C350.706 22.144 350.31 23.062 349.818 23.926L348.45 22.72C349.338 21.148 349.83 19.396 349.926 17.464L351.582 17.68C351.546 18.34 351.486 18.91 351.402 19.39C351.786 19.882 352.152 20.272 352.5 20.56V16.924H349.098V15.232H356.838V16.924H354.12V18.328H356.388V19.984H354.12V21.406C355.116 21.706 357.354 21.856 360.834 21.856ZM349.764 7.762H356.262V14.422H349.764V7.762ZM354.426 12.874V11.794H351.582V12.874H354.426ZM351.582 10.39H354.426V9.31H351.582V10.39ZM356.946 7.762H364.866V9.454H361.788C361.716 9.898 361.656 10.24 361.608 10.48H364.488V17.914H362.76V12.064H359.052V17.914H357.396V10.48H359.952C360.024 10.024 360.072 9.682 360.096 9.454H356.946V7.762ZM362.436 17.788C363.48 18.58 364.374 19.384 365.118 20.2L363.804 21.514C363.204 20.758 362.328 19.912 361.176 18.976L362.436 17.788ZM360.042 12.676H361.77V15.286C361.698 16.99 361.35 18.34 360.726 19.336C360.102 20.26 359.094 20.974 357.702 21.478L356.676 19.894C357.984 19.426 358.86 18.85 359.304 18.166C359.748 17.422 359.994 16.462 360.042 15.286V12.676ZM373.146 21.136C371.394 22 369.426 22.678 367.242 23.17L367.008 21.298C369.384 20.806 371.43 20.152 373.146 19.336V21.136ZM371.742 7.834C370.866 9.838 369.972 11.488 369.06 12.784C369.9 12.688 370.53 12.61 370.95 12.55L372.03 10.552L373.722 11.2C372.21 13.888 370.926 15.892 369.87 17.212C371.07 16.912 372.216 16.546 373.308 16.114V17.842C371.208 18.61 369.27 19.12 367.494 19.372L367.008 17.644C367.344 17.5 367.626 17.32 367.854 17.104C368.382 16.6 369.072 15.658 369.924 14.278C369.684 14.302 368.784 14.422 367.224 14.638L366.756 12.91C367.056 12.778 367.326 12.538 367.566 12.19C368.49 10.618 369.288 8.932 369.96 7.132L371.742 7.834ZM381.84 7.996V21.442H383.262V23.242H372.678V21.442H374.136V7.996H381.84ZM375.972 21.442H380.004V18.706H375.972V21.442ZM375.972 16.942H380.004V14.17H375.972V16.942ZM375.972 12.406H380.004V9.796H375.972V12.406Z" fill="white"/>
<path d="M79.022 35.004H79.876V44.244H85.882V45H79.022V35.004ZM90.8511 37.566C91.8685 37.566 92.6198 37.8413 93.1051 38.392C93.5345 38.868 93.7491 39.5167 93.7491 40.338V45H92.9511V43.614C92.6525 44.0433 92.2605 44.4027 91.7751 44.692C91.2058 45.028 90.5758 45.196 89.8851 45.196C89.1758 45.196 88.6018 45.014 88.1631 44.65C87.7245 44.2767 87.5051 43.7773 87.5051 43.152C87.5051 42.228 87.8831 41.556 88.6391 41.136C89.2458 40.7907 90.0531 40.618 91.0611 40.618L92.9091 40.604V40.338C92.9091 38.966 92.2091 38.28 90.8091 38.28C90.1651 38.28 89.6611 38.4153 89.2971 38.686C88.8865 38.9567 88.6391 39.3767 88.5551 39.946H87.7291C87.8411 39.134 88.1818 38.5273 88.7511 38.126C89.2738 37.7527 89.9738 37.566 90.8511 37.566ZM92.9091 41.29L91.1031 41.304C89.2738 41.3133 88.3591 41.9247 88.3591 43.138C88.3591 43.5393 88.5131 43.866 88.8211 44.118C89.1198 44.37 89.5305 44.496 90.0531 44.496C90.8091 44.496 91.4811 44.244 92.0691 43.74C92.6291 43.2453 92.9091 42.7087 92.9091 42.13V41.29ZM96.2097 34.808H97.0497V39.288C97.5817 38.14 98.4264 37.566 99.5837 37.566C100.61 37.566 101.413 37.9533 101.992 38.728C102.524 39.428 102.79 40.31 102.79 41.374C102.79 42.4567 102.524 43.348 101.992 44.048C101.394 44.8133 100.582 45.196 99.5557 45.196C98.3517 45.196 97.5024 44.6547 97.0077 43.572V45H96.2097V34.808ZM99.4297 38.28C98.6831 38.28 98.0951 38.5693 97.6657 39.148C97.2364 39.6987 97.0217 40.422 97.0217 41.318V41.486C97.0217 42.3447 97.2224 43.0447 97.6237 43.586C98.0531 44.1833 98.6644 44.482 99.4577 44.482C100.27 44.482 100.9 44.174 101.348 43.558C101.74 43.0073 101.936 42.2793 101.936 41.374C101.936 40.4687 101.735 39.7453 101.334 39.204C100.886 38.588 100.251 38.28 99.4297 38.28ZM113.502 37.566C114.566 37.566 115.42 37.9487 116.064 38.714C116.652 39.4233 116.946 40.3147 116.946 41.388C116.946 42.4427 116.652 43.3293 116.064 44.048C115.411 44.8133 114.557 45.196 113.502 45.196C112.448 45.196 111.594 44.8133 110.94 44.048C110.352 43.3293 110.058 42.4427 110.058 41.388C110.058 40.3147 110.357 39.4233 110.954 38.714C111.58 37.9487 112.429 37.566 113.502 37.566ZM113.502 38.294C112.672 38.294 112.023 38.6113 111.556 39.246C111.127 39.7967 110.912 40.5107 110.912 41.388C110.912 42.256 111.127 42.9653 111.556 43.516C112.032 44.1507 112.681 44.468 113.502 44.468C114.333 44.468 114.986 44.1507 115.462 43.516C115.892 42.928 116.106 42.2187 116.106 41.388C116.106 40.5293 115.892 39.8153 115.462 39.246C114.996 38.6113 114.342 38.294 113.502 38.294ZM123.36 35.004V35.746H122.142C121.769 35.746 121.503 35.8393 121.344 36.026C121.176 36.2033 121.092 36.502 121.092 36.922V37.762H123.262V38.49H121.092V45H120.252V38.49H118.32V37.762H120.252V36.908C120.252 36.292 120.401 35.83 120.7 35.522C121.008 35.1767 121.465 35.004 122.072 35.004H123.36ZM130.516 35.004H134.072C135.63 35.004 136.802 35.4707 137.586 36.404C138.304 37.2533 138.664 38.4527 138.664 40.002C138.664 41.5233 138.262 42.7273 137.46 43.614C136.62 44.538 135.43 45 133.89 45H130.516V35.004ZM131.37 35.76V44.244H133.764C135.098 44.244 136.116 43.866 136.816 43.11C137.488 42.382 137.824 41.346 137.824 40.002C137.824 38.602 137.53 37.5613 136.942 36.88C136.307 36.1333 135.308 35.76 133.946 35.76H131.37ZM143.777 37.566C144.925 37.566 145.784 37.9533 146.353 38.728C146.866 39.4187 147.142 40.3847 147.179 41.626H141.299C141.346 42.5127 141.584 43.208 142.013 43.712C142.461 44.216 143.058 44.468 143.805 44.468C144.449 44.468 144.981 44.2953 145.401 43.95C145.737 43.6607 145.994 43.236 146.171 42.676H147.025C146.857 43.376 146.535 43.95 146.059 44.398C145.471 44.93 144.72 45.196 143.805 45.196C142.788 45.196 141.976 44.8507 141.369 44.16C140.744 43.4693 140.431 42.5407 140.431 41.374C140.431 40.31 140.73 39.4187 141.327 38.7C141.943 37.944 142.76 37.566 143.777 37.566ZM143.791 38.294C143.072 38.294 142.498 38.5413 142.069 39.036C141.63 39.5307 141.378 40.1653 141.313 40.94H146.297C146.157 39.176 145.322 38.294 143.791 38.294ZM151.685 37.566C153.402 37.566 154.364 38.308 154.569 39.792H153.743C153.65 39.288 153.449 38.9193 153.141 38.686C152.814 38.4247 152.324 38.294 151.671 38.294C151.13 38.294 150.696 38.4013 150.369 38.616C150.033 38.84 149.865 39.1293 149.865 39.484C149.865 39.848 150.08 40.142 150.509 40.366C150.798 40.506 151.307 40.674 152.035 40.87C152.922 41.094 153.547 41.318 153.911 41.542C154.49 41.8967 154.779 42.382 154.779 42.998C154.779 44.4633 153.799 45.196 151.839 45.196C149.982 45.196 148.969 44.37 148.801 42.718H149.627C149.711 43.3527 149.935 43.81 150.299 44.09C150.635 44.342 151.139 44.468 151.811 44.468C153.211 44.468 153.911 43.992 153.911 43.04C153.911 42.6013 153.673 42.2653 153.197 42.032C152.936 41.9013 152.399 41.7333 151.587 41.528C150.738 41.304 150.15 41.0893 149.823 40.884C149.272 40.5573 148.997 40.0953 148.997 39.498C148.997 38.91 149.258 38.4387 149.781 38.084C150.276 37.7387 150.91 37.566 151.685 37.566ZM157.665 35.158C157.861 35.158 158.029 35.228 158.169 35.368C158.309 35.48 158.379 35.6433 158.379 35.858C158.379 36.0447 158.305 36.2127 158.155 36.362C158.006 36.4927 157.843 36.558 157.665 36.558C157.46 36.558 157.292 36.4927 157.161 36.362C157.021 36.222 156.951 36.054 156.951 35.858C156.951 35.6433 157.021 35.48 157.161 35.368C157.292 35.228 157.46 35.158 157.665 35.158ZM157.245 37.762H158.085V45H157.245V37.762ZM163.953 37.566C165.147 37.566 166.011 38.1167 166.543 39.218V37.762H167.383V44.468C167.383 46.8013 166.3 47.968 164.135 47.968C163.192 47.968 162.459 47.7627 161.937 47.352C161.442 46.96 161.134 46.3813 161.013 45.616H161.853C161.955 46.1573 162.179 46.5587 162.525 46.82C162.898 47.1187 163.435 47.268 164.135 47.268C165.74 47.268 166.543 46.3673 166.543 44.566V43.18C166.011 44.2813 165.147 44.832 163.953 44.832C162.945 44.832 162.137 44.4727 161.531 43.754C160.971 43.082 160.691 42.2327 160.691 41.206C160.691 40.1793 160.971 39.33 161.531 38.658C162.137 37.93 162.945 37.566 163.953 37.566ZM164.051 38.28C163.248 38.28 162.627 38.5693 162.189 39.148C161.759 39.6707 161.545 40.3567 161.545 41.206C161.545 42.0273 161.745 42.6993 162.147 43.222C162.585 43.81 163.215 44.104 164.037 44.104C164.839 44.104 165.465 43.824 165.913 43.264C166.333 42.732 166.543 42.046 166.543 41.206C166.543 40.366 166.333 39.68 165.913 39.148C165.474 38.5693 164.853 38.28 164.051 38.28ZM173.038 37.566C174.83 37.566 175.726 38.56 175.726 40.548V45H174.886V40.604C174.886 39.064 174.2 38.294 172.828 38.294C172.25 38.294 171.764 38.504 171.372 38.924C170.962 39.3347 170.733 39.904 170.686 40.632V45H169.846V37.762H170.686V38.952C170.938 38.5227 171.265 38.182 171.666 37.93C172.058 37.6873 172.516 37.566 173.038 37.566ZM183.817 35.004H184.671V45H183.817V35.004ZM190.588 37.566C192.38 37.566 193.276 38.56 193.276 40.548V45H192.436V40.604C192.436 39.064 191.75 38.294 190.378 38.294C189.799 38.294 189.314 38.504 188.922 38.924C188.511 39.3347 188.282 39.904 188.236 40.632V45H187.396V37.762H188.236V38.952C188.488 38.5227 188.814 38.182 189.216 37.93C189.608 37.6873 190.065 37.566 190.588 37.566ZM197.488 35.424V37.762H199.378V38.49H197.488V43.39C197.488 43.7073 197.544 43.936 197.656 44.076C197.768 44.2067 197.978 44.272 198.286 44.272H199.196V45H198.174C197.614 45 197.213 44.8553 196.97 44.566C196.756 44.3233 196.648 43.9313 196.648 43.39V38.49H195.108V37.762H196.648V35.774L197.488 35.424ZM204.272 37.566C205.42 37.566 206.279 37.9533 206.848 38.728C207.362 39.4187 207.637 40.3847 207.674 41.626H201.794C201.841 42.5127 202.079 43.208 202.508 43.712C202.956 44.216 203.554 44.468 204.3 44.468C204.944 44.468 205.476 44.2953 205.896 43.95C206.232 43.6607 206.489 43.236 206.666 42.676H207.52C207.352 43.376 207.03 43.95 206.554 44.398C205.966 44.93 205.215 45.196 204.3 45.196C203.283 45.196 202.471 44.8507 201.864 44.16C201.239 43.4693 200.926 42.5407 200.926 41.374C200.926 40.31 201.225 39.4187 201.822 38.7C202.438 37.944 203.255 37.566 204.272 37.566ZM204.286 38.294C203.568 38.294 202.994 38.5413 202.564 39.036C202.126 39.5307 201.874 40.1653 201.808 40.94H206.792C206.652 39.176 205.817 38.294 204.286 38.294ZM209.982 34.808H210.822V45H209.982V34.808ZM213.813 34.808H214.653V45H213.813V34.808ZM218.218 35.158C218.414 35.158 218.582 35.228 218.722 35.368C218.862 35.48 218.932 35.6433 218.932 35.858C218.932 36.0447 218.857 36.2127 218.708 36.362C218.559 36.4927 218.395 36.558 218.218 36.558C218.013 36.558 217.845 36.4927 217.714 36.362C217.574 36.222 217.504 36.054 217.504 35.858C217.504 35.6433 217.574 35.48 217.714 35.368C217.845 35.228 218.013 35.158 218.218 35.158ZM217.798 37.762H218.638V45H217.798V37.762ZM224.505 37.566C225.7 37.566 226.563 38.1167 227.095 39.218V37.762H227.935V44.468C227.935 46.8013 226.853 47.968 224.687 47.968C223.745 47.968 223.012 47.7627 222.489 47.352C221.995 46.96 221.687 46.3813 221.565 45.616H222.405C222.508 46.1573 222.732 46.5587 223.077 46.82C223.451 47.1187 223.987 47.268 224.687 47.268C226.293 47.268 227.095 46.3673 227.095 44.566V43.18C226.563 44.2813 225.7 44.832 224.505 44.832C223.497 44.832 222.69 44.4727 222.083 43.754C221.523 43.082 221.243 42.2327 221.243 41.206C221.243 40.1793 221.523 39.33 222.083 38.658C222.69 37.93 223.497 37.566 224.505 37.566ZM224.603 38.28C223.801 38.28 223.18 38.5693 222.741 39.148C222.312 39.6707 222.097 40.3567 222.097 41.206C222.097 42.0273 222.298 42.6993 222.699 43.222C223.138 43.81 223.768 44.104 224.589 44.104C225.392 44.104 226.017 43.824 226.465 43.264C226.885 42.732 227.095 42.046 227.095 41.206C227.095 40.366 226.885 39.68 226.465 39.148C226.027 38.5693 225.406 38.28 224.603 38.28ZM233.325 37.566C234.473 37.566 235.332 37.9533 235.901 38.728C236.415 39.4187 236.69 40.3847 236.727 41.626H230.847C230.894 42.5127 231.132 43.208 231.561 43.712C232.009 44.216 232.607 44.468 233.353 44.468C233.997 44.468 234.529 44.2953 234.949 43.95C235.285 43.6607 235.542 43.236 235.719 42.676H236.573C236.405 43.376 236.083 43.95 235.607 44.398C235.019 44.93 234.268 45.196 233.353 45.196C232.336 45.196 231.524 44.8507 230.917 44.16C230.292 43.4693 229.979 42.5407 229.979 41.374C229.979 40.31 230.278 39.4187 230.875 38.7C231.491 37.944 232.308 37.566 233.325 37.566ZM233.339 38.294C232.621 38.294 232.047 38.5413 231.617 39.036C231.179 39.5307 230.927 40.1653 230.861 40.94H235.845C235.705 39.176 234.87 38.294 233.339 38.294ZM241.961 37.566C243.753 37.566 244.649 38.56 244.649 40.548V45H243.809V40.604C243.809 39.064 243.123 38.294 241.751 38.294C241.172 38.294 240.687 38.504 240.295 38.924C239.884 39.3347 239.656 39.904 239.609 40.632V45H238.769V37.762H239.609V38.952C239.861 38.5227 240.188 38.182 240.589 37.93C240.981 37.6873 241.438 37.566 241.961 37.566ZM250.164 37.566C251.032 37.566 251.736 37.776 252.278 38.196C252.828 38.616 253.16 39.26 253.272 40.128H252.432C252.338 39.5213 252.096 39.064 251.704 38.756C251.312 38.448 250.798 38.294 250.164 38.294C249.398 38.294 248.792 38.588 248.344 39.176C247.905 39.7267 247.686 40.478 247.686 41.43C247.686 42.354 247.896 43.0913 248.316 43.642C248.736 44.1927 249.347 44.468 250.15 44.468C251.494 44.468 252.268 43.782 252.474 42.41H253.3C253.16 43.3247 252.814 44.02 252.264 44.496C251.722 44.9627 251.018 45.196 250.15 45.196C249.076 45.196 248.246 44.832 247.658 44.104C247.107 43.4413 246.832 42.55 246.832 41.43C246.832 40.3287 247.116 39.4233 247.686 38.714C248.283 37.9487 249.109 37.566 250.164 37.566ZM258.271 37.566C259.419 37.566 260.278 37.9533 260.847 38.728C261.36 39.4187 261.636 40.3847 261.673 41.626H255.793C255.84 42.5127 256.078 43.208 256.507 43.712C256.955 44.216 257.552 44.468 258.299 44.468C258.943 44.468 259.475 44.2953 259.895 43.95C260.231 43.6607 260.488 43.236 260.665 42.676H261.519C261.351 43.376 261.029 43.95 260.553 44.398C259.965 44.93 259.214 45.196 258.299 45.196C257.282 45.196 256.47 44.8507 255.863 44.16C255.238 43.4693 254.925 42.5407 254.925 41.374C254.925 40.31 255.224 39.4187 255.821 38.7C256.437 37.944 257.254 37.566 258.271 37.566ZM258.285 38.294C257.566 38.294 256.992 38.5413 256.563 39.036C256.124 39.5307 255.872 40.1653 255.807 40.94H260.791C260.651 39.176 259.816 38.294 258.285 38.294ZM273.305 35.004V35.746H272.087C271.714 35.746 271.448 35.8393 271.289 36.026C271.121 36.2033 271.037 36.502 271.037 36.922V37.762H273.207V38.49H271.037V45H270.197V38.49H268.265V37.762H270.197V36.908C270.197 36.292 270.346 35.83 270.645 35.522C270.953 35.1767 271.41 35.004 272.017 35.004H273.305ZM278.123 37.566C279.187 37.566 280.041 37.9487 280.685 38.714C281.273 39.4233 281.567 40.3147 281.567 41.388C281.567 42.4427 281.273 43.3293 280.685 44.048C280.031 44.8133 279.177 45.196 278.123 45.196C277.068 45.196 276.214 44.8133 275.561 44.048C274.973 43.3293 274.679 42.4427 274.679 41.388C274.679 40.3147 274.977 39.4233 275.575 38.714C276.2 37.9487 277.049 37.566 278.123 37.566ZM278.123 38.294C277.292 38.294 276.643 38.6113 276.177 39.246C275.747 39.7967 275.533 40.5107 275.533 41.388C275.533 42.256 275.747 42.9653 276.177 43.516C276.653 44.1507 277.301 44.468 278.123 44.468C278.953 44.468 279.607 44.1507 280.083 43.516C280.512 42.928 280.727 42.2187 280.727 41.388C280.727 40.5293 280.512 39.8153 280.083 39.246C279.616 38.6113 278.963 38.294 278.123 38.294ZM286.79 37.566C287.238 37.566 287.588 37.6173 287.84 37.72V38.574C287.495 38.4713 287.126 38.42 286.734 38.42C286.072 38.42 285.549 38.7093 285.166 39.288C284.784 39.8107 284.592 40.4407 284.592 41.178V45H283.752V37.762H284.592V39.148C284.788 38.6907 285.054 38.3313 285.39 38.07C285.782 37.734 286.249 37.566 286.79 37.566ZM294.047 35.004H294.999L298.345 44.09H298.387L301.733 35.004H302.685L298.919 45H297.827L294.047 35.004ZM305.177 35.158C305.373 35.158 305.541 35.228 305.681 35.368C305.821 35.48 305.891 35.6433 305.891 35.858C305.891 36.0447 305.816 36.2127 305.667 36.362C305.517 36.4927 305.354 36.558 305.177 36.558C304.971 36.558 304.803 36.4927 304.673 36.362C304.533 36.222 304.463 36.054 304.463 35.858C304.463 35.6433 304.533 35.48 304.673 35.368C304.803 35.228 304.971 35.158 305.177 35.158ZM304.757 37.762H305.597V45H304.757V37.762ZM310.232 35.424V37.762H312.122V38.49H310.232V43.39C310.232 43.7073 310.288 43.936 310.4 44.076C310.512 44.2067 310.722 44.272 311.03 44.272H311.94V45H310.918C310.358 45 309.957 44.8553 309.714 44.566C309.499 44.3233 309.392 43.9313 309.392 43.39V38.49H307.852V37.762H309.392V35.774L310.232 35.424ZM317.156 37.566C318.174 37.566 318.925 37.8413 319.41 38.392C319.84 38.868 320.054 39.5167 320.054 40.338V45H319.256V43.614C318.958 44.0433 318.566 44.4027 318.08 44.692C317.511 45.028 316.881 45.196 316.19 45.196C315.481 45.196 314.907 45.014 314.468 44.65C314.03 44.2767 313.81 43.7773 313.81 43.152C313.81 42.228 314.188 41.556 314.944 41.136C315.551 40.7907 316.358 40.618 317.366 40.618L319.214 40.604V40.338C319.214 38.966 318.514 38.28 317.114 38.28C316.47 38.28 315.966 38.4153 315.602 38.686C315.192 38.9567 314.944 39.3767 314.86 39.946H314.034C314.146 39.134 314.487 38.5273 315.056 38.126C315.579 37.7527 316.279 37.566 317.156 37.566ZM319.214 41.29L317.408 41.304C315.579 41.3133 314.664 41.9247 314.664 43.138C314.664 43.5393 314.818 43.866 315.126 44.118C315.425 44.37 315.836 44.496 316.358 44.496C317.114 44.496 317.786 44.244 318.374 43.74C318.934 43.2453 319.214 42.7087 319.214 42.13V41.29ZM322.781 34.808H323.621V45H322.781V34.808ZM327.186 35.158C327.382 35.158 327.55 35.228 327.69 35.368C327.83 35.48 327.9 35.6433 327.9 35.858C327.9 36.0447 327.825 36.2127 327.676 36.362C327.526 36.4927 327.363 36.558 327.186 36.558C326.98 36.558 326.812 36.4927 326.682 36.362C326.542 36.222 326.472 36.054 326.472 35.858C326.472 35.6433 326.542 35.48 326.682 35.368C326.812 35.228 326.98 35.158 327.186 35.158ZM326.766 37.762H327.606V45H326.766V37.762ZM332.241 35.424V37.762H334.131V38.49H332.241V43.39C332.241 43.7073 332.297 43.936 332.409 44.076C332.521 44.2067 332.731 44.272 333.039 44.272H333.949V45H332.927C332.367 45 331.966 44.8553 331.723 44.566C331.508 44.3233 331.401 43.9313 331.401 43.39V38.49H329.861V37.762H331.401V35.774L332.241 35.424ZM335.287 37.762H336.211L338.577 43.796L340.915 37.762H341.839L337.849 47.772H336.939L338.157 44.818L335.287 37.762ZM351.465 38.966C351.726 38.966 351.955 39.064 352.151 39.26C352.347 39.4373 352.445 39.666 352.445 39.946C352.445 40.2167 352.347 40.45 352.151 40.646C351.955 40.842 351.726 40.94 351.465 40.94C351.194 40.94 350.966 40.842 350.779 40.646C350.583 40.45 350.485 40.2167 350.485 39.946C350.485 39.666 350.583 39.4373 350.779 39.26C350.966 39.064 351.194 38.966 351.465 38.966ZM362.049 35.004H366.445C367.36 35.004 368.078 35.2233 368.601 35.662C369.133 36.11 369.399 36.726 369.399 37.51C369.399 38.0793 369.236 38.5693 368.909 38.98C368.592 39.3627 368.176 39.6333 367.663 39.792C368.316 39.904 368.839 40.17 369.231 40.59C369.614 41.0287 369.805 41.5793 369.805 42.242C369.805 43.1847 369.464 43.8987 368.783 44.384C368.186 44.7947 367.392 45 366.403 45H362.049V35.004ZM362.903 35.746V39.47H366.263C366.972 39.47 367.528 39.3113 367.929 38.994C368.34 38.6673 368.545 38.2007 368.545 37.594C368.545 36.978 368.344 36.5113 367.943 36.194C367.551 35.8953 366.996 35.746 366.277 35.746H362.903ZM362.903 40.198V44.258H366.375C367.112 44.258 367.71 44.1087 368.167 43.81C368.69 43.446 368.951 42.9187 368.951 42.228C368.951 41.5467 368.708 41.0333 368.223 40.688C367.775 40.3613 367.154 40.198 366.361 40.198H362.903ZM372.254 35.004H373.108V45H372.254V35.004ZM375.202 35.004H383.392V35.76H379.724V45H378.87V35.76H375.202V35.004Z" fill="white"/>
<defs>
<clipPath id="clip0_269_14">
<rect width="64.8235" height="50.0909" fill="white"/>
</clipPath>
</defs>
</svg>
