<svg width="384" height="56" viewBox="0 0 384 56" fill="none" xmlns="http://www.w3.org/2000/svg">
<g clip-path="url(#clip0_73_2)">
<path fill-rule="evenodd" clip-rule="evenodd" d="M0 50.0909V0H22.7567V25.0455L45.5136 0C45.5136 0 48.4444 0.289878 52.4671 2.72485C57.0644 5.50768 64.9304 13.2068 64.8224 25.1614C64.65 44.2354 47.5824 50.0909 47.5824 50.0909H0ZM46.9009 4.6508C48.0996 5.08391 49.2521 5.63787 50.3408 6.30427C51.2315 6.84344 54.3451 8.90969 56.9851 12.8439C59.4815 16.5648 60.7274 20.6961 60.6871 25.1231C60.6274 31.6987 58.2459 37.196 53.6084 41.4618C51.5921 43.3089 49.2917 44.8135 46.7974 45.9167H39.3072V13.0082L46.9009 4.6508ZM35.1696 17.562L9.40614 45.9167H35.1696V17.562ZM18.6192 4.17424V29.5992L4.1376 45.5372V4.17424H18.6192Z" fill="white"/>
</g>
<path d="M88.1936 7.94328C87.7803 8.52995 87.3403 9.03661 86.8736 9.46328H89.7536C89.8336 8.95661 89.8936 8.44995 89.9336 7.94328H88.1936ZM89.2336 11.2033H85.5136V9.46328H86.4136L85.4736 8.28328C86.4203 7.44328 87.2269 6.27661 87.8936 4.78328L89.5936 5.14328C89.5003 5.40995 89.3469 5.78328 89.1336 6.26328H94.6136V7.94328H91.7536C91.7003 8.60995 91.6469 9.11661 91.5936 9.46328H95.1736V11.2033H91.1936L91.1136 11.4833C92.5536 12.2166 93.8069 12.9766 94.8736 13.7633L93.6936 14.9633H101.334V23.4633H99.4136V22.6833H89.9736V23.4633H88.0736V15.2433C87.4203 15.6433 86.8669 15.9499 86.4136 16.1633L85.1336 14.6233C87.2003 13.7033 88.5536 12.5899 89.1936 11.2833L89.2336 11.2033ZM89.9736 21.0033H99.4136V19.6833H89.9736V21.0033ZM89.9736 18.0433H99.4136V16.6433H89.9736V18.0433ZM93.3536 14.9633C92.5669 14.2566 91.6136 13.5566 90.4936 12.8633C90.0136 13.6099 89.3403 14.3099 88.4736 14.9633H93.3536ZM95.7936 6.28328H102.794V13.8433H95.7936V6.28328ZM100.934 12.1833V7.96328H97.6536V12.1833H100.934ZM108.254 16.6833V18.1433H112.414V16.6833H108.254ZM112.414 15.1233V13.5833H108.254V15.1233H112.414ZM108.254 19.7233V23.4633H106.414V11.9433H114.254V21.2433C114.254 22.6299 113.607 23.3233 112.314 23.3233H110.734L110.274 21.5433L111.694 21.6233C112.174 21.6233 112.414 21.3633 112.414 20.8433V19.7233H108.254ZM117.794 13.8033C116.394 13.8033 115.694 13.0366 115.694 11.5033V5.02328H117.574V7.40328C119.747 7.06995 121.434 6.73661 122.634 6.40328L123.254 8.08328C121.547 8.48328 119.654 8.83661 117.574 9.14328V11.1033C117.574 11.7699 117.82 12.1033 118.314 12.1033H120.694C121.014 12.1033 121.24 12.0033 121.374 11.8033C121.547 11.5366 121.654 10.8633 121.694 9.78328L123.474 10.3633C123.314 12.0166 123.047 13.0099 122.674 13.3433C122.3 13.6499 121.76 13.8033 121.054 13.8033H117.794ZM117.594 20.8633C117.594 21.2366 117.827 21.4233 118.294 21.4233H120.694C121 21.4233 121.227 21.3299 121.374 21.1433C121.547 20.8899 121.66 20.2099 121.714 19.1033L123.454 19.6433C123.294 21.3233 123.027 22.3299 122.654 22.6633C122.307 22.9699 121.774 23.1233 121.054 23.1233H117.774C116.4 23.1233 115.714 22.5033 115.714 21.2633V14.5233H117.594V16.7233C119.407 16.5366 121.087 16.2099 122.634 15.7433L123.254 17.4433C121.574 17.8966 119.687 18.2299 117.594 18.4433V20.8633ZM112.794 6.36328C113.94 7.89661 114.847 9.26995 115.514 10.4833L113.954 11.6033C113.727 11.1499 113.507 10.7366 113.294 10.3633C111.214 10.6833 108.714 10.9233 105.794 11.0833L105.274 9.50328C105.607 9.38328 105.894 9.22328 106.134 9.02328C107.374 7.64995 108.307 6.28995 108.934 4.94328L110.754 5.48328C109.927 7.09661 108.987 8.40995 107.934 9.42328C109.147 9.35661 110.66 9.20995 112.474 8.98328C112.18 8.51661 111.8 7.94995 111.334 7.28328L112.794 6.36328ZM130.954 9.14328L130.654 11.8633H141.714C141.714 17.6499 141.394 21.0033 140.754 21.9233C140.114 22.8033 138.747 23.2433 136.654 23.2433C136.147 23.2433 135.28 23.2166 134.054 23.1633L133.554 21.4233C134.914 21.5299 135.82 21.5833 136.274 21.5833C137.954 21.5833 138.954 21.2033 139.274 20.4433C139.634 19.6566 139.814 17.3899 139.814 13.6433H128.514L129.474 4.88328L131.394 5.04328L131.154 7.32328H142.294V9.14328H130.954ZM125.534 16.5033H138.114V18.3233H125.534V16.5033ZM162.494 13.6033H159.114V14.8233H162.734V16.3033H159.114V17.4233H163.354V18.9833H159.114V20.7433H157.314V18.9833H154.194V17.4233H157.314V16.3033H154.834V14.8233H157.314V13.6033H154.994V12.0833H157.314V10.8233H154.194V9.30328H157.314V8.02328H154.994V6.50328H157.314V5.08328H159.114V6.50328H162.494V9.30328H163.634V10.8233H162.494V13.6033ZM159.114 8.02328V9.30328H160.814V8.02328H159.114ZM159.114 10.8233V12.0833H160.814V10.8233H159.114ZM149.874 6.70328H154.054V8.26328C153.294 9.80995 152.567 11.1233 151.874 12.2033H154.174V13.2633C154.12 15.6233 153.74 17.6433 153.034 19.3233C153.62 19.8966 154.254 20.3299 154.934 20.6233C155.974 21.0633 157.587 21.3233 159.774 21.4033C160.734 21.4033 162.04 21.3766 163.694 21.3233L163.354 23.1033H160.954C157.354 23.0633 154.907 22.6766 153.614 21.9433C153.12 21.6766 152.647 21.3366 152.194 20.9233C151.567 21.8833 150.78 22.7033 149.834 23.3833L148.914 21.7633C149.74 21.1766 150.434 20.4299 150.994 19.5233C150.22 18.4033 149.587 16.9766 149.094 15.2433L150.634 14.6633C150.9 15.8099 151.3 16.8233 151.834 17.7033C152.22 16.5166 152.454 15.2166 152.534 13.8033H149.674V12.4433C150.527 11.2833 151.314 9.96995 152.034 8.50328H149.874V6.70328ZM146.894 12.9633C146.414 13.6699 146 14.2499 145.654 14.7033L145.034 12.6633C146.54 10.4899 147.647 7.92328 148.354 4.96328L150.074 5.76328C149.7 7.13661 149.254 8.41661 148.734 9.60328V23.4633H146.894V12.9633ZM181.414 16.0233H176.534V17.0233C177.014 17.5033 177.587 17.9899 178.254 18.4833C179.24 17.8299 180.1 17.0766 180.834 16.2233L182.194 17.4033C181.46 18.1099 180.607 18.7699 179.634 19.3833C180.767 20.0633 182.067 20.6699 183.534 21.2033L182.574 22.8633C180.254 21.9033 178.24 20.6099 176.534 18.9833V21.5433C176.534 22.7299 175.934 23.3233 174.734 23.3233H172.574L172.194 21.6033C172.874 21.6833 173.514 21.7233 174.114 21.7233C174.514 21.7233 174.714 21.5099 174.714 21.0833V19.5233C173.127 20.6166 171.234 21.6233 169.034 22.5433L168.294 20.8433C169.627 20.3633 170.827 19.8566 171.894 19.3233C171.054 18.7499 170.167 18.2833 169.234 17.9233L170.154 16.5833C171.087 16.9566 171.967 17.4299 172.794 18.0033L171.934 19.3033C172.947 18.7966 173.874 18.2699 174.714 17.7233V16.0233H169.894V14.4833H174.714V13.3433H168.554C168.434 17.5166 167.767 20.8566 166.554 23.3633L165.114 22.1033C166.14 19.9033 166.68 16.8233 166.734 12.8633V6.20328H174.254C174.054 5.84328 173.854 5.50328 173.654 5.18328L175.634 4.86328C175.78 5.15661 175.974 5.60328 176.214 6.20328H183.074V7.90328H176.534V9.06328H181.414V11.7833H183.274V13.3433H181.414V16.0233ZM168.574 11.7833H174.714V10.6033H170.014V9.06328H174.714V7.90328H168.574V11.7833ZM176.534 10.6033V11.7833H179.614V10.6033H176.534ZM179.614 13.3433H176.534V14.4833H179.614V13.3433ZM187.794 5.22328C189.074 6.20995 190.16 7.18995 191.054 8.16328L189.754 9.48328C188.98 8.56328 187.887 7.56328 186.474 6.48328L187.794 5.22328ZM185.254 10.9633H189.734V19.4233C190.294 18.9566 190.96 18.3566 191.734 17.6233L192.254 19.6233C190.934 20.8499 189.554 21.9233 188.114 22.8433L187.394 21.1233C187.727 20.8299 187.894 20.4766 187.894 20.0633V12.7833H185.254V10.9633ZM192.394 13.3433H202.094V15.0833C201.52 16.8566 200.56 18.3833 199.214 19.6633C200.52 20.5166 202.067 21.2633 203.854 21.9033L202.834 23.5433C200.9 22.7699 199.227 21.8633 197.814 20.8233C196.267 21.9299 194.34 22.8299 192.034 23.5233L190.974 21.9233C193.107 21.2966 194.887 20.5099 196.314 19.5633C194.94 18.2299 194.014 16.7699 193.534 15.1833H192.394V13.3433ZM195.314 15.1833C195.767 16.3966 196.554 17.5033 197.674 18.5033C198.767 17.5033 199.6 16.3966 200.174 15.1833H195.314ZM193.794 5.62328H200.874V9.82328C200.874 10.2766 201.12 10.5033 201.614 10.5033H203.374V12.2433H201.114C199.7 12.2433 198.994 11.5766 198.994 10.2433V7.40328H195.674V8.00328C195.674 10.0833 194.62 11.6966 192.514 12.8433L191.254 11.3833C192.947 10.6233 193.794 9.56328 193.794 8.20328V5.62328ZM211.534 10.8033H216.774V4.94328H218.734V10.8033H223.694V12.6833H218.734V23.4633H216.774V12.6833H211.534V10.8033ZM207.894 5.12328C209.214 6.12328 210.314 7.10995 211.194 8.08328L209.894 9.40328C209.067 8.42995 207.96 7.43661 206.574 6.42328L207.894 5.12328ZM205.254 10.9233H209.874V19.4433C210.42 19.0033 211.087 18.4099 211.874 17.6633L212.374 19.6033C211.08 20.8166 209.707 21.8899 208.254 22.8233L207.534 21.1233C207.88 20.8433 208.054 20.5033 208.054 20.1033V12.7433H205.254V10.9233ZM232.214 5.66328H242.434V13.6433H238.194V15.1633H243.314V16.9233H239.734C240.574 18.4966 241.947 19.9166 243.854 21.1833L242.634 22.7033C240.58 20.9566 239.127 19.0299 238.274 16.9233H238.194V23.3833H236.414V16.9233H236.354C235.394 19.2699 233.854 21.2033 231.734 22.7233L230.754 21.1033C232.607 19.9699 233.987 18.5766 234.894 16.9233H231.374V15.1633H236.414V13.6433H232.214V5.66328ZM240.694 12.0433V10.4633H238.194V12.0433H240.694ZM236.414 12.0433V10.4633H233.954V12.0433H236.414ZM233.954 8.92328H236.414V7.30328H233.954V8.92328ZM238.194 7.30328V8.92328H240.694V7.30328H238.194ZM227.914 5.12328C229.194 6.09661 230.274 7.07661 231.154 8.06328L229.854 9.38328C229.054 8.43661 227.96 7.44995 226.574 6.42328L227.914 5.12328ZM225.194 10.9233H229.674V19.1033C230.207 18.6099 230.694 18.1366 231.134 17.6833L231.634 19.6233C230.567 20.6899 229.374 21.6833 228.054 22.6033L227.334 20.9233C227.667 20.6299 227.834 20.2966 227.834 19.9233V12.7433H225.194V10.9233ZM258.834 21.3433C260.994 21.3433 262.6 21.3033 263.654 21.2233L263.334 23.1033H259.274C254.5 23.1033 251.507 22.8499 250.294 22.3433C249.347 21.9566 248.5 21.2633 247.754 20.2633C247.42 21.4099 246.96 22.4766 246.374 23.4633L245.014 22.2433C246.027 20.4699 246.58 18.4966 246.674 16.3233L248.354 16.5433C248.314 17.2766 248.247 17.9099 248.154 18.4433C248.54 19.0033 248.994 19.4966 249.514 19.9233V15.6433H245.694V13.9233H254.254V15.6433H251.174V17.3633H253.754V19.0433H251.174V20.8233L251.254 20.8433C252.374 21.1766 254.9 21.3433 258.834 21.3433ZM246.474 5.62328H253.574V12.8833H246.474V5.62328ZM251.734 11.3233V9.98328H248.314V11.3233H251.734ZM248.314 8.54328H251.734V7.18328H248.314V8.54328ZM254.414 5.62328H263.174V7.34328H259.714C259.674 7.67661 259.6 8.09661 259.494 8.60328H262.714V16.8233H260.954V10.2233H256.634V16.8233H254.954V8.60328H257.814C257.894 8.17661 257.954 7.75661 257.994 7.34328H254.414V5.62328ZM260.414 16.7433C261.574 17.6099 262.58 18.5233 263.434 19.4833L262.114 20.8033C261.354 19.8699 260.36 18.9166 259.134 17.9433L260.414 16.7433ZM257.914 10.9833H259.674V13.8633C259.594 15.7433 259.214 17.2433 258.534 18.3633C257.827 19.4166 256.707 20.2233 255.174 20.7833L254.154 19.1633C255.594 18.6433 256.574 17.9833 257.094 17.1833C257.6 16.3299 257.874 15.2233 257.914 13.8633V10.9833ZM272.374 20.3433C270.48 21.2766 268.3 22.0233 265.834 22.5833L265.594 20.6833C268.167 20.1633 270.427 19.4499 272.374 18.5433V20.3433ZM270.754 5.60328C269.754 7.92328 268.734 9.80328 267.694 11.2433C268.494 11.1633 269.26 11.0633 269.994 10.9433L271.234 8.68328L272.954 9.32328C271.22 12.4433 269.747 14.7366 268.534 16.2033C269.907 15.8699 271.24 15.4566 272.534 14.9633V16.7033C270.254 17.5299 268.12 18.0833 266.134 18.3633L265.634 16.6233C265.98 16.4633 266.267 16.2766 266.494 16.0633C267.134 15.4233 267.96 14.3033 268.974 12.7033L265.814 13.1233L265.334 11.3633C265.64 11.2433 265.914 11.0033 266.154 10.6433C267.207 8.94995 268.14 7.03661 268.954 4.90328L270.754 5.60328ZM281.994 5.84328V20.8833H283.594V22.7233H271.914V20.8833H273.554V5.84328H281.994ZM275.414 20.8833H280.134V17.6433H275.414V20.8833ZM275.414 15.8433H280.134V12.5633H275.414V15.8433ZM275.414 10.7833H280.134V7.66328H275.414V10.7833Z" fill="white"/>
<path d="M87.949 36.3542H88.742V44.9342H94.319V45.6362H87.949V36.3542ZM98.2832 38.7332C99.2279 38.7332 99.9255 38.9889 100.376 39.5002C100.775 39.9422 100.974 40.5446 100.974 41.3072V45.6362H100.233V44.3492C99.9559 44.7479 99.5919 45.0816 99.1412 45.3502C98.6125 45.6622 98.0275 45.8182 97.3862 45.8182C96.7275 45.8182 96.1945 45.6492 95.7872 45.3112C95.3799 44.9646 95.1762 44.5009 95.1762 43.9202C95.1762 43.0622 95.5272 42.4382 96.2292 42.0482C96.7925 41.7276 97.5422 41.5672 98.4782 41.5672L100.194 41.5542V41.3072C100.194 40.0332 99.5442 39.3962 98.2442 39.3962C97.6462 39.3962 97.1782 39.5219 96.8402 39.7732C96.4589 40.0246 96.2292 40.4146 96.1512 40.9432H95.3842C95.4882 40.1892 95.8045 39.6259 96.3332 39.2532C96.8185 38.9066 97.4685 38.7332 98.2832 38.7332ZM100.194 42.1912L98.5172 42.2042C96.8185 42.2129 95.9692 42.7806 95.9692 43.9072C95.9692 44.2799 96.1122 44.5832 96.3982 44.8172C96.6755 45.0512 97.0569 45.1682 97.5422 45.1682C98.2442 45.1682 98.8682 44.9342 99.4142 44.4662C99.9342 44.0069 100.194 43.5086 100.194 42.9712V42.1912ZM102.609 36.1722H103.389V40.3322C103.883 39.2662 104.667 38.7332 105.742 38.7332C106.695 38.7332 107.441 39.0929 107.978 39.8122C108.472 40.4622 108.719 41.2812 108.719 42.2692C108.719 43.2746 108.472 44.1022 107.978 44.7522C107.423 45.4629 106.669 45.8182 105.716 45.8182C104.598 45.8182 103.809 45.3156 103.35 44.3102V45.6362H102.609V36.1722ZM105.599 39.3962C104.906 39.3962 104.36 39.6649 103.961 40.2022C103.562 40.7136 103.363 41.3852 103.363 42.2172V42.3732C103.363 43.1706 103.549 43.8206 103.922 44.3232C104.321 44.8779 104.888 45.1552 105.625 45.1552C106.379 45.1552 106.964 44.8692 107.38 44.2972C107.744 43.7859 107.926 43.1099 107.926 42.2692C107.926 41.4286 107.74 40.7569 107.367 40.2542C106.951 39.6822 106.362 39.3962 105.599 39.3962ZM117.366 38.7332C118.354 38.7332 119.147 39.0886 119.745 39.7992C120.291 40.4579 120.564 41.2856 120.564 42.2822C120.564 43.2616 120.291 44.0849 119.745 44.7522C119.139 45.4629 118.346 45.8182 117.366 45.8182C116.387 45.8182 115.594 45.4629 114.987 44.7522C114.441 44.0849 114.168 43.2616 114.168 42.2822C114.168 41.2856 114.446 40.4579 115 39.7992C115.581 39.0886 116.37 38.7332 117.366 38.7332ZM117.366 39.4092C116.595 39.4092 115.993 39.7039 115.559 40.2932C115.161 40.8046 114.961 41.4676 114.961 42.2822C114.961 43.0882 115.161 43.7469 115.559 44.2582C116.001 44.8476 116.604 45.1422 117.366 45.1422C118.138 45.1422 118.744 44.8476 119.186 44.2582C119.585 43.7122 119.784 43.0536 119.784 42.2822C119.784 41.4849 119.585 40.8219 119.186 40.2932C118.753 39.7039 118.146 39.4092 117.366 39.4092ZM125.87 36.3542V37.0432H124.739C124.392 37.0432 124.145 37.1299 123.998 37.3032C123.842 37.4679 123.764 37.7452 123.764 38.1352V38.9152H125.779V39.5912H123.764V45.6362H122.984V39.5912H121.19V38.9152H122.984V38.1222C122.984 37.5502 123.123 37.1212 123.4 36.8352C123.686 36.5146 124.111 36.3542 124.674 36.3542H125.87ZM131.215 36.3542H134.517C135.964 36.3542 137.052 36.7876 137.78 37.6542C138.447 38.4429 138.781 39.5566 138.781 40.9952C138.781 42.4079 138.408 43.5259 137.663 44.3492C136.883 45.2072 135.778 45.6362 134.348 45.6362H131.215V36.3542ZM132.008 37.0562V44.9342H134.231C135.47 44.9342 136.415 44.5832 137.065 43.8812C137.689 43.2052 138.001 42.2432 138.001 40.9952C138.001 39.6952 137.728 38.7289 137.182 38.0962C136.592 37.4029 135.665 37.0562 134.4 37.0562H132.008ZM142.879 38.7332C143.945 38.7332 144.742 39.0929 145.271 39.8122C145.747 40.4536 146.003 41.3506 146.038 42.5032H140.578C140.621 43.3266 140.842 43.9722 141.241 44.4402C141.657 44.9082 142.211 45.1422 142.905 45.1422C143.503 45.1422 143.997 44.9819 144.387 44.6612C144.699 44.3926 144.937 43.9982 145.102 43.4782H145.895C145.739 44.1282 145.44 44.6612 144.998 45.0772C144.452 45.5712 143.754 45.8182 142.905 45.8182C141.96 45.8182 141.206 45.4976 140.643 44.8562C140.062 44.2149 139.772 43.3526 139.772 42.2692C139.772 41.2812 140.049 40.4536 140.604 39.7862C141.176 39.0842 141.934 38.7332 142.879 38.7332ZM142.892 39.4092C142.224 39.4092 141.691 39.6389 141.293 40.0982C140.885 40.5576 140.651 41.1469 140.591 41.8662H145.219C145.089 40.2282 144.313 39.4092 142.892 39.4092ZM149.572 38.7332C151.167 38.7332 152.059 39.4222 152.25 40.8002H151.483C151.396 40.3322 151.21 39.9899 150.924 39.7732C150.621 39.5306 150.166 39.4092 149.559 39.4092C149.056 39.4092 148.653 39.5089 148.35 39.7082C148.038 39.9162 147.882 40.1849 147.882 40.5142C147.882 40.8522 148.081 41.1252 148.48 41.3332C148.749 41.4632 149.221 41.6192 149.897 41.8012C150.72 42.0092 151.301 42.2172 151.639 42.4252C152.176 42.7546 152.445 43.2052 152.445 43.7772C152.445 45.1379 151.535 45.8182 149.715 45.8182C147.99 45.8182 147.05 45.0512 146.894 43.5172H147.661C147.739 44.1066 147.947 44.5312 148.285 44.7912C148.597 45.0252 149.065 45.1422 149.689 45.1422C150.989 45.1422 151.639 44.7002 151.639 43.8162C151.639 43.4089 151.418 43.0969 150.976 42.8802C150.733 42.7589 150.235 42.6029 149.481 42.4122C148.692 42.2042 148.146 42.0049 147.843 41.8142C147.332 41.5109 147.076 41.0819 147.076 40.5272C147.076 39.9812 147.319 39.5436 147.804 39.2142C148.263 38.8936 148.853 38.7332 149.572 38.7332ZM154.475 36.4972C154.657 36.4972 154.813 36.5622 154.943 36.6922C155.073 36.7962 155.138 36.9479 155.138 37.1472C155.138 37.3206 155.069 37.4766 154.93 37.6152C154.791 37.7366 154.64 37.7972 154.475 37.7972C154.284 37.7972 154.128 37.7366 154.007 37.6152C153.877 37.4852 153.812 37.3292 153.812 37.1472C153.812 36.9479 153.877 36.7962 154.007 36.6922C154.128 36.5622 154.284 36.4972 154.475 36.4972ZM154.085 38.9152H154.865V45.6362H154.085V38.9152ZM159.663 38.7332C160.773 38.7332 161.574 39.2446 162.068 40.2672V38.9152H162.848V45.1422C162.848 47.3089 161.843 48.3922 159.832 48.3922C158.957 48.3922 158.277 48.2016 157.791 47.8202C157.332 47.4562 157.046 46.9189 156.933 46.2082H157.713C157.809 46.7109 158.017 47.0836 158.337 47.3262C158.684 47.6036 159.182 47.7422 159.832 47.7422C161.323 47.7422 162.068 46.9059 162.068 45.2332V43.9462C161.574 44.9689 160.773 45.4802 159.663 45.4802C158.727 45.4802 157.978 45.1466 157.414 44.4792C156.894 43.8552 156.634 43.0666 156.634 42.1132C156.634 41.1599 156.894 40.3712 157.414 39.7472C157.978 39.0712 158.727 38.7332 159.663 38.7332ZM159.754 39.3962C159.009 39.3962 158.433 39.6649 158.025 40.2022C157.627 40.6876 157.427 41.3246 157.427 42.1132C157.427 42.8759 157.614 43.4999 157.986 43.9852C158.394 44.5312 158.979 44.8042 159.741 44.8042C160.487 44.8042 161.067 44.5442 161.483 44.0242C161.873 43.5302 162.068 42.8932 162.068 42.1132C162.068 41.3332 161.873 40.6962 161.483 40.2022C161.076 39.6649 160.5 39.3962 159.754 39.3962ZM167.45 38.7332C169.114 38.7332 169.946 39.6562 169.946 41.5022V45.6362H169.166V41.5542C169.166 40.1242 168.529 39.4092 167.255 39.4092C166.718 39.4092 166.267 39.6042 165.903 39.9942C165.522 40.3756 165.309 40.9042 165.266 41.5802V45.6362H164.486V38.9152H165.266V40.0202C165.5 39.6216 165.803 39.3052 166.176 39.0712C166.54 38.8459 166.965 38.7332 167.45 38.7332ZM176.159 36.3542H176.952V45.6362H176.159V36.3542ZM181.796 38.7332C183.46 38.7332 184.292 39.6562 184.292 41.5022V45.6362H183.512V41.5542C183.512 40.1242 182.875 39.4092 181.601 39.4092C181.063 39.4092 180.613 39.6042 180.249 39.9942C179.867 40.3756 179.655 40.9042 179.612 41.5802V45.6362H178.832V38.9152H179.612V40.0202C179.846 39.6216 180.149 39.3052 180.522 39.0712C180.886 38.8459 181.31 38.7332 181.796 38.7332ZM187.553 36.7442V38.9152H189.308V39.5912H187.553V44.1412C187.553 44.4359 187.605 44.6482 187.709 44.7782C187.813 44.8996 188.008 44.9602 188.294 44.9602H189.139V45.6362H188.19C187.67 45.6362 187.298 45.5019 187.072 45.2332C186.873 45.0079 186.773 44.6439 186.773 44.1412V39.5912H185.343V38.9152H186.773V37.0692L187.553 36.7442ZM193.203 38.7332C194.269 38.7332 195.066 39.0929 195.595 39.8122C196.072 40.4536 196.327 41.3506 196.362 42.5032H190.902C190.945 43.3266 191.166 43.9722 191.565 44.4402C191.981 44.9082 192.536 45.1422 193.229 45.1422C193.827 45.1422 194.321 44.9819 194.711 44.6612C195.023 44.3926 195.261 43.9982 195.426 43.4782H196.219C196.063 44.1282 195.764 44.6612 195.322 45.0772C194.776 45.5712 194.078 45.8182 193.229 45.8182C192.284 45.8182 191.53 45.4976 190.967 44.8562C190.386 44.2149 190.096 43.3526 190.096 42.2692C190.096 41.2812 190.373 40.4536 190.928 39.7862C191.5 39.0842 192.258 38.7332 193.203 38.7332ZM193.216 39.4092C192.549 39.4092 192.016 39.6389 191.617 40.0982C191.21 40.5576 190.976 41.1469 190.915 41.8662H195.543C195.413 40.2282 194.637 39.4092 193.216 39.4092ZM197.855 36.1722H198.635V45.6362H197.855V36.1722ZM200.762 36.1722H201.542V45.6362H200.762V36.1722ZM204.203 36.4972C204.385 36.4972 204.541 36.5622 204.671 36.6922C204.801 36.7962 204.866 36.9479 204.866 37.1472C204.866 37.3206 204.796 37.4766 204.658 37.6152C204.519 37.7366 204.367 37.7972 204.203 37.7972C204.012 37.7972 203.856 37.7366 203.735 37.6152C203.605 37.4852 203.54 37.3292 203.54 37.1472C203.54 36.9479 203.605 36.7962 203.735 36.6922C203.856 36.5622 204.012 36.4972 204.203 36.4972ZM203.813 38.9152H204.593V45.6362H203.813V38.9152ZM209.391 38.7332C210.5 38.7332 211.302 39.2446 211.796 40.2672V38.9152H212.576V45.1422C212.576 47.3089 211.57 48.3922 209.56 48.3922C208.684 48.3922 208.004 48.2016 207.519 47.8202C207.059 47.4562 206.773 46.9189 206.661 46.2082H207.441C207.536 46.7109 207.744 47.0836 208.065 47.3262C208.411 47.6036 208.91 47.7422 209.56 47.7422C211.05 47.7422 211.796 46.9059 211.796 45.2332V43.9462C211.302 44.9689 210.5 45.4802 209.391 45.4802C208.455 45.4802 207.705 45.1466 207.142 44.4792C206.622 43.8552 206.362 43.0666 206.362 42.1132C206.362 41.1599 206.622 40.3712 207.142 39.7472C207.705 39.0712 208.455 38.7332 209.391 38.7332ZM209.482 39.3962C208.736 39.3962 208.16 39.6649 207.753 40.2022C207.354 40.6876 207.155 41.3246 207.155 42.1132C207.155 42.8759 207.341 43.4999 207.714 43.9852C208.121 44.5312 208.706 44.8042 209.469 44.8042C210.214 44.8042 210.795 44.5442 211.211 44.0242C211.601 43.5302 211.796 42.8932 211.796 42.1132C211.796 41.3332 211.601 40.6962 211.211 40.2022C210.803 39.6649 210.227 39.3962 209.482 39.3962ZM216.931 38.7332C217.997 38.7332 218.794 39.0929 219.323 39.8122C219.799 40.4536 220.055 41.3506 220.09 42.5032H214.63C214.673 43.3266 214.894 43.9722 215.293 44.4402C215.709 44.9082 216.263 45.1422 216.957 45.1422C217.555 45.1422 218.049 44.9819 218.439 44.6612C218.751 44.3926 218.989 43.9982 219.154 43.4782H219.947C219.791 44.1282 219.492 44.6612 219.05 45.0772C218.504 45.5712 217.806 45.8182 216.957 45.8182C216.012 45.8182 215.258 45.4976 214.695 44.8562C214.114 44.2149 213.824 43.3526 213.824 42.2692C213.824 41.2812 214.101 40.4536 214.656 39.7862C215.228 39.0842 215.986 38.7332 216.931 38.7332ZM216.944 39.4092C216.276 39.4092 215.743 39.6389 215.345 40.0982C214.937 40.5576 214.703 41.1469 214.643 41.8662H219.271C219.141 40.2282 218.365 39.4092 216.944 39.4092ZM224.3 38.7332C225.964 38.7332 226.796 39.6562 226.796 41.5022V45.6362H226.016V41.5542C226.016 40.1242 225.379 39.4092 224.105 39.4092C223.567 39.4092 223.117 39.6042 222.753 39.9942C222.371 40.3756 222.159 40.9042 222.116 41.5802V45.6362H221.336V38.9152H222.116V40.0202C222.35 39.6216 222.653 39.3052 223.026 39.0712C223.39 38.8459 223.814 38.7332 224.3 38.7332ZM231.266 38.7332C232.072 38.7332 232.727 38.9282 233.229 39.3182C233.741 39.7082 234.048 40.3062 234.152 41.1122H233.372C233.286 40.5489 233.06 40.1242 232.696 39.8382C232.332 39.5522 231.856 39.4092 231.266 39.4092C230.556 39.4092 229.992 39.6822 229.576 40.2282C229.169 40.7396 228.965 41.4372 228.965 42.3212C228.965 43.1792 229.16 43.8639 229.55 44.3752C229.94 44.8866 230.508 45.1422 231.253 45.1422C232.501 45.1422 233.221 44.5052 233.411 43.2312H234.178C234.048 44.0806 233.728 44.7262 233.216 45.1682C232.714 45.6016 232.059 45.8182 231.253 45.8182C230.257 45.8182 229.485 45.4802 228.939 44.8042C228.428 44.1889 228.172 43.3612 228.172 42.3212C228.172 41.2986 228.437 40.4579 228.965 39.7992C229.52 39.0886 230.287 38.7332 231.266 38.7332ZM238.144 38.7332C239.21 38.7332 240.008 39.0929 240.536 39.8122C241.013 40.4536 241.269 41.3506 241.303 42.5032H235.843C235.887 43.3266 236.108 43.9722 236.506 44.4402C236.922 44.9082 237.477 45.1422 238.17 45.1422C238.768 45.1422 239.262 44.9819 239.652 44.6612C239.964 44.3926 240.203 43.9982 240.367 43.4782H241.16C241.004 44.1282 240.705 44.6612 240.263 45.0772C239.717 45.5712 239.02 45.8182 238.17 45.8182C237.226 45.8182 236.472 45.4976 235.908 44.8562C235.328 44.2149 235.037 43.3526 235.037 42.2692C235.037 41.2812 235.315 40.4536 235.869 39.7862C236.441 39.0842 237.2 38.7332 238.144 38.7332ZM238.157 39.4092C237.49 39.4092 236.957 39.6389 236.558 40.0982C236.151 40.5576 235.917 41.1469 235.856 41.8662H240.484C240.354 40.2282 239.579 39.4092 238.157 39.4092ZM250.805 36.3542V37.0432H249.674C249.327 37.0432 249.08 37.1299 248.933 37.3032C248.777 37.4679 248.699 37.7452 248.699 38.1352V38.9152H250.714V39.5912H248.699V45.6362H247.919V39.5912H246.125V38.9152H247.919V38.1222C247.919 37.5502 248.057 37.1212 248.335 36.8352C248.621 36.5146 249.045 36.3542 249.609 36.3542H250.805ZM254.628 38.7332C255.616 38.7332 256.409 39.0886 257.007 39.7992C257.553 40.4579 257.826 41.2856 257.826 42.2822C257.826 43.2616 257.553 44.0849 257.007 44.7522C256.4 45.4629 255.607 45.8182 254.628 45.8182C253.649 45.8182 252.856 45.4629 252.249 44.7522C251.703 44.0849 251.43 43.2616 251.43 42.2822C251.43 41.2856 251.707 40.4579 252.262 39.7992C252.843 39.0886 253.631 38.7332 254.628 38.7332ZM254.628 39.4092C253.857 39.4092 253.254 39.7039 252.821 40.2932C252.422 40.8046 252.223 41.4676 252.223 42.2822C252.223 43.0882 252.422 43.7469 252.821 44.2582C253.263 44.8476 253.865 45.1422 254.628 45.1422C255.399 45.1422 256.006 44.8476 256.448 44.2582C256.847 43.7122 257.046 43.0536 257.046 42.2822C257.046 41.4849 256.847 40.8219 256.448 40.2932C256.015 39.7039 255.408 39.4092 254.628 39.4092ZM262.027 38.7332C262.443 38.7332 262.768 38.7809 263.002 38.8762V39.6692C262.681 39.5739 262.339 39.5262 261.975 39.5262C261.359 39.5262 260.874 39.7949 260.519 40.3322C260.163 40.8176 259.986 41.4026 259.986 42.0872V45.6362H259.206V38.9152H259.986V40.2022C260.168 39.7776 260.415 39.4439 260.727 39.2012C261.091 38.8892 261.524 38.7332 262.027 38.7332ZM267.465 36.3542H268.349L271.456 44.7912H271.495L274.602 36.3542H275.486L271.989 45.6362H270.975L267.465 36.3542ZM277.15 36.4972C277.332 36.4972 277.488 36.5622 277.618 36.6922C277.748 36.7962 277.813 36.9479 277.813 37.1472C277.813 37.3206 277.743 37.4766 277.605 37.6152C277.466 37.7366 277.314 37.7972 277.15 37.7972C276.959 37.7972 276.803 37.7366 276.682 37.6152C276.552 37.4852 276.487 37.3292 276.487 37.1472C276.487 36.9479 276.552 36.7962 276.682 36.6922C276.803 36.5622 276.959 36.4972 277.15 36.4972ZM276.76 38.9152H277.54V45.6362H276.76V38.9152ZM281.194 36.7442V38.9152H282.949V39.5912H281.194V44.1412C281.194 44.4359 281.246 44.6482 281.35 44.7782C281.454 44.8996 281.649 44.9602 281.935 44.9602H282.78V45.6362H281.831C281.311 45.6362 280.938 45.5019 280.713 45.2332C280.514 45.0079 280.414 44.6439 280.414 44.1412V39.5912H278.984V38.9152H280.414V37.0692L281.194 36.7442ZM286.974 38.7332C287.918 38.7332 288.616 38.9889 289.067 39.5002C289.465 39.9422 289.665 40.5446 289.665 41.3072V45.6362H288.924V44.3492C288.646 44.7479 288.282 45.0816 287.832 45.3502C287.303 45.6622 286.718 45.8182 286.077 45.8182C285.418 45.8182 284.885 45.6492 284.478 45.3112C284.07 44.9646 283.867 44.5009 283.867 43.9202C283.867 43.0622 284.218 42.4382 284.92 42.0482C285.483 41.7276 286.233 41.5672 287.169 41.5672L288.885 41.5542V41.3072C288.885 40.0332 288.235 39.3962 286.935 39.3962C286.337 39.3962 285.869 39.5219 285.531 39.7732C285.149 40.0246 284.92 40.4146 284.842 40.9432H284.075C284.179 40.1892 284.495 39.6259 285.024 39.2532C285.509 38.9066 286.159 38.7332 286.974 38.7332ZM288.885 42.1912L287.208 42.2042C285.509 42.2129 284.66 42.7806 284.66 43.9072C284.66 44.2799 284.803 44.5832 285.089 44.8172C285.366 45.0512 285.747 45.1682 286.233 45.1682C286.935 45.1682 287.559 44.9342 288.105 44.4662C288.625 44.0069 288.885 43.5086 288.885 42.9712V42.1912ZM291.546 36.1722H292.326V45.6362H291.546V36.1722ZM294.987 36.4972C295.169 36.4972 295.325 36.5622 295.455 36.6922C295.585 36.7962 295.65 36.9479 295.65 37.1472C295.65 37.3206 295.58 37.4766 295.442 37.6152C295.303 37.7366 295.151 37.7972 294.987 37.7972C294.796 37.7972 294.64 37.7366 294.519 37.6152C294.389 37.4852 294.324 37.3292 294.324 37.1472C294.324 36.9479 294.389 36.7962 294.519 36.6922C294.64 36.5622 294.796 36.4972 294.987 36.4972ZM294.597 38.9152H295.377V45.6362H294.597V38.9152ZM299.031 36.7442V38.9152H300.786V39.5912H299.031V44.1412C299.031 44.4359 299.083 44.6482 299.187 44.7782C299.291 44.8996 299.486 44.9602 299.772 44.9602H300.617V45.6362H299.668C299.148 45.6362 298.775 45.5019 298.55 45.2332C298.351 45.0079 298.251 44.6439 298.251 44.1412V39.5912H296.821V38.9152H298.251V37.0692L299.031 36.7442ZM301.21 38.9152H302.068L304.265 44.5182L306.436 38.9152H307.294L303.589 48.2102H302.744L303.875 45.4672L301.21 38.9152Z" fill="white"/>
<defs>
<clipPath id="clip0_73_2">
<rect width="64.8235" height="50.0909" fill="white"/>
</clipPath>
</defs>
</svg>
