<svg width="1405" height="601" viewBox="0 0 1405 601" fill="none" xmlns="http://www.w3.org/2000/svg">
<path d="M20.5455 471H4.04545V424.455H20.6818C25.3636 424.455 29.3939 425.386 32.7727 427.25C36.1515 429.098 38.75 431.758 40.5682 435.227C42.4015 438.697 43.3182 442.848 43.3182 447.682C43.3182 452.53 42.4015 456.697 40.5682 460.182C38.75 463.667 36.1364 466.341 32.7273 468.205C29.3333 470.068 25.2727 471 20.5455 471ZM13.8864 462.568H20.1364C23.0455 462.568 25.4924 462.053 27.4773 461.023C29.4773 459.977 30.9773 458.364 31.9773 456.182C32.9924 453.985 33.5 451.152 33.5 447.682C33.5 444.242 32.9924 441.432 31.9773 439.25C30.9773 437.068 29.4848 435.462 27.5 434.432C25.5152 433.402 23.0682 432.886 20.1591 432.886H13.8864V462.568ZM60.4489 424.455V471H50.608V424.455H60.4489ZM76.9545 424.455L88.2045 459.818H88.6364L99.9091 424.455H110.818L94.7727 471H82.0909L66.0227 424.455H76.9545ZM133.369 471V424.455H137.619V467.182H159.801V471H133.369ZM172.375 471H167.92L184.852 424.455H189.398L206.33 471H201.875L187.284 429.977H186.966L172.375 471ZM175.58 453.159H198.67V456.977H175.58V453.159ZM214.307 471V424.455H230.011C233.042 424.455 235.564 424.985 237.58 426.045C239.61 427.106 241.133 428.553 242.148 430.386C243.163 432.22 243.67 434.303 243.67 436.636C243.67 438.576 243.345 440.235 242.693 441.614C242.042 442.992 241.155 444.106 240.034 444.955C238.913 445.803 237.663 446.417 236.284 446.795V447.159C237.784 447.265 239.239 447.795 240.648 448.75C242.057 449.689 243.216 451.008 244.125 452.705C245.034 454.402 245.489 456.432 245.489 458.795C245.489 461.144 244.966 463.242 243.92 465.091C242.875 466.924 241.269 468.371 239.102 469.432C236.951 470.477 234.208 471 230.875 471H214.307ZM218.557 467.182H230.875C234.466 467.182 237.117 466.386 238.83 464.795C240.557 463.205 241.42 461.205 241.42 458.795C241.42 457.023 240.989 455.417 240.125 453.977C239.277 452.523 238.072 451.371 236.511 450.523C234.966 449.674 233.148 449.25 231.057 449.25H218.557V467.182ZM218.557 445.477H230.398C232.231 445.477 233.837 445.098 235.216 444.341C236.595 443.583 237.67 442.538 238.443 441.205C239.216 439.871 239.602 438.348 239.602 436.636C239.602 434.167 238.799 432.159 237.193 430.614C235.587 429.053 233.193 428.273 230.011 428.273H218.557V445.477Z" fill="white"/>
<path d="M1353.18 98V95.7841L1358.36 90.9901C1358.8 90.5639 1359.17 90.1804 1359.46 89.8395C1359.77 89.4986 1360 89.1648 1360.15 88.8381C1360.31 88.5066 1360.39 88.1491 1360.39 87.7656C1360.39 87.3395 1360.29 86.9725 1360.1 86.6648C1359.9 86.3523 1359.64 86.1132 1359.3 85.9474C1358.96 85.777 1358.58 85.6918 1358.16 85.6918C1357.71 85.6918 1357.32 85.7817 1356.99 85.9616C1356.66 86.1416 1356.41 86.3996 1356.23 86.7358C1356.05 87.072 1355.96 87.4721 1355.96 87.9361H1353.04C1353.04 86.9844 1353.25 86.1581 1353.68 85.4574C1354.11 84.7566 1354.72 84.2145 1355.49 83.831C1356.27 83.4474 1357.17 83.2557 1358.18 83.2557C1359.22 83.2557 1360.13 83.4403 1360.9 83.8097C1361.68 84.1742 1362.28 84.6809 1362.71 85.3295C1363.14 85.9782 1363.36 86.7216 1363.36 87.5597C1363.36 88.1089 1363.25 88.651 1363.03 89.1861C1362.82 89.7211 1362.44 90.3153 1361.89 90.9688C1361.34 91.6174 1360.56 92.3963 1359.56 93.3054L1357.44 95.3864V95.4858H1363.55V98H1353.18ZM1371.48 98.3196C1370.26 98.3149 1369.21 98.0142 1368.33 97.4176C1367.45 96.821 1366.78 95.9569 1366.3 94.8253C1365.83 93.6937 1365.6 92.3324 1365.61 90.7415C1365.61 89.1553 1365.84 87.8035 1366.31 86.6861C1366.78 85.5687 1367.46 84.7187 1368.33 84.1364C1369.21 83.5492 1370.26 83.2557 1371.48 83.2557C1372.7 83.2557 1373.74 83.5492 1374.62 84.1364C1375.5 84.7235 1376.18 85.5758 1376.65 86.6932C1377.12 87.8059 1377.36 89.1553 1377.35 90.7415C1377.35 92.3371 1377.12 93.7008 1376.64 94.8324C1376.17 95.964 1375.5 96.8281 1374.63 97.4247C1373.75 98.0213 1372.7 98.3196 1371.48 98.3196ZM1371.48 95.7699C1372.31 95.7699 1372.98 95.3509 1373.48 94.5128C1373.97 93.6747 1374.22 92.4176 1374.21 90.7415C1374.21 89.6383 1374.1 88.7197 1373.87 87.9858C1373.65 87.2519 1373.33 86.7003 1372.92 86.331C1372.51 85.9616 1372.03 85.777 1371.48 85.777C1370.65 85.777 1369.99 86.1913 1369.49 87.0199C1368.99 87.8485 1368.74 89.089 1368.74 90.7415C1368.74 91.8589 1368.85 92.7917 1369.07 93.5398C1369.3 94.2831 1369.62 94.8419 1370.03 95.2159C1370.44 95.5852 1370.93 95.7699 1371.48 95.7699ZM1379.55 98V95.7841L1384.72 90.9901C1385.16 90.5639 1385.53 90.1804 1385.83 89.8395C1386.13 89.4986 1386.36 89.1648 1386.52 88.8381C1386.68 88.5066 1386.75 88.1491 1386.75 87.7656C1386.75 87.3395 1386.66 86.9725 1386.46 86.6648C1386.27 86.3523 1386 86.1132 1385.67 85.9474C1385.33 85.777 1384.95 85.6918 1384.52 85.6918C1384.08 85.6918 1383.69 85.7817 1383.36 85.9616C1383.03 86.1416 1382.77 86.3996 1382.59 86.7358C1382.41 87.072 1382.32 87.4721 1382.32 87.9361H1379.4C1379.4 86.9844 1379.62 86.1581 1380.05 85.4574C1380.48 84.7566 1381.08 84.2145 1381.86 83.831C1382.64 83.4474 1383.53 83.2557 1384.55 83.2557C1385.59 83.2557 1386.49 83.4403 1387.27 83.8097C1388.04 84.1742 1388.65 84.6809 1389.08 85.3295C1389.51 85.9782 1389.72 86.7216 1389.72 87.5597C1389.72 88.1089 1389.61 88.651 1389.4 89.1861C1389.18 89.7211 1388.8 90.3153 1388.25 90.9688C1387.7 91.6174 1386.93 92.3963 1385.93 93.3054L1383.81 95.3864V95.4858H1389.92V98H1379.55ZM1391.61 95.4432V93.0213L1397.68 83.4545H1399.77V86.8068H1398.54L1394.71 92.8651V92.9787H1403.34V95.4432H1391.61ZM1398.59 98V94.7045L1398.65 93.6321V83.4545H1401.53V98H1398.59Z" fill="white"/>
<path d="M1090.9 455.36H1103.22V463.56H1101.68V456.6H1092.36V463.6H1090.9V455.36ZM1091.74 458.48H1102.24V459.64H1091.74V458.48ZM1090.14 446.86H1096.52V448.08H1090.14V446.86ZM1087.98 450H1097.04V451.22H1087.98V450ZM1091.74 461.62H1102.24V462.86H1091.74V461.62ZM1092.14 447.3H1093.58V449.28C1093.58 451.22 1093 453.9 1088.76 455.8C1088.56 455.5 1088.14 455.02 1087.8 454.78C1091.84 453.18 1092.14 450.84 1092.14 449.26V447.3ZM1090.24 445.14L1091.6 445.42C1091.08 447.14 1090.16 448.8 1089.18 449.9C1088.92 449.7 1088.32 449.32 1087.98 449.18C1089 448.16 1089.8 446.66 1090.24 445.14ZM1093.14 451.52C1093.86 451.9 1096.3 453.38 1096.88 453.78L1095.84 454.82C1095.1 454.2 1093.02 452.72 1092.16 452.18L1093.14 451.52ZM1099.28 448.18V452.44H1103.44V448.18H1099.28ZM1097.88 446.84H1104.92V453.82H1097.88V446.84ZM1111.14 445.2L1112.7 445.56C1111.98 447.22 1111.04 449.16 1110.24 450.42L1108.96 450.04C1109.72 448.76 1110.66 446.66 1111.14 445.2ZM1107.78 449.44C1109.88 449.38 1113.06 449.24 1116.2 449.1L1116.18 450.44C1113.2 450.62 1110.1 450.78 1107.92 450.9L1107.78 449.44ZM1109 452.34H1115.34V453.62H1110.4V463.58H1109V452.34ZM1114.66 452.34H1116.14V461.88C1116.14 462.64 1115.98 463.06 1115.44 463.3C1114.88 463.54 1114 463.56 1112.74 463.56C1112.66 463.16 1112.44 462.56 1112.24 462.18C1113.18 462.22 1114.04 462.2 1114.32 462.18C1114.58 462.18 1114.66 462.12 1114.66 461.86V452.34ZM1109.66 455.32H1115.44V456.5H1109.66V455.32ZM1109.66 458.32H1115.44V459.52H1109.66V458.32ZM1118.02 445.24H1119.5V451.86C1119.5 452.5 1119.66 452.64 1120.58 452.64C1121 452.64 1123.18 452.64 1123.76 452.64C1124.54 452.64 1124.68 452.3 1124.76 450.32C1125.08 450.58 1125.68 450.8 1126.12 450.9C1125.94 453.34 1125.5 454 1123.88 454C1123.46 454 1120.84 454 1120.44 454C1118.52 454 1118.02 453.54 1118.02 451.88V445.24ZM1124.14 446.72L1125.14 447.82C1123.44 448.62 1121.04 449.4 1118.98 449.98C1118.9 449.66 1118.7 449.22 1118.52 448.92C1120.5 448.3 1122.78 447.42 1124.14 446.72ZM1118.02 454.54H1119.5V461.3C1119.5 461.98 1119.68 462.1 1120.64 462.1C1121.06 462.1 1123.32 462.1 1123.92 462.1C1124.78 462.1 1124.9 461.72 1125 459.46C1125.34 459.7 1125.94 459.94 1126.36 460.02C1126.16 462.72 1125.72 463.44 1124.04 463.44C1123.6 463.44 1120.9 463.44 1120.48 463.44C1118.54 463.44 1118.02 462.98 1118.02 461.32V454.54ZM1124.38 455.64L1125.38 456.76C1123.7 457.72 1121.14 458.54 1118.98 459.12C1118.9 458.82 1118.68 458.34 1118.52 458.04C1120.6 457.44 1123.02 456.52 1124.38 455.64ZM1113.64 447.1L1114.88 446.6C1115.94 448 1117.06 449.84 1117.52 451.08L1116.2 451.66C1115.78 450.44 1114.7 448.52 1113.64 447.1ZM1129.42 446.5L1130.4 445.58C1131.48 446.46 1132.84 447.74 1133.48 448.56L1132.46 449.64C1131.84 448.78 1130.5 447.44 1129.42 446.5ZM1130.48 463.2L1130.2 461.86L1130.6 461.24L1134.34 458.52C1134.48 458.92 1134.72 459.48 1134.9 459.76C1131.34 462.4 1130.8 462.82 1130.48 463.2ZM1127.86 451.48H1131.4V452.94H1127.86V451.48ZM1137.22 445.94H1142.46V447.34H1137.22V445.94ZM1134.66 454.04H1144V455.46H1134.66V454.04ZM1143.54 454.04H1143.82L1144.08 453.98L1145 454.4C1143.36 459.62 1139.2 462.38 1134.54 463.62C1134.4 463.24 1134.08 462.64 1133.82 462.3C1138.14 461.34 1142.12 458.7 1143.54 454.28V454.04ZM1136.68 455.1C1138.26 458.76 1141.66 461.38 1146.26 462.34C1145.92 462.66 1145.52 463.26 1145.32 463.66C1140.6 462.52 1137.24 459.68 1135.42 455.54L1136.68 455.1ZM1136.82 445.94H1138.22V448.18C1138.22 450.06 1137.58 452.22 1134.7 453.6C1134.52 453.3 1134 452.72 1133.72 452.5C1136.36 451.28 1136.82 449.62 1136.82 448.16V445.94ZM1141.76 445.94H1143.18V450.58C1143.18 451.14 1143.24 451.34 1143.54 451.34C1143.78 451.34 1144.68 451.34 1144.94 451.34C1145.2 451.34 1145.62 451.3 1145.88 451.24C1145.9 451.62 1145.96 452.18 1146.02 452.52C1145.76 452.62 1145.36 452.64 1144.96 452.64C1144.66 452.64 1143.68 452.64 1143.44 452.64C1142.06 452.64 1141.76 452.06 1141.76 450.56V445.94ZM1130.48 463.2C1130.36 462.86 1129.94 462.22 1129.68 461.94C1130.04 461.68 1130.68 461.02 1130.68 460.12V451.48H1132.12V461.4C1132.12 461.4 1130.48 462.62 1130.48 463.2ZM1149.74 446.52L1150.7 445.56C1151.82 446.44 1153.24 447.72 1153.9 448.56L1152.9 449.66C1152.24 448.82 1150.84 447.46 1149.74 446.52ZM1150.9 463.22L1150.62 461.74L1151.06 461.1L1155.06 458.36C1155.16 458.78 1155.4 459.4 1155.56 459.7C1151.78 462.38 1151.22 462.8 1150.9 463.22ZM1147.92 451.48H1152.02V452.98H1147.92V451.48ZM1154.42 451.84H1166.18V453.38H1154.42V451.84ZM1159.5 445.26H1161.08V463.6H1159.5V445.26ZM1150.9 463.22C1150.76 462.82 1150.38 462.16 1150.1 461.84C1150.48 461.6 1151.08 461.02 1151.08 460.16V451.48H1152.6V461.5C1152.6 461.5 1150.9 462.64 1150.9 463.22ZM1186.13 456.233V454.805C1186.95 454.805 1187.52 454.642 1187.84 454.315C1188.16 453.989 1188.31 453.461 1188.31 452.732V451.162C1188.31 450.286 1188.43 449.585 1188.68 449.06C1188.92 448.529 1189.26 448.129 1189.7 447.859C1190.14 447.589 1190.66 447.41 1191.26 447.32C1191.86 447.23 1192.52 447.185 1193.24 447.185V449.443C1192.68 449.443 1192.25 449.517 1191.96 449.663C1191.67 449.805 1191.47 450.028 1191.37 450.331C1191.26 450.629 1191.21 451.008 1191.21 451.467V453.541C1191.21 453.901 1191.15 454.244 1191.01 454.571C1190.88 454.893 1190.63 455.179 1190.27 455.43C1189.91 455.677 1189.4 455.873 1188.73 456.02C1188.07 456.162 1187.2 456.233 1186.13 456.233ZM1193.24 465.161C1192.52 465.161 1191.86 465.116 1191.26 465.026C1190.66 464.936 1190.14 464.756 1189.7 464.486C1189.26 464.216 1188.92 463.816 1188.68 463.286C1188.43 462.76 1188.31 462.059 1188.31 461.183V459.607C1188.31 458.877 1188.16 458.349 1187.84 458.023C1187.52 457.696 1186.95 457.533 1186.13 457.533V456.105C1187.2 456.105 1188.07 456.179 1188.73 456.325C1189.4 456.467 1189.91 456.664 1190.27 456.915C1190.63 457.161 1190.88 457.447 1191.01 457.774C1191.15 458.096 1191.21 458.439 1191.21 458.804V460.878C1191.21 461.332 1191.26 461.709 1191.37 462.007C1191.47 462.31 1191.67 462.533 1191.96 462.675C1192.25 462.821 1192.68 462.895 1193.24 462.895V465.161ZM1186.13 457.533V454.805H1188.68V457.533H1186.13ZM1200.21 448.8H1216.37V451.14H1200.21V448.8ZM1201.27 454.62H1215.41V456.94H1201.27V454.62ZM1199.35 460.82H1217.35V463.18H1199.35V460.82ZM1207.01 450.84H1209.65V462.08H1207.01V450.84ZM1205.23 446.36L1207.21 444.98C1208.49 445.8 1210.21 447.1 1211.07 448.04L1208.95 449.58C1208.19 448.66 1206.55 447.3 1205.23 446.36ZM1228.39 449.36H1236.25V451.66H1228.39V449.36ZM1235.01 449.36H1237.37C1237.37 449.36 1237.35 450.16 1237.35 450.44C1237.13 458.56 1236.93 461.5 1236.25 462.44C1235.77 463.12 1235.31 463.34 1234.59 463.46C1233.95 463.58 1232.93 463.58 1231.91 463.54C1231.85 462.86 1231.59 461.84 1231.17 461.18C1232.13 461.28 1232.99 461.28 1233.43 461.28C1233.75 461.28 1233.95 461.2 1234.17 460.94C1234.65 460.34 1234.85 457.48 1235.01 449.88V449.36ZM1230.67 445.38H1233.03C1233.01 453.16 1232.93 459.86 1228.97 463.78C1228.57 463.18 1227.79 462.34 1227.17 461.94C1230.77 458.5 1230.65 452.56 1230.67 445.38ZM1219.93 446.56H1227.81V448.68H1219.93V446.56ZM1219.27 451.22H1228.15V453.38H1219.27V451.22ZM1225.03 455.2L1226.95 454.66C1227.69 456.34 1228.53 458.58 1228.85 459.96L1226.77 460.62C1226.49 459.24 1225.73 456.94 1225.03 455.2ZM1220.15 461.62L1219.91 459.6L1220.93 458.84L1227.39 457.32C1227.45 457.96 1227.61 458.86 1227.73 459.36C1221.69 460.92 1220.75 461.24 1220.15 461.62ZM1220.13 461.62C1220.01 461.16 1219.63 460.06 1219.37 459.48C1219.75 459.34 1220.03 458.88 1220.37 458.14C1220.67 457.44 1221.59 454.66 1222.01 452.14L1224.37 452.82C1223.77 455.44 1222.69 458.34 1221.69 460.34V460.38C1221.69 460.38 1220.13 461.18 1220.13 461.62ZM1251.23 445.16H1253.41V460.9H1251.23V445.16ZM1247.43 449.28H1257.79V451.02H1247.43V449.28ZM1247.99 457.34H1257.41V459.08H1247.99V457.34ZM1248.49 454.62H1256.91V456.36H1248.49V454.62ZM1243.73 446.62H1246.51V448.54H1243.73V446.62ZM1244.75 452.12H1246.95V453.86H1244.75V452.12ZM1245.97 446.62H1246.25L1246.59 446.54L1248.09 446.92C1247.27 449.2 1245.99 452.26 1244.93 454.68L1242.97 454.22C1244.05 451.82 1245.35 448.56 1245.97 446.86V446.62ZM1246.37 452.12H1246.75L1247.13 452.08L1248.39 452.28C1247.99 457.92 1246.71 461.66 1244.01 463.76C1243.73 463.24 1243.13 462.4 1242.69 461.98C1244.87 460.44 1246.07 456.88 1246.37 452.46V452.12ZM1244.87 455.1C1245.95 460.36 1248.51 461.4 1252.29 461.42C1253.21 461.42 1256.81 461.42 1257.95 461.36C1257.63 461.88 1257.31 462.9 1257.19 463.52H1252.17C1247.39 463.52 1244.51 462.14 1243.07 455.62L1244.87 455.1ZM1248.73 446.64H1256.79V453.68H1248.73V451.94H1254.77V448.38H1248.73V446.64ZM1242.13 445.08L1244.27 445.72C1243.23 449.04 1241.51 452.64 1239.61 454.94C1239.45 454.38 1238.89 452.98 1238.55 452.36C1240.03 450.56 1241.35 447.84 1242.13 445.08ZM1240.77 450.86L1242.83 448.8L1242.87 448.84V463.78H1240.77V450.86ZM1263.15 452.32H1277.69V454H1263.15V452.32ZM1264.33 449.8H1275.89V456.56H1264.11V454.96H1273.63V451.42H1264.33V449.8ZM1268.53 448.64H1270.83V461.44C1270.83 462.64 1270.57 463.16 1269.79 463.48C1269.01 463.8 1267.87 463.84 1266.21 463.84C1266.11 463.26 1265.81 462.38 1265.49 461.82C1266.53 461.86 1267.73 461.86 1268.07 461.84C1268.41 461.84 1268.53 461.74 1268.53 461.42V448.64ZM1263.15 457.78L1264.45 456.5C1265.43 456.96 1266.71 457.74 1267.37 458.3L1265.97 459.72C1265.39 459.14 1264.13 458.32 1263.15 457.78ZM1275.13 456.64L1276.89 458.06C1275.63 458.88 1274.17 459.72 1273.03 460.22L1271.69 459.02C1272.77 458.44 1274.27 457.4 1275.13 456.64ZM1271.21 456.06C1272.21 458.72 1274.29 460.78 1277.37 461.66C1276.87 462.1 1276.23 462.98 1275.91 463.58C1272.65 462.4 1270.59 459.9 1269.41 456.48L1271.21 456.06ZM1262.31 461.16C1263.63 460.74 1265.61 460 1267.55 459.26L1267.97 460.98C1266.43 461.72 1264.77 462.46 1263.43 463.06L1262.31 461.16ZM1267.71 445.02H1270.21V447.84H1267.71V445.02ZM1261.65 446.74H1277.45V448.82H1261.65V446.74ZM1260.51 446.74H1262.79V452.54C1262.79 455.82 1262.49 460.76 1260.69 463.88C1260.27 463.48 1259.27 462.8 1258.73 462.58C1260.39 459.7 1260.51 455.52 1260.51 452.54V446.74ZM1290.52 456.105V457.533C1289.71 457.533 1289.14 457.696 1288.82 458.023C1288.5 458.349 1288.34 458.877 1288.34 459.607V461.183C1288.34 462.059 1288.22 462.76 1287.97 463.286C1287.73 463.816 1287.39 464.216 1286.95 464.486C1286.51 464.756 1285.99 464.936 1285.39 465.026C1284.8 465.116 1284.14 465.161 1283.42 465.161V462.895C1283.98 462.895 1284.4 462.821 1284.69 462.675C1284.98 462.533 1285.18 462.31 1285.29 462.007C1285.39 461.709 1285.44 461.332 1285.44 460.878V458.804C1285.44 458.439 1285.51 458.096 1285.64 457.774C1285.77 457.447 1286.02 457.161 1286.38 456.915C1286.74 456.664 1287.25 456.467 1287.92 456.325C1288.59 456.179 1289.46 456.105 1290.52 456.105ZM1283.42 447.185C1284.14 447.185 1284.8 447.23 1285.39 447.32C1285.99 447.41 1286.51 447.589 1286.95 447.859C1287.39 448.129 1287.73 448.529 1287.97 449.06C1288.22 449.585 1288.34 450.286 1288.34 451.162V452.732C1288.34 453.461 1288.5 453.989 1288.82 454.315C1289.14 454.642 1289.71 454.805 1290.52 454.805V456.233C1289.46 456.233 1288.59 456.162 1287.92 456.02C1287.25 455.873 1286.74 455.677 1286.38 455.43C1286.02 455.179 1285.77 454.893 1285.64 454.571C1285.51 454.244 1285.44 453.901 1285.44 453.541V451.467C1285.44 451.008 1285.39 450.629 1285.29 450.331C1285.18 450.028 1284.98 449.805 1284.69 449.663C1284.4 449.517 1283.98 449.443 1283.42 449.443V447.185ZM1290.52 454.805V457.533H1287.97V454.805H1290.52ZM1318.36 446.42H1328.18V447.86H1318.36V446.42ZM1324.2 452.38H1325.72V461.68C1325.72 462.62 1325.5 463.08 1324.82 463.32C1324.14 463.54 1323 463.56 1321.04 463.56C1320.98 463.14 1320.78 462.52 1320.56 462.08C1321.98 462.12 1323.32 462.12 1323.68 462.1C1324.08 462.08 1324.2 462 1324.2 461.66V452.38ZM1317.48 451.94H1328.76V453.36H1317.48V451.94ZM1313.48 453.48L1314.8 452.18L1314.98 452.26V463.66H1313.48V453.48ZM1315.8 449.48L1317.22 450.02C1315.66 452.56 1313.3 455.14 1311.2 456.82C1310.98 456.52 1310.46 455.86 1310.14 455.58C1312.22 454.1 1314.42 451.78 1315.8 449.48ZM1314.98 445.2L1316.42 445.78C1315.08 447.54 1313.02 449.48 1311.24 450.76C1311.02 450.44 1310.62 449.86 1310.36 449.56C1312.02 448.44 1313.96 446.64 1314.98 445.2ZM1331.28 450.02H1346.72V451.52H1331.28V450.02ZM1346.1 450.02H1347.66C1347.66 450.02 1347.66 450.58 1347.64 450.8C1347.34 458.82 1347.06 461.66 1346.26 462.58C1345.82 463.14 1345.34 463.32 1344.62 463.38C1343.92 463.44 1342.64 463.42 1341.42 463.34C1341.38 462.9 1341.18 462.24 1340.9 461.78C1342.24 461.92 1343.5 461.92 1344 461.92C1344.42 461.92 1344.64 461.86 1344.88 461.62C1345.52 460.98 1345.84 458.02 1346.1 450.34V450.02ZM1337.86 445.24H1339.38V447.62C1339.38 452.1 1338.9 458.7 1331.92 463.34C1331.68 462.98 1331.12 462.48 1330.74 462.22C1337.44 457.88 1337.86 451.76 1337.86 447.62V445.24ZM1332.88 446.32L1334.18 445.76C1334.98 446.64 1335.92 447.9 1336.34 448.72L1334.98 449.36C1334.6 448.56 1333.68 447.26 1332.88 446.32ZM1339.62 454.6L1340.86 453.98C1341.92 455.16 1343.14 456.78 1343.66 457.84L1342.34 458.54C1341.84 457.48 1340.64 455.8 1339.62 454.6ZM1351.84 452.32H1356.92V453.7H1351.84V452.32ZM1351.04 446.96H1357.84V454.46H1356.4V448.36H1351.04V446.96ZM1351.04 452.32H1352.5V458.7C1352.5 459.34 1352.64 459.44 1353.48 459.44C1353.86 459.44 1355.8 459.44 1356.3 459.44C1357.02 459.44 1357.14 459.12 1357.22 457.08C1357.54 457.34 1358.16 457.58 1358.58 457.68C1358.4 460.22 1357.98 460.86 1356.42 460.86C1356.02 460.86 1353.7 460.86 1353.32 460.86C1351.54 460.86 1351.04 460.42 1351.04 458.72V452.32ZM1360.66 448.88H1368.9V450.3H1360.66V448.88ZM1361.18 445.22L1362.74 445.48C1361.96 449.1 1360.66 452.42 1358.92 454.58C1358.62 454.32 1357.96 453.86 1357.58 453.64C1359.34 451.66 1360.54 448.54 1361.18 445.22ZM1365.86 449.44L1367.38 449.62C1366.26 457.08 1363.7 461.24 1357.76 463.68C1357.6 463.34 1357.14 462.68 1356.84 462.34C1362.56 460.28 1364.9 456.36 1365.86 449.44ZM1361.26 450.16C1362.34 455.84 1364.68 460.42 1369.14 462.3C1368.8 462.6 1368.32 463.18 1368.08 463.6C1363.44 461.42 1361.1 456.66 1359.88 450.42L1361.26 450.16ZM1376.58 448H1378.1V454.66H1376.58V448ZM1371.06 447.24H1388.26V448.6H1371.06V447.24ZM1374.1 449.44L1375.46 449.78C1374.78 451.4 1373.66 453.02 1372.58 454.06C1372.32 453.84 1371.74 453.44 1371.4 453.26C1372.52 452.3 1373.52 450.86 1374.1 449.44ZM1383.48 450.2L1384.58 449.54C1385.88 450.66 1387.36 452.28 1388.06 453.32L1386.86 454.1C1386.16 453 1384.7 451.32 1383.48 450.2ZM1378.28 445.38L1379.72 445.02C1380.22 445.72 1380.76 446.68 1381.02 447.3L1379.52 447.72C1379.28 447.1 1378.74 446.12 1378.28 445.38ZM1381.18 447.88H1382.68V454.64H1381.18V447.88ZM1375.02 455.82C1377.4 459.5 1382.48 461.66 1388.76 462.34C1388.46 462.66 1388.1 463.26 1387.9 463.64C1381.56 462.84 1376.48 460.52 1373.78 456.36L1375.02 455.82ZM1372.3 455.24H1384.88V456.56H1372.3V455.24ZM1384.56 455.24H1384.88L1385.16 455.16L1386.1 455.82C1383.44 460.48 1377.54 462.68 1371.44 463.66C1371.3 463.28 1370.94 462.64 1370.68 462.32C1376.68 461.54 1382.32 459.52 1384.56 455.48V455.24Z" fill="white"/>
<path d="M1354 69H1400" stroke="white" stroke-width="2"/>
<path d="M1330.99 22H1325.83V7.45455H1331.03C1332.5 7.45455 1333.76 7.74574 1334.81 8.32812C1335.87 8.90578 1336.68 9.73674 1337.25 10.821C1337.82 11.9053 1338.11 13.2027 1338.11 14.7131C1338.11 16.2282 1337.82 17.5303 1337.25 18.6193C1336.68 19.7083 1335.86 20.544 1334.8 21.1264C1333.74 21.7088 1332.47 22 1330.99 22ZM1328.91 19.3651H1330.86C1331.77 19.3651 1332.54 19.2041 1333.16 18.8821C1333.78 18.5554 1334.25 18.0511 1334.56 17.3693C1334.88 16.6828 1335.04 15.7973 1335.04 14.7131C1335.04 13.6383 1334.88 12.7599 1334.56 12.0781C1334.25 11.3963 1333.78 10.8944 1333.16 10.5724C1332.54 10.2505 1331.78 10.0895 1330.87 10.0895H1328.91V19.3651ZM1340.39 22V7.45455H1350.19V9.99006H1343.46V13.456H1349.68V15.9915H1343.46V19.4645H1350.21V22H1340.39ZM1360.52 11.6378C1360.47 11.0649 1360.22 10.6198 1359.79 10.3026C1359.36 9.98532 1358.77 9.8267 1358.04 9.8267C1357.53 9.8267 1357.11 9.89773 1356.76 10.0398C1356.42 10.1771 1356.15 10.3688 1355.97 10.6151C1355.79 10.8613 1355.7 11.1406 1355.7 11.4531C1355.69 11.7135 1355.74 11.9408 1355.86 12.1349C1355.99 12.3291 1356.15 12.4972 1356.37 12.6392C1356.58 12.7765 1356.83 12.8973 1357.11 13.0014C1357.39 13.1009 1357.68 13.1861 1358 13.2571L1359.31 13.5696C1359.94 13.7116 1360.52 13.901 1361.05 14.1378C1361.58 14.3745 1362.04 14.6657 1362.43 15.0114C1362.82 15.357 1363.12 15.7642 1363.33 16.233C1363.55 16.7017 1363.66 17.2391 1363.67 17.8452C1363.66 18.7353 1363.44 19.5071 1362.99 20.1605C1362.54 20.8092 1361.9 21.3134 1361.05 21.6733C1360.22 22.0284 1359.21 22.206 1358.02 22.206C1356.85 22.206 1355.83 22.026 1354.95 21.6662C1354.09 21.3063 1353.41 20.7737 1352.92 20.0682C1352.44 19.358 1352.19 18.4796 1352.16 17.4332H1355.14C1355.17 17.9209 1355.31 18.3281 1355.56 18.6548C1355.81 18.9768 1356.14 19.2206 1356.56 19.3864C1356.98 19.5473 1357.46 19.6278 1357.99 19.6278C1358.51 19.6278 1358.96 19.5521 1359.34 19.4006C1359.73 19.2491 1360.03 19.0384 1360.25 18.7685C1360.46 18.4986 1360.56 18.1884 1360.56 17.8381C1360.56 17.5114 1360.47 17.2367 1360.27 17.0142C1360.08 16.7917 1359.8 16.6023 1359.44 16.446C1359.07 16.2898 1358.62 16.1477 1358.09 16.0199L1356.51 15.6222C1355.28 15.3239 1354.31 14.8575 1353.6 14.223C1352.89 13.5885 1352.54 12.7339 1352.55 11.6591C1352.54 10.7784 1352.78 10.009 1353.25 9.35085C1353.73 8.69271 1354.38 8.17898 1355.22 7.80966C1356.05 7.44034 1357 7.25568 1358.06 7.25568C1359.14 7.25568 1360.08 7.44034 1360.88 7.80966C1361.69 8.17898 1362.32 8.69271 1362.77 9.35085C1363.22 10.009 1363.46 10.7713 1363.47 11.6378H1360.52ZM1368.81 7.45455V22H1365.74V7.45455H1368.81ZM1380.99 12.1562C1380.89 11.8106 1380.75 11.5052 1380.57 11.2401C1380.39 10.9702 1380.17 10.7429 1379.91 10.5582C1379.65 10.3688 1379.36 10.2244 1379.03 10.125C1378.7 10.0256 1378.34 9.97585 1377.94 9.97585C1377.2 9.97585 1376.54 10.1605 1375.98 10.5298C1375.42 10.8991 1374.99 11.4366 1374.67 12.142C1374.36 12.8428 1374.2 13.6998 1374.2 14.7131C1374.2 15.7263 1374.36 16.5881 1374.67 17.2983C1374.97 18.0085 1375.41 18.5507 1375.97 18.9247C1376.54 19.294 1377.2 19.4787 1377.97 19.4787C1378.66 19.4787 1379.26 19.3556 1379.75 19.1094C1380.25 18.8584 1380.63 18.5057 1380.89 18.0511C1381.15 17.5966 1381.29 17.0592 1381.29 16.4389L1381.91 16.5312H1378.16V14.2159H1384.25V16.0483C1384.25 17.3267 1383.98 18.4252 1383.44 19.3438C1382.9 20.2576 1382.15 20.9631 1381.21 21.4602C1380.26 21.9527 1379.18 22.1989 1377.95 22.1989C1376.59 22.1989 1375.39 21.8982 1374.36 21.2969C1373.33 20.6908 1372.52 19.8314 1371.95 18.7188C1371.37 17.6013 1371.09 16.2756 1371.09 14.7415C1371.09 13.5625 1371.26 12.5114 1371.6 11.5881C1371.94 10.66 1372.43 9.87405 1373.05 9.23011C1373.67 8.58617 1374.39 8.09612 1375.21 7.75994C1376.04 7.42377 1376.93 7.25568 1377.89 7.25568C1378.71 7.25568 1379.48 7.37642 1380.19 7.6179C1380.9 7.85464 1381.53 8.19081 1382.08 8.62642C1382.63 9.06203 1383.09 9.58049 1383.44 10.1818C1383.79 10.7784 1384.01 11.4366 1384.11 12.1562H1380.99ZM1398.72 7.45455V22H1396.07L1389.74 12.8452H1389.63V22H1386.56V7.45455H1389.26L1395.53 16.6023H1395.66V7.45455H1398.72ZM1125.07 37.4545V52H1123.3V37.4545H1125.07ZM1140.13 37.4545V52H1138.43L1130.5 40.5795H1130.36V52H1128.6V37.4545H1130.3L1138.26 48.9034H1138.4V37.4545H1140.13ZM1142.86 39.017V37.4545H1153.77V39.017H1149.2V52H1147.43V39.017H1142.86ZM1156.49 52V37.4545H1165.27V39.017H1158.25V43.9318H1164.81V45.4943H1158.25V50.4375H1165.38V52H1156.49ZM1168.44 52V37.4545H1170.2V50.4375H1176.96V52H1168.44ZM1179.69 52V37.4545H1181.45V50.4375H1188.21V52H1179.69ZM1192.7 37.4545V52H1190.94V37.4545H1192.7ZM1206.18 42C1206.02 41.5218 1205.81 41.0933 1205.56 40.7145C1205.31 40.331 1205.01 40.0043 1204.66 39.7344C1204.31 39.4645 1203.92 39.2585 1203.48 39.1165C1203.04 38.9744 1202.56 38.9034 1202.03 38.9034C1201.17 38.9034 1200.38 39.1259 1199.68 39.571C1198.97 40.0161 1198.41 40.6719 1198 41.5384C1197.58 42.4048 1197.37 43.4678 1197.37 44.7273C1197.37 45.9867 1197.58 47.0497 1198 47.9162C1198.42 48.7827 1198.99 49.4384 1199.71 49.8835C1200.43 50.3286 1201.24 50.5511 1202.14 50.5511C1202.98 50.5511 1203.71 50.3736 1204.34 50.0185C1204.98 49.6586 1205.48 49.152 1205.84 48.4986C1206.2 47.8404 1206.38 47.0663 1206.38 46.1761L1206.92 46.2898H1202.54V44.7273H1208.08V46.2898C1208.08 47.4877 1207.82 48.5294 1207.31 49.4148C1206.81 50.3002 1206.11 50.9867 1205.21 51.4744C1204.32 51.9574 1203.3 52.1989 1202.14 52.1989C1200.86 52.1989 1199.72 51.8958 1198.75 51.2898C1197.78 50.6837 1197.02 49.822 1196.48 48.7045C1195.94 47.5871 1195.67 46.2614 1195.67 44.7273C1195.67 43.5767 1195.82 42.5421 1196.13 41.6236C1196.44 40.7003 1196.88 39.9143 1197.45 39.2656C1198.02 38.617 1198.69 38.1198 1199.47 37.7741C1200.24 37.4285 1201.1 37.2557 1202.03 37.2557C1202.8 37.2557 1203.51 37.3717 1204.17 37.6037C1204.84 37.831 1205.44 38.1553 1205.96 38.5767C1206.48 38.9934 1206.92 39.4929 1207.27 40.0753C1207.62 40.6529 1207.86 41.2945 1208 42H1206.18ZM1211.1 52V37.4545H1219.88V39.017H1212.86V43.9318H1219.42V45.4943H1212.86V50.4375H1219.99V52H1211.1ZM1234.58 37.4545V52H1232.88L1224.95 40.5795H1224.81V52H1223.05V37.4545H1224.75L1232.71 48.9034H1232.85V37.4545H1234.58ZM1249.81 42H1248.05C1247.95 41.4934 1247.77 41.0483 1247.51 40.6648C1247.25 40.2812 1246.94 39.9593 1246.57 39.6989C1246.2 39.4337 1245.8 39.2348 1245.35 39.1023C1244.91 38.9697 1244.44 38.9034 1243.96 38.9034C1243.08 38.9034 1242.28 39.1259 1241.57 39.571C1240.86 40.0161 1240.29 40.6719 1239.87 41.5384C1239.45 42.4048 1239.25 43.4678 1239.25 44.7273C1239.25 45.9867 1239.45 47.0497 1239.87 47.9162C1240.29 48.7827 1240.86 49.4384 1241.57 49.8835C1242.28 50.3286 1243.08 50.5511 1243.96 50.5511C1244.44 50.5511 1244.91 50.4848 1245.35 50.3523C1245.8 50.2197 1246.2 50.0232 1246.57 49.7628C1246.94 49.4976 1247.25 49.1733 1247.51 48.7898C1247.77 48.4015 1247.95 47.9564 1248.05 47.4545H1249.81C1249.68 48.1979 1249.44 48.8632 1249.09 49.4503C1248.74 50.0374 1248.3 50.5369 1247.78 50.9489C1247.26 51.3561 1246.68 51.6662 1246.03 51.8793C1245.38 52.0923 1244.7 52.1989 1243.96 52.1989C1242.72 52.1989 1241.62 51.8958 1240.65 51.2898C1239.69 50.6837 1238.93 49.822 1238.37 48.7045C1237.82 47.5871 1237.54 46.2614 1237.54 44.7273C1237.54 43.1932 1237.82 41.8674 1238.37 40.75C1238.93 39.6326 1239.69 38.7708 1240.65 38.1648C1241.62 37.5587 1242.72 37.2557 1243.96 37.2557C1244.7 37.2557 1245.38 37.3622 1246.03 37.5753C1246.68 37.7884 1247.26 38.1009 1247.78 38.5128C1248.3 38.92 1248.74 39.4171 1249.09 40.0043C1249.44 40.5866 1249.68 41.2519 1249.81 42ZM1252.66 52V37.4545H1261.44V39.017H1254.42V43.9318H1260.98V45.4943H1254.42V50.4375H1261.55V52H1252.66ZM1270.24 52V37.4545H1278.96V39.017H1272V43.9318H1278.31V45.4943H1272V52H1270.24ZM1294.25 44.7273C1294.25 46.2614 1293.97 47.5871 1293.42 48.7045C1292.86 49.822 1292.1 50.6837 1291.14 51.2898C1290.17 51.8958 1289.07 52.1989 1287.83 52.1989C1286.59 52.1989 1285.48 51.8958 1284.52 51.2898C1283.55 50.6837 1282.79 49.822 1282.24 48.7045C1281.69 47.5871 1281.41 46.2614 1281.41 44.7273C1281.41 43.1932 1281.69 41.8674 1282.24 40.75C1282.79 39.6326 1283.55 38.7708 1284.52 38.1648C1285.48 37.5587 1286.59 37.2557 1287.83 37.2557C1289.07 37.2557 1290.17 37.5587 1291.14 38.1648C1292.1 38.7708 1292.86 39.6326 1293.42 40.75C1293.97 41.8674 1294.25 43.1932 1294.25 44.7273ZM1292.54 44.7273C1292.54 43.4678 1292.33 42.4048 1291.91 41.5384C1291.5 40.6719 1290.93 40.0161 1290.21 39.571C1289.5 39.1259 1288.71 38.9034 1287.83 38.9034C1286.95 38.9034 1286.15 39.1259 1285.44 39.571C1284.72 40.0161 1284.16 40.6719 1283.74 41.5384C1283.32 42.4048 1283.11 43.4678 1283.11 44.7273C1283.11 45.9867 1283.32 47.0497 1283.74 47.9162C1284.16 48.7827 1284.72 49.4384 1285.44 49.8835C1286.15 50.3286 1286.95 50.5511 1287.83 50.5511C1288.71 50.5511 1289.5 50.3286 1290.21 49.8835C1290.93 49.4384 1291.5 48.7827 1291.91 47.9162C1292.33 47.0497 1292.54 45.9867 1292.54 44.7273ZM1297.21 52V37.4545H1302.13C1303.26 37.4545 1304.19 37.6487 1304.92 38.0369C1305.65 38.4205 1306.19 38.9484 1306.54 39.6207C1306.89 40.2931 1307.07 41.0578 1307.07 41.9148C1307.07 42.7718 1306.89 43.5317 1306.54 44.1946C1306.19 44.8575 1305.66 45.3783 1304.93 45.7571C1304.21 46.1312 1303.28 46.3182 1302.15 46.3182H1298.18V44.7273H1302.1C1302.87 44.7273 1303.5 44.6136 1303.97 44.3864C1304.45 44.1591 1304.8 43.8371 1305.01 43.4205C1305.23 42.9991 1305.34 42.4972 1305.34 41.9148C1305.34 41.3324 1305.23 40.8234 1305.01 40.3878C1304.79 39.9522 1304.44 39.616 1303.96 39.3793C1303.49 39.1378 1302.85 39.017 1302.07 39.017H1298.97V52H1297.21ZM1304.06 45.4659L1307.64 52H1305.59L1302.07 45.4659H1304.06ZM1316.23 37.4545L1320.54 49.6989H1320.71L1325.03 37.4545H1326.88L1321.54 52H1319.72L1314.38 37.4545H1316.23ZM1330.91 37.4545V52H1329.14V37.4545H1330.91ZM1333.64 39.017V37.4545H1344.55V39.017H1339.98V52H1338.22V39.017H1333.64ZM1346.17 52H1344.32L1349.66 37.4545H1351.48L1356.82 52H1354.97L1350.63 39.7557H1350.51L1346.17 52ZM1346.85 46.3182H1354.29V47.8807H1346.85V46.3182ZM1359.09 52V37.4545H1360.85V50.4375H1367.61V52H1359.09ZM1372.1 37.4545V52H1370.34V37.4545H1372.1ZM1374.83 39.017V37.4545H1385.74V39.017H1381.17V52H1379.41V39.017H1374.83ZM1387.21 37.4545H1389.23L1393.26 44.2443H1393.43L1397.47 37.4545H1399.48L1394.23 46.0057V52H1392.47V46.0057L1387.21 37.4545Z" fill="white"/>
<path d="M37.76 521.416H47.264V525.256H37.76V521.416ZM53.408 514.376H57.408V537.448C57.408 539.24 57.6 539.496 58.752 539.496C59.296 539.496 61.504 539.496 62.08 539.496C63.296 539.496 63.52 538.184 63.744 533C64.672 533.736 66.336 534.504 67.392 534.76C67.04 540.904 66.08 543.272 62.464 543.272C61.696 543.272 58.88 543.272 58.176 543.272C54.496 543.272 53.408 541.928 53.408 537.384V514.376ZM45.376 514.344H49.376V543.528H45.376V514.344ZM64 519.144L66.752 522.6C63.456 524.84 59.392 527.08 55.776 528.904C55.488 528.04 54.752 526.696 54.208 525.864C57.696 524.072 61.44 521.32 64 519.144ZM36.64 535.944C39.232 535.176 43.296 533.736 47.136 532.36L47.84 535.848C44.64 537.288 41.152 538.728 38.336 539.88L36.64 535.944ZM69.824 516.904H98.144V520.584H69.824V516.904ZM81.856 513.832H85.952V518.728H81.856V513.832ZM77.28 526.088V529.8H90.656V526.088H77.28ZM73.472 522.792H94.752V533.096H73.472V522.792ZM89.408 536.008L92.928 534.312C94.912 536.328 97.504 539.208 98.752 541.128L94.944 543.048C93.888 541.16 91.424 538.152 89.408 536.008ZM81.92 531.784H85.952V539.88C85.952 541.8 85.568 542.792 84.128 543.336C82.752 543.848 80.832 543.88 78.24 543.88C78.08 542.792 77.536 541.256 77.024 540.232C78.656 540.296 80.704 540.296 81.216 540.264C81.76 540.264 81.92 540.168 81.92 539.752V531.784ZM74.336 534.344L78.24 535.592C76.64 538.152 74.272 540.968 72 542.76C71.168 542.024 69.792 541.032 68.896 540.52C71.04 538.952 73.248 536.392 74.336 534.344ZM116.416 524.136V526.888H126.112V524.136H116.416ZM116.416 518.44V521.128H126.112V518.44H116.416ZM112.96 515.176H129.76V530.12H112.96V515.176ZM112.736 532.872H130.112V536.328H112.736V532.872ZM110.496 539.4H131.168V542.856H110.496V539.4ZM101.12 515.656H111.744V519.24H101.12V515.656ZM101.44 524.872H111.2V528.424H101.44V524.872ZM100.768 537.032C103.52 536.328 107.616 535.048 111.456 533.8L112.128 537.48C108.544 538.696 104.704 539.944 101.632 540.936L100.768 537.032ZM104.672 517.064H108.32V536.744L104.672 537.32V517.064ZM119.712 516.552H122.944V528.616H123.296V541.032H119.36V528.616H119.712V516.552ZM135.2 517.16H160.864V521.16H135.2V517.16ZM133.408 537.8H162.688V541.672H133.408V537.8ZM145.664 519.336H150.048V539.336H145.664V519.336ZM165.792 522.44H194.272V526.408H165.792V522.44ZM182.208 524.04C184.128 531.368 188.192 537.448 194.976 540.136C194.016 541 192.736 542.664 192.096 543.784C184.768 540.36 180.768 533.736 178.336 524.936L182.208 524.04ZM177.792 513.832H182.016C181.856 523.592 181.792 537.16 168.064 543.784C167.456 542.728 166.272 541.352 165.152 540.52C178.272 534.664 177.696 522.504 177.792 513.832ZM203.456 524.776H218.208V528.072H203.456V524.776ZM197.728 531.944H226.368V535.496H197.728V531.944ZM210.048 529.896H213.984V539.784C213.984 541.768 213.504 542.76 211.968 543.336C210.464 543.848 208.416 543.912 205.696 543.912C205.44 542.824 204.736 541.192 204.128 540.2C206.176 540.264 208.576 540.264 209.216 540.264C209.856 540.264 210.048 540.104 210.048 539.656V529.896ZM216.96 524.776H217.92L218.72 524.584L221.152 526.44C218.944 528.808 215.776 531.304 212.64 532.808C212.192 532.168 211.168 531.112 210.592 530.6C213.056 529.32 215.776 527.048 216.96 525.48V524.776ZM198.112 518.92H226.016V526.76H222.208V522.312H201.728V526.76H198.112V518.92ZM220.288 514.056L224.448 515.272C222.976 517.384 221.312 519.56 220 520.968L216.864 519.816C218.08 518.248 219.52 515.848 220.288 514.056ZM200.256 515.624L203.52 514.152C204.672 515.4 205.952 517.128 206.464 518.376L202.976 519.976C202.528 518.792 201.344 516.968 200.256 515.624ZM208.32 514.92L211.712 513.64C212.736 515.048 213.824 517 214.24 518.28L210.592 519.688C210.272 518.408 209.28 516.392 208.32 514.92ZM241.038 530.28H262.03V543.848H258.062V533.32H244.814V543.848H241.038V530.28ZM243.31 535.08H259.406V537.864H243.31V535.08ZM240.526 516.232H250.67V519.208H240.526V516.232ZM236.718 521.32H251.438V524.328H236.718V521.32ZM243.31 539.752H259.406V542.792H243.31V539.752ZM242.894 517.128H246.51V520.648C246.51 523.912 245.294 528.328 238.798 531.304C238.286 530.536 237.198 529.352 236.334 528.744C242.35 526.44 242.894 522.952 242.894 520.616V517.128ZM239.95 513.64L243.374 514.312C242.574 517.192 241.102 519.944 239.47 521.704C238.766 521.16 237.294 520.296 236.462 519.912C238.094 518.376 239.342 516.008 239.95 513.64ZM245.902 524.168C247.054 524.712 250.638 526.76 251.566 527.368L248.814 529.8C247.566 528.744 244.75 526.664 243.31 525.736L245.902 524.168ZM256.078 519.56V524.968H260.974V519.56H256.078ZM252.526 516.168H264.75V528.392H252.526V516.168ZM273.198 513.672L277.198 514.536C276.046 517.48 274.606 520.616 273.39 522.664L270.062 521.8C271.214 519.624 272.526 516.232 273.198 513.672ZM268.366 520.232C271.822 520.136 277.006 519.912 281.966 519.688L281.934 523.016C277.23 523.368 272.302 523.656 268.654 523.88L268.366 520.232ZM270.254 525.384H280.43V528.552H273.806V543.848H270.254V525.384ZM278.606 525.384H282.414V540.008C282.414 541.64 282.094 542.6 281.006 543.176C279.886 543.752 278.446 543.816 276.494 543.816C276.302 542.792 275.758 541.32 275.278 540.392C276.398 540.456 277.678 540.456 278.094 540.424C278.478 540.424 278.606 540.328 278.606 539.912V525.384ZM271.886 530.216H280.75V533.064H271.886V530.216ZM271.886 534.92H280.75V537.768H271.886V534.92ZM284.91 513.96H288.75V523.56C288.75 524.68 288.942 524.84 290.158 524.84C290.67 524.84 292.974 524.84 293.646 524.84C294.702 524.84 294.894 524.36 295.022 521.544C295.822 522.152 297.39 522.728 298.446 522.952C298.03 527.112 297.006 528.264 294.03 528.264C293.23 528.264 290.35 528.264 289.614 528.264C285.838 528.264 284.91 527.176 284.91 523.624V513.96ZM294.51 515.848L296.942 518.632C294.094 520.008 290.382 521.224 287.214 522.088C287.054 521.32 286.542 520.168 286.126 519.432C289.102 518.504 292.398 517.064 294.51 515.848ZM284.91 528.904H288.718V538.984C288.718 540.168 288.942 540.296 290.19 540.296C290.734 540.296 293.134 540.296 293.838 540.296C294.958 540.296 295.15 539.72 295.31 536.456C296.11 537.032 297.646 537.64 298.702 537.864C298.286 542.376 297.262 543.656 294.19 543.656C293.39 543.656 290.414 543.656 289.646 543.656C285.87 543.656 284.91 542.568 284.91 539.016V528.904ZM294.766 530.248L297.262 533.064C294.35 534.632 290.478 535.976 287.182 536.904C286.99 536.168 286.446 534.952 286.062 534.216C289.166 533.224 292.59 531.656 294.766 530.248ZM277.55 517.192L280.814 515.976C282.382 518.28 284.046 521.32 284.654 523.432L281.166 524.84C280.622 522.792 279.086 519.592 277.55 517.192ZM308.078 525.032H322.094V528.584H308.078V525.032ZM309.454 517.896H326.414V521.576H309.454V517.896ZM300.91 532.008H329.934V535.656H300.91V532.008ZM320.75 525.032H324.718C324.718 525.032 324.654 526.216 324.59 526.728C323.822 536.616 322.99 540.712 321.55 542.248C320.558 543.336 319.63 543.624 318.158 543.784C316.942 543.944 314.83 543.912 312.686 543.816C312.622 542.696 312.078 541.032 311.342 539.944C313.518 540.168 315.694 540.168 316.622 540.168C317.326 540.168 317.742 540.104 318.222 539.752C319.342 538.76 320.11 534.664 320.75 525.704V525.032ZM308.174 513.8L312.206 514.152C311.31 519.432 310.03 525.96 309.07 529.96L305.038 529.64C306.126 525.544 307.438 518.888 308.174 513.8ZM352.046 514.056H355.534V539.24H352.046V514.056ZM345.966 520.648H362.542V523.432H345.966V520.648ZM346.862 533.544H361.934V536.328H346.862V533.544ZM347.662 529.192H361.134V531.976H347.662V529.192ZM340.046 516.392H344.494V519.464H340.046V516.392ZM341.678 525.192H345.198V527.976H341.678V525.192ZM343.63 516.392H344.078L344.622 516.264L347.022 516.872C345.71 520.52 343.662 525.416 341.966 529.288L338.83 528.552C340.558 524.712 342.638 519.496 343.63 516.776V516.392ZM344.27 525.192H344.878L345.486 525.128L347.502 525.448C346.862 534.472 344.814 540.456 340.494 543.816C340.046 542.984 339.086 541.64 338.382 540.968C341.87 538.504 343.79 532.808 344.27 525.736V525.192ZM341.87 529.96C343.598 538.376 347.694 540.04 353.742 540.072C355.214 540.072 360.974 540.072 362.798 539.976C362.286 540.808 361.774 542.44 361.582 543.432H353.55C345.902 543.432 341.294 541.224 338.99 530.792L341.87 529.96ZM348.046 516.424H360.942V527.688H348.046V524.904H357.71V519.208H348.046V516.424ZM337.486 513.928L340.91 514.952C339.246 520.264 336.494 526.024 333.454 529.704C333.198 528.808 332.302 526.568 331.758 525.576C334.126 522.696 336.238 518.344 337.486 513.928ZM335.31 523.176L338.606 519.88L338.67 519.944V543.848H335.31V523.176ZM371.118 525.512H394.382V528.2H371.118V525.512ZM373.006 521.48H391.502V532.296H372.654V529.736H387.886V524.072H373.006V521.48ZM379.726 519.624H383.406V540.104C383.406 542.024 382.99 542.856 381.742 543.368C380.494 543.88 378.67 543.944 376.014 543.944C375.854 543.016 375.374 541.608 374.862 540.712C376.526 540.776 378.446 540.776 378.99 540.744C379.534 540.744 379.726 540.584 379.726 540.072V519.624ZM371.118 534.248L373.198 532.2C374.766 532.936 376.814 534.184 377.87 535.08L375.63 537.352C374.702 536.424 372.686 535.112 371.118 534.248ZM390.286 532.424L393.102 534.696C391.086 536.008 388.75 537.352 386.926 538.152L384.782 536.232C386.51 535.304 388.91 533.64 390.286 532.424ZM384.014 531.496C385.614 535.752 388.942 539.048 393.87 540.456C393.07 541.16 392.046 542.568 391.534 543.528C386.318 541.64 383.022 537.64 381.134 532.168L384.014 531.496ZM369.774 539.656C371.886 538.984 375.054 537.8 378.158 536.616L378.83 539.368C376.366 540.552 373.71 541.736 371.566 542.696L369.774 539.656ZM378.414 513.832H382.414V518.344H378.414V513.832ZM368.718 516.584H393.998V519.912H368.718V516.584ZM366.894 516.584H370.542V525.864C370.542 531.112 370.062 539.016 367.182 544.008C366.51 543.368 364.91 542.28 364.046 541.928C366.702 537.32 366.894 530.632 366.894 525.864V516.584ZM398.606 516.552L401.07 514.216C402.798 515.624 405.134 517.736 406.222 519.112L403.63 521.768C402.606 520.328 400.334 518.088 398.606 516.552ZM400.654 543.432L399.79 540.072L400.462 538.888L406.798 533.544C407.118 534.568 407.758 536.008 408.238 536.744C402.286 541.768 401.23 542.664 400.654 543.432ZM396.494 523.688H402.286V527.368H396.494V523.688ZM411.342 514.856H420.046V518.408H411.342V514.856ZM407.566 527.72H422.158V531.304H407.566V527.72ZM421.006 527.72H421.678L422.35 527.592L424.686 528.584C422.062 537.64 415.598 541.832 407.118 543.816C406.798 542.856 406.03 541.32 405.39 540.488C413.006 539.144 418.99 535.304 421.006 528.264V527.72ZM411.758 530.664C414.286 535.688 419.502 539.176 426.574 540.52C425.774 541.32 424.75 542.888 424.27 543.912C416.782 542.152 411.694 538.024 408.558 531.752L411.758 530.664ZM410.414 514.856H413.998V518.44C413.998 521.672 412.974 525.256 408.398 527.368C407.95 526.632 406.574 525.128 405.87 524.552C409.902 522.856 410.414 520.52 410.414 518.344V514.856ZM418.286 514.856H421.902V521.864C421.902 522.792 421.966 523.176 422.446 523.176C422.766 523.176 423.726 523.176 424.11 523.176C424.59 523.176 425.39 523.08 425.838 522.952C425.902 523.912 425.998 525.256 426.126 526.12C425.646 526.344 424.878 526.376 424.142 526.376C423.662 526.376 422.542 526.376 422.094 526.376C418.926 526.376 418.286 525.032 418.286 521.832V514.856ZM400.654 543.432C400.366 542.536 399.374 540.904 398.734 540.2C399.438 539.688 400.334 538.536 400.334 537.032V523.688H404.046V539.688C404.046 539.688 400.654 542.056 400.654 543.432ZM431.086 516.616L433.518 514.152C435.31 515.528 437.774 517.512 438.926 518.888L436.334 521.672C435.278 520.296 432.878 518.12 431.086 516.616ZM433.422 543.752L432.526 540.008L433.39 538.76L440.462 533.8C440.686 534.888 441.262 536.552 441.678 537.32C435.182 542.024 434.03 542.952 433.422 543.752ZM428.622 523.688H435.758V527.496H428.622V523.688ZM439.118 523.912H458.35V527.912H439.118V523.912ZM446.83 513.96H450.958V543.88H446.83V513.96ZM433.422 543.752C433.102 542.728 432.174 540.968 431.502 540.168C432.27 539.688 433.262 538.6 433.262 537.16V523.688H437.198V540.04C437.198 540.04 433.422 542.344 433.422 543.752ZM461.87 516.424L464.462 514.184C466.062 515.688 468.238 517.832 469.262 519.24L466.51 521.768C465.582 520.328 463.47 518.056 461.87 516.424ZM464.654 543.24L463.79 539.848L464.43 538.664L470.318 533.48C470.67 534.504 471.31 535.944 471.758 536.648C466.19 541.576 465.198 542.472 464.654 543.24ZM460.494 523.656H466.606V527.112H460.494V523.656ZM470.35 530.056H490.19V533.512H470.35V530.056ZM482.958 531.848C484.686 534.792 487.982 537.96 490.958 539.592C490.094 540.296 488.942 541.608 488.334 542.568C485.358 540.424 482.254 536.52 480.398 532.84L482.958 531.848ZM475.278 523.112V525.192H485.102V523.112H475.278ZM475.278 518.152V520.2H485.102V518.152H475.278ZM471.822 515.112H488.718V528.232H471.822V515.112ZM477.806 531.848L480.43 532.776C478.542 536.84 475.278 540.744 471.822 542.824C471.246 541.928 470.126 540.584 469.326 539.912C472.718 538.28 476.078 535.08 477.806 531.848ZM478.67 516.552H482.158V526.696H482.318V543.848H478.542V526.696H478.67V516.552ZM464.654 543.24C464.206 542.536 463.022 541.288 462.382 540.808C463.15 540.072 464.302 538.536 464.302 536.616V523.656H467.982V538.408C467.982 538.408 464.654 541.8 464.654 543.24ZM497.678 521.576V523.112H502.382V521.576H497.678ZM497.678 517.64V519.144H502.382V517.64H497.678ZM494.286 515.08H505.934V525.704H494.286V515.08ZM492.782 527.528H507.31V530.344H492.782V527.528ZM507.214 515.144H522.254V518.152H507.214V515.144ZM498.798 528.424H502.03V541.288L498.798 539.464V528.424ZM500.43 532.936H506.638V535.688H500.43V532.936ZM513.262 515.88L517.102 516.68C516.238 518.536 515.374 520.424 514.702 521.672L511.694 520.872C512.27 519.464 512.942 517.352 513.262 515.88ZM496.846 534.28C498.606 539.656 502.574 540.2 509.07 540.232C511.214 540.232 519.982 540.232 522.606 540.104C522.094 540.84 521.518 542.312 521.358 543.272H509.038C501.166 543.272 496.814 542.184 494.574 534.952L496.846 534.28ZM508.238 520.456H521.038V533.672H517.806V523.176H511.342V533.896H508.238V520.456ZM494.382 531.464L497.518 531.656C497.326 536.776 496.686 541.032 494.67 543.88C494.126 543.4 492.75 542.472 492.014 542.088C493.902 539.656 494.318 535.816 494.382 531.464ZM513.134 524.488H516.302C516.11 533.128 515.278 537.704 507.662 540.04C507.374 539.304 506.574 538.12 505.934 537.544C512.59 535.624 512.974 532.072 513.134 524.488ZM514.766 535.624L516.878 533.544C518.638 534.76 521.134 536.616 522.382 537.8L520.174 540.168C518.99 538.92 516.59 536.968 514.766 535.624ZM535.79 539.816H554.35V543.272H535.79V539.816ZM540.718 523.496H550.478V526.92H540.718V523.496ZM540.75 531.624H550.51V535.016H540.75V531.624ZM538.606 515.4H551.758V541.64H547.95V518.888H542.222V541.64H538.606V515.4ZM525.87 535.592C525.71 534.92 525.134 533.288 524.75 532.424C525.55 532.232 526.318 531.496 527.374 530.344C528.494 529.224 531.886 524.808 534.126 520.456L537.038 522.344C534.542 526.568 531.31 530.792 528.142 533.832V533.896C528.142 533.896 525.87 534.952 525.87 535.592ZM525.87 535.592L525.646 532.744L527.246 531.592L536.526 530.024C536.398 530.984 536.366 532.392 536.398 533.128C528.046 534.76 526.702 535.144 525.87 535.592ZM525.614 527.784C525.422 527.08 524.846 525.352 524.462 524.392C525.102 524.2 525.678 523.528 526.382 522.472C527.118 521.48 529.358 517.448 530.542 513.704L533.966 515.304C532.366 519.08 529.966 523.112 527.63 525.896V526.024C527.63 526.024 525.614 527.144 525.614 527.784ZM525.614 527.784L525.518 525.192L527.054 524.168L532.59 523.752C532.398 524.648 532.238 525.992 532.238 526.728C527.278 527.24 526.254 527.496 525.614 527.784ZM524.814 538.536C527.598 537.992 531.854 537.032 535.886 536.072L536.302 539.24C532.558 540.328 528.622 541.352 525.518 542.184L524.814 538.536ZM38.8182 589V565.727H41.6364V586.5H52.4545V589H38.8182ZM61.5909 589.409C60.4848 589.409 59.4811 589.201 58.5795 588.784C57.678 588.36 56.9621 587.75 56.4318 586.955C55.9015 586.152 55.6364 585.182 55.6364 584.045C55.6364 583.045 55.8333 582.235 56.2273 581.614C56.6212 580.985 57.1477 580.492 57.8068 580.136C58.4659 579.78 59.1932 579.515 59.9886 579.341C60.7917 579.159 61.5985 579.015 62.4091 578.909C63.4697 578.773 64.3295 578.67 64.9886 578.602C65.6553 578.527 66.1402 578.402 66.4432 578.227C66.7538 578.053 66.9091 577.75 66.9091 577.318V577.227C66.9091 576.106 66.6023 575.235 65.9886 574.614C65.3826 573.992 64.4621 573.682 63.2273 573.682C61.947 573.682 60.9432 573.962 60.2159 574.523C59.4886 575.083 58.9773 575.682 58.6818 576.318L56.1364 575.409C56.5909 574.348 57.197 573.523 57.9545 572.932C58.7197 572.333 59.553 571.917 60.4545 571.682C61.3636 571.439 62.2576 571.318 63.1364 571.318C63.697 571.318 64.3409 571.386 65.0682 571.523C65.803 571.652 66.5114 571.92 67.1932 572.33C67.8826 572.739 68.4545 573.356 68.9091 574.182C69.3636 575.008 69.5909 576.114 69.5909 577.5V589H66.9091V586.636H66.7727C66.5909 587.015 66.2879 587.42 65.8636 587.852C65.4394 588.284 64.875 588.652 64.1705 588.955C63.4659 589.258 62.6061 589.409 61.5909 589.409ZM62 587C63.0606 587 63.9545 586.792 64.6818 586.375C65.4167 585.958 65.9697 585.42 66.3409 584.761C66.7197 584.102 66.9091 583.409 66.9091 582.682V580.227C66.7955 580.364 66.5455 580.489 66.1591 580.602C65.7803 580.708 65.3409 580.803 64.8409 580.886C64.3485 580.962 63.8674 581.03 63.3977 581.091C62.9356 581.144 62.5606 581.189 62.2727 581.227C61.5758 581.318 60.9242 581.466 60.3182 581.67C59.7197 581.867 59.2348 582.167 58.8636 582.568C58.5 582.962 58.3182 583.5 58.3182 584.182C58.3182 585.114 58.6629 585.818 59.3523 586.295C60.0492 586.765 60.9318 587 62 587ZM74.8494 589V565.727H77.5312V574.318H77.7585C77.9555 574.015 78.2282 573.629 78.5767 573.159C78.9328 572.682 79.4403 572.258 80.0994 571.886C80.7661 571.508 81.6676 571.318 82.804 571.318C84.2737 571.318 85.5691 571.686 86.6903 572.42C87.8116 573.155 88.6866 574.197 89.3153 575.545C89.9441 576.894 90.2585 578.485 90.2585 580.318C90.2585 582.167 89.9441 583.769 89.3153 585.125C88.6866 586.473 87.8153 587.519 86.7017 588.261C85.5881 588.996 84.304 589.364 82.8494 589.364C81.7282 589.364 80.8305 589.178 80.1562 588.807C79.482 588.428 78.9631 588 78.5994 587.523C78.2358 587.038 77.9555 586.636 77.7585 586.318H77.4403V589H74.8494ZM77.4858 580.273C77.4858 581.591 77.679 582.754 78.0653 583.761C78.4517 584.761 79.0161 585.545 79.7585 586.114C80.5009 586.674 81.41 586.955 82.4858 586.955C83.607 586.955 84.5426 586.659 85.2926 586.068C86.0502 585.47 86.6184 584.667 86.9972 583.659C87.3835 582.644 87.5767 581.515 87.5767 580.273C87.5767 579.045 87.3873 577.939 87.0085 576.955C86.6373 575.962 86.0729 575.178 85.3153 574.602C84.5653 574.019 83.6222 573.727 82.4858 573.727C81.3949 573.727 80.4782 574.004 79.7358 574.557C78.9934 575.102 78.4328 575.867 78.054 576.852C77.6752 577.83 77.4858 578.97 77.4858 580.273ZM110.452 589.364C108.876 589.364 107.493 588.989 106.304 588.239C105.122 587.489 104.198 586.439 103.531 585.091C102.872 583.742 102.543 582.167 102.543 580.364C102.543 578.545 102.872 576.958 103.531 575.602C104.198 574.246 105.122 573.193 106.304 572.443C107.493 571.693 108.876 571.318 110.452 571.318C112.027 571.318 113.406 571.693 114.588 572.443C115.777 573.193 116.702 574.246 117.361 575.602C118.027 576.958 118.361 578.545 118.361 580.364C118.361 582.167 118.027 583.742 117.361 585.091C116.702 586.439 115.777 587.489 114.588 588.239C113.406 588.989 112.027 589.364 110.452 589.364ZM110.452 586.955C111.649 586.955 112.634 586.648 113.406 586.034C114.179 585.42 114.751 584.614 115.122 583.614C115.493 582.614 115.679 581.53 115.679 580.364C115.679 579.197 115.493 578.11 115.122 577.102C114.751 576.095 114.179 575.28 113.406 574.659C112.634 574.038 111.649 573.727 110.452 573.727C109.255 573.727 108.27 574.038 107.497 574.659C106.724 575.28 106.152 576.095 105.781 577.102C105.41 578.11 105.224 579.197 105.224 580.364C105.224 581.53 105.41 582.614 105.781 583.614C106.152 584.614 106.724 585.42 107.497 586.034C108.27 586.648 109.255 586.955 110.452 586.955ZM130.227 571.545V573.818H120.818V571.545H130.227ZM123.636 589V569.136C123.636 568.136 123.871 567.303 124.341 566.636C124.811 565.97 125.42 565.47 126.17 565.136C126.92 564.803 127.712 564.636 128.545 564.636C129.205 564.636 129.742 564.689 130.159 564.795C130.576 564.902 130.886 565 131.091 565.091L130.318 567.409C130.182 567.364 129.992 567.307 129.75 567.239C129.515 567.17 129.205 567.136 128.818 567.136C127.932 567.136 127.292 567.36 126.898 567.807C126.511 568.254 126.318 568.909 126.318 569.773V589H123.636ZM150.531 589H143.349V565.727H150.849C153.107 565.727 155.039 566.193 156.645 567.125C158.251 568.049 159.482 569.379 160.338 571.114C161.194 572.841 161.622 574.909 161.622 577.318C161.622 579.742 161.19 581.83 160.327 583.58C159.463 585.322 158.205 586.663 156.554 587.602C154.902 588.534 152.895 589 150.531 589ZM146.168 586.5H150.349C152.274 586.5 153.868 586.129 155.134 585.386C156.399 584.644 157.342 583.587 157.963 582.216C158.584 580.845 158.895 579.212 158.895 577.318C158.895 575.439 158.588 573.822 157.974 572.466C157.361 571.102 156.444 570.057 155.224 569.33C154.005 568.595 152.486 568.227 150.668 568.227H146.168V586.5ZM173.304 589.364C171.622 589.364 170.171 588.992 168.952 588.25C167.74 587.5 166.804 586.455 166.145 585.114C165.493 583.765 165.168 582.197 165.168 580.409C165.168 578.621 165.493 577.045 166.145 575.682C166.804 574.311 167.721 573.242 168.895 572.477C170.077 571.705 171.455 571.318 173.031 571.318C173.94 571.318 174.838 571.47 175.724 571.773C176.611 572.076 177.418 572.568 178.145 573.25C178.872 573.924 179.452 574.818 179.884 575.932C180.315 577.045 180.531 578.417 180.531 580.045V581.182H167.077V578.864H177.804C177.804 577.879 177.607 577 177.213 576.227C176.827 575.455 176.274 574.845 175.554 574.398C174.842 573.951 174.001 573.727 173.031 573.727C171.963 573.727 171.039 573.992 170.259 574.523C169.486 575.045 168.891 575.727 168.474 576.568C168.058 577.409 167.849 578.311 167.849 579.273V580.818C167.849 582.136 168.077 583.254 168.531 584.17C168.993 585.08 169.634 585.773 170.452 586.25C171.27 586.72 172.221 586.955 173.304 586.955C174.009 586.955 174.645 586.856 175.213 586.659C175.789 586.455 176.285 586.152 176.702 585.75C177.118 585.341 177.44 584.833 177.668 584.227L180.259 584.955C179.986 585.833 179.527 586.606 178.884 587.273C178.24 587.932 177.444 588.447 176.497 588.818C175.55 589.182 174.486 589.364 173.304 589.364ZM196.974 575.455L194.565 576.136C194.414 575.735 194.19 575.345 193.895 574.966C193.607 574.58 193.213 574.261 192.713 574.011C192.213 573.761 191.573 573.636 190.793 573.636C189.724 573.636 188.834 573.883 188.122 574.375C187.418 574.86 187.065 575.477 187.065 576.227C187.065 576.894 187.308 577.42 187.793 577.807C188.277 578.193 189.035 578.515 190.065 578.773L192.656 579.409C194.217 579.788 195.38 580.367 196.145 581.148C196.91 581.92 197.293 582.917 197.293 584.136C197.293 585.136 197.005 586.03 196.429 586.818C195.861 587.606 195.065 588.227 194.043 588.682C193.02 589.136 191.83 589.364 190.474 589.364C188.694 589.364 187.221 588.977 186.054 588.205C184.887 587.432 184.149 586.303 183.838 584.818L186.384 584.182C186.626 585.121 187.084 585.826 187.759 586.295C188.44 586.765 189.33 587 190.429 587C191.679 587 192.671 586.735 193.406 586.205C194.149 585.667 194.52 585.023 194.52 584.273C194.52 583.667 194.308 583.159 193.884 582.75C193.459 582.333 192.808 582.023 191.929 581.818L189.02 581.136C187.421 580.758 186.247 580.17 185.497 579.375C184.755 578.572 184.384 577.568 184.384 576.364C184.384 575.379 184.66 574.508 185.213 573.75C185.774 572.992 186.535 572.398 187.497 571.966C188.467 571.534 189.565 571.318 190.793 571.318C192.52 571.318 193.876 571.697 194.861 572.455C195.853 573.212 196.558 574.212 196.974 575.455ZM201.33 589V571.545H204.011V589H201.33ZM202.693 568.636C202.17 568.636 201.72 568.458 201.341 568.102C200.97 567.746 200.784 567.318 200.784 566.818C200.784 566.318 200.97 565.89 201.341 565.534C201.72 565.178 202.17 565 202.693 565C203.216 565 203.663 565.178 204.034 565.534C204.413 565.89 204.602 566.318 204.602 566.818C204.602 567.318 204.413 567.746 204.034 568.102C203.663 568.458 203.216 568.636 202.693 568.636ZM215.969 595.909C214.673 595.909 213.56 595.742 212.628 595.409C211.696 595.083 210.92 594.652 210.298 594.114C209.685 593.583 209.196 593.015 208.832 592.409L210.969 590.909C211.211 591.227 211.518 591.591 211.889 592C212.26 592.417 212.768 592.777 213.412 593.08C214.063 593.39 214.916 593.545 215.969 593.545C217.378 593.545 218.541 593.205 219.457 592.523C220.374 591.841 220.832 590.773 220.832 589.318V585.773H220.605C220.408 586.091 220.128 586.485 219.764 586.955C219.408 587.417 218.893 587.83 218.219 588.193C217.552 588.549 216.651 588.727 215.514 588.727C214.105 588.727 212.84 588.394 211.719 587.727C210.605 587.061 209.723 586.091 209.071 584.818C208.427 583.545 208.105 582 208.105 580.182C208.105 578.394 208.42 576.837 209.048 575.511C209.677 574.178 210.552 573.148 211.673 572.42C212.795 571.686 214.09 571.318 215.56 571.318C216.696 571.318 217.598 571.508 218.264 571.886C218.938 572.258 219.454 572.682 219.81 573.159C220.173 573.629 220.454 574.015 220.651 574.318H220.923V571.545H223.514V589.5C223.514 591 223.173 592.22 222.491 593.159C221.817 594.106 220.908 594.799 219.764 595.239C218.628 595.686 217.363 595.909 215.969 595.909ZM215.878 586.318C216.954 586.318 217.863 586.072 218.605 585.58C219.348 585.087 219.912 584.379 220.298 583.455C220.685 582.53 220.878 581.424 220.878 580.136C220.878 578.879 220.688 577.769 220.31 576.807C219.931 575.845 219.37 575.091 218.628 574.545C217.885 574 216.969 573.727 215.878 573.727C214.741 573.727 213.795 574.015 213.037 574.591C212.287 575.167 211.723 575.939 211.344 576.909C210.973 577.879 210.787 578.955 210.787 580.136C210.787 581.348 210.976 582.42 211.355 583.352C211.741 584.277 212.31 585.004 213.06 585.534C213.817 586.057 214.757 586.318 215.878 586.318ZM231.105 578.5V589H228.423V571.545H231.014V574.273H231.241C231.651 573.386 232.272 572.674 233.105 572.136C233.938 571.591 235.014 571.318 236.332 571.318C237.514 571.318 238.548 571.561 239.435 572.045C240.321 572.523 241.01 573.25 241.503 574.227C241.995 575.197 242.241 576.424 242.241 577.909V589H239.56V578.091C239.56 576.72 239.204 575.652 238.491 574.886C237.779 574.114 236.802 573.727 235.56 573.727C234.704 573.727 233.938 573.913 233.264 574.284C232.598 574.655 232.071 575.197 231.685 575.909C231.298 576.621 231.105 577.485 231.105 578.5ZM259.324 565.727V589H256.506V565.727H259.324ZM267.293 578.5V589H264.611V571.545H267.202V574.273H267.429C267.838 573.386 268.459 572.674 269.293 572.136C270.126 571.591 271.202 571.318 272.52 571.318C273.702 571.318 274.736 571.561 275.622 572.045C276.509 572.523 277.198 573.25 277.69 574.227C278.183 575.197 278.429 576.424 278.429 577.909V589H275.747V578.091C275.747 576.72 275.391 575.652 274.679 574.886C273.967 574.114 272.99 573.727 271.747 573.727C270.891 573.727 270.126 573.913 269.452 574.284C268.785 574.655 268.259 575.197 267.872 575.909C267.486 576.621 267.293 577.485 267.293 578.5ZM290.92 571.545V573.818H281.875V571.545H290.92ZM284.511 567.364H287.193V584C287.193 584.758 287.303 585.326 287.523 585.705C287.75 586.076 288.038 586.326 288.386 586.455C288.742 586.576 289.117 586.636 289.511 586.636C289.807 586.636 290.049 586.621 290.239 586.591C290.428 586.553 290.58 586.523 290.693 586.5L291.239 588.909C291.057 588.977 290.803 589.045 290.477 589.114C290.152 589.189 289.739 589.227 289.239 589.227C288.481 589.227 287.739 589.064 287.011 588.739C286.292 588.413 285.693 587.917 285.216 587.25C284.746 586.583 284.511 585.742 284.511 584.727V567.364ZM302.085 589.364C300.403 589.364 298.953 588.992 297.733 588.25C296.521 587.5 295.585 586.455 294.926 585.114C294.275 583.765 293.949 582.197 293.949 580.409C293.949 578.621 294.275 577.045 294.926 575.682C295.585 574.311 296.502 573.242 297.676 572.477C298.858 571.705 300.237 571.318 301.812 571.318C302.722 571.318 303.619 571.47 304.506 571.773C305.392 572.076 306.199 572.568 306.926 573.25C307.653 573.924 308.233 574.818 308.665 575.932C309.097 577.045 309.312 578.417 309.312 580.045V581.182H295.858V578.864H306.585C306.585 577.879 306.388 577 305.994 576.227C305.608 575.455 305.055 574.845 304.335 574.398C303.623 573.951 302.782 573.727 301.812 573.727C300.744 573.727 299.82 573.992 299.04 574.523C298.267 575.045 297.672 575.727 297.256 576.568C296.839 577.409 296.631 578.311 296.631 579.273V580.818C296.631 582.136 296.858 583.254 297.312 584.17C297.775 585.08 298.415 585.773 299.233 586.25C300.051 586.72 301.002 586.955 302.085 586.955C302.79 586.955 303.426 586.856 303.994 586.659C304.57 586.455 305.066 586.152 305.483 585.75C305.9 585.341 306.222 584.833 306.449 584.227L309.04 584.955C308.767 585.833 308.309 586.606 307.665 587.273C307.021 587.932 306.225 588.447 305.278 588.818C304.331 589.182 303.267 589.364 302.085 589.364ZM316.074 565.727V589H313.392V565.727H316.074ZM323.668 565.727V589H320.986V565.727H323.668ZM328.58 589V571.545H331.261V589H328.58ZM329.943 568.636C329.42 568.636 328.97 568.458 328.591 568.102C328.22 567.746 328.034 567.318 328.034 566.818C328.034 566.318 328.22 565.89 328.591 565.534C328.97 565.178 329.42 565 329.943 565C330.466 565 330.913 565.178 331.284 565.534C331.663 565.89 331.852 566.318 331.852 566.818C331.852 567.318 331.663 567.746 331.284 568.102C330.913 568.458 330.466 568.636 329.943 568.636ZM343.219 595.909C341.923 595.909 340.81 595.742 339.878 595.409C338.946 595.083 338.17 594.652 337.548 594.114C336.935 593.583 336.446 593.015 336.082 592.409L338.219 590.909C338.461 591.227 338.768 591.591 339.139 592C339.51 592.417 340.018 592.777 340.662 593.08C341.313 593.39 342.166 593.545 343.219 593.545C344.628 593.545 345.791 593.205 346.707 592.523C347.624 591.841 348.082 590.773 348.082 589.318V585.773H347.855C347.658 586.091 347.378 586.485 347.014 586.955C346.658 587.417 346.143 587.83 345.469 588.193C344.802 588.549 343.901 588.727 342.764 588.727C341.355 588.727 340.09 588.394 338.969 587.727C337.855 587.061 336.973 586.091 336.321 584.818C335.677 583.545 335.355 582 335.355 580.182C335.355 578.394 335.67 576.837 336.298 575.511C336.927 574.178 337.802 573.148 338.923 572.42C340.045 571.686 341.34 571.318 342.81 571.318C343.946 571.318 344.848 571.508 345.514 571.886C346.188 572.258 346.704 572.682 347.06 573.159C347.423 573.629 347.704 574.015 347.901 574.318H348.173V571.545H350.764V589.5C350.764 591 350.423 592.22 349.741 593.159C349.067 594.106 348.158 594.799 347.014 595.239C345.878 595.686 344.613 595.909 343.219 595.909ZM343.128 586.318C344.204 586.318 345.113 586.072 345.855 585.58C346.598 585.087 347.162 584.379 347.548 583.455C347.935 582.53 348.128 581.424 348.128 580.136C348.128 578.879 347.938 577.769 347.56 576.807C347.181 575.845 346.62 575.091 345.878 574.545C345.135 574 344.219 573.727 343.128 573.727C341.991 573.727 341.045 574.015 340.287 574.591C339.537 575.167 338.973 575.939 338.594 576.909C338.223 577.879 338.037 578.955 338.037 580.136C338.037 581.348 338.226 582.42 338.605 583.352C338.991 584.277 339.56 585.004 340.31 585.534C341.067 586.057 342.007 586.318 343.128 586.318ZM362.991 589.364C361.31 589.364 359.859 588.992 358.639 588.25C357.427 587.5 356.491 586.455 355.832 585.114C355.181 583.765 354.855 582.197 354.855 580.409C354.855 578.621 355.181 577.045 355.832 575.682C356.491 574.311 357.408 573.242 358.582 572.477C359.764 571.705 361.143 571.318 362.719 571.318C363.628 571.318 364.526 571.47 365.412 571.773C366.298 572.076 367.105 572.568 367.832 573.25C368.56 573.924 369.139 574.818 369.571 575.932C370.003 577.045 370.219 578.417 370.219 580.045V581.182H356.764V578.864H367.491C367.491 577.879 367.295 577 366.901 576.227C366.514 575.455 365.961 574.845 365.241 574.398C364.529 573.951 363.688 573.727 362.719 573.727C361.651 573.727 360.726 573.992 359.946 574.523C359.173 575.045 358.579 575.727 358.162 576.568C357.745 577.409 357.537 578.311 357.537 579.273V580.818C357.537 582.136 357.764 583.254 358.219 584.17C358.681 585.08 359.321 585.773 360.139 586.25C360.957 586.72 361.908 586.955 362.991 586.955C363.696 586.955 364.332 586.856 364.901 586.659C365.476 586.455 365.973 586.152 366.389 585.75C366.806 585.341 367.128 584.833 367.355 584.227L369.946 584.955C369.673 585.833 369.215 586.606 368.571 587.273C367.927 587.932 367.132 588.447 366.185 588.818C365.238 589.182 364.173 589.364 362.991 589.364ZM376.98 578.5V589H374.298V571.545H376.889V574.273H377.116C377.526 573.386 378.147 572.674 378.98 572.136C379.813 571.591 380.889 571.318 382.207 571.318C383.389 571.318 384.423 571.561 385.31 572.045C386.196 572.523 386.885 573.25 387.378 574.227C387.87 575.197 388.116 576.424 388.116 577.909V589H385.435V578.091C385.435 576.72 385.079 575.652 384.366 574.886C383.654 574.114 382.677 573.727 381.435 573.727C380.579 573.727 379.813 573.913 379.139 574.284C378.473 574.655 377.946 575.197 377.56 575.909C377.173 576.621 376.98 577.485 376.98 578.5ZM400.108 589.364C398.472 589.364 397.063 588.977 395.881 588.205C394.699 587.432 393.79 586.367 393.153 585.011C392.517 583.655 392.199 582.106 392.199 580.364C392.199 578.591 392.525 577.027 393.176 575.67C393.835 574.307 394.752 573.242 395.926 572.477C397.108 571.705 398.487 571.318 400.062 571.318C401.29 571.318 402.396 571.545 403.381 572C404.366 572.455 405.172 573.091 405.801 573.909C406.43 574.727 406.82 575.682 406.972 576.773H404.29C404.085 575.977 403.631 575.273 402.926 574.659C402.229 574.038 401.29 573.727 400.108 573.727C399.063 573.727 398.146 574 397.358 574.545C396.578 575.083 395.968 575.845 395.528 576.83C395.097 577.807 394.881 578.955 394.881 580.273C394.881 581.621 395.093 582.795 395.517 583.795C395.949 584.795 396.555 585.572 397.335 586.125C398.123 586.678 399.047 586.955 400.108 586.955C400.805 586.955 401.438 586.833 402.006 586.591C402.574 586.348 403.055 586 403.449 585.545C403.843 585.091 404.123 584.545 404.29 583.909H406.972C406.82 584.939 406.445 585.867 405.847 586.693C405.256 587.511 404.472 588.163 403.494 588.648C402.525 589.125 401.396 589.364 400.108 589.364ZM418.21 589.364C416.528 589.364 415.078 588.992 413.858 588.25C412.646 587.5 411.71 586.455 411.051 585.114C410.4 583.765 410.074 582.197 410.074 580.409C410.074 578.621 410.4 577.045 411.051 575.682C411.71 574.311 412.627 573.242 413.801 572.477C414.983 571.705 416.362 571.318 417.938 571.318C418.847 571.318 419.744 571.47 420.631 571.773C421.517 572.076 422.324 572.568 423.051 573.25C423.778 573.924 424.358 574.818 424.79 575.932C425.222 577.045 425.438 578.417 425.438 580.045V581.182H411.983V578.864H422.71C422.71 577.879 422.513 577 422.119 576.227C421.733 575.455 421.18 574.845 420.46 574.398C419.748 573.951 418.907 573.727 417.938 573.727C416.869 573.727 415.945 573.992 415.165 574.523C414.392 575.045 413.797 575.727 413.381 576.568C412.964 577.409 412.756 578.311 412.756 579.273V580.818C412.756 582.136 412.983 583.254 413.438 584.17C413.9 585.08 414.54 585.773 415.358 586.25C416.176 586.72 417.127 586.955 418.21 586.955C418.915 586.955 419.551 586.856 420.119 586.659C420.695 586.455 421.191 586.152 421.608 585.75C422.025 585.341 422.347 584.833 422.574 584.227L425.165 584.955C424.892 585.833 424.434 586.606 423.79 587.273C423.146 587.932 422.35 588.447 421.403 588.818C420.456 589.182 419.392 589.364 418.21 589.364ZM446.29 571.545V573.818H436.881V571.545H446.29ZM439.699 589V569.136C439.699 568.136 439.934 567.303 440.403 566.636C440.873 565.97 441.483 565.47 442.233 565.136C442.983 564.803 443.775 564.636 444.608 564.636C445.267 564.636 445.805 564.689 446.222 564.795C446.638 564.902 446.949 565 447.153 565.091L446.381 567.409C446.244 567.364 446.055 567.307 445.812 567.239C445.578 567.17 445.267 567.136 444.881 567.136C443.994 567.136 443.354 567.36 442.96 567.807C442.574 568.254 442.381 568.909 442.381 569.773V589H439.699ZM456.42 589.364C454.845 589.364 453.462 588.989 452.273 588.239C451.091 587.489 450.167 586.439 449.5 585.091C448.841 583.742 448.511 582.167 448.511 580.364C448.511 578.545 448.841 576.958 449.5 575.602C450.167 574.246 451.091 573.193 452.273 572.443C453.462 571.693 454.845 571.318 456.42 571.318C457.996 571.318 459.375 571.693 460.557 572.443C461.746 573.193 462.67 574.246 463.33 575.602C463.996 576.958 464.33 578.545 464.33 580.364C464.33 582.167 463.996 583.742 463.33 585.091C462.67 586.439 461.746 587.489 460.557 588.239C459.375 588.989 457.996 589.364 456.42 589.364ZM456.42 586.955C457.617 586.955 458.602 586.648 459.375 586.034C460.148 585.42 460.72 584.614 461.091 583.614C461.462 582.614 461.648 581.53 461.648 580.364C461.648 579.197 461.462 578.11 461.091 577.102C460.72 576.095 460.148 575.28 459.375 574.659C458.602 574.038 457.617 573.727 456.42 573.727C455.223 573.727 454.239 574.038 453.466 574.659C452.693 575.28 452.121 576.095 451.75 577.102C451.379 578.11 451.193 579.197 451.193 580.364C451.193 581.53 451.379 582.614 451.75 583.614C452.121 584.614 452.693 585.42 453.466 586.034C454.239 586.648 455.223 586.955 456.42 586.955ZM468.423 589V571.545H471.014V574.182H471.196C471.514 573.318 472.09 572.617 472.923 572.08C473.757 571.542 474.696 571.273 475.741 571.273C475.938 571.273 476.185 571.277 476.48 571.284C476.776 571.292 476.999 571.303 477.151 571.318V574.045C477.06 574.023 476.851 573.989 476.526 573.943C476.207 573.89 475.87 573.864 475.514 573.864C474.666 573.864 473.908 574.042 473.241 574.398C472.582 574.746 472.06 575.231 471.673 575.852C471.295 576.466 471.105 577.167 471.105 577.955V589H468.423ZM490.648 565.727L497.557 585.318H497.83L504.739 565.727H507.693L499.148 589H496.239L487.693 565.727H490.648ZM510.955 589V571.545H513.636V589H510.955ZM512.318 568.636C511.795 568.636 511.345 568.458 510.966 568.102C510.595 567.746 510.409 567.318 510.409 566.818C510.409 566.318 510.595 565.89 510.966 565.534C511.345 565.178 511.795 565 512.318 565C512.841 565 513.288 565.178 513.659 565.534C514.038 565.89 514.227 566.318 514.227 566.818C514.227 567.318 514.038 567.746 513.659 568.102C513.288 568.458 512.841 568.636 512.318 568.636ZM526.139 571.545V573.818H517.094V571.545H526.139ZM519.73 567.364H522.412V584C522.412 584.758 522.522 585.326 522.741 585.705C522.969 586.076 523.257 586.326 523.605 586.455C523.961 586.576 524.336 586.636 524.73 586.636C525.026 586.636 525.268 586.621 525.457 586.591C525.647 586.553 525.798 586.523 525.912 586.5L526.457 588.909C526.276 588.977 526.022 589.045 525.696 589.114C525.37 589.189 524.957 589.227 524.457 589.227C523.7 589.227 522.957 589.064 522.23 588.739C521.51 588.413 520.912 587.917 520.435 587.25C519.965 586.583 519.73 585.742 519.73 584.727V567.364ZM535.31 589.409C534.204 589.409 533.2 589.201 532.298 588.784C531.397 588.36 530.681 587.75 530.151 586.955C529.62 586.152 529.355 585.182 529.355 584.045C529.355 583.045 529.552 582.235 529.946 581.614C530.34 580.985 530.866 580.492 531.526 580.136C532.185 579.78 532.912 579.515 533.707 579.341C534.51 579.159 535.317 579.015 536.128 578.909C537.188 578.773 538.048 578.67 538.707 578.602C539.374 578.527 539.859 578.402 540.162 578.227C540.473 578.053 540.628 577.75 540.628 577.318V577.227C540.628 576.106 540.321 575.235 539.707 574.614C539.101 573.992 538.181 573.682 536.946 573.682C535.666 573.682 534.662 573.962 533.935 574.523C533.207 575.083 532.696 575.682 532.401 576.318L529.855 575.409C530.31 574.348 530.916 573.523 531.673 572.932C532.438 572.333 533.272 571.917 534.173 571.682C535.082 571.439 535.976 571.318 536.855 571.318C537.416 571.318 538.06 571.386 538.787 571.523C539.522 571.652 540.23 571.92 540.912 572.33C541.601 572.739 542.173 573.356 542.628 574.182C543.082 575.008 543.31 576.114 543.31 577.5V589H540.628V586.636H540.491C540.31 587.015 540.007 587.42 539.582 587.852C539.158 588.284 538.594 588.652 537.889 588.955C537.185 589.258 536.325 589.409 535.31 589.409ZM535.719 587C536.779 587 537.673 586.792 538.401 586.375C539.135 585.958 539.688 585.42 540.06 584.761C540.438 584.102 540.628 583.409 540.628 582.682V580.227C540.514 580.364 540.264 580.489 539.878 580.602C539.499 580.708 539.06 580.803 538.56 580.886C538.067 580.962 537.586 581.03 537.116 581.091C536.654 581.144 536.279 581.189 535.991 581.227C535.295 581.318 534.643 581.466 534.037 581.67C533.438 581.867 532.954 582.167 532.582 582.568C532.219 582.962 532.037 583.5 532.037 584.182C532.037 585.114 532.382 585.818 533.071 586.295C533.768 586.765 534.651 587 535.719 587ZM550.886 565.727V589H548.205V565.727H550.886ZM555.798 589V571.545H558.48V589H555.798ZM557.162 568.636C556.639 568.636 556.188 568.458 555.81 568.102C555.438 567.746 555.253 567.318 555.253 566.818C555.253 566.318 555.438 565.89 555.81 565.534C556.188 565.178 556.639 565 557.162 565C557.685 565 558.132 565.178 558.503 565.534C558.882 565.89 559.071 566.318 559.071 566.818C559.071 567.318 558.882 567.746 558.503 568.102C558.132 568.458 557.685 568.636 557.162 568.636ZM570.983 571.545V573.818H561.938V571.545H570.983ZM564.574 567.364H567.256V584C567.256 584.758 567.366 585.326 567.585 585.705C567.813 586.076 568.1 586.326 568.449 586.455C568.805 586.576 569.18 586.636 569.574 586.636C569.869 586.636 570.112 586.621 570.301 586.591C570.491 586.553 570.642 586.523 570.756 586.5L571.301 588.909C571.119 588.977 570.866 589.045 570.54 589.114C570.214 589.189 569.801 589.227 569.301 589.227C568.544 589.227 567.801 589.064 567.074 588.739C566.354 588.413 565.756 587.917 565.278 587.25C564.809 586.583 564.574 585.742 564.574 584.727V567.364ZM576.744 595.545C576.29 595.545 575.884 595.508 575.528 595.432C575.172 595.364 574.926 595.295 574.79 595.227L575.472 592.864C576.123 593.03 576.699 593.091 577.199 593.045C577.699 593 578.142 592.777 578.528 592.375C578.922 591.981 579.282 591.341 579.608 590.455L580.108 589.091L573.653 571.545H576.562L581.381 585.455H581.562L586.381 571.545H589.29L581.881 591.545C581.547 592.447 581.134 593.193 580.642 593.784C580.15 594.383 579.578 594.826 578.926 595.114C578.282 595.402 577.555 595.545 576.744 595.545Z" fill="white"/>
<rect x="7" y="505" width="10" height="96" fill="#D9D9D9"/>
<path d="M1176 439V470.5" stroke="white"/>
<path d="M1301 439V470.5" stroke="white"/>
</svg>
