<svg width="1400" height="601" viewBox="0 0 1400 601" fill="none" xmlns="http://www.w3.org/2000/svg">
<path d="M4.48 425.304H21.12C28.4587 425.304 34.048 427.373 37.888 431.512C41.472 435.352 43.264 440.899 43.264 448.152C43.264 455.277 41.4293 460.845 37.76 464.856C33.92 468.952 28.3307 471 20.992 471H4.48V425.304ZM11.456 431.256V465.048H19.712C25.5147 465.048 29.76 463.661 32.448 460.888C35.0933 458.115 36.416 453.869 36.416 448.152C36.416 442.349 35.1147 438.083 32.512 435.352C29.824 432.621 25.6 431.256 19.84 431.256H11.456ZM50.483 425.304H57.395V471H50.483V425.304ZM62.32 425.304H69.872L82.864 463.192H83.056L95.984 425.304H103.536L87.152 471H78.704L62.32 425.304ZM129.924 425.304H132.42V468.696H160.964V471H129.924V425.304ZM181.187 425.304H184.259L202.819 471H200.067L194.307 456.536H171.203L165.379 471H162.562L181.187 425.304ZM172.099 454.232H193.411L182.851 427.992H182.659L172.099 454.232ZM207.549 425.304H227.389C231.229 425.304 234.365 426.264 236.797 428.184C239.314 430.232 240.573 433.091 240.573 436.76C240.573 439.32 239.762 441.581 238.141 443.544C236.562 445.379 234.599 446.595 232.253 447.192C235.239 447.661 237.671 448.899 239.549 450.904C241.426 452.995 242.365 455.512 242.365 458.456C242.365 462.723 240.829 465.944 237.757 468.12C235.026 470.04 231.442 471 227.005 471H207.549V425.304ZM210.045 427.608V446.168H227.005C230.205 446.168 232.829 445.379 234.877 443.8C237.01 442.136 238.076 439.832 238.076 436.888C238.076 433.816 237.031 431.469 234.941 429.848C233.021 428.355 230.354 427.608 226.941 427.608H210.045ZM210.045 448.472V468.696H227.325C230.951 468.696 233.874 467.928 236.093 466.392C238.61 464.6 239.869 461.976 239.869 458.52C239.869 455.192 238.61 452.632 236.093 450.84C233.831 449.261 230.845 448.472 227.133 448.472H210.045Z" fill="white"/>
<path d="M1358.22 85.44C1359.61 85.44 1360.73 85.8333 1361.6 86.62C1362.47 87.42 1362.9 88.4467 1362.9 89.7C1362.9 90.9133 1362.43 92.04 1361.5 93.08C1360.94 93.6533 1359.95 94.42 1358.54 95.38C1357.01 96.3933 1356.09 97.2933 1355.78 98.08H1362.92V100H1353.08C1353.08 98.5733 1353.55 97.3267 1354.5 96.26C1354.99 95.6733 1356.07 94.8067 1357.72 93.66C1358.69 92.9667 1359.37 92.42 1359.76 92.02C1360.41 91.2867 1360.74 90.5067 1360.74 89.68C1360.74 88.88 1360.52 88.28 1360.08 87.88C1359.64 87.48 1358.99 87.28 1358.14 87.28C1357.23 87.28 1356.55 87.5867 1356.1 88.2C1355.63 88.7867 1355.38 89.66 1355.34 90.82H1353.16C1353.19 89.22 1353.65 87.94 1354.54 86.98C1355.45 85.9533 1356.67 85.44 1358.22 85.44ZM1369.99 85.44C1371.67 85.44 1372.97 86.1467 1373.89 87.56C1374.73 88.88 1375.15 90.6467 1375.15 92.86C1375.15 95.0733 1374.73 96.84 1373.89 98.16C1372.96 99.5733 1371.66 100.28 1369.99 100.28C1368.33 100.28 1367.03 99.5733 1366.09 98.16C1365.25 96.84 1364.83 95.0733 1364.83 92.86C1364.83 90.62 1365.25 88.8533 1366.09 87.56C1367.01 86.1467 1368.31 85.44 1369.99 85.44ZM1369.99 87.28C1368.82 87.28 1367.99 87.9267 1367.51 89.22C1367.17 90.0733 1366.99 91.2867 1366.99 92.86C1366.99 94.42 1367.17 95.6333 1367.51 96.5C1367.99 97.7933 1368.82 98.44 1369.99 98.44C1371.17 98.44 1371.99 97.7933 1372.47 96.5C1372.82 95.58 1372.99 94.3667 1372.99 92.86C1372.99 91.3267 1372.82 90.1133 1372.47 89.22C1371.99 87.9267 1371.17 87.28 1369.99 87.28ZM1382.2 85.44C1383.59 85.44 1384.72 85.8333 1385.58 86.62C1386.45 87.42 1386.88 88.4467 1386.88 89.7C1386.88 90.9133 1386.42 92.04 1385.48 93.08C1384.92 93.6533 1383.94 94.42 1382.52 95.38C1380.99 96.3933 1380.07 97.2933 1379.76 98.08H1386.9V100H1377.06C1377.06 98.5733 1377.54 97.3267 1378.48 96.26C1378.98 95.6733 1380.05 94.8067 1381.7 93.66C1382.68 92.9667 1383.36 92.42 1383.74 92.02C1384.4 91.2867 1384.72 90.5067 1384.72 89.68C1384.72 88.88 1384.5 88.28 1384.06 87.88C1383.62 87.48 1382.98 87.28 1382.12 87.28C1381.22 87.28 1380.54 87.5867 1380.08 88.2C1379.62 88.7867 1379.36 89.66 1379.32 90.82H1377.14C1377.17 89.22 1377.63 87.94 1378.52 86.98C1379.43 85.9533 1380.66 85.44 1382.2 85.44ZM1395.42 85.72H1397.42V95.16H1399.58V96.9H1397.42V100H1395.34V96.9H1388.38V94.84L1395.42 85.72ZM1395.28 88.48L1390.16 95.16H1395.34V88.48H1395.28Z" fill="white"/>
<path d="M1228.02 450.5H1231.5V446.54H1233.4V450.5H1238.6V446.62H1240.5V450.5H1244V452.34H1240.5V456.68H1244.98V458.54H1227.02V456.68H1231.5V452.34H1228.02V450.5ZM1233.4 456.68H1238.6V452.34H1233.4V456.68ZM1234.42 460.2C1232.77 462.04 1230.73 463.667 1228.3 465.08L1226.98 463.36C1229.37 462.067 1231.37 460.58 1232.98 458.9L1234.42 460.2ZM1239.2 458.94C1241.52 460.513 1243.47 462.047 1245.04 463.54L1243.52 465.06C1242.2 463.62 1240.3 462.027 1237.82 460.28L1239.2 458.94ZM1254.3 454.62H1250.58V462.24C1250.58 462.733 1250.85 462.98 1251.38 462.98H1254.86C1255.46 462.98 1255.83 462.827 1255.98 462.52C1256.14 462.2 1256.26 461.527 1256.34 460.5L1258.12 461.1C1257.96 462.86 1257.71 463.913 1257.36 464.26C1257.04 464.58 1256.39 464.74 1255.42 464.74H1250.56C1249.31 464.74 1248.68 464.14 1248.68 462.94V453.44L1247.72 454.4L1246.6 452.86C1248.49 451.127 1250.23 449.073 1251.82 446.7H1253.22C1255.05 448.62 1256.71 450.54 1258.22 452.46L1256.98 453.76C1255.18 451.373 1253.75 449.62 1252.68 448.5C1251.6 450.087 1250.43 451.567 1249.16 452.94H1256.16V458.46C1256.15 459.553 1255.54 460.14 1254.34 460.22C1253.57 460.22 1252.83 460.2 1252.12 460.16L1251.66 458.38C1252.41 458.46 1253.05 458.5 1253.6 458.5C1254.07 458.5 1254.3 458.273 1254.3 457.82V454.62ZM1259.12 448.36H1260.98V460.7H1259.12V448.36ZM1259.56 464.88L1259.12 463.06C1260.12 463.14 1261.06 463.18 1261.94 463.18C1262.41 463.18 1262.64 462.9 1262.64 462.34V446.66H1264.54V462.82C1264.54 464.193 1263.89 464.88 1262.6 464.88H1259.56ZM1294.66 450.5H1298.14V446.54H1300.04V450.5H1305.24V446.62H1307.14V450.5H1310.64V452.34H1307.14V456.68H1311.62V458.54H1293.66V456.68H1298.14V452.34H1294.66V450.5ZM1300.04 456.68H1305.24V452.34H1300.04V456.68ZM1301.06 460.2C1299.41 462.04 1297.37 463.667 1294.94 465.08L1293.62 463.36C1296.01 462.067 1298.01 460.58 1299.62 458.9L1301.06 460.2ZM1305.84 458.94C1308.16 460.513 1310.11 462.047 1311.68 463.54L1310.16 465.06C1308.84 463.62 1306.94 462.027 1304.46 460.28L1305.84 458.94ZM1330.3 455.02H1326.06V456.24H1330.58V457.8H1326.06V459.04H1331.16V460.62H1326.06V462.24H1324.22V460.62H1319.84V459.04H1324.22V457.8H1320.46V456.24H1324.22V455.02H1320.88V453.44H1324.22V452.2H1319.9V450.66H1324.22V449.46H1320.88V447.9H1324.22V446.56H1326.06V447.9H1330.3V450.66H1331.5V452.2H1330.3V455.02ZM1326.06 449.46V450.66H1328.48V449.46H1326.06ZM1326.06 452.2V453.44H1328.48V452.2H1326.06ZM1324.72 462.92C1326.59 462.92 1328.92 462.873 1331.72 462.78L1331.4 464.6H1325.54C1321.89 464.6 1319.26 464.073 1317.66 463.02C1317.49 462.9 1317.33 462.767 1317.18 462.62C1316.55 463.487 1315.81 464.253 1314.96 464.92L1313.72 463.3C1314.59 462.713 1315.31 461.993 1315.9 461.14C1315.17 460.033 1314.56 458.653 1314.08 457L1315.68 456.42C1316.03 457.66 1316.41 458.673 1316.84 459.46C1317.37 458.22 1317.7 456.787 1317.82 455.16H1314.22V453.72C1315.25 452.4 1316.24 450.92 1317.2 449.28H1314.22V447.48H1319.32V449.04C1318.41 450.733 1317.53 452.2 1316.66 453.44H1319.56V454.58C1319.48 457.14 1318.98 459.34 1318.06 461.18C1318.3 461.42 1318.56 461.62 1318.84 461.78C1320.15 462.5 1322.11 462.88 1324.72 462.92ZM1361.3 450.5H1364.78V446.54H1366.68V450.5H1371.88V446.62H1373.78V450.5H1377.28V452.34H1373.78V456.68H1378.26V458.54H1360.3V456.68H1364.78V452.34H1361.3V450.5ZM1366.68 456.68H1371.88V452.34H1366.68V456.68ZM1367.7 460.2C1366.05 462.04 1364.01 463.667 1361.58 465.08L1360.26 463.36C1362.65 462.067 1364.65 460.58 1366.26 458.9L1367.7 460.2ZM1372.48 458.94C1374.8 460.513 1376.75 462.047 1378.32 463.54L1376.8 465.06C1375.48 463.62 1373.58 462.027 1371.1 460.28L1372.48 458.94ZM1383.1 450.76H1395.48V455.1H1383.1V450.76ZM1393.64 453.48V452.36H1384.94V453.48H1393.64ZM1389.32 446.56C1389.56 446.947 1389.83 447.46 1390.12 448.1H1398.02V449.88H1380.54V448.1H1387.96C1387.71 447.66 1387.43 447.26 1387.12 446.9L1389.32 446.56ZM1380.1 459.78H1388.7V459.2L1392.48 457.68H1382.04V456H1396.28V457.34C1394.75 458.02 1392.84 458.8 1390.56 459.68V459.78H1398.46V461.5H1390.56V462.98C1390.56 464.367 1389.89 465.06 1388.54 465.06H1385.76L1385.26 463.34C1386.5 463.433 1387.34 463.48 1387.78 463.48C1388.39 463.48 1388.7 463.133 1388.7 462.44V461.5H1380.1V459.78Z" fill="white"/>
<path d="M1354 69H1400" stroke="white" stroke-width="2"/>
<path d="M1326.61 7.72H1331.81C1334.11 7.72 1335.85 8.36667 1337.05 9.66C1338.17 10.86 1338.73 12.5933 1338.73 14.86C1338.73 17.0867 1338.16 18.8267 1337.01 20.08C1335.81 21.36 1334.07 22 1331.77 22H1326.61V7.72ZM1328.79 9.58V20.14H1331.37C1333.19 20.14 1334.51 19.7067 1335.35 18.84C1336.18 17.9733 1336.59 16.6467 1336.59 14.86C1336.59 13.0467 1336.19 11.7133 1335.37 10.86C1334.53 10.0067 1333.21 9.58 1331.41 9.58H1328.79ZM1340.95 7.72H1351.21V9.58H1343.13V13.74H1350.73V15.6H1343.13V20.14H1351.55V22H1340.95V7.72ZM1358.76 7.44C1360.44 7.44 1361.74 7.79333 1362.66 8.5C1363.66 9.23333 1364.23 10.38 1364.36 11.94H1362.2C1362 10.9933 1361.63 10.3267 1361.08 9.94C1360.54 9.52667 1359.72 9.32 1358.64 9.32C1357.71 9.32 1356.99 9.46 1356.48 9.74C1355.87 10.06 1355.56 10.58 1355.56 11.3C1355.56 11.94 1355.92 12.4467 1356.62 12.82C1356.97 13.02 1357.8 13.3133 1359.1 13.7C1361.08 14.3133 1362.32 14.78 1362.84 15.1C1364.07 15.8467 1364.68 16.8733 1364.68 18.18C1364.68 19.4467 1364.18 20.4533 1363.18 21.2C1362.18 21.92 1360.78 22.28 1358.98 22.28C1357.26 22.28 1355.9 21.9333 1354.9 21.24C1353.73 20.4 1353.08 19.08 1352.96 17.28H1355.12C1355.28 18.4133 1355.68 19.22 1356.32 19.7C1356.91 20.14 1357.8 20.36 1358.98 20.36C1360.04 20.36 1360.9 20.1733 1361.56 19.8C1362.2 19.44 1362.52 18.94 1362.52 18.3C1362.52 17.5133 1362.07 16.8867 1361.16 16.42C1360.83 16.26 1359.88 15.94 1358.32 15.46C1356.54 14.8867 1355.44 14.4933 1355.04 14.28C1353.95 13.6267 1353.4 12.6733 1353.4 11.42C1353.4 10.1667 1353.93 9.18 1354.98 8.46C1355.98 7.78 1357.24 7.44 1358.76 7.44ZM1366.75 7.72H1368.91V22H1366.75V7.72ZM1377.93 7.44C1379.77 7.44 1381.21 7.85333 1382.25 8.68C1383.28 9.48 1383.92 10.6733 1384.17 12.26H1381.97C1381.77 11.3 1381.33 10.58 1380.65 10.1C1379.98 9.60667 1379.08 9.36 1377.93 9.36C1376.54 9.36 1375.44 9.83333 1374.63 10.78C1373.76 11.7667 1373.33 13.1467 1373.33 14.92C1373.33 16.6533 1373.72 17.9733 1374.51 18.88C1375.35 19.88 1376.66 20.38 1378.45 20.38C1379.1 20.38 1379.76 20.2933 1380.43 20.12C1380.99 19.9733 1381.52 19.74 1382.03 19.42V16.32H1378.09V14.46H1384.21V20.46C1383.49 21.0333 1382.63 21.48 1381.63 21.8C1380.59 22.12 1379.45 22.28 1378.21 22.28C1375.94 22.28 1374.18 21.56 1372.91 20.12C1371.74 18.7867 1371.15 17.0533 1371.15 14.92C1371.15 12.7733 1371.74 11.0133 1372.91 9.64C1374.14 8.17333 1375.81 7.44 1377.93 7.44ZM1386.83 7.72H1389.03L1396.33 18.34H1396.41V7.72H1398.59V22H1396.47L1389.09 11.26H1389.01V22H1386.83V7.72ZM1123.75 37.72H1124.97V52H1123.75V37.72ZM1128.06 37.72H1129.44L1138.08 50.1H1138.14V37.72H1139.38V52H1138.02L1129.34 39.52H1129.28V52H1128.06V37.72ZM1141.2 37.72H1152.9V38.8H1147.66V52H1146.44V38.8H1141.2V37.72ZM1154.72 37.72H1164.74V38.8H1155.94V44.06H1164.26V45.16H1155.94V50.92H1165.08V52H1154.72V37.72ZM1167.4 37.72H1168.62V50.92H1177.2V52H1167.4V37.72ZM1179.12 37.72H1180.34V50.92H1188.92V52H1179.12V37.72ZM1191.02 37.72H1192.24V52H1191.02V37.72ZM1201.37 37.44C1203.13 37.44 1204.53 37.8867 1205.59 38.78C1206.56 39.62 1207.18 40.8067 1207.45 42.34H1206.21C1205.98 41.1667 1205.47 40.2533 1204.69 39.6C1203.86 38.9067 1202.75 38.56 1201.37 38.56C1199.7 38.56 1198.37 39.16 1197.39 40.36C1196.43 41.52 1195.95 43.0467 1195.95 44.94C1195.95 46.7933 1196.43 48.2733 1197.39 49.38C1198.41 50.58 1199.88 51.18 1201.79 51.18C1202.61 51.18 1203.43 51.06 1204.23 50.82C1205.04 50.5667 1205.69 50.2733 1206.17 49.94V45.88H1201.29V44.8H1207.39V50.52C1206.69 51.0667 1205.87 51.4933 1204.93 51.8C1203.89 52.12 1202.81 52.28 1201.69 52.28C1199.45 52.28 1197.7 51.5533 1196.45 50.1C1195.3 48.78 1194.73 47.06 1194.73 44.94C1194.73 42.82 1195.29 41.0733 1196.43 39.7C1197.64 38.1933 1199.29 37.44 1201.37 37.44ZM1210.19 37.72H1220.21V38.8H1211.41V44.06H1219.73V45.16H1211.41V50.92H1220.55V52H1210.19V37.72ZM1222.87 37.72H1224.25L1232.89 50.1H1232.95V37.72H1234.19V52H1232.83L1224.15 39.52H1224.09V52H1222.87V37.72ZM1243.26 37.44C1244.78 37.44 1246.08 37.8533 1247.14 38.68C1248.25 39.52 1248.9 40.64 1249.08 42.04H1247.9C1247.73 40.9333 1247.19 40.0733 1246.28 39.46C1245.43 38.86 1244.42 38.56 1243.24 38.56C1241.5 38.56 1240.12 39.18 1239.12 40.42C1238.19 41.5667 1237.72 43.0667 1237.72 44.92C1237.72 46.7733 1238.18 48.26 1239.1 49.38C1240.06 50.5667 1241.4 51.16 1243.12 51.16C1244.32 51.16 1245.37 50.8333 1246.26 50.18C1247.21 49.46 1247.82 48.44 1248.1 47.12H1249.28C1248.98 48.7733 1248.23 50.0667 1247.04 51C1245.92 51.8533 1244.62 52.28 1243.14 52.28C1241.01 52.28 1239.34 51.5467 1238.14 50.08C1237.05 48.7467 1236.5 47.0267 1236.5 44.92C1236.5 42.8133 1237.06 41.0733 1238.18 39.7C1239.4 38.1933 1241.09 37.44 1243.26 37.44ZM1251.6 37.72H1261.62V38.8H1252.82V44.06H1261.14V45.16H1252.82V50.92H1261.96V52H1251.6V37.72ZM1270.93 37.72H1280.39V38.8H1272.15V44.1H1279.97V45.18H1272.15V52H1270.93V37.72ZM1288.6 37.44C1290.69 37.44 1292.36 38.16 1293.6 39.6C1294.76 40.96 1295.34 42.7133 1295.34 44.86C1295.34 47.02 1294.76 48.78 1293.6 50.14C1292.36 51.5667 1290.68 52.28 1288.58 52.28C1286.46 52.28 1284.78 51.56 1283.56 50.12C1282.4 48.76 1281.82 47.0067 1281.82 44.86C1281.82 42.7133 1282.4 40.96 1283.56 39.6C1284.8 38.16 1286.48 37.44 1288.6 37.44ZM1288.6 38.56C1286.85 38.56 1285.48 39.16 1284.48 40.36C1283.52 41.52 1283.04 43.02 1283.04 44.86C1283.04 46.74 1283.51 48.24 1284.46 49.36C1285.46 50.56 1286.83 51.16 1288.58 51.16C1290.31 51.16 1291.68 50.5667 1292.68 49.38C1293.64 48.2333 1294.12 46.7267 1294.12 44.86C1294.12 42.9667 1293.64 41.46 1292.68 40.34C1291.69 39.1533 1290.33 38.56 1288.6 38.56ZM1297.65 37.72H1303.69C1305.12 37.72 1306.22 38.0533 1307.01 38.72C1307.82 39.4133 1308.23 40.3867 1308.23 41.64C1308.23 42.4533 1308 43.18 1307.55 43.82C1307.07 44.46 1306.4 44.88 1305.53 45.08V45.12C1306.97 45.44 1307.77 46.32 1307.93 47.76L1308.13 49.9C1308.21 50.7933 1308.44 51.4933 1308.83 52H1307.49C1307.2 51.5333 1307.01 50.8867 1306.93 50.06L1306.75 48.1C1306.67 47.22 1306.34 46.5867 1305.77 46.2C1305.25 45.84 1304.52 45.66 1303.59 45.66H1298.87V52H1297.65V37.72ZM1298.87 38.8V44.58H1303.57C1304.68 44.58 1305.54 44.3067 1306.17 43.76C1306.73 43.24 1307.01 42.5467 1307.01 41.68C1307.01 40.7333 1306.74 40.02 1306.19 39.54C1305.64 39.0467 1304.76 38.8 1303.55 38.8H1298.87ZM1316.25 37.72H1317.61L1322.39 50.7H1322.45L1327.23 37.72H1328.59L1323.21 52H1321.65L1316.25 37.72ZM1330.33 37.72H1331.55V52H1330.33V37.72ZM1333.54 37.72H1345.24V38.8H1340V52H1338.78V38.8H1333.54V37.72ZM1351.33 37.72H1352.77L1358.49 52H1357.15L1355.49 47.74H1348.61L1346.95 52H1345.61L1351.33 37.72ZM1349.01 46.7H1355.09L1352.09 39.04H1352.03L1349.01 46.7ZM1359.94 37.72H1361.16V50.92H1369.74V52H1359.94V37.72ZM1371.84 37.72H1373.06V52H1371.84V37.72ZM1375.05 37.72H1386.75V38.8H1381.51V52H1380.29V38.8H1375.05V37.72ZM1387.21 37.72H1388.71L1393.57 44.98L1398.41 37.72H1399.91L1394.17 46.12V52H1392.95V46.12L1387.21 37.72Z" fill="white"/>
<path d="M46.592 514.952H49.664V544.072H46.592V538.856C43.7547 540.072 40.9707 541.075 38.24 541.864L37.504 538.856C40.576 538.216 43.6053 537.203 46.592 535.816V526.376H38.144V523.464H46.592V514.952ZM57.216 543.784C54.912 543.784 53.76 542.6 53.76 540.232V514.92H56.8V525.256C59.488 524.296 62.08 522.984 64.576 521.32L66.336 523.816C62.9653 525.736 59.7867 527.176 56.8 528.136V539.784C56.8 540.552 57.1627 540.936 57.888 540.936H61.888C62.464 540.936 62.9227 540.701 63.264 540.232C63.5413 539.699 63.7227 537.949 63.808 534.984L66.656 535.944C66.464 539.635 66.0907 541.864 65.536 542.632C64.96 543.4 63.9147 543.784 62.4 543.784H57.216ZM73.472 523.208H94.56V532.872H85.632V540.904C85.632 542.995 84.5547 544.04 82.4 544.04H78.944L78.24 541.128C79.328 541.256 80.3627 541.32 81.344 541.32C82.1973 541.32 82.624 540.925 82.624 540.136V532.872H73.472V523.208ZM91.552 529.96V526.12H76.48V529.96H91.552ZM84.064 514.664C84.448 515.475 84.8747 516.573 85.344 517.96H98.272V520.808H69.728V517.96H82.208C81.8667 517.064 81.44 516.136 80.928 515.176L84.064 514.664ZM91.264 534.408C94.1013 536.776 96.4693 539.091 98.368 541.352L96.16 543.56C94.496 541.32 92.192 538.92 89.248 536.36L91.264 534.408ZM78.784 536.328C76.7787 539.123 74.336 541.555 71.456 543.624L69.536 541.16C72.3733 539.219 74.7413 536.968 76.64 534.408L78.784 536.328ZM113.376 515.816H129.216V531.144H122.816V534.376H129.568V537.192H122.816V540.488H130.592V543.4H112.032V540.488H119.808V537.192H112.992V534.376H119.808V531.144H113.376V515.816ZM126.304 528.456V524.808H122.816V528.456H126.304ZM119.808 528.456V524.808H116.288V528.456H119.808ZM116.288 522.184H119.808V518.504H116.288V522.184ZM122.816 518.504V522.184H126.304V518.504H122.816ZM101.984 526.344H105.152V519.528H101.536V516.648H111.808V519.528H108.224V526.344H111.456V529.288H108.224V535.592C109.653 535.059 110.816 534.589 111.712 534.184V537.096C108.64 538.376 105.376 539.464 101.92 540.36L101.184 537.448C102.635 537.171 103.957 536.872 105.152 536.552V529.288H101.984V526.344ZM146.592 519.624H135.712V516.68H160.576V519.624H149.664V540.008H161.952V542.984H134.016V540.008H146.592V519.624ZM165.856 522.92H178.112C178.325 521.107 178.443 519.325 178.464 517.576V514.792H181.536V516.872C181.536 518.984 181.408 521 181.152 522.92H194.144V525.864H181.92C184.16 532.691 188.459 537.981 194.816 541.736L192.928 544.2C186.763 540.403 182.464 535.123 180.032 528.36C177.92 535.677 173.611 541.053 167.104 544.488L165.152 541.928C171.744 538.728 175.893 533.373 177.6 525.864H165.856V522.92ZM225.856 521.032V528.776H222.816V523.944H201.152V528.776H198.144V521.032H203.904C202.88 519.304 201.824 517.768 200.736 516.424L203.488 515.08C204.619 516.616 205.685 518.259 206.688 520.008L204.64 521.032H216.64C217.92 519.091 219.051 516.947 220.032 514.6L223.168 515.752C222.08 517.885 221.013 519.645 219.968 521.032H225.856ZM203.36 525.96H220.672V528.648C218.688 529.928 216.437 531.187 213.92 532.424V533.544H225.856V536.424H213.92V541.32C213.92 543.219 212.907 544.168 210.88 544.168H206.816L206.08 541.416C207.616 541.459 208.875 541.48 209.856 541.48C210.539 541.48 210.88 541.075 210.88 540.264V536.424H198.24V533.544H210.88V531.112C213.12 530.152 214.923 529.331 216.288 528.648H203.36V525.96ZM211.136 514.44C212.245 516.083 213.259 517.811 214.176 519.624L211.456 521C210.517 519.08 209.493 517.341 208.384 515.784L211.136 514.44ZM244.672 519.528C244.011 520.467 243.307 521.277 242.56 521.96H247.168C247.296 521.149 247.392 520.339 247.456 519.528H244.672ZM246.336 524.744H240.384V521.96H241.824L240.32 520.072C241.835 518.728 243.126 516.861 244.192 514.472L246.912 515.048C246.763 515.475 246.518 516.072 246.176 516.84H254.944V519.528H250.368C250.283 520.595 250.198 521.405 250.112 521.96H255.84V524.744H249.472L249.344 525.192C251.648 526.365 253.654 527.581 255.36 528.84L253.472 530.76H265.696V544.36H262.624V543.112H247.52V544.36H244.48V531.208C243.435 531.848 242.55 532.339 241.824 532.68L239.776 530.216C243.083 528.744 245.248 526.963 246.272 524.872L246.336 524.744ZM247.52 540.424H262.624V538.312H247.52V540.424ZM247.52 535.688H262.624V533.448H247.52V535.688ZM252.928 530.76C251.67 529.629 250.144 528.509 248.352 527.4C247.584 528.595 246.507 529.715 245.12 530.76H252.928ZM256.832 516.872H268.032V528.968H256.832V516.872ZM265.056 526.312V519.56H259.808V526.312H265.056ZM276.768 533.512V535.848H283.424V533.512H276.768ZM283.424 531.016V528.552H276.768V531.016H283.424ZM276.768 538.376V544.36H273.824V525.928H286.368V540.808C286.368 543.027 285.334 544.136 283.264 544.136H280.736L280 541.288L282.272 541.416C283.04 541.416 283.424 541 283.424 540.168V538.376H276.768ZM292.032 528.904C289.792 528.904 288.672 527.677 288.672 525.224V514.856H291.68V518.664C295.158 518.131 297.856 517.597 299.776 517.064L300.768 519.752C298.038 520.392 295.008 520.957 291.68 521.448V524.584C291.68 525.651 292.075 526.184 292.864 526.184H296.672C297.184 526.184 297.547 526.024 297.76 525.704C298.038 525.277 298.208 524.2 298.272 522.472L301.12 523.4C300.864 526.045 300.438 527.635 299.84 528.168C299.243 528.659 298.379 528.904 297.248 528.904H292.032ZM291.712 540.2C291.712 540.797 292.086 541.096 292.832 541.096H296.672C297.163 541.096 297.526 540.947 297.76 540.648C298.038 540.243 298.219 539.155 298.304 537.384L301.088 538.248C300.832 540.936 300.406 542.547 299.808 543.08C299.254 543.571 298.4 543.816 297.248 543.816H292C289.803 543.816 288.704 542.824 288.704 540.84V530.056H291.712V533.576C294.614 533.277 297.302 532.755 299.776 532.008L300.768 534.728C298.08 535.453 295.062 535.987 291.712 536.328V540.2ZM284.032 517C285.867 519.453 287.318 521.651 288.384 523.592L285.888 525.384C285.526 524.659 285.174 523.997 284.832 523.4C281.504 523.912 277.504 524.296 272.832 524.552L272 522.024C272.534 521.832 272.992 521.576 273.376 521.256C275.36 519.059 276.854 516.883 277.856 514.728L280.768 515.592C279.446 518.173 277.942 520.275 276.256 521.896C278.198 521.789 280.619 521.555 283.52 521.192C283.051 520.445 282.443 519.539 281.696 518.472L284.032 517ZM313.088 521.448L312.608 525.8H330.304C330.304 535.059 329.792 540.424 328.768 541.896C327.744 543.304 325.558 544.008 322.208 544.008C321.398 544.008 320.011 543.965 318.048 543.88L317.248 541.096C319.424 541.267 320.875 541.352 321.6 541.352C324.288 541.352 325.888 540.744 326.4 539.528C326.976 538.269 327.264 534.643 327.264 528.648H309.184L310.72 514.632L313.792 514.888L313.408 518.536H331.232V521.448H313.088ZM304.416 533.224H324.544V536.136H304.416V533.224ZM363.552 528.584H358.144V530.536H363.936V532.904H358.144V534.696H364.928V537.192H358.144V540.008H355.264V537.192H350.272V534.696H355.264V532.904H351.296V530.536H355.264V528.584H351.552V526.152H355.264V524.136H350.272V521.704H355.264V519.656H351.552V517.224H355.264V514.952H358.144V517.224H363.552V521.704H365.376V524.136H363.552V528.584ZM358.144 519.656V521.704H360.864V519.656H358.144ZM358.144 524.136V526.152H360.864V524.136H358.144ZM343.36 517.544H350.048V520.04C348.832 522.515 347.67 524.616 346.56 526.344H350.24V528.04C350.155 531.816 349.547 535.048 348.416 537.736C349.355 538.653 350.368 539.347 351.456 539.816C353.12 540.52 355.702 540.936 359.2 541.064C360.736 541.064 362.827 541.021 365.472 540.936L364.928 543.784H361.088C355.328 543.72 351.414 543.101 349.344 541.928C348.555 541.501 347.798 540.957 347.072 540.296C346.07 541.832 344.811 543.144 343.296 544.232L341.824 541.64C343.147 540.701 344.256 539.507 345.152 538.056C343.915 536.264 342.902 533.981 342.112 531.208L344.576 530.28C345.003 532.115 345.643 533.736 346.496 535.144C347.115 533.245 347.488 531.165 347.616 528.904H343.04V526.728C344.406 524.872 345.664 522.771 346.816 520.424H343.36V517.544ZM338.592 527.56C337.824 528.691 337.163 529.619 336.608 530.344L335.616 527.08C338.027 523.603 339.798 519.496 340.928 514.76L343.68 516.04C343.083 518.237 342.368 520.285 341.536 522.184V544.36H338.592V527.56ZM393.824 532.456H386.016V534.056C386.784 534.824 387.702 535.603 388.768 536.392C390.347 535.347 391.723 534.141 392.896 532.776L395.072 534.664C393.899 535.795 392.534 536.851 390.976 537.832C392.79 538.92 394.87 539.891 397.216 540.744L395.68 543.4C391.968 541.864 388.747 539.795 386.016 537.192V541.288C386.016 543.187 385.056 544.136 383.136 544.136H379.68L379.072 541.384C380.16 541.512 381.184 541.576 382.144 541.576C382.784 541.576 383.104 541.235 383.104 540.552V538.056C380.566 539.805 377.536 541.416 374.016 542.888L372.832 540.168C374.966 539.4 376.886 538.589 378.592 537.736C377.248 536.819 375.83 536.072 374.336 535.496L375.808 533.352C377.302 533.949 378.71 534.707 380.032 535.624L378.656 537.704C380.278 536.893 381.76 536.051 383.104 535.176V532.456H375.392V529.992H383.104V528.168H373.248C373.056 534.845 371.99 540.189 370.048 544.2L367.744 542.184C369.387 538.664 370.251 533.736 370.336 527.4V516.744H382.368C382.048 516.168 381.728 515.624 381.408 515.112L384.576 514.6C384.811 515.069 385.12 515.784 385.504 516.744H396.48V519.464H386.016V521.32H393.824V525.672H396.8V528.168H393.824V532.456ZM373.28 525.672H383.104V523.784H375.584V521.32H383.104V519.464H373.28V525.672ZM386.016 523.784V525.672H390.944V523.784H386.016ZM390.944 528.168H386.016V529.992H390.944V528.168ZM404.032 515.176C406.08 516.755 407.819 518.323 409.248 519.88L407.168 521.992C405.931 520.52 404.182 518.92 401.92 517.192L404.032 515.176ZM399.968 524.36H407.136V537.896C408.032 537.149 409.099 536.189 410.336 535.016L411.168 538.216C409.056 540.179 406.848 541.896 404.544 543.368L403.392 540.616C403.926 540.147 404.192 539.581 404.192 538.92V527.272H399.968V524.36ZM411.392 528.168H426.912V530.952C425.995 533.789 424.459 536.232 422.304 538.28C424.395 539.645 426.87 540.84 429.728 541.864L428.096 544.488C425.003 543.251 422.326 541.8 420.064 540.136C417.59 541.907 414.507 543.347 410.816 544.456L409.12 541.896C412.534 540.893 415.382 539.635 417.664 538.12C415.467 535.987 413.984 533.651 413.216 531.112H411.392V528.168ZM416.064 531.112C416.79 533.053 418.048 534.824 419.84 536.424C421.59 534.824 422.923 533.053 423.84 531.112H416.064ZM413.632 515.816H424.96V522.536C424.96 523.261 425.355 523.624 426.144 523.624H428.96V526.408H425.344C423.083 526.408 421.952 525.341 421.952 523.208V518.664H416.64V519.624C416.64 522.952 414.955 525.533 411.584 527.368L409.568 525.032C412.278 523.816 413.632 522.12 413.632 519.944V515.816ZM442.016 524.104H450.4V514.728H453.536V524.104H461.472V527.112H453.536V544.36H450.4V527.112H442.016V524.104ZM436.192 515.016C438.304 516.616 440.064 518.195 441.472 519.752L439.392 521.864C438.07 520.307 436.299 518.717 434.08 517.096L436.192 515.016ZM431.968 524.296H439.36V537.928C440.235 537.224 441.302 536.275 442.56 535.08L443.36 538.184C441.291 540.125 439.094 541.843 436.768 543.336L435.616 540.616C436.171 540.168 436.448 539.624 436.448 538.984V527.208H431.968V524.296ZM475.104 515.88H491.456V528.648H484.672V531.08H492.864V533.896H487.136C488.48 536.413 490.678 538.685 493.728 540.712L491.776 543.144C488.491 540.349 486.166 537.267 484.8 533.896H484.672V544.232H481.824V533.896H481.728C480.192 537.651 477.728 540.744 474.336 543.176L472.768 540.584C475.734 538.771 477.942 536.541 479.392 533.896H473.76V531.08H481.824V528.648H475.104V515.88ZM488.672 526.088V523.56H484.672V526.088H488.672ZM481.824 526.088V523.56H477.888V526.088H481.824ZM477.888 521.096H481.824V518.504H477.888V521.096ZM484.672 518.504V521.096H488.672V518.504H484.672ZM468.224 515.016C470.272 516.573 472 518.141 473.408 519.72L471.328 521.832C470.048 520.317 468.299 518.739 466.08 517.096L468.224 515.016ZM463.872 524.296H471.04V537.384C471.894 536.595 472.672 535.837 473.376 535.112L474.176 538.216C472.47 539.923 470.56 541.512 468.448 542.984L467.296 540.296C467.83 539.827 468.096 539.293 468.096 538.696V527.208H463.872V524.296ZM517.696 540.968C521.152 540.968 523.723 540.904 525.408 540.776L524.896 543.784H518.4C510.763 543.784 505.974 543.379 504.032 542.568C502.518 541.949 501.163 540.84 499.968 539.24C499.435 541.075 498.699 542.781 497.76 544.36L495.584 542.408C497.206 539.571 498.091 536.413 498.24 532.936L500.928 533.288C500.864 534.461 500.758 535.475 500.608 536.328C501.227 537.224 501.952 538.013 502.784 538.696V531.848H496.672V529.096H510.368V531.848H505.44V534.6H509.568V537.288H505.44V540.136L505.568 540.168C507.36 540.701 511.403 540.968 517.696 540.968ZM497.92 515.816H509.28V527.432H497.92V515.816ZM506.336 524.936V522.792H500.864V524.936H506.336ZM500.864 520.488H506.336V518.312H500.864V520.488ZM510.624 515.816H524.64V518.568H519.104C519.04 519.101 518.923 519.773 518.752 520.584H523.904V533.736H521.088V523.176H514.176V533.736H511.488V520.584H516.064C516.192 519.901 516.288 519.229 516.352 518.568H510.624V515.816ZM520.224 533.608C522.08 534.995 523.691 536.456 525.056 537.992L522.944 540.104C521.728 538.611 520.139 537.085 518.176 535.528L520.224 533.608ZM516.224 524.392H519.04V529C518.912 532.008 518.304 534.408 517.216 536.2C516.086 537.885 514.294 539.176 511.84 540.072L510.208 537.48C512.512 536.648 514.08 535.592 514.912 534.312C515.723 532.947 516.16 531.176 516.224 529V524.392ZM539.36 539.368C536.331 540.861 532.843 542.056 528.896 542.952L528.512 539.912C532.63 539.08 536.246 537.939 539.36 536.488V539.368ZM536.768 515.784C535.168 519.496 533.536 522.504 531.872 524.808C533.152 524.68 534.379 524.52 535.552 524.328L537.536 520.712L540.288 521.736C537.515 526.728 535.158 530.397 533.216 532.744C535.414 532.211 537.547 531.549 539.616 530.76V533.544C535.968 534.867 532.555 535.752 529.376 536.2L528.576 533.416C529.131 533.16 529.59 532.861 529.952 532.52C530.976 531.496 532.299 529.704 533.92 527.144L528.864 527.816L528.096 525C528.587 524.808 529.024 524.424 529.408 523.848C531.094 521.139 532.587 518.077 533.888 514.664L536.768 515.784ZM554.752 516.168V540.232H557.312V543.176H538.624V540.232H541.248V516.168H554.752ZM544.224 540.232H551.776V535.048H544.224V540.232ZM544.224 532.168H551.776V526.92H544.224V532.168ZM544.224 524.072H551.776V519.08H544.224V524.072ZM38.336 566.152H40.288V587.272H54.016V589H38.336V566.152ZM63.774 572.008C66.0993 572.008 67.8167 572.637 68.926 573.896C69.9073 574.984 70.398 576.467 70.398 578.344V589H68.574V585.832C67.8913 586.813 66.9953 587.635 65.886 588.296C64.5847 589.064 63.1447 589.448 61.566 589.448C59.9447 589.448 58.6327 589.032 57.63 588.2C56.6273 587.347 56.126 586.205 56.126 584.776C56.126 582.664 56.99 581.128 58.718 580.168C60.1047 579.379 61.95 578.984 64.254 578.984L68.478 578.952V578.344C68.478 575.208 66.878 573.64 63.678 573.64C62.206 573.64 61.054 573.949 60.222 574.568C59.2833 575.187 58.718 576.147 58.526 577.448H56.638C56.894 575.592 57.6727 574.205 58.974 573.288C60.1687 572.435 61.7687 572.008 63.774 572.008ZM68.478 580.52L64.35 580.552C60.1687 580.573 58.078 581.971 58.078 584.744C58.078 585.661 58.43 586.408 59.134 586.984C59.8167 587.56 60.7553 587.848 61.95 587.848C63.678 587.848 65.214 587.272 66.558 586.12C67.838 584.989 68.478 583.763 68.478 582.44V580.52ZM74.4223 565.704H76.3423V575.944C77.5583 573.32 79.4889 572.008 82.1343 572.008C84.4809 572.008 86.3156 572.893 87.6383 574.664C88.8543 576.264 89.4623 578.28 89.4623 580.712C89.4623 583.187 88.8543 585.224 87.6383 586.824C86.2729 588.573 84.4169 589.448 82.0703 589.448C79.3183 589.448 77.3769 588.211 76.2463 585.736V589H74.4223V565.704ZM81.7823 573.64C80.0756 573.64 78.7316 574.301 77.7503 575.624C76.7689 576.883 76.2783 578.536 76.2783 580.584V580.968C76.2783 582.931 76.7369 584.531 77.6543 585.768C78.6356 587.133 80.0329 587.816 81.8463 587.816C83.7023 587.816 85.1423 587.112 86.1663 585.704C87.0623 584.445 87.5103 582.781 87.5103 580.712C87.5103 578.643 87.0516 576.989 86.1343 575.752C85.1103 574.344 83.6596 573.64 81.7823 573.64ZM110.748 572.008C113.18 572.008 115.132 572.883 116.604 574.632C117.948 576.253 118.62 578.291 118.62 580.744C118.62 583.155 117.948 585.181 116.604 586.824C115.111 588.573 113.159 589.448 110.748 589.448C108.337 589.448 106.385 588.573 104.892 586.824C103.548 585.181 102.876 583.155 102.876 580.744C102.876 578.291 103.559 576.253 104.924 574.632C106.353 572.883 108.295 572.008 110.748 572.008ZM110.748 573.672C108.849 573.672 107.367 574.397 106.3 575.848C105.319 577.107 104.828 578.739 104.828 580.744C104.828 582.728 105.319 584.349 106.3 585.608C107.388 587.059 108.871 587.784 110.748 587.784C112.647 587.784 114.14 587.059 115.228 585.608C116.209 584.264 116.7 582.643 116.7 580.744C116.7 578.781 116.209 577.149 115.228 575.848C114.161 574.397 112.668 573.672 110.748 573.672ZM131.68 566.152V567.848H128.896C128.043 567.848 127.435 568.061 127.072 568.488C126.688 568.893 126.496 569.576 126.496 570.536V572.456H131.456V574.12H126.496V589H124.576V574.12H120.16V572.456H124.576V570.504C124.576 569.096 124.917 568.04 125.6 567.336C126.304 566.547 127.349 566.152 128.736 566.152H131.68ZM144.836 566.152H152.964C156.527 566.152 159.204 567.219 160.996 569.352C162.639 571.293 163.46 574.035 163.46 577.576C163.46 581.053 162.543 583.805 160.708 585.832C158.788 587.944 156.068 589 152.548 589H144.836V566.152ZM146.788 567.88V587.272H152.26C155.311 587.272 157.636 586.408 159.236 584.68C160.772 583.016 161.54 580.648 161.54 577.576C161.54 574.376 160.868 571.997 159.524 570.44C158.073 568.733 155.791 567.88 152.676 567.88H146.788ZM173.548 572.008C176.172 572.008 178.134 572.893 179.436 574.664C180.609 576.243 181.238 578.451 181.324 581.288H167.884C167.99 583.315 168.534 584.904 169.516 586.056C170.54 587.208 171.905 587.784 173.612 587.784C175.084 587.784 176.3 587.389 177.26 586.6C178.028 585.939 178.614 584.968 179.02 583.688H180.972C180.588 585.288 179.852 586.6 178.764 587.624C177.42 588.84 175.702 589.448 173.612 589.448C171.286 589.448 169.43 588.659 168.044 587.08C166.614 585.501 165.9 583.379 165.9 580.712C165.9 578.28 166.582 576.243 167.948 574.6C169.356 572.872 171.222 572.008 173.548 572.008ZM173.58 573.672C171.937 573.672 170.625 574.237 169.644 575.368C168.641 576.499 168.065 577.949 167.916 579.72H179.308C178.988 575.688 177.078 573.672 173.58 573.672ZM190.023 572.008C193.948 572.008 196.146 573.704 196.615 577.096H194.727C194.514 575.944 194.055 575.101 193.351 574.568C192.604 573.971 191.484 573.672 189.991 573.672C188.754 573.672 187.762 573.917 187.015 574.408C186.247 574.92 185.863 575.581 185.863 576.392C185.863 577.224 186.354 577.896 187.335 578.408C187.996 578.728 189.159 579.112 190.823 579.56C192.85 580.072 194.279 580.584 195.111 581.096C196.434 581.907 197.095 583.016 197.095 584.424C197.095 587.773 194.855 589.448 190.375 589.448C186.13 589.448 183.815 587.56 183.431 583.784H185.319C185.511 585.235 186.023 586.28 186.855 586.92C187.623 587.496 188.775 587.784 190.311 587.784C193.511 587.784 195.111 586.696 195.111 584.52C195.111 583.517 194.567 582.749 193.479 582.216C192.882 581.917 191.655 581.533 189.799 581.064C187.858 580.552 186.514 580.061 185.767 579.592C184.508 578.845 183.879 577.789 183.879 576.424C183.879 575.08 184.476 574.003 185.671 573.192C186.802 572.403 188.252 572.008 190.023 572.008ZM202.092 566.504C202.54 566.504 202.924 566.664 203.244 566.984C203.564 567.24 203.724 567.613 203.724 568.104C203.724 568.531 203.554 568.915 203.212 569.256C202.871 569.555 202.498 569.704 202.092 569.704C201.623 569.704 201.239 569.555 200.94 569.256C200.62 568.936 200.46 568.552 200.46 568.104C200.46 567.613 200.62 567.24 200.94 566.984C201.239 566.664 201.623 566.504 202.092 566.504ZM201.132 572.456H203.052V589H201.132V572.456ZM214.863 572.008C217.594 572.008 219.567 573.267 220.783 575.784V572.456H222.703V587.784C222.703 593.117 220.229 595.784 215.279 595.784C213.125 595.784 211.45 595.315 210.255 594.376C209.125 593.48 208.421 592.157 208.143 590.408H210.063C210.298 591.645 210.81 592.563 211.599 593.16C212.453 593.843 213.679 594.184 215.279 594.184C218.949 594.184 220.783 592.125 220.783 588.008V584.84C219.567 587.357 217.594 588.616 214.863 588.616C212.559 588.616 210.714 587.795 209.327 586.152C208.047 584.616 207.407 582.675 207.407 580.328C207.407 577.981 208.047 576.04 209.327 574.504C210.714 572.84 212.559 572.008 214.863 572.008ZM215.087 573.64C213.253 573.64 211.834 574.301 210.831 575.624C209.85 576.819 209.359 578.387 209.359 580.328C209.359 582.205 209.818 583.741 210.735 584.936C211.738 586.28 213.178 586.952 215.055 586.952C216.89 586.952 218.319 586.312 219.343 585.032C220.303 583.816 220.783 582.248 220.783 580.328C220.783 578.408 220.303 576.84 219.343 575.624C218.341 574.301 216.922 573.64 215.087 573.64ZM234.031 572.008C238.127 572.008 240.175 574.28 240.175 578.824V589H238.255V578.952C238.255 575.432 236.687 573.672 233.551 573.672C232.228 573.672 231.119 574.152 230.223 575.112C229.284 576.051 228.761 577.352 228.655 579.016V589H226.735V572.456H228.655V575.176C229.231 574.195 229.977 573.416 230.895 572.84C231.791 572.285 232.836 572.008 234.031 572.008ZM255.468 566.152H257.42V589H255.468V566.152ZM269.343 572.008C273.439 572.008 275.487 574.28 275.487 578.824V589H273.567V578.952C273.567 575.432 271.999 573.672 268.863 573.672C267.541 573.672 266.431 574.152 265.535 575.112C264.597 576.051 264.074 577.352 263.967 579.016V589H262.047V572.456H263.967V575.176C264.543 574.195 265.29 573.416 266.207 572.84C267.103 572.285 268.149 572.008 269.343 572.008ZM283.516 567.112V572.456H287.836V574.12H283.516V585.32C283.516 586.045 283.644 586.568 283.9 586.888C284.156 587.187 284.636 587.336 285.34 587.336H287.42V589H285.084C283.804 589 282.887 588.669 282.332 588.008C281.841 587.453 281.596 586.557 281.596 585.32V574.12H278.076V572.456H281.596V567.912L283.516 567.112ZM297.423 572.008C300.047 572.008 302.009 572.893 303.311 574.664C304.484 576.243 305.113 578.451 305.199 581.288H291.759C291.865 583.315 292.409 584.904 293.391 586.056C294.415 587.208 295.78 587.784 297.487 587.784C298.959 587.784 300.175 587.389 301.135 586.6C301.903 585.939 302.489 584.968 302.895 583.688H304.847C304.463 585.288 303.727 586.6 302.639 587.624C301.295 588.84 299.577 589.448 297.487 589.448C295.161 589.448 293.305 588.659 291.919 587.08C290.489 585.501 289.775 583.379 289.775 580.712C289.775 578.28 290.457 576.243 291.823 574.6C293.231 572.872 295.097 572.008 297.423 572.008ZM297.455 573.672C295.812 573.672 294.5 574.237 293.519 575.368C292.516 576.499 291.94 577.949 291.791 579.72H303.183C302.863 575.688 300.953 573.672 297.455 573.672ZM308.874 565.704H310.794V589H308.874V565.704ZM316.03 565.704H317.95V589H316.03V565.704ZM324.499 566.504C324.947 566.504 325.331 566.664 325.651 566.984C325.971 567.24 326.131 567.613 326.131 568.104C326.131 568.531 325.96 568.915 325.619 569.256C325.277 569.555 324.904 569.704 324.499 569.704C324.029 569.704 323.645 569.555 323.347 569.256C323.027 568.936 322.867 568.552 322.867 568.104C322.867 567.613 323.027 567.24 323.347 566.984C323.645 566.664 324.029 566.504 324.499 566.504ZM323.539 572.456H325.459V589H323.539V572.456ZM337.27 572.008C340 572.008 341.974 573.267 343.19 575.784V572.456H345.11V587.784C345.11 593.117 342.635 595.784 337.686 595.784C335.531 595.784 333.856 595.315 332.661 594.376C331.531 593.48 330.827 592.157 330.549 590.408H332.47C332.704 591.645 333.216 592.563 334.006 593.16C334.859 593.843 336.086 594.184 337.686 594.184C341.355 594.184 343.19 592.125 343.19 588.008V584.84C341.974 587.357 340 588.616 337.27 588.616C334.966 588.616 333.12 587.795 331.734 586.152C330.454 584.616 329.814 582.675 329.814 580.328C329.814 577.981 330.454 576.04 331.734 574.504C333.12 572.84 334.966 572.008 337.27 572.008ZM337.494 573.64C335.659 573.64 334.24 574.301 333.238 575.624C332.256 576.819 331.766 578.387 331.766 580.328C331.766 582.205 332.224 583.741 333.141 584.936C334.144 586.28 335.584 586.952 337.462 586.952C339.296 586.952 340.726 586.312 341.75 585.032C342.71 583.816 343.19 582.248 343.19 580.328C343.19 578.408 342.71 576.84 341.75 575.624C340.747 574.301 339.328 573.64 337.494 573.64ZM355.829 572.008C358.453 572.008 360.416 572.893 361.717 574.664C362.89 576.243 363.52 578.451 363.605 581.288H350.165C350.272 583.315 350.816 584.904 351.797 586.056C352.821 587.208 354.186 587.784 355.893 587.784C357.365 587.784 358.581 587.389 359.541 586.6C360.309 585.939 360.896 584.968 361.301 583.688H363.253C362.869 585.288 362.133 586.6 361.045 587.624C359.701 588.84 357.984 589.448 355.893 589.448C353.568 589.448 351.712 588.659 350.325 587.08C348.896 585.501 348.181 583.379 348.181 580.712C348.181 578.28 348.864 576.243 350.229 574.6C351.637 572.872 353.504 572.008 355.829 572.008ZM355.861 573.672C354.218 573.672 352.906 574.237 351.925 575.368C350.922 576.499 350.346 577.949 350.197 579.72H361.589C361.269 575.688 359.36 573.672 355.861 573.672ZM373.968 572.008C378.064 572.008 380.112 574.28 380.112 578.824V589H378.192V578.952C378.192 575.432 376.624 573.672 373.488 573.672C372.166 573.672 371.056 574.152 370.16 575.112C369.222 576.051 368.699 577.352 368.592 579.016V589H366.672V572.456H368.592V575.176C369.168 574.195 369.915 573.416 370.832 572.84C371.728 572.285 372.774 572.008 373.968 572.008ZM391.117 572.008C393.101 572.008 394.712 572.488 395.949 573.448C397.208 574.408 397.965 575.88 398.221 577.864H396.301C396.088 576.477 395.533 575.432 394.637 574.728C393.741 574.024 392.568 573.672 391.117 573.672C389.368 573.672 387.981 574.344 386.957 575.688C385.954 576.947 385.453 578.664 385.453 580.84C385.453 582.952 385.933 584.637 386.893 585.896C387.853 587.155 389.25 587.784 391.085 587.784C394.157 587.784 395.928 586.216 396.397 583.08H398.285C397.965 585.171 397.176 586.76 395.917 587.848C394.68 588.915 393.069 589.448 391.085 589.448C388.632 589.448 386.733 588.616 385.389 586.952C384.13 585.437 383.501 583.4 383.501 580.84C383.501 578.323 384.152 576.253 385.453 574.632C386.818 572.883 388.706 572.008 391.117 572.008ZM408.048 572.008C410.672 572.008 412.634 572.893 413.936 574.664C415.109 576.243 415.738 578.451 415.824 581.288H402.384C402.49 583.315 403.034 584.904 404.016 586.056C405.04 587.208 406.405 587.784 408.112 587.784C409.584 587.784 410.8 587.389 411.76 586.6C412.528 585.939 413.114 584.968 413.52 583.688H415.472C415.088 585.288 414.352 586.6 413.264 587.624C411.92 588.84 410.202 589.448 408.112 589.448C405.786 589.448 403.93 588.659 402.544 587.08C401.114 585.501 400.4 583.379 400.4 580.712C400.4 578.28 401.082 576.243 402.448 574.6C403.856 572.872 405.722 572.008 408.048 572.008ZM408.08 573.672C406.437 573.672 405.125 574.237 404.144 575.368C403.141 576.499 402.565 577.949 402.416 579.72H413.808C413.488 575.688 411.578 573.672 408.08 573.672ZM439.211 566.152V567.848H436.427C435.574 567.848 434.966 568.061 434.603 568.488C434.219 568.893 434.027 569.576 434.027 570.536V572.456H438.987V574.12H434.027V589H432.107V574.12H427.691V572.456H432.107V570.504C432.107 569.096 432.449 568.04 433.131 567.336C433.835 566.547 434.881 566.152 436.267 566.152H439.211ZM448.623 572.008C451.055 572.008 453.007 572.883 454.479 574.632C455.823 576.253 456.495 578.291 456.495 580.744C456.495 583.155 455.823 585.181 454.479 586.824C452.986 588.573 451.034 589.448 448.623 589.448C446.212 589.448 444.26 588.573 442.767 586.824C441.423 585.181 440.751 583.155 440.751 580.744C440.751 578.291 441.434 576.253 442.799 574.632C444.228 572.883 446.17 572.008 448.623 572.008ZM448.623 573.672C446.724 573.672 445.242 574.397 444.175 575.848C443.194 577.107 442.703 578.739 442.703 580.744C442.703 582.728 443.194 584.349 444.175 585.608C445.263 587.059 446.746 587.784 448.623 587.784C450.522 587.784 452.015 587.059 453.103 585.608C454.084 584.264 454.575 582.643 454.575 580.744C454.575 578.781 454.084 577.149 453.103 575.848C452.036 574.397 450.543 573.672 448.623 573.672ZM466.835 572.008C467.859 572.008 468.659 572.125 469.235 572.36V574.312C468.446 574.077 467.603 573.96 466.707 573.96C465.192 573.96 463.998 574.621 463.123 575.944C462.248 577.139 461.811 578.579 461.811 580.264V589H459.891V572.456H461.811V575.624C462.259 574.579 462.867 573.757 463.635 573.16C464.531 572.392 465.598 572.008 466.835 572.008ZM480.223 566.152H482.399L490.047 586.92H490.143L497.791 566.152H499.967L491.359 589H488.863L480.223 566.152ZM504.061 566.504C504.509 566.504 504.893 566.664 505.213 566.984C505.533 567.24 505.693 567.613 505.693 568.104C505.693 568.531 505.522 568.915 505.181 569.256C504.84 569.555 504.466 569.704 504.061 569.704C503.592 569.704 503.208 569.555 502.909 569.256C502.589 568.936 502.429 568.552 502.429 568.104C502.429 567.613 502.589 567.24 502.909 566.984C503.208 566.664 503.592 566.504 504.061 566.504ZM503.101 572.456H505.021V589H503.101V572.456ZM514.016 567.112V572.456H518.336V574.12H514.016V585.32C514.016 586.045 514.144 586.568 514.4 586.888C514.656 587.187 515.136 587.336 515.84 587.336H517.92V589H515.584C514.304 589 513.387 588.669 512.832 588.008C512.341 587.453 512.096 586.557 512.096 585.32V574.12H508.576V572.456H512.096V567.912L514.016 567.112ZM528.243 572.008C530.568 572.008 532.285 572.637 533.395 573.896C534.376 574.984 534.867 576.467 534.867 578.344V589H533.043V585.832C532.36 586.813 531.464 587.635 530.355 588.296C529.053 589.064 527.613 589.448 526.035 589.448C524.413 589.448 523.101 589.032 522.099 588.2C521.096 587.347 520.595 586.205 520.595 584.776C520.595 582.664 521.459 581.128 523.187 580.168C524.573 579.379 526.419 578.984 528.723 578.984L532.947 578.952V578.344C532.947 575.208 531.347 573.64 528.147 573.64C526.675 573.64 525.523 573.949 524.691 574.568C523.752 575.187 523.187 576.147 522.995 577.448H521.107C521.363 575.592 522.141 574.205 523.443 573.288C524.637 572.435 526.237 572.008 528.243 572.008ZM532.947 580.52L528.819 580.552C524.637 580.573 522.547 581.971 522.547 584.744C522.547 585.661 522.899 586.408 523.603 586.984C524.285 587.56 525.224 587.848 526.419 587.848C528.147 587.848 529.683 587.272 531.027 586.12C532.307 584.989 532.947 583.763 532.947 582.44V580.52ZM539.499 565.704H541.419V589H539.499V565.704ZM547.967 566.504C548.415 566.504 548.799 566.664 549.119 566.984C549.439 567.24 549.599 567.613 549.599 568.104C549.599 568.531 549.429 568.915 549.087 569.256C548.746 569.555 548.373 569.704 547.967 569.704C547.498 569.704 547.114 569.555 546.815 569.256C546.495 568.936 546.335 568.552 546.335 568.104C546.335 567.613 546.495 567.24 546.815 566.984C547.114 566.664 547.498 566.504 547.967 566.504ZM547.007 572.456H548.927V589H547.007V572.456ZM557.922 567.112V572.456H562.242V574.12H557.922V585.32C557.922 586.045 558.05 586.568 558.306 586.888C558.562 587.187 559.042 587.336 559.746 587.336H561.826V589H559.49C558.21 589 557.293 588.669 556.738 588.008C556.248 587.453 556.002 586.557 556.002 585.32V574.12H552.482V572.456H556.002V567.912L557.922 567.112ZM563.285 572.456H565.397L570.805 586.248L576.149 572.456H578.261L569.141 595.336H567.061L569.845 588.584L563.285 572.456Z" fill="white"/>
<rect x="7" y="505" width="10" height="96" fill="#D9D9D9"/>
<path d="M1279 440V471.5" stroke="white"/>
<path d="M1345 440V471.5" stroke="white"/>
</svg>
