<svg width="460" height="469" viewBox="0 0 460 469" fill="none" xmlns="http://www.w3.org/2000/svg">
<path d="M17.3293 365.958H3.41219V326.699H17.4443C21.3933 326.699 24.7927 327.485 27.6426 329.056C30.4925 330.616 32.6842 332.858 34.2178 335.785C35.7641 338.712 36.5373 342.213 36.5373 346.29C36.5373 350.379 35.7641 353.894 34.2178 356.833C32.6842 359.773 30.4797 362.028 27.6042 363.6C24.7416 365.172 21.3166 365.958 17.3293 365.958ZM11.7126 358.846H16.9843C19.438 358.846 21.5019 358.412 23.1761 357.543C24.863 356.661 26.1282 355.3 26.9716 353.459C27.8279 351.606 28.256 349.217 28.256 346.29C28.256 343.389 27.8279 341.018 26.9716 339.178C26.1282 337.338 24.8694 335.983 23.1952 335.114C21.5211 334.245 19.4572 333.811 17.0034 333.811H11.7126V358.846ZM50.9864 326.699V365.958H42.6859V326.699H50.9864ZM64.9083 326.699L74.3973 356.527H74.7615L84.2696 326.699H93.471L79.9373 365.958H69.2407L55.6877 326.699H64.9083ZM112.492 365.958V326.699H116.077V362.738H134.786V365.958H112.492ZM145.392 365.958H141.635L155.916 326.699H159.75L174.031 365.958H170.274L157.967 331.357H157.699L145.392 365.958ZM148.095 350.91H167.571V354.13H148.095V350.91ZM180.76 365.958V326.699H194.006C196.562 326.699 198.69 327.146 200.39 328.041C202.102 328.935 203.386 330.156 204.243 331.702C205.099 333.248 205.527 335.005 205.527 336.974C205.527 338.609 205.252 340.009 204.703 341.172C204.153 342.335 203.406 343.274 202.46 343.99C201.514 344.705 200.46 345.223 199.297 345.542V345.849C200.562 345.939 201.789 346.386 202.977 347.191C204.166 347.983 205.144 349.095 205.91 350.526C206.677 351.958 207.061 353.67 207.061 355.664C207.061 357.645 206.62 359.415 205.738 360.974C204.856 362.52 203.501 363.741 201.674 364.635C199.859 365.517 197.546 365.958 194.735 365.958H180.76ZM184.345 362.738H194.735C197.763 362.738 200 362.067 201.444 360.725C202.901 359.383 203.629 357.696 203.629 355.664C203.629 354.169 203.265 352.814 202.537 351.6C201.821 350.373 200.805 349.402 199.489 348.686C198.185 347.971 196.651 347.613 194.888 347.613H184.345V362.738ZM184.345 344.431H194.332C195.878 344.431 197.233 344.111 198.396 343.472C199.559 342.833 200.466 341.951 201.118 340.827C201.77 339.702 202.096 338.418 202.096 336.974C202.096 334.89 201.418 333.197 200.064 331.894C198.709 330.577 196.69 329.919 194.006 329.919H184.345V344.431Z" fill="white"/>
<path d="M430.344 55.8323V54.5748L433.282 51.8542C433.532 51.6124 433.742 51.3947 433.911 51.2013C434.083 51.0078 434.213 50.8184 434.302 50.633C434.391 50.4449 434.435 50.242 434.435 50.0244C434.435 49.7825 434.38 49.5743 434.27 49.3996C434.159 49.2223 434.009 49.0866 433.818 48.9926C433.627 48.8958 433.411 48.8475 433.169 48.8475C432.917 48.8475 432.696 48.8985 432.508 49.0006C432.32 49.1027 432.175 49.2492 432.073 49.4399C431.971 49.6307 431.92 49.8578 431.92 50.1211H430.263C430.263 49.581 430.386 49.1121 430.63 48.7144C430.875 48.3168 431.217 48.0091 431.658 47.7915C432.098 47.5738 432.606 47.465 433.181 47.465C433.772 47.465 434.287 47.5698 434.725 47.7794C435.166 47.9863 435.508 48.2738 435.753 48.6419C435.997 49.01 436.12 49.4319 436.12 49.9075C436.12 50.2192 436.058 50.5268 435.934 50.8305C435.813 51.1341 435.597 51.4713 435.285 51.8421C434.974 52.2102 434.534 52.6523 433.967 53.1682L432.762 54.3491V54.4055H436.228V55.8323H430.344ZM440.729 56.0137C440.036 56.011 439.44 55.8404 438.94 55.5018C438.443 55.1633 438.06 54.6729 437.791 54.0307C437.525 53.3885 437.394 52.616 437.396 51.7132C437.396 50.813 437.529 50.0459 437.795 49.4117C438.064 48.7776 438.447 48.2953 438.944 47.9648C439.444 47.6316 440.039 47.465 440.729 47.465C441.42 47.465 442.014 47.6316 442.511 47.9648C443.011 48.298 443.395 48.7816 443.664 49.4158C443.932 50.0472 444.065 50.813 444.063 51.7132C444.063 52.6187 443.928 53.3925 443.66 54.0347C443.394 54.6769 443.012 55.1673 442.515 55.5059C442.018 55.8444 441.423 56.0137 440.729 56.0137ZM440.729 54.5668C441.202 54.5668 441.58 54.329 441.862 53.8534C442.144 53.3778 442.284 52.6644 442.281 51.7132C442.281 51.0871 442.217 50.5658 442.088 50.1493C441.961 49.7328 441.781 49.4198 441.548 49.2102C441.317 49.0006 441.044 48.8958 440.729 48.8958C440.259 48.8958 439.883 49.1309 439.601 49.6012C439.319 50.0714 439.176 50.7754 439.174 51.7132C439.174 52.3473 439.237 52.8766 439.363 53.3012C439.492 53.723 439.674 54.0401 439.907 54.2524C440.141 54.462 440.415 54.5668 440.729 54.5668ZM445.307 55.8323V54.5748L448.245 51.8542C448.495 51.6124 448.705 51.3947 448.874 51.2013C449.046 51.0078 449.176 50.8184 449.265 50.633C449.354 50.4449 449.398 50.242 449.398 50.0244C449.398 49.7825 449.343 49.5743 449.233 49.3996C449.123 49.2223 448.972 49.0866 448.781 48.9926C448.591 48.8958 448.374 48.8475 448.133 48.8475C447.88 48.8475 447.66 48.8985 447.472 49.0006C447.283 49.1027 447.138 49.2492 447.036 49.4399C446.934 49.6307 446.883 49.8578 446.883 50.1211H445.227C445.227 49.581 445.349 49.1121 445.593 48.7144C445.838 48.3168 446.18 48.0091 446.621 47.7915C447.062 47.5738 447.57 47.465 448.145 47.465C448.736 47.465 449.25 47.5698 449.688 47.7794C450.129 47.9863 450.472 48.2738 450.716 48.6419C450.961 49.01 451.083 49.4319 451.083 49.9075C451.083 50.2192 451.021 50.5268 450.897 50.8305C450.777 51.1341 450.56 51.4713 450.249 51.8421C449.937 52.2102 449.498 52.6523 448.931 53.1682L447.725 54.3491V54.4055H451.192V55.8323H445.307ZM455.471 55.9452C454.901 55.9452 454.394 55.8404 453.948 55.6308C453.504 55.4212 453.152 55.1324 452.892 54.7642C452.631 54.3961 452.495 53.9743 452.484 53.4987H454.177C454.196 53.8184 454.33 54.0777 454.58 54.2766C454.83 54.4754 455.127 54.5748 455.471 54.5748C455.745 54.5748 455.987 54.5144 456.197 54.3934C456.409 54.2698 456.574 54.0992 456.692 53.8816C456.813 53.6612 456.874 53.4087 456.874 53.1238C456.874 52.8336 456.812 52.5784 456.688 52.358C456.567 52.1377 456.399 51.9657 456.185 51.8421C455.97 51.7185 455.724 51.6554 455.447 51.6527C455.205 51.6527 454.97 51.7024 454.742 51.8018C454.516 51.9012 454.34 52.0369 454.214 52.2089L452.662 51.9308L453.053 47.5778H458.099V49.0046H454.492L454.278 51.0723H454.326C454.472 50.8681 454.691 50.6988 454.983 50.5645C455.276 50.4301 455.604 50.3629 455.967 50.3629C456.464 50.3629 456.907 50.4798 457.297 50.7136C457.687 50.9474 457.994 51.2685 458.22 51.6769C458.446 52.0826 458.557 52.5502 458.554 53.0795C458.557 53.6357 458.428 54.1301 458.168 54.5627C457.91 54.9926 457.548 55.3312 457.083 55.5784C456.621 55.8229 456.084 55.9452 455.471 55.9452Z" fill="white"/>
<path d="M430.809 39.1575H456.913" stroke="white" stroke-width="1.13499"/>
<path d="M417.987 13H415.061V4.74551H418.011C418.841 4.74551 419.556 4.91076 420.155 5.24126C420.755 5.56907 421.215 6.04064 421.538 6.65597C421.863 7.27129 422.025 8.00754 422.025 8.86469C422.025 9.72453 421.863 10.4635 421.538 11.0815C421.215 11.6995 420.752 12.1737 420.147 12.5042C419.545 12.8347 418.825 13 417.987 13ZM416.806 11.5047H417.914C418.43 11.5047 418.864 11.4133 419.216 11.2306C419.571 11.0452 419.837 10.759 420.014 10.3721C420.194 9.98249 420.284 9.48002 420.284 8.86469C420.284 8.25474 420.194 7.7563 420.014 7.36937C419.837 6.98244 419.572 6.69762 419.22 6.5149C418.868 6.33218 418.434 6.24083 417.918 6.24083H416.806V11.5047ZM423.318 13V4.74551H428.88V6.1844H425.063V8.15129H428.594V9.59018H425.063V11.5611H428.897V13H423.318ZM434.746 7.11948C434.714 6.79435 434.575 6.54177 434.331 6.36174C434.086 6.18171 433.754 6.0917 433.335 6.0917C433.05 6.0917 432.81 6.132 432.614 6.21261C432.418 6.29054 432.267 6.39936 432.162 6.53908C432.06 6.67881 432.009 6.83734 432.009 7.01469C432.004 7.16247 432.035 7.29145 432.102 7.40161C432.172 7.51178 432.267 7.60717 432.388 7.68778C432.509 7.7657 432.649 7.83422 432.807 7.89334C432.966 7.94976 433.135 7.99813 433.315 8.03844L434.057 8.21578C434.417 8.29639 434.747 8.40387 435.048 8.53822C435.349 8.67257 435.61 8.83782 435.83 9.03397C436.05 9.23012 436.221 9.46121 436.342 9.72722C436.465 9.99324 436.529 10.2982 436.531 10.6421C436.529 11.1473 436.4 11.5853 436.144 11.9561C435.892 12.3242 435.526 12.6104 435.048 12.8146C434.572 13.0161 433.999 13.1169 433.327 13.1169C432.661 13.1169 432.08 13.0148 431.586 12.8106C431.094 12.6064 430.71 12.3041 430.433 11.9037C430.159 11.5006 430.015 11.0022 430.002 10.4084H431.691C431.709 10.6851 431.789 10.9162 431.928 11.1016C432.071 11.2843 432.26 11.4227 432.497 11.5168C432.736 11.6081 433.006 11.6538 433.307 11.6538C433.602 11.6538 433.859 11.6108 434.077 11.5248C434.297 11.4388 434.468 11.3193 434.589 11.1661C434.71 11.013 434.77 10.837 434.77 10.6381C434.77 10.4527 434.715 10.2969 434.605 10.1706C434.497 10.0443 434.339 9.93681 434.129 9.84814C433.922 9.75947 433.668 9.67886 433.367 9.60631L432.469 9.3806C431.773 9.21132 431.223 8.94665 430.82 8.58659C430.417 8.22653 430.217 7.74152 430.22 7.13157C430.217 6.63179 430.35 6.19515 430.619 5.82165C430.89 5.44816 431.262 5.15662 431.735 4.94703C432.208 4.73744 432.745 4.63265 433.347 4.63265C433.96 4.63265 434.495 4.73744 434.951 4.94703C435.411 5.15662 435.768 5.44816 436.023 5.82165C436.279 6.19515 436.41 6.62776 436.418 7.11948H434.746ZM439.45 4.74551V13H437.705V4.74551H439.45ZM446.36 7.41371C446.303 7.21755 446.224 7.04424 446.122 6.89377C446.02 6.74061 445.895 6.61163 445.747 6.50684C445.602 6.39936 445.435 6.31741 445.247 6.26098C445.062 6.20455 444.856 6.17634 444.631 6.17634C444.209 6.17634 443.838 6.28113 443.518 6.49072C443.201 6.7003 442.954 7.00528 442.777 7.40565C442.599 7.80332 442.511 8.28967 442.511 8.86469C442.511 9.43971 442.598 9.92875 442.773 10.3318C442.947 10.7349 443.194 11.0425 443.514 11.2548C443.834 11.4644 444.211 11.5692 444.647 11.5692C445.042 11.5692 445.379 11.4993 445.658 11.3596C445.941 11.2172 446.156 11.017 446.303 10.759C446.454 10.5011 446.529 10.1961 446.529 9.84411L446.884 9.8965H444.756V8.58256H448.21V9.62243C448.21 10.3479 448.057 10.9713 447.75 11.4926C447.444 12.0112 447.022 12.4115 446.485 12.6937C445.947 12.9731 445.332 13.1129 444.639 13.1129C443.865 13.1129 443.185 12.9422 442.599 12.601C442.013 12.257 441.557 11.7693 441.229 11.1379C440.904 10.5038 440.741 9.7514 440.741 8.88081C440.741 8.21175 440.838 7.61523 441.031 7.09126C441.228 6.56461 441.502 6.11857 441.854 5.75313C442.206 5.3877 442.615 5.1096 443.083 4.91882C443.55 4.72804 444.057 4.63265 444.602 4.63265C445.07 4.63265 445.505 4.70117 445.908 4.83821C446.311 4.97256 446.669 5.16334 446.98 5.41054C447.295 5.65775 447.551 5.95197 447.75 6.29322C447.949 6.63179 448.077 7.00528 448.133 7.41371H446.36ZM456.425 4.74551V13H454.918L451.326 7.80467H451.266V13H449.521V4.74551H451.052L454.615 9.93681H454.688V4.74551H456.425ZM301.125 21.7455V30H300.126V21.7455H301.125ZM309.675 21.7455V30H308.708L304.21 23.5189H304.129V30H303.129V21.7455H304.097L308.611 28.2427H308.691V21.7455H309.675ZM311.224 22.6322V21.7455H317.414V22.6322H314.819V30H313.819V22.6322H311.224ZM318.957 30V21.7455H323.939V22.6322H319.957V25.4213H323.681V26.308H319.957V29.1133H324.003V30H318.957ZM325.741 30V21.7455H326.74V29.1133H330.577V30H325.741ZM332.125 30V21.7455H333.124V29.1133H336.961V30H332.125ZM339.509 21.7455V30H338.509V21.7455H339.509ZM347.156 24.325C347.067 24.0536 346.95 23.8105 346.805 23.5955C346.663 23.3779 346.492 23.1925 346.293 23.0393C346.097 22.8861 345.874 22.7693 345.624 22.6886C345.374 22.608 345.1 22.5677 344.802 22.5677C344.313 22.5677 343.868 22.694 343.468 22.9466C343.067 23.1992 342.749 23.5713 342.512 24.0631C342.276 24.5548 342.158 25.158 342.158 25.8728C342.158 26.5875 342.277 27.1907 342.517 27.6825C342.756 28.1742 343.079 28.5463 343.488 28.7989C343.896 29.0515 344.356 29.1778 344.866 29.1778C345.339 29.1778 345.756 29.077 346.116 28.8755C346.479 28.6713 346.761 28.3838 346.962 28.013C347.166 27.6395 347.269 27.2001 347.269 26.695L347.575 26.7595H345.092V25.8728H348.236V26.7595C348.236 27.4393 348.091 28.0304 347.801 28.5329C347.513 29.0354 347.115 29.425 346.608 29.7017C346.102 29.9758 345.522 30.1129 344.866 30.1129C344.135 30.1129 343.493 29.9409 342.94 29.5969C342.389 29.253 341.959 28.764 341.65 28.1298C341.344 27.4957 341.19 26.7433 341.19 25.8728C341.19 25.2198 341.278 24.6327 341.452 24.1114C341.63 23.5875 341.88 23.1414 342.202 22.7733C342.525 22.4052 342.906 22.123 343.347 21.9269C343.787 21.7307 344.272 21.6327 344.802 21.6327C345.237 21.6327 345.643 21.6985 346.019 21.8301C346.398 21.9591 346.735 22.1432 347.031 22.3823C347.329 22.6188 347.578 22.9023 347.776 23.2328C347.975 23.5606 348.112 23.9247 348.187 24.325H347.156ZM349.948 30V21.7455H354.93V22.6322H350.947V25.4213H354.672V26.308H350.947V29.1133H354.994V30H349.948ZM363.277 21.7455V30H362.309L357.811 23.5189H357.731V30H356.731V21.7455H357.698L362.213 28.2427H362.293V21.7455H363.277ZM371.919 24.325H370.92C370.86 24.0375 370.757 23.7849 370.609 23.5673C370.464 23.3497 370.287 23.1669 370.077 23.0191C369.87 22.8687 369.641 22.7558 369.388 22.6806C369.135 22.6053 368.872 22.5677 368.598 22.5677C368.098 22.5677 367.645 22.694 367.24 22.9466C366.837 23.1992 366.516 23.5713 366.276 24.0631C366.04 24.5548 365.922 25.158 365.922 25.8728C365.922 26.5875 366.04 27.1907 366.276 27.6825C366.516 28.1742 366.837 28.5463 367.24 28.7989C367.645 29.0515 368.098 29.1778 368.598 29.1778C368.872 29.1778 369.135 29.1402 369.388 29.0649C369.641 28.9897 369.87 28.8782 370.077 28.7304C370.287 28.5799 370.464 28.3959 370.609 28.1782C370.757 27.9579 370.86 27.7053 370.92 27.4205H371.919C371.844 27.8423 371.707 28.2199 371.508 28.553C371.309 28.8862 371.062 29.1697 370.766 29.4035C370.471 29.6346 370.139 29.8106 369.771 29.9315C369.405 30.0524 369.014 30.1129 368.598 30.1129C367.894 30.1129 367.268 29.9409 366.72 29.5969C366.172 29.253 365.74 28.764 365.426 28.1298C365.112 27.4957 364.954 26.7433 364.954 25.8728C364.954 25.0022 365.112 24.2498 365.426 23.6157C365.74 22.9815 366.172 22.4925 366.72 22.1486C367.268 21.8046 367.894 21.6327 368.598 21.6327C369.014 21.6327 369.405 21.6931 369.771 21.814C370.139 21.9349 370.471 22.1123 370.766 22.3461C371.062 22.5771 371.309 22.8593 371.508 23.1925C371.707 23.523 371.844 23.9005 371.919 24.325ZM373.534 30V21.7455H378.516V22.6322H374.534V25.4213H378.258V26.308H374.534V29.1133H378.581V30H373.534ZM383.51 30V21.7455H388.459V22.6322H384.509V25.4213H388.089V26.308H384.509V30H383.51ZM397.136 25.8728C397.136 26.7433 396.979 27.4957 396.664 28.1298C396.35 28.764 395.919 29.253 395.371 29.5969C394.823 29.9409 394.196 30.1129 393.492 30.1129C392.788 30.1129 392.162 29.9409 391.614 29.5969C391.066 29.253 390.635 28.764 390.32 28.1298C390.006 27.4957 389.849 26.7433 389.849 25.8728C389.849 25.0022 390.006 24.2498 390.32 23.6157C390.635 22.9815 391.066 22.4925 391.614 22.1486C392.162 21.8046 392.788 21.6327 393.492 21.6327C394.196 21.6327 394.823 21.8046 395.371 22.1486C395.919 22.4925 396.35 22.9815 396.664 23.6157C396.979 24.2498 397.136 25.0022 397.136 25.8728ZM396.169 25.8728C396.169 25.158 396.049 24.5548 395.81 24.0631C395.574 23.5713 395.252 23.1992 394.847 22.9466C394.444 22.694 393.992 22.5677 393.492 22.5677C392.993 22.5677 392.54 22.694 392.134 22.9466C391.731 23.1992 391.41 23.5713 391.171 24.0631C390.934 24.5548 390.816 25.158 390.816 25.8728C390.816 26.5875 390.934 27.1907 391.171 27.6825C391.41 28.1742 391.731 28.5463 392.134 28.7989C392.54 29.0515 392.993 29.1778 393.492 29.1778C393.992 29.1778 394.444 29.0515 394.847 28.7989C395.252 28.5463 395.574 28.1742 395.81 27.6825C396.049 27.1907 396.169 26.5875 396.169 25.8728ZM398.817 30V21.7455H401.606C402.251 21.7455 402.78 21.8557 403.194 22.076C403.608 22.2937 403.914 22.5933 404.113 22.9748C404.312 23.3564 404.411 23.7903 404.411 24.2767C404.411 24.763 404.312 25.1943 404.113 25.5705C403.914 25.9466 403.609 26.2422 403.198 26.4572C402.787 26.6695 402.262 26.7756 401.622 26.7756H399.365V25.8728H401.59C402.03 25.8728 402.385 25.8083 402.654 25.6793C402.925 25.5503 403.121 25.3676 403.242 25.1311C403.366 24.892 403.428 24.6072 403.428 24.2767C403.428 23.9462 403.366 23.6573 403.242 23.4101C403.119 23.1629 402.921 22.9721 402.65 22.8378C402.378 22.7007 402.02 22.6322 401.574 22.6322H399.816V30H398.817ZM402.702 26.2919L404.734 30H403.573L401.574 26.2919H402.702ZM409.607 21.7455L412.058 28.6941H412.155L414.605 21.7455H415.653L412.622 30H411.59L408.56 21.7455H409.607ZM417.939 21.7455V30H416.939V21.7455H417.939ZM419.491 22.6322V21.7455H425.682V22.6322H423.087V30H422.087V22.6322H419.491ZM426.599 30H425.551L428.582 21.7455H429.614L432.645 30H431.597L429.13 23.0514H429.066L426.599 30ZM426.986 26.7756H431.21V27.6623H426.986V26.7756ZM433.931 30V21.7455H434.93V29.1133H438.767V30H433.931ZM441.315 21.7455V30H440.315V21.7455H441.315ZM442.867 22.6322V21.7455H449.058V22.6322H446.463V30H445.463V22.6322H442.867ZM449.891 21.7455H451.036L453.325 25.5987H453.422L455.712 21.7455H456.856L453.874 26.5982V30H452.874V26.5982L449.891 21.7455Z" fill="white"/>
<path d="M21.3234 395.187H32.3088V402.17H29.8784V397.018H23.6404V402.17H21.3234V395.187ZM22.733 397.568H30.6885V399.237H22.733V397.568ZM21.2586 387.944H26.3786V389.743H21.2586V387.944ZM19.2333 390.536H26.7513V392.351H19.2333V390.536ZM22.733 399.821H30.6885V401.668H22.733V399.821ZM22.2146 388.446H24.4343V390.342C24.4343 390.763 24.3749 391.217 24.2561 391.703C24.1481 392.178 23.9536 392.659 23.6728 393.145C23.392 393.631 22.9923 394.101 22.4738 394.555C21.9661 394.998 21.3126 395.408 20.5133 395.786C20.3621 395.548 20.1406 395.278 19.849 394.976C19.5573 394.663 19.2819 394.414 19.0227 394.231C19.7572 393.95 20.3351 393.647 20.7563 393.323C21.1884 392.988 21.507 392.643 21.7123 392.286C21.9175 391.93 22.0525 391.584 22.1173 391.249C22.1822 390.904 22.2146 390.591 22.2146 390.31V388.446ZM20.7725 386.664L22.8465 387.085C22.652 387.831 22.3766 388.538 22.0201 389.208C21.6637 389.878 21.2748 390.434 20.8535 390.877C20.7131 390.769 20.5295 390.645 20.3027 390.504C20.0866 390.364 19.8598 390.229 19.6221 390.099C19.3953 389.969 19.1955 389.867 19.0227 389.791C19.4439 389.413 19.8058 388.949 20.1082 388.398C20.4107 387.836 20.6321 387.258 20.7725 386.664ZM24.1427 392.108C24.2939 392.173 24.4991 392.276 24.7584 392.416C25.0176 392.546 25.2877 392.691 25.5685 392.853C25.8601 393.005 26.1302 393.151 26.3786 393.291C26.6271 393.421 26.8053 393.523 26.9133 393.599L25.2282 395.057C25.0662 394.917 24.8664 394.76 24.6287 394.587C24.4019 394.404 24.1643 394.214 23.9158 394.02C23.6674 393.826 23.4244 393.647 23.1867 393.485C22.9491 393.313 22.733 393.161 22.5386 393.032L24.1427 392.108ZM29.4085 389.969V392.319H31.369V389.969H29.4085ZM27.2212 387.912H33.7022V394.393H27.2212V387.912ZM37.5422 386.68L40.005 387.183C39.8106 387.701 39.5999 388.22 39.3731 388.738C39.1571 389.256 38.941 389.743 38.725 390.196C38.509 390.65 38.3037 391.055 38.1093 391.411L36.0516 390.893C36.246 390.515 36.435 390.083 36.6187 389.597C36.8131 389.111 36.9913 388.614 37.1534 388.106C37.3154 387.598 37.445 387.123 37.5422 386.68ZM35.2414 389.937C35.8355 389.915 36.5106 389.894 37.2668 389.872C38.0337 389.84 38.833 389.802 39.6648 389.759C40.5073 389.716 41.3444 389.678 42.1762 389.645L42.16 391.687C41.3714 391.741 40.5775 391.8 39.7782 391.865C38.9788 391.919 38.2065 391.973 37.4612 392.027C36.7267 392.07 36.0462 392.114 35.4197 392.157L35.2414 389.937ZM36.1974 392.691H41.3498V394.603H38.3685V402.17H36.1974V392.691ZM40.2156 392.691H42.5488V399.902C42.5488 400.377 42.4948 400.76 42.3868 401.052C42.2788 401.354 42.0681 401.592 41.7549 401.765C41.4524 401.938 41.1068 402.046 40.7179 402.089C40.3291 402.132 39.897 402.154 39.4217 402.154C39.3677 401.841 39.2651 401.484 39.1139 401.084C38.9734 400.685 38.8276 400.35 38.6764 400.08C38.914 400.091 39.1625 400.101 39.4217 400.112C39.681 400.112 39.8592 400.107 39.9564 400.096C40.0536 400.096 40.1184 400.08 40.1508 400.047C40.194 400.015 40.2156 399.95 40.2156 399.853V392.691ZM37.1696 395.154H41.5605V396.872H37.1696V395.154ZM37.1696 397.504H41.5605V399.221H37.1696V397.504ZM43.683 386.875H46.0324V391.46C46.0324 391.762 46.0648 391.952 46.1296 392.027C46.2052 392.092 46.378 392.124 46.6481 392.124C46.7021 392.124 46.7885 392.124 46.9073 392.124C47.0261 392.124 47.1558 392.124 47.2962 392.124C47.4366 392.124 47.5662 392.124 47.685 392.124C47.8147 392.124 47.9119 392.124 47.9767 392.124C48.1387 392.124 48.2575 392.087 48.3331 392.011C48.4196 391.935 48.479 391.789 48.5114 391.573C48.5546 391.347 48.587 391.012 48.6086 390.569C48.7706 390.688 48.9704 390.807 49.2081 390.925C49.4565 391.033 49.7104 391.136 49.9696 391.233C50.2396 391.32 50.4773 391.384 50.6825 391.428C50.6069 392.151 50.4773 392.718 50.2937 393.129C50.11 393.529 49.8508 393.809 49.5159 393.971C49.1811 394.133 48.7436 394.214 48.2035 394.214C48.1171 394.214 48.0091 394.214 47.8795 394.214C47.7498 394.214 47.6094 394.214 47.4582 394.214C47.307 394.214 47.1558 394.214 47.0045 394.214C46.8641 394.214 46.7291 394.214 46.5995 394.214C46.4806 394.214 46.378 394.214 46.2916 394.214C45.5895 394.214 45.0494 394.133 44.6714 393.971C44.2933 393.799 44.0341 393.518 43.8936 393.129C43.7532 392.729 43.683 392.184 43.683 391.492V386.875ZM48.479 387.701L49.9534 389.402C49.4565 389.64 48.9272 389.867 48.3655 390.083C47.8147 390.299 47.2584 390.499 46.6967 390.682C46.135 390.855 45.5895 391.012 45.0602 391.152C45.017 390.925 44.9252 390.655 44.7848 390.342C44.6552 390.029 44.5309 389.764 44.4121 389.548C44.8982 389.386 45.3843 389.208 45.8703 389.013C46.3672 388.808 46.8371 388.592 47.28 388.365C47.7336 388.139 48.1333 387.917 48.479 387.701ZM43.683 394.474H46.0162V399.367C46.0162 399.669 46.054 399.858 46.1296 399.934C46.216 400.01 46.3942 400.047 46.6643 400.047C46.7183 400.047 46.8047 400.047 46.9235 400.047C47.0531 400.047 47.1882 400.047 47.3286 400.047C47.4798 400.047 47.6202 400.047 47.7498 400.047C47.8795 400.047 47.9767 400.047 48.0415 400.047C48.2143 400.047 48.3439 400.004 48.4304 399.918C48.5168 399.821 48.5816 399.642 48.6248 399.383C48.668 399.113 48.7004 398.719 48.722 398.2C48.9704 398.373 49.2945 398.541 49.6942 398.703C50.1046 398.865 50.4665 398.983 50.7797 399.059C50.7041 399.837 50.5745 400.447 50.3909 400.89C50.2072 401.333 49.948 401.641 49.6131 401.813C49.2783 401.997 48.83 402.089 48.2683 402.089C48.1819 402.089 48.0685 402.089 47.9281 402.089C47.7985 402.089 47.658 402.089 47.5068 402.089C47.3556 402.089 47.199 402.089 47.0369 402.089C46.8857 402.089 46.7453 402.089 46.6157 402.089C46.486 402.089 46.378 402.089 46.2916 402.089C45.6003 402.089 45.0656 402.003 44.6876 401.83C44.3095 401.668 44.0449 401.387 43.8936 400.987C43.7532 400.598 43.683 400.064 43.683 399.383V394.474ZM48.56 395.025L50.0992 396.742C49.5915 397.012 49.0461 397.266 48.4628 397.504C47.8903 397.741 47.3124 397.963 46.7291 398.168C46.1458 398.373 45.5787 398.557 45.0278 398.719C44.9738 398.492 44.8766 398.217 44.7362 397.892C44.5957 397.568 44.4661 397.298 44.3473 397.082C44.855 396.91 45.3627 396.71 45.8703 396.483C46.378 396.245 46.8641 396.002 47.3286 395.754C47.7931 395.505 48.2035 395.262 48.56 395.025ZM39.843 388.592L41.8521 387.847C42.1113 388.247 42.3598 388.679 42.5974 389.143C42.8459 389.597 43.0673 390.05 43.2617 390.504C43.467 390.947 43.6128 391.352 43.6992 391.719L41.5281 392.562C41.4524 392.205 41.3282 391.8 41.1554 391.347C40.9826 390.893 40.7827 390.428 40.5559 389.953C40.3291 389.467 40.0914 389.013 39.843 388.592ZM55.5433 392.351H62.2674V394.522H55.5433V392.351ZM56.1914 388.706H64.7302V390.958H56.1914V388.706ZM51.7519 395.883H66.5611V398.136H51.7519V395.883ZM61.4572 392.351H63.8876C63.8876 392.351 63.8822 392.416 63.8714 392.546C63.8714 392.664 63.866 392.805 63.8552 392.967C63.8444 393.118 63.8336 393.248 63.8228 393.356C63.704 395.008 63.5744 396.369 63.434 397.439C63.3043 398.497 63.1531 399.324 62.9803 399.918C62.8075 400.512 62.6022 400.944 62.3646 401.214C62.0945 401.527 61.8137 401.743 61.5221 401.862C61.2304 401.981 60.8848 402.067 60.4851 402.121C60.1718 402.165 59.7722 402.186 59.2861 402.186C58.8108 402.186 58.3193 402.181 57.8117 402.17C57.7901 401.824 57.6982 401.425 57.5362 400.971C57.385 400.528 57.196 400.139 56.9691 399.804C57.4876 399.848 57.9791 399.875 58.4436 399.885C58.9188 399.896 59.2753 399.902 59.5129 399.902C59.6858 399.902 59.8316 399.891 59.9504 399.869C60.0692 399.837 60.188 399.772 60.3069 399.675C60.4797 399.524 60.6363 399.183 60.7767 398.654C60.9172 398.114 61.0414 397.358 61.1494 396.386C61.2682 395.413 61.3708 394.198 61.4572 392.74V392.351ZM55.2354 386.777L57.6982 387.004C57.5902 387.696 57.4714 388.409 57.3418 389.143C57.223 389.878 57.0933 390.607 56.9529 391.33C56.8233 392.043 56.6937 392.729 56.5641 393.388C56.4344 394.036 56.3102 394.62 56.1914 395.138L53.6962 394.944C53.8366 394.414 53.977 393.82 54.1175 393.161C54.2579 392.492 54.3983 391.795 54.5387 391.071C54.6792 390.337 54.8088 389.608 54.9276 388.884C55.0464 388.149 55.149 387.447 55.2354 386.777ZM77.5788 386.907H79.7014V399.594H77.5788V386.907ZM74.7272 390.164H83.0553V391.833H74.7272V390.164ZM75.2294 396.661H82.7475V398.33H75.2294V396.661ZM75.5859 394.458H82.3748V396.126H75.5859V394.458ZM71.6325 388.074H73.836V389.937H71.6325V388.074ZM72.5884 392.465H74.2087V394.133H72.5884V392.465ZM73.3013 388.074H73.5606L73.8846 387.993L75.3429 388.365C75.1268 389.003 74.8784 389.689 74.5975 390.423C74.3167 391.158 74.0251 391.898 73.7226 392.643C73.4202 393.377 73.1231 394.079 72.8315 394.749L70.9196 394.312C71.1356 393.815 71.357 393.291 71.5839 392.74C71.8215 392.189 72.0429 391.638 72.2482 391.087C72.4642 390.536 72.664 390.023 72.8477 389.548C73.0313 389.062 73.1825 388.641 73.3013 388.284V388.074ZM73.6416 392.465H74.0143L74.3707 392.432L75.6021 392.627C75.4617 394.938 75.1214 396.883 74.5813 398.46C74.0413 400.037 73.1987 401.273 72.0537 402.17C71.9673 401.997 71.8485 401.797 71.6973 401.57C71.5569 401.354 71.4056 401.138 71.2436 400.922C71.0816 400.706 70.925 400.533 70.7737 400.404C71.3678 399.993 71.8647 399.41 72.2644 398.654C72.664 397.898 72.9773 397.018 73.2041 396.013C73.431 395.008 73.5768 393.934 73.6416 392.789V392.465ZM72.7018 394.976C72.9179 396.024 73.2095 396.877 73.5768 397.536C73.944 398.184 74.3761 398.686 74.873 399.043C75.3807 399.389 75.9478 399.626 76.5743 399.756C77.2008 399.885 77.8759 399.95 78.5996 399.95C78.7724 399.95 79.0101 399.95 79.3125 399.95C79.615 399.95 79.9444 399.95 80.3009 399.95C80.6681 399.95 81.0354 399.95 81.4026 399.95C81.7699 399.939 82.1156 399.934 82.4396 399.934C82.7637 399.923 83.0283 399.912 83.2335 399.902C83.1363 400.074 83.0391 400.285 82.9419 400.533C82.8447 400.782 82.7583 401.036 82.6826 401.295C82.607 401.565 82.5476 401.803 82.5044 402.008H81.7429H78.47C77.4978 402.008 76.6175 401.916 75.8289 401.732C75.0404 401.56 74.3329 401.241 73.7064 400.777C73.0907 400.312 72.5506 399.653 72.0861 398.8C71.6325 397.946 71.249 396.839 70.9358 395.478L72.7018 394.976ZM75.7479 388.057H82.3424V393.971H75.7479V392.303H80.3819V389.726H75.7479V388.057ZM70.0932 386.826L72.1834 387.458C71.9025 388.355 71.5623 389.273 71.1626 390.212C70.7629 391.141 70.3255 392.027 69.8502 392.87C69.3749 393.712 68.8726 394.452 68.3433 395.089C68.3001 394.895 68.2191 394.636 68.1003 394.312C67.9815 393.988 67.8519 393.658 67.7114 393.323C67.5818 392.988 67.4576 392.718 67.3388 392.513C67.9113 391.811 68.4352 390.958 68.9104 389.953C69.3965 388.938 69.7908 387.895 70.0932 386.826ZM69.0077 391.833L71.0168 389.824L71.0492 389.856V402.17H69.0077V391.833ZM87.6082 392.691H99.2093V394.295H87.6082V392.691ZM88.4508 390.682H97.8321V396.337H88.2401V394.798H95.6123V392.222H88.4508V390.682ZM91.6265 389.872H93.8786V399.983C93.8786 400.523 93.8084 400.933 93.668 401.214C93.5384 401.506 93.3007 401.727 92.9551 401.878C92.6094 402.03 92.1882 402.121 91.6913 402.154C91.2052 402.197 90.6273 402.219 89.9576 402.219C89.9144 401.938 89.828 401.608 89.6984 401.23C89.5687 400.852 89.4283 400.528 89.2771 400.258C89.5255 400.269 89.7848 400.28 90.0548 400.29C90.3249 400.301 90.5679 400.307 90.7839 400.307C91.0108 400.296 91.1674 400.29 91.2538 400.29C91.3942 400.29 91.4914 400.269 91.5455 400.226C91.5995 400.172 91.6265 400.085 91.6265 399.966V389.872ZM87.3652 397.39L88.629 396.126C88.8882 396.234 89.1637 396.369 89.4553 396.531C89.747 396.683 90.0278 396.839 90.2979 397.001C90.5679 397.163 90.7893 397.32 90.9622 397.471L89.6173 398.848C89.4661 398.697 89.2609 398.535 89.0017 398.362C88.7424 398.19 88.467 398.017 88.1753 397.844C87.8945 397.671 87.6244 397.52 87.3652 397.39ZM96.9733 396.272L98.707 397.666C98.1777 397.979 97.643 398.287 97.1029 398.589C96.5737 398.881 96.0876 399.118 95.6447 399.302L94.3323 398.136C94.6131 397.984 94.9156 397.801 95.2396 397.585C95.5637 397.369 95.877 397.147 96.1794 396.92C96.4926 396.683 96.7573 396.467 96.9733 396.272ZM94.2189 395.883C94.6077 396.877 95.1964 397.747 95.985 398.492C96.7843 399.226 97.7835 399.767 98.9824 400.112C98.7448 400.328 98.4856 400.625 98.2047 401.003C97.9239 401.381 97.7078 401.716 97.5566 402.008C96.2604 401.511 95.2072 400.777 94.3971 399.804C93.587 398.832 92.9443 397.66 92.469 396.288L94.2189 395.883ZM86.7981 399.756C87.3274 399.594 87.9593 399.378 88.6938 399.108C89.4391 398.827 90.1898 398.535 90.946 398.233L91.3672 399.918C90.7839 400.22 90.1898 400.517 89.5849 400.809C88.98 401.101 88.413 401.371 87.8837 401.619L86.7981 399.756ZM90.8487 386.794H93.3115V389.208H90.8487V386.794ZM86.2472 388.122H99.0149V390.164H86.2472V388.122ZM85.1454 388.122H87.3814V392.789C87.3814 393.469 87.3598 394.225 87.3166 395.057C87.2734 395.878 87.187 396.72 87.0573 397.585C86.9385 398.449 86.7603 399.286 86.5227 400.096C86.285 400.895 85.9772 401.614 85.5991 402.251C85.4695 402.121 85.2859 401.97 85.0482 401.797C84.8106 401.624 84.5675 401.462 84.3191 401.311C84.0707 401.16 83.86 401.047 83.6872 400.971C84.0329 400.388 84.3029 399.75 84.4973 399.059C84.6918 398.368 84.8322 397.655 84.9186 396.92C85.0158 396.186 85.0752 395.467 85.0968 394.765C85.1292 394.052 85.1454 393.394 85.1454 392.789V388.122ZM101.073 388.365L102.579 386.94C102.871 387.177 103.19 387.447 103.535 387.75C103.881 388.041 104.21 388.338 104.524 388.641C104.837 388.932 105.085 389.197 105.269 389.435L103.665 391.055C103.492 390.807 103.26 390.526 102.968 390.212C102.677 389.888 102.363 389.564 102.029 389.24C101.694 388.916 101.375 388.625 101.073 388.365ZM102.223 402.024L101.656 399.966L102.012 399.302L105.318 396.321C105.415 396.634 105.55 396.985 105.723 397.374C105.906 397.763 106.068 398.065 106.209 398.281C105.442 398.973 104.815 399.54 104.329 399.983C103.843 400.415 103.46 400.76 103.179 401.02C102.898 401.29 102.687 401.495 102.547 401.635C102.407 401.786 102.299 401.916 102.223 402.024ZM100.133 391.735H103.098V393.988H100.133V391.735ZM107.602 387.28H112.107V389.451H107.602V387.28ZM105.788 393.761H113.079V395.948H105.788V393.761ZM112.382 393.761H112.787L113.176 393.68L114.618 394.279C114.283 395.478 113.835 396.515 113.273 397.39C112.711 398.265 112.042 399.01 111.264 399.626C110.497 400.242 109.628 400.75 108.655 401.149C107.694 401.56 106.641 401.889 105.496 402.138C105.399 401.835 105.247 401.479 105.042 401.068C104.837 400.669 104.637 400.344 104.443 400.096C105.458 399.934 106.398 399.696 107.262 399.383C108.126 399.07 108.898 398.67 109.579 398.184C110.259 397.698 110.837 397.115 111.313 396.434C111.788 395.754 112.144 394.971 112.382 394.085V393.761ZM108.186 395.608C108.607 396.375 109.168 397.061 109.871 397.666C110.573 398.26 111.399 398.762 112.35 399.172C113.311 399.583 114.375 399.891 115.541 400.096C115.379 400.258 115.207 400.463 115.023 400.712C114.85 400.96 114.683 401.214 114.521 401.473C114.359 401.732 114.229 401.97 114.132 402.186C112.252 401.743 110.67 401.03 109.385 400.047C108.11 399.064 107.057 397.806 106.225 396.272L108.186 395.608ZM107.051 387.28H109.239V389.094C109.239 389.656 109.163 390.223 109.012 390.796C108.871 391.368 108.596 391.908 108.186 392.416C107.786 392.913 107.197 393.334 106.419 393.68C106.333 393.529 106.193 393.34 105.998 393.113C105.804 392.886 105.604 392.664 105.399 392.448C105.193 392.232 105.015 392.07 104.864 391.962C105.534 391.692 106.02 391.401 106.322 391.087C106.635 390.763 106.835 390.428 106.922 390.083C107.008 389.726 107.051 389.37 107.051 389.013V387.28ZM111.021 387.28H113.241V390.715C113.241 390.952 113.257 391.125 113.289 391.233C113.322 391.341 113.397 391.395 113.516 391.395C113.57 391.395 113.635 391.395 113.711 391.395C113.797 391.395 113.883 391.395 113.97 391.395C114.056 391.395 114.126 391.395 114.18 391.395C114.321 391.395 114.483 391.384 114.667 391.363C114.861 391.341 115.012 391.309 115.12 391.266C115.142 391.557 115.163 391.887 115.185 392.254C115.217 392.61 115.255 392.924 115.298 393.194C115.158 393.259 114.991 393.302 114.796 393.323C114.602 393.334 114.407 393.34 114.213 393.34C114.126 393.34 114.024 393.34 113.905 393.34C113.797 393.34 113.684 393.34 113.565 393.34C113.457 393.34 113.36 393.34 113.273 393.34C112.647 393.34 112.171 393.248 111.847 393.064C111.523 392.88 111.302 392.594 111.183 392.205C111.075 391.806 111.021 391.298 111.021 390.682V387.28ZM102.223 402.024C102.169 401.83 102.072 401.603 101.931 401.344C101.802 401.095 101.656 400.852 101.494 400.615C101.343 400.366 101.202 400.172 101.073 400.031C101.202 399.934 101.326 399.804 101.445 399.642C101.575 399.48 101.677 399.291 101.753 399.075C101.84 398.859 101.883 398.622 101.883 398.362V391.735H104.151V399.869C104.151 399.869 104.054 399.945 103.859 400.096C103.665 400.236 103.438 400.42 103.179 400.647C102.93 400.863 102.709 401.095 102.515 401.344C102.32 401.592 102.223 401.819 102.223 402.024ZM117.518 388.414L119.009 386.891C119.311 387.118 119.641 387.372 119.997 387.652C120.364 387.933 120.71 388.214 121.034 388.495C121.369 388.776 121.634 389.035 121.828 389.273L120.24 390.974C120.057 390.736 119.808 390.466 119.495 390.164C119.192 389.861 118.863 389.559 118.507 389.256C118.161 388.943 117.831 388.662 117.518 388.414ZM118.831 402.251L118.264 399.966L118.75 399.27L122.509 396.596C122.552 396.823 122.617 397.077 122.703 397.358C122.789 397.628 122.881 397.892 122.978 398.152C123.076 398.411 123.162 398.622 123.238 398.784C122.384 399.41 121.688 399.923 121.148 400.323C120.618 400.723 120.197 401.041 119.884 401.279C119.581 401.527 119.349 401.722 119.187 401.862C119.036 402.013 118.917 402.143 118.831 402.251ZM116.4 391.735H120.175V394.069H116.4V391.735ZM121.747 391.752H131.598V394.214H121.747V391.752ZM125.522 386.875H128.066V402.186H125.522V386.875ZM118.831 402.251C118.777 402.046 118.679 401.803 118.539 401.522C118.409 401.241 118.269 400.966 118.118 400.696C117.966 400.425 117.826 400.209 117.696 400.047C117.912 399.907 118.123 399.696 118.328 399.416C118.534 399.135 118.636 398.811 118.636 398.443V391.735H121.05V400.112C121.05 400.112 120.975 400.161 120.824 400.258C120.672 400.344 120.489 400.469 120.273 400.631C120.057 400.782 119.835 400.949 119.608 401.133C119.392 401.327 119.209 401.516 119.057 401.7C118.906 401.895 118.831 402.078 118.831 402.251ZM133.121 388.268L134.709 386.907C134.99 387.166 135.287 387.458 135.6 387.782C135.924 388.095 136.232 388.409 136.524 388.722C136.816 389.035 137.048 389.316 137.221 389.564L135.535 391.104C135.373 390.844 135.152 390.553 134.871 390.229C134.601 389.894 134.31 389.554 133.996 389.208C133.694 388.862 133.402 388.549 133.121 388.268ZM134.612 402.04L134.061 399.983L134.401 399.335L137.512 396.531C137.609 396.834 137.744 397.18 137.917 397.568C138.09 397.957 138.247 398.26 138.387 398.476C137.663 399.135 137.069 399.675 136.605 400.096C136.151 400.506 135.789 400.836 135.519 401.084C135.26 401.333 135.06 401.527 134.92 401.668C134.79 401.808 134.688 401.932 134.612 402.04ZM132.538 391.719H135.681V393.826H132.538V391.719ZM137.626 394.895H147.704V397.018H137.626V394.895ZM144.252 396.029C144.533 396.494 144.884 396.964 145.306 397.439C145.727 397.903 146.181 398.341 146.667 398.751C147.164 399.151 147.66 399.491 148.157 399.772C147.898 399.977 147.612 400.258 147.299 400.615C146.985 400.971 146.737 401.295 146.553 401.587C146.067 401.209 145.587 400.755 145.111 400.226C144.636 399.686 144.193 399.108 143.783 398.492C143.372 397.865 143.016 397.239 142.713 396.612L144.252 396.029ZM140.429 391.703V392.4H144.901V391.703H140.429ZM140.429 389.256V389.937H144.901V389.256H140.429ZM138.322 387.426H147.12V394.231H138.322V387.426ZM141.255 396.029L142.859 396.58C142.557 397.271 142.184 397.941 141.741 398.589C141.309 399.226 140.834 399.815 140.315 400.355C139.797 400.885 139.246 401.333 138.663 401.7C138.555 401.516 138.409 401.311 138.225 401.084C138.052 400.868 137.869 400.658 137.674 400.452C137.48 400.236 137.302 400.058 137.14 399.918C137.701 399.648 138.241 399.307 138.76 398.897C139.289 398.487 139.77 398.038 140.202 397.552C140.634 397.055 140.985 396.548 141.255 396.029ZM141.725 388.284H143.847V393.307H143.945V402.17H141.628V393.307H141.725V388.284ZM134.612 402.04C134.526 401.9 134.396 401.732 134.223 401.538C134.061 401.344 133.888 401.155 133.705 400.971C133.521 400.798 133.364 400.669 133.235 400.582C133.451 400.366 133.678 400.058 133.915 399.659C134.153 399.248 134.272 398.778 134.272 398.249V391.719H136.524V399.205C136.524 399.205 136.459 399.275 136.329 399.416C136.2 399.556 136.038 399.74 135.843 399.966C135.66 400.182 135.471 400.415 135.276 400.663C135.093 400.922 134.936 401.171 134.806 401.408C134.677 401.657 134.612 401.868 134.612 402.04ZM151.625 390.877V391.395H153.488V390.877H151.625ZM151.625 388.932V389.435H153.488V388.932H151.625ZM149.551 387.393H155.659V392.934H149.551V387.393ZM148.919 393.712H156.291V395.397H148.919V393.712ZM156.226 387.409H163.971V389.24H156.226V387.409ZM151.819 394.247H153.78V400.955L151.819 399.853V394.247ZM152.84 396.467H155.918V398.136H152.84V396.467ZM159.256 387.798L161.605 388.317C161.357 388.814 161.114 389.294 160.876 389.759C160.639 390.212 160.428 390.601 160.244 390.925L158.414 390.423C158.576 390.045 158.738 389.613 158.9 389.127C159.062 388.641 159.18 388.198 159.256 387.798ZM151.041 397.115C151.236 397.784 151.49 398.319 151.803 398.719C152.116 399.108 152.5 399.399 152.953 399.594C153.418 399.788 153.952 399.918 154.557 399.983C155.173 400.037 155.87 400.064 156.647 400.064C156.907 400.064 157.279 400.064 157.765 400.064C158.252 400.064 158.797 400.064 159.402 400.064C160.007 400.053 160.612 400.047 161.217 400.047C161.832 400.037 162.399 400.026 162.918 400.015C163.447 400.004 163.863 399.993 164.165 399.983C164.014 400.199 163.863 400.496 163.712 400.874C163.571 401.263 163.474 401.603 163.42 401.895H162.108H156.631C155.648 401.895 154.779 401.841 154.023 401.732C153.267 401.635 152.608 401.435 152.046 401.133C151.495 400.841 151.025 400.404 150.636 399.821C150.247 399.237 149.923 398.465 149.664 397.504L151.041 397.115ZM156.664 390.18H163.453V396.839H161.492V391.816H158.543V396.969H156.664V390.18ZM149.502 395.835L151.382 395.964C151.338 397.239 151.225 398.416 151.041 399.497C150.869 400.566 150.539 401.468 150.053 402.202C149.945 402.105 149.788 401.986 149.583 401.846C149.389 401.705 149.189 401.57 148.984 401.441C148.778 401.311 148.6 401.209 148.449 401.133C148.892 400.528 149.173 399.761 149.291 398.832C149.421 397.903 149.491 396.904 149.502 395.835ZM159.126 392.4H161.038C161.017 393.469 160.957 394.42 160.86 395.251C160.763 396.083 160.569 396.812 160.277 397.439C159.996 398.054 159.564 398.584 158.981 399.027C158.397 399.47 157.614 399.837 156.631 400.128C156.545 399.902 156.394 399.637 156.178 399.335C155.972 399.021 155.778 398.778 155.594 398.605C156.426 398.379 157.08 398.098 157.555 397.763C158.03 397.417 158.376 397.007 158.592 396.531C158.808 396.045 158.948 395.462 159.013 394.782C159.078 394.101 159.116 393.307 159.126 392.4ZM160.099 398.071L161.362 396.791C161.643 396.985 161.951 397.207 162.286 397.455C162.632 397.693 162.966 397.936 163.291 398.184C163.615 398.422 163.879 398.632 164.084 398.816L162.74 400.274C162.556 400.069 162.308 399.842 161.994 399.594C161.692 399.335 161.373 399.07 161.038 398.8C160.704 398.53 160.39 398.287 160.099 398.071ZM170.792 399.804H180.206V401.911H170.792V399.804ZM173.417 391.654H178.165V393.745H173.417V391.654ZM173.433 395.721H178.181V397.779H173.433V395.721ZM172.105 387.588H178.958V400.906H176.625V389.71H174.325V400.906H172.105V387.588ZM165.753 398.022C165.721 397.882 165.667 397.698 165.591 397.471C165.516 397.234 165.429 396.991 165.332 396.742C165.246 396.494 165.165 396.283 165.089 396.11C165.305 396.056 165.51 395.943 165.705 395.77C165.91 395.597 166.148 395.365 166.418 395.073C166.558 394.933 166.758 394.701 167.017 394.377C167.276 394.042 167.563 393.653 167.876 393.21C168.189 392.756 168.502 392.265 168.816 391.735C169.14 391.206 169.437 390.666 169.707 390.115L171.473 391.266C170.879 392.303 170.198 393.323 169.431 394.328C168.664 395.332 167.887 396.218 167.098 396.985V397.018C167.098 397.018 167.028 397.055 166.888 397.131C166.758 397.196 166.601 397.282 166.418 397.39C166.245 397.487 166.088 397.595 165.948 397.714C165.818 397.822 165.753 397.925 165.753 398.022ZM165.753 398.022L165.608 396.288L166.547 395.624L171.181 394.879C171.138 395.17 171.111 395.505 171.1 395.883C171.089 396.251 171.089 396.548 171.1 396.774C170.063 396.969 169.221 397.131 168.573 397.261C167.935 397.39 167.428 397.504 167.05 397.601C166.682 397.687 166.401 397.763 166.207 397.828C166.023 397.892 165.872 397.957 165.753 398.022ZM165.624 394.036C165.591 393.896 165.532 393.701 165.445 393.453C165.359 393.205 165.267 392.945 165.17 392.675C165.084 392.405 164.997 392.173 164.911 391.979C165.094 391.925 165.262 391.822 165.413 391.671C165.564 391.509 165.726 391.298 165.899 391.039C165.986 390.92 166.11 390.715 166.272 390.423C166.434 390.131 166.612 389.786 166.806 389.386C167.001 388.986 167.19 388.554 167.374 388.09C167.557 387.625 167.714 387.161 167.843 386.696L169.934 387.685C169.685 388.29 169.388 388.911 169.042 389.548C168.697 390.175 168.33 390.78 167.941 391.363C167.563 391.935 167.179 392.454 166.79 392.918V392.983C166.79 392.983 166.731 393.021 166.612 393.097C166.493 393.172 166.358 393.264 166.207 393.372C166.056 393.48 165.921 393.593 165.802 393.712C165.683 393.831 165.624 393.939 165.624 394.036ZM165.624 394.036L165.559 392.481L166.45 391.881L168.994 391.735C168.94 392.006 168.886 392.319 168.832 392.675C168.789 393.032 168.767 393.323 168.767 393.55C168.205 393.593 167.741 393.637 167.374 393.68C167.006 393.723 166.709 393.766 166.482 393.809C166.256 393.842 166.077 393.88 165.948 393.923C165.818 393.955 165.71 393.993 165.624 394.036ZM165.154 399.205C165.629 399.118 166.169 399.01 166.774 398.881C167.39 398.751 168.038 398.611 168.718 398.46C169.399 398.298 170.079 398.141 170.76 397.99L171.019 399.918C170.079 400.188 169.134 400.452 168.184 400.712C167.233 400.982 166.358 401.225 165.559 401.441L165.154 399.205ZM20.475 424.647V412.863H20.8432V424.279H26.7351V424.647H20.475ZM31.5222 424.831C31.0389 424.831 30.592 424.731 30.1816 424.532C29.775 424.332 29.447 424.041 29.1977 423.657C28.9522 423.274 28.8295 422.806 28.8295 422.253C28.8295 421.954 28.8774 421.674 28.9733 421.413C29.0692 421.149 29.238 420.909 29.4796 420.694C29.7213 420.479 30.0588 420.295 30.4923 420.142C30.9296 419.988 31.4877 419.871 32.1666 419.791C32.5732 419.745 32.9568 419.691 33.3174 419.63C33.678 419.568 33.9714 419.476 34.1977 419.353C34.424 419.231 34.5372 419.054 34.5372 418.824V418.295C34.5372 417.616 34.309 417.071 33.8525 416.661C33.396 416.246 32.788 416.039 32.0285 416.039C31.4071 416.039 30.8644 416.177 30.4002 416.454C29.9361 416.726 29.612 417.109 29.4278 417.604L29.0826 417.466C29.2207 417.098 29.4336 416.78 29.7213 416.511C30.009 416.243 30.3504 416.035 30.7455 415.89C31.1405 415.744 31.5682 415.671 32.0285 415.671C32.4773 415.671 32.8782 415.738 33.2311 415.872C33.5878 416.003 33.8908 416.187 34.1402 416.425C34.3895 416.659 34.5794 416.935 34.7098 417.253C34.8402 417.572 34.9054 417.919 34.9054 418.295V424.647H34.5372V422.852H34.4912C34.307 423.251 34.0673 423.6 33.7719 423.899C33.4804 424.194 33.1429 424.424 32.7593 424.589C32.3795 424.75 31.9672 424.831 31.5222 424.831ZM31.5222 424.463C32.0822 424.463 32.5905 424.313 33.047 424.014C33.5034 423.711 33.8659 423.291 34.1344 422.754C34.4029 422.213 34.5372 421.586 34.5372 420.872V419.538C34.4298 419.618 34.2994 419.689 34.1459 419.75C33.9963 419.812 33.8256 419.867 33.6338 419.917C33.4459 419.963 33.2407 420.004 33.0182 420.038C32.7957 420.073 32.5579 420.105 32.3047 420.136C31.5145 420.228 30.8931 420.368 30.4405 420.556C29.9879 420.744 29.6676 420.98 29.4796 421.264C29.2917 421.548 29.1977 421.877 29.1977 422.253C29.1977 422.921 29.4202 423.456 29.8651 423.859C30.3139 424.261 30.8663 424.463 31.5222 424.463ZM38.3548 424.647V412.863H38.723V418.065H38.7691C38.9225 417.574 39.145 417.15 39.4365 416.793C39.728 416.432 40.0713 416.156 40.4664 415.964C40.8615 415.769 41.2931 415.671 41.761 415.671C42.4515 415.671 43.0518 415.872 43.562 416.275C44.0721 416.678 44.4672 417.225 44.7472 417.915C45.0273 418.605 45.1673 419.384 45.1673 420.251C45.1673 421.122 45.0273 421.902 44.7472 422.593C44.4711 423.283 44.0779 423.83 43.5677 424.233C43.0614 424.632 42.4592 424.831 41.761 424.831C41.2892 424.831 40.8558 424.733 40.4607 424.538C40.0694 424.342 39.73 424.066 39.4423 423.709C39.1546 423.348 38.9302 422.925 38.7691 422.437H38.723V424.647H38.3548ZM38.723 420.251C38.723 421.049 38.8458 421.766 39.0913 422.403C39.3368 423.036 39.6858 423.538 40.1385 423.91C40.5949 424.279 41.1358 424.463 41.761 424.463C42.3863 424.463 42.9252 424.279 43.3778 423.91C43.8343 423.538 44.1853 423.036 44.4308 422.403C44.6763 421.766 44.799 421.049 44.799 420.251C44.799 419.453 44.6744 418.738 44.425 418.105C44.1795 417.468 43.8286 416.966 43.3721 416.597C42.9195 416.225 42.3824 416.039 41.761 416.039C41.1396 416.039 40.6007 416.225 40.1442 416.597C39.6916 416.966 39.3406 417.468 39.0913 418.105C38.8458 418.738 38.723 419.453 38.723 420.251ZM55.4492 424.831C54.7549 424.831 54.1316 424.632 53.5793 424.233C53.0269 423.83 52.5896 423.283 52.2674 422.593C51.949 421.899 51.7898 421.118 51.7898 420.251C51.7898 419.38 51.949 418.6 52.2674 417.909C52.5896 417.219 53.0269 416.674 53.5793 416.275C54.1316 415.872 54.7549 415.671 55.4492 415.671C56.1435 415.671 56.7649 415.872 57.3135 416.275C57.8658 416.678 58.3031 417.225 58.6253 417.915C58.9475 418.605 59.1086 419.384 59.1086 420.251C59.1086 421.118 58.9475 421.899 58.6253 422.593C58.3069 423.283 57.8716 423.83 57.3192 424.233C56.7668 424.632 56.1435 424.831 55.4492 424.831ZM55.4492 424.463C56.0745 424.463 56.6345 424.279 57.1293 423.91C57.628 423.542 58.0212 423.04 58.3089 422.403C58.5965 421.766 58.7404 421.049 58.7404 420.251C58.7404 419.453 58.5946 418.738 58.3031 418.105C58.0154 417.468 57.6242 416.966 57.1293 416.597C56.6345 416.225 56.0745 416.039 55.4492 416.039C54.8278 416.039 54.2678 416.225 53.7691 416.597C53.2743 416.966 52.8811 417.468 52.5896 418.105C52.3019 418.738 52.1581 419.453 52.1581 420.251C52.1581 421.049 52.3019 421.766 52.5896 422.403C52.8773 423.04 53.2686 423.542 53.7634 423.91C54.262 424.279 54.824 424.463 55.4492 424.463ZM64.7401 415.809V416.177H61.2418V415.809H64.7401ZM62.4616 424.647V414.359C62.4616 413.945 62.5537 413.586 62.7378 413.283C62.9258 412.98 63.1732 412.746 63.48 412.581C63.7908 412.416 64.1264 412.334 64.487 412.334C64.625 412.334 64.7497 412.345 64.861 412.368C64.9722 412.391 65.0815 412.422 65.1889 412.46L65.0738 412.806C64.9779 412.775 64.884 412.75 64.7919 412.731C64.6998 412.712 64.5982 412.702 64.487 412.702C64.0458 412.702 63.6584 412.85 63.3247 413.145C62.9948 413.441 62.8299 413.845 62.8299 414.359L62.8184 424.647H62.4616ZM74.9833 424.647H71.8992V412.863H75.2824C76.368 412.863 77.2963 413.097 78.0673 413.565C78.8421 414.029 79.4347 414.697 79.8452 415.567C80.2595 416.438 80.4647 417.485 80.4608 418.709C80.457 419.963 80.2384 421.034 79.8049 421.92C79.3753 422.802 78.752 423.477 77.9349 423.945C77.1217 424.413 76.1378 424.647 74.9833 424.647ZM72.2675 424.279H74.9833C76.0726 424.279 76.999 424.058 77.7623 423.617C78.5257 423.172 79.1049 422.533 79.5 421.701C79.8989 420.869 80.0964 419.871 80.0926 418.709C80.0888 417.562 79.897 416.58 79.5172 415.763C79.1413 414.946 78.5966 414.321 77.8831 413.887C77.1697 413.45 76.3028 413.231 75.2824 413.231H72.2675V424.279ZM86.5195 424.831C85.7485 424.831 85.0734 424.63 84.4942 424.227C83.9188 423.824 83.472 423.278 83.1536 422.587C82.8352 421.897 82.676 421.118 82.676 420.251C82.676 419.384 82.8352 418.605 83.1536 417.915C83.4758 417.225 83.9131 416.678 84.4655 416.275C85.0178 415.872 85.6411 415.671 86.3354 415.671C86.8494 415.671 87.3251 415.78 87.7624 415.999C88.2035 416.218 88.5871 416.521 88.9131 416.908C89.2392 417.296 89.4923 417.742 89.6726 418.249C89.8567 418.751 89.9488 419.288 89.9488 419.86V420.228H82.8602V419.86H89.5805C89.5805 419.15 89.4348 418.508 89.1433 417.932C88.8517 417.353 88.4605 416.893 87.9695 416.551C87.4785 416.21 86.9338 416.039 86.3354 416.039C85.7294 416.039 85.1808 416.22 84.6899 416.58C84.1989 416.941 83.8057 417.432 83.5103 418.053C83.215 418.675 83.0596 419.376 83.0443 420.159V420.205C83.0443 420.976 83.1785 421.686 83.447 422.334C83.7194 422.978 84.1145 423.494 84.6323 423.882C85.1502 424.269 85.7792 424.463 86.5195 424.463C87.0642 424.463 87.5207 424.367 87.8889 424.175C88.261 423.983 88.5583 423.763 88.7808 423.513C89.0071 423.264 89.174 423.051 89.2814 422.875L89.5805 423.082C89.4501 423.304 89.2545 423.552 88.9937 423.824C88.7328 424.096 88.3991 424.332 87.9925 424.532C87.5859 424.731 87.0949 424.831 86.5195 424.831ZM97.8501 417.673L97.4819 417.765C97.363 417.382 97.1961 417.063 96.9813 416.81C96.7704 416.553 96.5114 416.361 96.2046 416.235C95.8977 416.104 95.541 416.039 95.1344 416.039C94.4286 416.039 93.857 416.22 93.4197 416.58C92.9825 416.937 92.7638 417.409 92.7638 417.996C92.7638 418.46 92.9115 418.849 93.2069 419.164C93.5061 419.478 93.9568 419.71 94.559 419.86L95.9399 420.205C96.5882 420.366 97.0791 420.638 97.4129 421.022C97.7504 421.406 97.9192 421.87 97.9192 422.414C97.9192 422.894 97.7926 423.316 97.5394 423.68C97.2901 424.045 96.9449 424.329 96.5038 424.532C96.0626 424.731 95.5525 424.831 94.9733 424.831C94.1869 424.831 93.5444 424.639 93.0458 424.256C92.5471 423.872 92.223 423.327 92.0734 422.622L92.4416 422.53C92.572 423.155 92.8501 423.634 93.2759 423.968C93.7055 424.298 94.2713 424.463 94.9733 424.463C95.7404 424.463 96.3618 424.275 96.8375 423.899C97.3131 423.523 97.5509 423.028 97.5509 422.414C97.5509 421.958 97.409 421.572 97.1252 421.258C96.8413 420.943 96.4155 420.715 95.8478 420.573L94.4669 420.228C93.788 420.059 93.2721 419.783 92.9192 419.399C92.5701 419.016 92.3956 418.548 92.3956 417.996C92.3956 417.531 92.5107 417.127 92.7408 416.782C92.9748 416.432 93.297 416.16 93.7074 415.964C94.1217 415.769 94.5974 415.671 95.1344 415.671C95.8171 415.671 96.3868 415.84 96.8432 416.177C97.2997 416.511 97.6353 417.01 97.8501 417.673ZM100.593 424.647V415.809H100.961V424.647H100.593ZM100.777 414.198C100.678 414.198 100.591 414.162 100.518 414.089C100.446 414.016 100.409 413.93 100.409 413.83C100.409 413.73 100.446 413.644 100.518 413.571C100.591 413.498 100.678 413.462 100.777 413.462C100.877 413.462 100.963 413.498 101.036 413.571C101.109 413.644 101.146 413.73 101.146 413.83C101.146 413.93 101.109 414.016 101.036 414.089C100.963 414.162 100.877 414.198 100.777 414.198ZM107.131 428.145C106.636 428.145 106.18 428.078 105.762 427.944C105.343 427.813 104.983 427.616 104.68 427.351C104.377 427.09 104.151 426.764 104.001 426.373L104.346 426.235C104.48 426.58 104.68 426.866 104.945 427.092C105.213 427.322 105.533 427.493 105.905 427.604C106.281 427.719 106.69 427.777 107.131 427.777C108.052 427.777 108.769 427.533 109.283 427.046C109.797 426.563 110.054 425.825 110.054 424.831V422.437H110.008C109.854 422.928 109.626 423.339 109.323 423.669C109.02 423.995 108.669 424.24 108.27 424.405C107.871 424.566 107.453 424.647 107.016 424.647C106.325 424.647 105.725 424.461 105.215 424.089C104.705 423.717 104.31 423.201 104.03 422.541C103.75 421.881 103.61 421.118 103.61 420.251C103.61 419.376 103.748 418.594 104.024 417.904C104.3 417.213 104.693 416.668 105.203 416.269C105.714 415.871 106.318 415.671 107.016 415.671C107.492 415.671 107.925 415.769 108.316 415.964C108.707 416.156 109.047 416.432 109.335 416.793C109.622 417.15 109.847 417.574 110.008 418.065H110.054V415.809H110.422V424.831C110.422 425.556 110.29 426.164 110.025 426.655C109.76 427.15 109.383 427.522 108.892 427.771C108.401 428.021 107.814 428.145 107.131 428.145ZM107.016 424.279C107.63 424.279 108.163 424.116 108.615 423.79C109.072 423.464 109.425 422.999 109.674 422.397C109.927 421.791 110.054 421.076 110.054 420.251C110.054 419.453 109.931 418.738 109.686 418.105C109.44 417.468 109.089 416.966 108.633 416.597C108.18 416.225 107.641 416.039 107.016 416.039C106.391 416.039 105.85 416.225 105.393 416.597C104.941 416.966 104.592 417.468 104.346 418.105C104.101 418.738 103.978 419.453 103.978 420.251C103.978 421.049 104.101 421.751 104.346 422.357C104.595 422.959 104.946 423.431 105.399 423.772C105.856 424.11 106.394 424.279 107.016 424.279ZM113.969 418.709V424.647H113.601V415.809H113.969V417.213H114.015C114.222 416.753 114.562 416.385 115.034 416.108C115.509 415.832 116.052 415.694 116.662 415.694C117.253 415.694 117.774 415.823 118.227 416.08C118.68 416.337 119.035 416.691 119.292 417.144C119.549 417.597 119.677 418.118 119.677 418.709V424.647H119.309V418.709C119.309 417.927 119.063 417.29 118.572 416.799C118.081 416.308 117.445 416.062 116.662 416.062C116.14 416.062 115.676 416.175 115.27 416.402C114.867 416.628 114.549 416.941 114.315 417.34C114.084 417.739 113.969 418.195 113.969 418.709ZM128.011 412.863V424.647H127.643V412.863H128.011ZM131.786 418.709V424.647H131.418V415.809H131.786V417.213H131.832C132.039 416.753 132.378 416.385 132.85 416.108C133.326 415.832 133.869 415.694 134.479 415.694C135.069 415.694 135.591 415.823 136.044 416.08C136.496 416.337 136.851 416.691 137.108 417.144C137.365 417.597 137.494 418.118 137.494 418.709V424.647H137.125V418.709C137.125 417.927 136.88 417.29 136.389 416.799C135.898 416.308 135.261 416.062 134.479 416.062C133.957 416.062 133.493 416.175 133.086 416.402C132.683 416.628 132.365 416.941 132.131 417.34C131.901 417.739 131.786 418.195 131.786 418.709ZM143.388 415.809V416.177H139.89V415.809H143.388ZM141.179 413.692H141.547V422.783C141.547 423.128 141.624 423.425 141.777 423.675C141.931 423.92 142.134 424.11 142.387 424.244C142.64 424.375 142.913 424.44 143.204 424.44C143.315 424.44 143.417 424.43 143.509 424.411C143.605 424.392 143.703 424.363 143.803 424.325L143.918 424.67C143.803 424.712 143.689 424.745 143.578 424.768C143.467 424.795 143.342 424.808 143.204 424.808C142.844 424.808 142.508 424.726 142.197 424.561C141.89 424.396 141.643 424.162 141.455 423.859C141.271 423.556 141.179 423.197 141.179 422.783V413.692ZM149.479 424.831C148.708 424.831 148.033 424.63 147.453 424.227C146.878 423.824 146.431 423.278 146.113 422.587C145.794 421.897 145.635 421.118 145.635 420.251C145.635 419.384 145.794 418.605 146.113 417.915C146.435 417.225 146.872 416.678 147.425 416.275C147.977 415.872 148.6 415.671 149.295 415.671C149.809 415.671 150.284 415.78 150.721 415.999C151.163 416.218 151.546 416.521 151.872 416.908C152.198 417.296 152.451 417.742 152.632 418.249C152.816 418.751 152.908 419.288 152.908 419.86V420.228H145.819V419.86H152.54C152.54 419.15 152.394 418.508 152.102 417.932C151.811 417.353 151.42 416.893 150.929 416.551C150.438 416.21 149.893 416.039 149.295 416.039C148.688 416.039 148.14 416.22 147.649 416.58C147.158 416.941 146.765 417.432 146.469 418.053C146.174 418.675 146.019 419.376 146.003 420.159V420.205C146.003 420.976 146.138 421.686 146.406 422.334C146.678 422.978 147.074 423.494 147.591 423.882C148.109 424.269 148.738 424.463 149.479 424.463C150.023 424.463 150.48 424.367 150.848 424.175C151.22 423.983 151.517 423.763 151.74 423.513C151.966 423.264 152.133 423.051 152.24 422.875L152.54 423.082C152.409 423.304 152.214 423.552 151.953 423.824C151.692 424.096 151.358 424.332 150.952 424.532C150.545 424.731 150.054 424.831 149.479 424.831ZM155.884 412.863V424.647H155.516V412.863H155.884ZM159.381 412.863V424.647H159.013V412.863H159.381ZM162.556 424.647V415.809H162.924V424.647H162.556ZM162.74 414.198C162.64 414.198 162.554 414.162 162.481 414.089C162.408 414.016 162.371 413.93 162.371 413.83C162.371 413.73 162.408 413.644 162.481 413.571C162.554 413.498 162.64 413.462 162.74 413.462C162.839 413.462 162.926 413.498 162.999 413.571C163.071 413.644 163.108 413.73 163.108 413.83C163.108 413.93 163.071 414.016 162.999 414.089C162.926 414.162 162.839 414.198 162.74 414.198ZM169.093 428.145C168.598 428.145 168.142 428.078 167.724 427.944C167.306 427.813 166.945 427.616 166.642 427.351C166.339 427.09 166.113 426.764 165.963 426.373L166.308 426.235C166.443 426.58 166.642 426.866 166.907 427.092C167.175 427.322 167.496 427.493 167.868 427.604C168.244 427.719 168.652 427.777 169.093 427.777C170.014 427.777 170.731 427.533 171.245 427.046C171.759 426.563 172.016 425.825 172.016 424.831V422.437H171.97C171.817 422.928 171.588 423.339 171.285 423.669C170.982 423.995 170.631 424.24 170.232 424.405C169.834 424.566 169.415 424.647 168.978 424.647C168.288 424.647 167.687 424.461 167.177 424.089C166.667 423.717 166.272 423.201 165.992 422.541C165.712 421.881 165.572 421.118 165.572 420.251C165.572 419.376 165.71 418.594 165.986 417.904C166.262 417.213 166.656 416.668 167.166 416.269C167.676 415.871 168.28 415.671 168.978 415.671C169.454 415.671 169.887 415.769 170.278 415.964C170.67 416.156 171.009 416.432 171.297 416.793C171.585 417.15 171.809 417.574 171.97 418.065H172.016V415.809H172.384V424.831C172.384 425.556 172.252 426.164 171.987 426.655C171.723 427.15 171.345 427.522 170.854 427.771C170.363 428.021 169.776 428.145 169.093 428.145ZM168.978 424.279C169.592 424.279 170.125 424.116 170.578 423.79C171.034 423.464 171.387 422.999 171.636 422.397C171.89 421.791 172.016 421.076 172.016 420.251C172.016 419.453 171.893 418.738 171.648 418.105C171.402 417.468 171.051 416.966 170.595 416.597C170.142 416.225 169.603 416.039 168.978 416.039C168.353 416.039 167.812 416.225 167.356 416.597C166.903 416.966 166.554 417.468 166.308 418.105C166.063 418.738 165.94 419.453 165.94 420.251C165.94 421.049 166.063 421.751 166.308 422.357C166.558 422.959 166.909 423.431 167.361 423.772C167.818 424.11 168.357 424.279 168.978 424.279ZM178.877 424.831C178.106 424.831 177.431 424.63 176.852 424.227C176.277 423.824 175.83 423.278 175.512 422.587C175.193 421.897 175.034 421.118 175.034 420.251C175.034 419.384 175.193 418.605 175.512 417.915C175.834 417.225 176.271 416.678 176.823 416.275C177.376 415.872 177.999 415.671 178.693 415.671C179.207 415.671 179.683 415.78 180.12 415.999C180.561 416.218 180.945 416.521 181.271 416.908C181.597 417.296 181.85 417.742 182.031 418.249C182.215 418.751 182.307 419.288 182.307 419.86V420.228H175.218V419.86H181.938C181.938 419.15 181.793 418.508 181.501 417.932C181.21 417.353 180.818 416.893 180.327 416.551C179.836 416.21 179.292 416.039 178.693 416.039C178.087 416.039 177.539 416.22 177.048 416.58C176.557 416.941 176.164 417.432 175.868 418.053C175.573 418.675 175.418 419.376 175.402 420.159V420.205C175.402 420.976 175.536 421.686 175.805 422.334C176.077 422.978 176.472 423.494 176.99 423.882C177.508 424.269 178.137 424.463 178.877 424.463C179.422 424.463 179.879 424.367 180.247 424.175C180.619 423.983 180.916 423.763 181.139 423.513C181.365 423.264 181.532 423.051 181.639 422.875L181.938 423.082C181.808 423.304 181.612 423.552 181.352 423.824C181.091 424.096 180.757 424.332 180.35 424.532C179.944 424.731 179.453 424.831 178.877 424.831ZM185.283 418.709V424.647H184.915V415.809H185.283V417.213H185.329C185.536 416.753 185.876 416.385 186.347 416.108C186.823 415.832 187.366 415.694 187.976 415.694C188.566 415.694 189.088 415.823 189.541 416.08C189.993 416.337 190.348 416.691 190.605 417.144C190.862 417.597 190.991 418.118 190.991 418.709V424.647H190.622V418.709C190.622 417.927 190.377 417.29 189.886 416.799C189.395 416.308 188.758 416.062 187.976 416.062C187.454 416.062 186.99 416.175 186.583 416.402C186.18 416.628 185.862 416.941 185.628 417.34C185.398 417.739 185.283 418.195 185.283 418.709ZM197.3 424.831C196.586 424.831 195.949 424.632 195.389 424.233C194.833 423.83 194.394 423.283 194.072 422.593C193.753 421.902 193.594 421.122 193.594 420.251C193.594 419.388 193.753 418.611 194.072 417.921C194.39 417.226 194.827 416.678 195.384 416.275C195.944 415.872 196.582 415.671 197.3 415.671C197.829 415.671 198.314 415.786 198.755 416.016C199.2 416.243 199.572 416.561 199.872 416.971C200.171 417.378 200.364 417.85 200.453 418.387H200.061C199.942 417.693 199.626 417.129 199.112 416.695C198.602 416.258 197.998 416.039 197.3 416.039C196.667 416.039 196.097 416.223 195.591 416.592C195.088 416.956 194.691 417.457 194.4 418.093C194.108 418.726 193.962 419.446 193.962 420.251C193.962 421.034 194.102 421.743 194.382 422.38C194.666 423.017 195.059 423.523 195.562 423.899C196.064 424.275 196.644 424.463 197.3 424.463C197.771 424.463 198.205 424.365 198.6 424.169C198.995 423.97 199.323 423.69 199.584 423.329C199.849 422.969 200.015 422.549 200.084 422.069H200.476C200.391 422.625 200.199 423.111 199.9 423.525C199.601 423.939 199.227 424.261 198.778 424.492C198.33 424.718 197.837 424.831 197.3 424.831ZM206.393 424.831C205.622 424.831 204.947 424.63 204.368 424.227C203.793 423.824 203.346 423.278 203.027 422.587C202.709 421.897 202.55 421.118 202.55 420.251C202.55 419.384 202.709 418.605 203.027 417.915C203.35 417.225 203.787 416.678 204.339 416.275C204.892 415.872 205.515 415.671 206.209 415.671C206.723 415.671 207.199 415.78 207.636 415.999C208.077 416.218 208.461 416.521 208.787 416.908C209.113 417.296 209.366 417.742 209.546 418.249C209.731 418.751 209.823 419.288 209.823 419.86V420.228H202.734V419.86H209.454C209.454 419.15 209.309 418.508 209.017 417.932C208.726 417.353 208.334 416.893 207.843 416.551C207.352 416.21 206.808 416.039 206.209 416.039C205.603 416.039 205.055 416.22 204.564 416.58C204.073 416.941 203.68 417.432 203.384 418.053C203.089 418.675 202.933 419.376 202.918 420.159V420.205C202.918 420.976 203.052 421.686 203.321 422.334C203.593 422.978 203.988 423.494 204.506 423.882C205.024 424.269 205.653 424.463 206.393 424.463C206.938 424.463 207.395 424.367 207.763 424.175C208.135 423.983 208.432 423.763 208.655 423.513C208.881 423.264 209.048 423.051 209.155 422.875L209.454 423.082C209.324 423.304 209.128 423.552 208.868 423.824C208.607 424.096 208.273 424.332 207.866 424.532C207.46 424.731 206.969 424.831 206.393 424.831ZM220.026 415.809V416.177H216.527V415.809H220.026ZM217.747 424.647V414.359C217.747 413.945 217.839 413.586 218.023 413.283C218.211 412.98 218.459 412.746 218.765 412.581C219.076 412.416 219.412 412.334 219.772 412.334C219.91 412.334 220.035 412.345 220.146 412.368C220.258 412.391 220.367 412.422 220.474 412.46L220.359 412.806C220.263 412.775 220.169 412.75 220.077 412.731C219.985 412.712 219.884 412.702 219.772 412.702C219.331 412.702 218.944 412.85 218.61 413.145C218.28 413.441 218.115 413.845 218.115 414.359L218.104 424.647H217.747ZM225.118 424.831C224.423 424.831 223.8 424.632 223.248 424.233C222.695 423.83 222.258 423.283 221.936 422.593C221.617 421.899 221.458 421.118 221.458 420.251C221.458 419.38 221.617 418.6 221.936 417.909C222.258 417.219 222.695 416.674 223.248 416.275C223.8 415.872 224.423 415.671 225.118 415.671C225.812 415.671 226.433 415.872 226.982 416.275C227.534 416.678 227.971 417.225 228.294 417.915C228.616 418.605 228.777 419.384 228.777 420.251C228.777 421.118 228.616 421.899 228.294 422.593C227.975 423.283 227.54 423.83 226.988 424.233C226.435 424.632 225.812 424.831 225.118 424.831ZM225.118 424.463C225.743 424.463 226.303 424.279 226.798 423.91C227.296 423.542 227.69 423.04 227.977 422.403C228.265 421.766 228.409 421.049 228.409 420.251C228.409 419.453 228.263 418.738 227.971 418.105C227.684 417.468 227.293 416.966 226.798 416.597C226.303 416.225 225.743 416.039 225.118 416.039C224.496 416.039 223.936 416.225 223.438 416.597C222.943 416.966 222.55 417.468 222.258 418.105C221.97 418.738 221.826 419.453 221.826 420.251C221.826 421.049 221.97 421.766 222.258 422.403C222.546 423.04 222.937 423.542 223.432 423.91C223.93 424.279 224.492 424.463 225.118 424.463ZM231.371 424.647V415.809H231.739V417.213H231.785C231.992 416.753 232.331 416.385 232.803 416.108C233.279 415.832 233.822 415.694 234.432 415.694C234.478 415.694 234.508 415.694 234.524 415.694C234.539 415.694 234.57 415.694 234.616 415.694V416.062C234.57 416.062 234.539 416.062 234.524 416.062C234.508 416.062 234.478 416.062 234.432 416.062C233.91 416.062 233.446 416.175 233.039 416.402C232.636 416.628 232.318 416.941 232.084 417.34C231.854 417.739 231.739 418.195 231.739 418.709V424.647H231.371ZM240.552 412.863L244.603 424.187H244.649L248.699 412.863H249.091L244.879 424.647H244.373L240.161 412.863H240.552ZM251.227 424.647V415.809H251.595V424.647H251.227ZM251.411 414.198C251.311 414.198 251.225 414.162 251.152 414.089C251.079 414.016 251.043 413.93 251.043 413.83C251.043 413.73 251.079 413.644 251.152 413.571C251.225 413.498 251.311 413.462 251.411 413.462C251.511 413.462 251.597 413.498 251.67 413.571C251.743 413.644 251.779 413.73 251.779 413.83C251.779 413.93 251.743 414.016 251.67 414.089C251.597 414.162 251.511 414.198 251.411 414.198ZM257.534 415.809V416.177H254.036V415.809H257.534ZM255.325 413.692H255.693V422.783C255.693 423.128 255.77 423.425 255.923 423.675C256.077 423.92 256.28 424.11 256.533 424.244C256.786 424.375 257.059 424.44 257.35 424.44C257.461 424.44 257.563 424.43 257.655 424.411C257.751 424.392 257.849 424.363 257.949 424.325L258.064 424.67C257.949 424.712 257.835 424.745 257.724 424.768C257.613 424.795 257.488 424.808 257.35 424.808C256.99 424.808 256.654 424.726 256.343 424.561C256.036 424.396 255.789 424.162 255.601 423.859C255.417 423.556 255.325 423.197 255.325 422.783V413.692ZM262.615 424.831C262.132 424.831 261.685 424.731 261.274 424.532C260.868 424.332 260.54 424.041 260.29 423.657C260.045 423.274 259.922 422.806 259.922 422.253C259.922 421.954 259.97 421.674 260.066 421.413C260.162 421.149 260.331 420.909 260.572 420.694C260.814 420.479 261.151 420.295 261.585 420.142C262.022 419.988 262.58 419.871 263.259 419.791C263.666 419.745 264.049 419.691 264.41 419.63C264.771 419.568 265.064 419.476 265.29 419.353C265.517 419.231 265.63 419.054 265.63 418.824V418.295C265.63 417.616 265.402 417.071 264.945 416.661C264.489 416.246 263.881 416.039 263.121 416.039C262.5 416.039 261.957 416.177 261.493 416.454C261.029 416.726 260.705 417.109 260.52 417.604L260.175 417.466C260.313 417.098 260.526 416.78 260.814 416.511C261.102 416.243 261.443 416.035 261.838 415.89C262.233 415.744 262.661 415.671 263.121 415.671C263.57 415.671 263.971 415.738 264.324 415.872C264.68 416.003 264.983 416.187 265.233 416.425C265.482 416.659 265.672 416.935 265.802 417.253C265.933 417.572 265.998 417.919 265.998 418.295V424.647H265.63V422.852H265.584C265.4 423.251 265.16 423.6 264.865 423.899C264.573 424.194 264.236 424.424 263.852 424.589C263.472 424.75 263.06 424.831 262.615 424.831ZM262.615 424.463C263.175 424.463 263.683 424.313 264.14 424.014C264.596 423.711 264.959 423.291 265.227 422.754C265.496 422.213 265.63 421.586 265.63 420.872V419.538C265.522 419.618 265.392 419.689 265.239 419.75C265.089 419.812 264.918 419.867 264.726 419.917C264.539 419.963 264.333 420.004 264.111 420.038C263.888 420.073 263.651 420.105 263.397 420.136C262.607 420.228 261.986 420.368 261.533 420.556C261.081 420.744 260.76 420.98 260.572 421.264C260.384 421.548 260.29 421.877 260.29 422.253C260.29 422.921 260.513 423.456 260.958 423.859C261.407 424.261 261.959 424.463 262.615 424.463ZM269.54 412.863V424.647H269.171V412.863H269.54ZM272.714 424.647V415.809H273.082V424.647H272.714ZM272.898 414.198C272.799 414.198 272.712 414.162 272.639 414.089C272.566 414.016 272.53 413.93 272.53 413.83C272.53 413.73 272.566 413.644 272.639 413.571C272.712 413.498 272.799 413.462 272.898 413.462C272.998 413.462 273.084 413.498 273.157 413.571C273.23 413.644 273.267 413.73 273.267 413.83C273.267 413.93 273.23 414.016 273.157 414.089C273.084 414.162 272.998 414.198 272.898 414.198ZM279.022 415.809V416.177H275.523V415.809H279.022ZM276.812 413.692H277.181V422.783C277.181 423.128 277.257 423.425 277.411 423.675C277.564 423.92 277.767 424.11 278.021 424.244C278.274 424.375 278.546 424.44 278.838 424.44C278.949 424.44 279.05 424.43 279.143 424.411C279.238 424.392 279.336 424.363 279.436 424.325L279.551 424.67C279.436 424.712 279.323 424.745 279.212 424.768C279.1 424.795 278.976 424.808 278.838 424.808C278.477 424.808 278.141 424.726 277.831 424.561C277.524 424.396 277.276 424.162 277.088 423.859C276.904 423.556 276.812 423.197 276.812 422.783V413.692ZM282.296 427.961C282.146 427.961 281.987 427.94 281.818 427.898C281.649 427.859 281.479 427.804 281.306 427.731L281.444 427.409C281.824 427.57 282.169 427.627 282.48 427.581C282.794 427.539 283.07 427.395 283.308 427.15C283.55 426.904 283.749 426.561 283.907 426.12L284.378 424.808L281.156 415.809H281.548L284.54 424.187H284.586L287.578 415.809H287.969L284.252 426.258C284.121 426.626 283.958 426.937 283.763 427.19C283.567 427.443 283.345 427.635 283.095 427.765C282.85 427.896 282.583 427.961 282.296 427.961Z" fill="white"/>
<path d="M386.289 423.209V422.765C386.544 422.765 386.72 422.715 386.819 422.613C386.917 422.512 386.966 422.348 386.966 422.121V421.634C386.966 421.362 387.004 421.144 387.079 420.981C387.155 420.816 387.261 420.692 387.396 420.608C387.533 420.524 387.695 420.468 387.882 420.44C388.068 420.413 388.273 420.399 388.495 420.399V421.1C388.321 421.1 388.189 421.123 388.098 421.168C388.008 421.213 387.947 421.282 387.915 421.376C387.882 421.468 387.866 421.586 387.866 421.729V422.373C387.866 422.485 387.846 422.591 387.805 422.693C387.763 422.793 387.687 422.882 387.575 422.96C387.463 423.036 387.304 423.097 387.096 423.143C386.889 423.187 386.62 423.209 386.289 423.209ZM388.495 425.982C388.273 425.982 388.068 425.968 387.882 425.94C387.695 425.912 387.533 425.856 387.396 425.772C387.261 425.688 387.155 425.564 387.079 425.399C387.004 425.236 386.966 425.018 386.966 424.746V424.257C386.966 424.03 386.917 423.866 386.819 423.765C386.72 423.663 386.544 423.613 386.289 423.613V423.169C386.62 423.169 386.889 423.192 387.096 423.238C387.304 423.282 387.463 423.343 387.575 423.421C387.687 423.497 387.763 423.586 387.805 423.688C387.846 423.788 387.866 423.894 387.866 424.007V424.651C387.866 424.793 387.882 424.91 387.915 425.002C387.947 425.096 388.008 425.165 388.098 425.21C388.189 425.255 388.321 425.278 388.495 425.278V425.982ZM386.289 423.613V422.765H387.081V423.613H386.289ZM390.66 420.9H395.68V421.627H390.66V420.9ZM390.99 422.708H395.381V423.428H390.99V422.708ZM390.393 424.634H395.984V425.366H390.393V424.634ZM392.772 421.534H393.592V425.025H392.772V421.534ZM392.22 420.142L392.835 419.714C393.232 419.969 393.766 420.372 394.033 420.664L393.375 421.143C393.139 420.857 392.63 420.434 392.22 420.142ZM399.413 421.074H401.854V421.789H399.413V421.074ZM401.469 421.074H402.202C402.202 421.074 402.196 421.323 402.196 421.41C402.127 423.932 402.065 424.845 401.854 425.137C401.705 425.348 401.562 425.416 401.338 425.453C401.14 425.491 400.823 425.491 400.506 425.478C400.487 425.267 400.407 424.95 400.276 424.745C400.574 424.776 400.841 424.776 400.978 424.776C401.078 424.776 401.14 424.752 401.208 424.671C401.357 424.484 401.419 423.596 401.469 421.236V421.074ZM400.121 419.838H400.854C400.848 422.254 400.823 424.335 399.593 425.553C399.469 425.366 399.226 425.106 399.034 424.981C400.152 423.913 400.115 422.068 400.121 419.838ZM396.785 420.205H399.233V420.863H396.785V420.205ZM396.58 421.652H399.338V422.323H396.58V421.652ZM398.369 422.888L398.966 422.72C399.195 423.242 399.456 423.938 399.556 424.366L398.91 424.571C398.823 424.143 398.587 423.428 398.369 422.888ZM396.854 424.882L396.779 424.255L397.096 424.019L399.102 423.546C399.121 423.745 399.171 424.025 399.208 424.18C397.332 424.665 397.04 424.764 396.854 424.882ZM396.847 424.882C396.81 424.739 396.692 424.397 396.611 424.217C396.729 424.174 396.816 424.031 396.922 423.801C397.015 423.584 397.301 422.72 397.431 421.938L398.164 422.149C397.978 422.963 397.642 423.863 397.332 424.484V424.497C397.332 424.497 396.847 424.745 396.847 424.882ZM406.507 419.77H407.184V424.658H406.507V419.77ZM405.326 421.049H408.544V421.59H405.326V421.049ZM405.5 423.553H408.426V424.093H405.5V423.553ZM405.656 422.708H408.271V423.248H405.656V422.708ZM404.177 420.223H405.041V420.82H404.177V420.223ZM404.494 421.931H405.177V422.472H404.494V421.931ZM404.873 420.223H404.96L405.065 420.198L405.531 420.316C405.277 421.025 404.879 421.975 404.55 422.727L403.941 422.584C404.277 421.838 404.68 420.826 404.873 420.298V420.223ZM404.997 421.931H405.115L405.233 421.919L405.624 421.981C405.5 423.733 405.103 424.894 404.264 425.547C404.177 425.385 403.991 425.124 403.854 424.994C404.531 424.515 404.904 423.41 404.997 422.037V421.931ZM404.531 422.857C404.867 424.491 405.662 424.814 406.836 424.82C407.122 424.82 408.24 424.82 408.594 424.801C408.494 424.963 408.395 425.28 408.358 425.472H406.799C405.314 425.472 404.419 425.043 403.972 423.018L404.531 422.857ZM405.73 420.229H408.233V422.416H405.73V421.876H407.606V420.77H405.73V420.229ZM403.68 419.745L404.345 419.944C404.022 420.975 403.488 422.093 402.898 422.807C402.848 422.633 402.674 422.199 402.568 422.006C403.028 421.447 403.438 420.602 403.68 419.745ZM403.258 421.54L403.898 420.9L403.91 420.913V425.553H403.258V421.54ZM410.209 421.994H414.725V422.515H410.209V421.994ZM410.575 421.211H414.166V423.31H410.507V422.813H413.464V421.714H410.575V421.211ZM411.88 420.851H412.594V424.826C412.594 425.199 412.513 425.36 412.271 425.46C412.029 425.559 411.675 425.571 411.159 425.571C411.128 425.391 411.035 425.118 410.936 424.944C411.259 424.957 411.631 424.957 411.737 424.95C411.842 424.95 411.88 424.919 411.88 424.82V420.851ZM410.209 423.689L410.613 423.292C410.917 423.435 411.314 423.677 411.519 423.851L411.085 424.292C410.904 424.112 410.513 423.857 410.209 423.689ZM413.93 423.335L414.476 423.776C414.085 424.031 413.631 424.292 413.277 424.447L412.861 424.074C413.197 423.894 413.662 423.571 413.93 423.335ZM412.712 423.155C413.023 423.981 413.669 424.621 414.625 424.894C414.47 425.031 414.271 425.304 414.172 425.491C413.159 425.124 412.52 424.348 412.153 423.286L412.712 423.155ZM409.948 424.739C410.358 424.609 410.973 424.379 411.575 424.149L411.706 424.683C411.227 424.913 410.712 425.143 410.296 425.329L409.948 424.739ZM411.625 419.726H412.401V420.602H411.625V419.726ZM409.743 420.26H414.65V420.906H409.743V420.26ZM409.389 420.26H410.097V422.062C410.097 423.081 410.004 424.615 409.445 425.584C409.314 425.46 409.004 425.248 408.836 425.18C409.352 424.286 409.389 422.987 409.389 422.062V420.26ZM418.71 423.169V423.613C418.457 423.613 418.281 423.663 418.181 423.765C418.082 423.866 418.033 424.03 418.033 424.257V424.746C418.033 425.018 417.995 425.236 417.918 425.399C417.843 425.564 417.738 425.688 417.601 425.772C417.466 425.856 417.304 425.912 417.118 425.94C416.932 425.968 416.728 425.982 416.504 425.982V425.278C416.678 425.278 416.81 425.255 416.899 425.21C416.991 425.165 417.052 425.096 417.085 425.002C417.117 424.91 417.133 424.793 417.133 424.651V424.007C417.133 423.894 417.154 423.788 417.195 423.688C417.236 423.586 417.313 423.497 417.424 423.421C417.536 423.343 417.696 423.282 417.903 423.238C418.11 423.192 418.379 423.169 418.71 423.169ZM416.504 420.399C416.728 420.399 416.932 420.413 417.118 420.44C417.304 420.468 417.466 420.524 417.601 420.608C417.738 420.692 417.843 420.816 417.918 420.981C417.995 421.144 418.033 421.362 418.033 421.634V422.121C418.033 422.348 418.082 422.512 418.181 422.613C418.281 422.715 418.457 422.765 418.71 422.765V423.209C418.379 423.209 418.11 423.187 417.903 423.143C417.696 423.097 417.536 423.036 417.424 422.96C417.313 422.882 417.236 422.793 417.195 422.693C417.154 422.591 417.133 422.485 417.133 422.373V421.729C417.133 421.586 417.117 421.468 417.085 421.376C417.052 421.282 416.991 421.213 416.899 421.168C416.81 421.123 416.678 421.1 416.504 421.1V420.399ZM418.71 422.765V423.613H417.918V422.765H418.71Z" fill="white"/>
<path d="M432.847 420.08H435.885V420.788H432.847V420.08ZM434.425 422.012H435.189V424.696C435.189 425.093 435.108 425.304 434.835 425.422C434.568 425.534 434.176 425.54 433.617 425.54C433.592 425.323 433.493 425 433.394 424.783C433.748 424.801 434.158 424.801 434.269 424.801C434.387 424.795 434.425 424.77 434.425 424.677V422.012ZM432.58 421.801H436.046V422.509H432.58V421.801ZM431.188 422.534L431.841 421.882L431.934 421.919V425.565H431.188V422.534ZM431.89 421.08L432.599 421.348C432.108 422.174 431.344 423.043 430.679 423.59C430.574 423.435 430.319 423.099 430.17 422.95C430.803 422.503 431.48 421.782 431.89 421.08ZM431.654 419.726L432.369 420.018C431.915 420.608 431.244 421.254 430.654 421.664C430.555 421.497 430.362 421.205 430.238 421.056C430.754 420.72 431.35 420.161 431.654 419.726ZM436.742 421.18H441.494V421.931H436.742V421.18ZM441.177 421.18H441.966C441.966 421.18 441.96 421.428 441.953 421.534C441.873 423.932 441.792 424.826 441.543 425.137C441.369 425.373 441.189 425.441 440.928 425.478C440.692 425.516 440.307 425.509 439.928 425.497C439.916 425.273 439.81 424.938 439.667 424.714C440.053 424.752 440.413 424.752 440.574 424.752C440.699 424.752 440.767 424.727 440.848 424.652C441.034 424.46 441.115 423.534 441.177 421.323V421.18ZM438.674 419.739H439.431V420.583C439.431 421.95 439.257 424.087 437.183 425.447C437.059 425.273 436.773 425.012 436.593 424.888C438.525 423.683 438.674 421.782 438.674 420.577V419.739ZM437.127 420.142L437.779 419.882C438.009 420.155 438.282 420.546 438.4 420.807L437.705 421.105C437.605 420.851 437.35 420.447 437.127 420.142ZM439.282 422.801L439.91 422.509C440.183 422.857 440.518 423.335 440.661 423.652L439.997 423.981C439.866 423.664 439.549 423.168 439.282 422.801ZM443.276 421.838H444.724V422.509H443.276V421.838ZM442.873 420.198H445.165V422.72H444.444V420.888H442.873V420.198ZM442.873 421.838H443.593V423.739C443.593 423.963 443.631 423.987 443.854 423.987C443.954 423.987 444.364 423.987 444.488 423.987C444.68 423.987 444.718 423.901 444.742 423.335C444.892 423.453 445.202 423.571 445.407 423.621C445.32 424.466 445.121 424.689 444.556 424.689C444.407 424.689 443.891 424.689 443.749 424.689C443.065 424.689 442.873 424.484 442.873 423.751V421.838ZM445.941 420.813H448.525V421.521H445.941V420.813ZM445.991 419.732L446.767 419.869C446.519 421.018 446.084 422.099 445.525 422.77C445.382 422.64 445.053 422.404 444.867 422.292C445.42 421.714 445.798 420.745 445.991 419.732ZM447.345 421.118L448.103 421.198C447.786 423.491 447.01 424.832 445.208 425.59C445.134 425.416 444.904 425.087 444.761 424.925C446.438 424.323 447.103 423.149 447.345 421.118ZM446.277 421.372C446.581 423.012 447.252 424.323 448.619 424.888C448.451 425.037 448.215 425.342 448.103 425.547C446.631 424.845 445.966 423.416 445.593 421.49L446.277 421.372ZM450.687 420.757H451.439V422.702H450.687V420.757ZM449.115 420.323H454.513V420.981H449.115V420.323ZM449.88 421.13L450.544 421.304C450.339 421.782 449.985 422.261 449.662 422.565C449.525 422.447 449.246 422.261 449.084 422.174C449.414 421.913 449.712 421.515 449.88 421.13ZM452.905 421.478L453.445 421.13C453.843 421.428 454.296 421.863 454.52 422.155L453.954 422.559C453.725 422.248 453.277 421.782 452.905 421.478ZM451.271 419.819L452.004 419.652C452.134 419.863 452.29 420.155 452.364 420.341L451.6 420.534C451.538 420.347 451.389 420.043 451.271 419.819ZM452.172 420.689H452.923V422.702H452.172V420.689ZM450.532 423.168C451.246 424.186 452.762 424.752 454.7 424.919C454.551 425.081 454.371 425.379 454.277 425.571C452.277 425.348 450.799 424.683 449.904 423.428L450.532 423.168ZM449.476 422.845H453.371V423.491H449.476V422.845ZM453.24 422.845H453.389L453.513 422.813L453.985 423.136C453.147 424.634 451.296 425.298 449.302 425.571C449.246 425.385 449.072 425.068 448.948 424.913C450.892 424.727 452.6 424.168 453.24 422.956V422.845Z" fill="white"/>
<path d="M351.17 422.919H355.245V425.553H354.474V423.509H351.903V425.553H351.17V422.919ZM351.611 423.851H354.735V424.391H351.611V423.851ZM351.07 420.192H353.04V420.77H351.07V420.192ZM350.331 421.18H353.189V421.764H350.331V421.18ZM351.611 424.758H354.735V425.348H351.611V424.758ZM351.53 420.366H352.232V421.049C352.232 421.683 351.996 422.54 350.735 423.118C350.636 422.969 350.424 422.739 350.257 422.621C351.425 422.174 351.53 421.497 351.53 421.043V420.366ZM350.959 419.689L351.623 419.819C351.468 420.378 351.182 420.913 350.865 421.254C350.729 421.149 350.443 420.981 350.282 420.906C350.598 420.608 350.841 420.149 350.959 419.689ZM352.114 421.733C352.338 421.838 353.033 422.236 353.213 422.354L352.679 422.826C352.437 422.621 351.89 422.217 351.611 422.037L352.114 421.733ZM354.089 420.838V421.888H355.04V420.838H354.089ZM353.4 420.18H355.773V422.553H353.4V420.18ZM357.413 419.695L358.189 419.863C357.965 420.434 357.686 421.043 357.45 421.441L356.804 421.273C357.027 420.851 357.282 420.192 357.413 419.695ZM356.475 420.969C357.145 420.95 358.152 420.906 359.115 420.863L359.108 421.509C358.195 421.577 357.239 421.633 356.531 421.677L356.475 420.969ZM356.841 421.969H358.816V422.584H357.531V425.553H356.841V421.969ZM358.462 421.969H359.202V424.807C359.202 425.124 359.139 425.311 358.928 425.422C358.711 425.534 358.431 425.547 358.052 425.547C358.015 425.348 357.91 425.062 357.816 424.882C358.034 424.894 358.282 424.894 358.363 424.888C358.438 424.888 358.462 424.87 358.462 424.789V421.969ZM357.158 422.907H358.879V423.459H357.158V422.907ZM357.158 423.82H358.879V424.373H357.158V423.82ZM359.686 419.751H360.431V421.615C360.431 421.832 360.469 421.863 360.705 421.863C360.804 421.863 361.251 421.863 361.382 421.863C361.587 421.863 361.624 421.77 361.649 421.223C361.804 421.341 362.109 421.453 362.314 421.497C362.233 422.304 362.034 422.528 361.456 422.528C361.301 422.528 360.742 422.528 360.599 422.528C359.866 422.528 359.686 422.317 359.686 421.627V419.751ZM361.55 420.118L362.022 420.658C361.469 420.925 360.748 421.161 360.133 421.329C360.102 421.18 360.003 420.956 359.922 420.813C360.5 420.633 361.14 420.354 361.55 420.118ZM359.686 422.652H360.425V424.609C360.425 424.838 360.469 424.863 360.711 424.863C360.817 424.863 361.283 424.863 361.419 424.863C361.637 424.863 361.674 424.752 361.705 424.118C361.86 424.23 362.158 424.348 362.363 424.391C362.283 425.267 362.084 425.516 361.487 425.516C361.332 425.516 360.755 425.516 360.605 425.516C359.872 425.516 359.686 425.304 359.686 424.615V422.652ZM361.599 422.913L362.084 423.459C361.519 423.764 360.767 424.025 360.127 424.205C360.09 424.062 359.984 423.826 359.91 423.683C360.512 423.491 361.177 423.186 361.599 422.913ZM358.257 420.378L358.891 420.142C359.195 420.59 359.518 421.18 359.636 421.59L358.959 421.863C358.854 421.466 358.556 420.844 358.257 420.378ZM363.121 420.254L363.599 419.801C363.935 420.074 364.388 420.484 364.6 420.751L364.096 421.267C363.898 420.987 363.457 420.552 363.121 420.254ZM363.519 425.472L363.351 424.82L363.481 424.59L364.711 423.553C364.773 423.751 364.898 424.031 364.991 424.174C363.836 425.149 363.631 425.323 363.519 425.472ZM362.711 421.639H363.836V422.354H362.711V421.639ZM365.593 419.925H367.283V420.615H365.593V419.925ZM364.86 422.422H367.693V423.118H364.86V422.422ZM367.469 422.422H367.6L367.73 422.397L368.184 422.59C367.674 424.348 366.42 425.162 364.773 425.547C364.711 425.36 364.562 425.062 364.438 424.901C365.916 424.64 367.078 423.894 367.469 422.528V422.422ZM365.674 422.994C366.165 423.969 367.177 424.646 368.55 424.907C368.395 425.062 368.196 425.366 368.103 425.565C366.649 425.224 365.662 424.422 365.053 423.205L365.674 422.994ZM365.413 419.925H366.109V420.621C366.109 421.248 365.91 421.944 365.022 422.354C364.935 422.211 364.668 421.919 364.531 421.807C365.314 421.478 365.413 421.025 365.413 420.602V419.925ZM366.941 419.925H367.643V421.285C367.643 421.466 367.656 421.54 367.749 421.54C367.811 421.54 367.997 421.54 368.072 421.54C368.165 421.54 368.32 421.521 368.407 421.497C368.42 421.683 368.438 421.944 368.463 422.112C368.37 422.155 368.221 422.161 368.078 422.161C367.985 422.161 367.768 422.161 367.681 422.161C367.066 422.161 366.941 421.9 366.941 421.279V419.925ZM363.519 425.472C363.463 425.298 363.27 424.981 363.146 424.845C363.283 424.745 363.457 424.522 363.457 424.23V421.639H364.177V424.745C364.177 424.745 363.519 425.205 363.519 425.472ZM369.426 420.267L369.898 419.788C370.246 420.055 370.724 420.441 370.948 420.708L370.445 421.248C370.24 420.981 369.774 420.559 369.426 420.267ZM369.88 425.534L369.706 424.807L369.873 424.565L371.246 423.602C371.29 423.814 371.401 424.137 371.482 424.286C370.221 425.199 369.998 425.379 369.88 425.534ZM368.948 421.639H370.333V422.379H368.948V421.639ZM370.985 421.683H374.718V422.459H370.985V421.683ZM372.482 419.751H373.284V425.559H372.482V419.751ZM369.88 425.534C369.817 425.335 369.637 424.994 369.507 424.838C369.656 424.745 369.848 424.534 369.848 424.255V421.639H370.613V424.814C370.613 424.814 369.88 425.261 369.88 425.534Z" fill="white"/>
<rect x="3.24121" y="386.292" width="4.05065" height="38.8862" fill="#D9D9D9"/>
<path d="M381 418V427.455" stroke="white" stroke-width="0.30015"/>
<path d="M424 417.958V427.413" stroke="white" stroke-width="0.30015"/>
</svg>
