<svg width="460" height="469" viewBox="0 0 460 469" fill="none" xmlns="http://www.w3.org/2000/svg">
<path d="M17.3293 365.958H3.41219V326.699H17.4443C21.3933 326.699 24.7927 327.485 27.6426 329.056C30.4925 330.616 32.6842 332.858 34.2178 335.785C35.7641 338.712 36.5373 342.213 36.5373 346.29C36.5373 350.379 35.7641 353.894 34.2178 356.833C32.6842 359.773 30.4797 362.028 27.6042 363.6C24.7416 365.172 21.3166 365.958 17.3293 365.958ZM11.7126 358.846H16.9843C19.438 358.846 21.5019 358.412 23.1761 357.543C24.863 356.661 26.1282 355.3 26.9716 353.459C27.8279 351.606 28.256 349.217 28.256 346.29C28.256 343.389 27.8279 341.018 26.9716 339.178C26.1282 337.338 24.8694 335.983 23.1952 335.114C21.5211 334.245 19.4572 333.811 17.0034 333.811H11.7126V358.846ZM50.9864 326.699V365.958H42.6859V326.699H50.9864ZM64.9083 326.699L74.3973 356.527H74.7615L84.2696 326.699H93.471L79.9373 365.958H69.2407L55.6877 326.699H64.9083ZM112.492 365.958V326.699H116.077V362.738H134.786V365.958H112.492ZM145.392 365.958H141.635L155.916 326.699H159.75L174.031 365.958H170.274L157.967 331.357H157.699L145.392 365.958ZM148.095 350.91H167.571V354.13H148.095V350.91ZM180.76 365.958V326.699H194.006C196.562 326.699 198.69 327.146 200.39 328.041C202.102 328.935 203.386 330.156 204.243 331.702C205.099 333.248 205.527 335.005 205.527 336.974C205.527 338.609 205.252 340.009 204.703 341.172C204.153 342.335 203.406 343.274 202.46 343.99C201.514 344.705 200.46 345.223 199.297 345.542V345.849C200.562 345.939 201.789 346.386 202.977 347.191C204.166 347.983 205.144 349.095 205.91 350.526C206.677 351.958 207.061 353.67 207.061 355.664C207.061 357.645 206.62 359.415 205.738 360.974C204.856 362.52 203.501 363.741 201.674 364.635C199.859 365.517 197.546 365.958 194.735 365.958H180.76ZM184.345 362.738H194.735C197.763 362.738 200 362.067 201.444 360.725C202.901 359.383 203.629 357.696 203.629 355.664C203.629 354.169 203.265 352.814 202.537 351.6C201.821 350.373 200.805 349.402 199.489 348.686C198.185 347.971 196.651 347.613 194.888 347.613H184.345V362.738ZM184.345 344.431H194.332C195.878 344.431 197.233 344.111 198.396 343.472C199.559 342.833 200.466 341.951 201.118 340.827C201.77 339.702 202.096 338.418 202.096 336.974C202.096 334.89 201.418 333.197 200.064 331.894C198.709 330.577 196.69 329.919 194.006 329.919H184.345V344.431Z" fill="white"/>
<path d="M430.344 55.8323V54.5748L433.282 51.8542C433.532 51.6124 433.742 51.3947 433.911 51.2013C434.083 51.0078 434.213 50.8184 434.302 50.633C434.391 50.4449 434.435 50.242 434.435 50.0244C434.435 49.7825 434.38 49.5743 434.27 49.3996C434.159 49.2223 434.009 49.0866 433.818 48.9926C433.627 48.8958 433.411 48.8475 433.169 48.8475C432.917 48.8475 432.696 48.8985 432.508 49.0006C432.32 49.1027 432.175 49.2492 432.073 49.4399C431.971 49.6307 431.92 49.8578 431.92 50.1211H430.263C430.263 49.581 430.386 49.1121 430.63 48.7144C430.875 48.3168 431.217 48.0091 431.658 47.7915C432.098 47.5738 432.606 47.465 433.181 47.465C433.772 47.465 434.287 47.5698 434.725 47.7794C435.166 47.9863 435.508 48.2738 435.753 48.6419C435.997 49.01 436.12 49.4319 436.12 49.9075C436.12 50.2192 436.058 50.5268 435.934 50.8305C435.813 51.1341 435.597 51.4713 435.285 51.8421C434.974 52.2102 434.534 52.6523 433.967 53.1682L432.762 54.3491V54.4055H436.228V55.8323H430.344ZM440.729 56.0137C440.036 56.011 439.44 55.8404 438.94 55.5018C438.443 55.1633 438.06 54.6729 437.791 54.0307C437.525 53.3885 437.394 52.616 437.396 51.7132C437.396 50.813 437.529 50.0459 437.795 49.4117C438.064 48.7776 438.447 48.2953 438.944 47.9648C439.444 47.6316 440.039 47.465 440.729 47.465C441.42 47.465 442.014 47.6316 442.511 47.9648C443.011 48.298 443.395 48.7816 443.664 49.4158C443.932 50.0472 444.065 50.813 444.063 51.7132C444.063 52.6187 443.928 53.3925 443.66 54.0347C443.394 54.6769 443.012 55.1673 442.515 55.5059C442.018 55.8444 441.423 56.0137 440.729 56.0137ZM440.729 54.5668C441.202 54.5668 441.58 54.329 441.862 53.8534C442.144 53.3778 442.284 52.6644 442.281 51.7132C442.281 51.0871 442.217 50.5658 442.088 50.1493C441.961 49.7328 441.781 49.4198 441.548 49.2102C441.317 49.0006 441.044 48.8958 440.729 48.8958C440.259 48.8958 439.883 49.1309 439.601 49.6012C439.319 50.0714 439.176 50.7754 439.174 51.7132C439.174 52.3473 439.237 52.8766 439.363 53.3012C439.492 53.723 439.674 54.0401 439.907 54.2524C440.141 54.462 440.415 54.5668 440.729 54.5668ZM445.307 55.8323V54.5748L448.245 51.8542C448.495 51.6124 448.705 51.3947 448.874 51.2013C449.046 51.0078 449.176 50.8184 449.265 50.633C449.354 50.4449 449.398 50.242 449.398 50.0244C449.398 49.7825 449.343 49.5743 449.233 49.3996C449.123 49.2223 448.972 49.0866 448.781 48.9926C448.591 48.8958 448.374 48.8475 448.133 48.8475C447.88 48.8475 447.66 48.8985 447.472 49.0006C447.283 49.1027 447.138 49.2492 447.036 49.4399C446.934 49.6307 446.883 49.8578 446.883 50.1211H445.227C445.227 49.581 445.349 49.1121 445.593 48.7144C445.838 48.3168 446.18 48.0091 446.621 47.7915C447.062 47.5738 447.57 47.465 448.145 47.465C448.736 47.465 449.25 47.5698 449.688 47.7794C450.129 47.9863 450.472 48.2738 450.716 48.6419C450.961 49.01 451.083 49.4319 451.083 49.9075C451.083 50.2192 451.021 50.5268 450.897 50.8305C450.777 51.1341 450.56 51.4713 450.249 51.8421C449.937 52.2102 449.498 52.6523 448.931 53.1682L447.725 54.3491V54.4055H451.192V55.8323H445.307ZM452.154 54.3814V53.0069L455.6 47.5778H456.785V49.4802H456.084L453.911 52.9183V52.9828H458.808V54.3814H452.154ZM456.116 55.8323V53.9622L456.148 53.3536V47.5778H457.785V55.8323H456.116Z" fill="white"/>
<path d="M430.809 39.1575H456.913" stroke="white" stroke-width="1.13499"/>
<path d="M417.987 13H415.061V4.74551H418.011C418.841 4.74551 419.556 4.91076 420.155 5.24126C420.755 5.56907 421.215 6.04064 421.538 6.65597C421.863 7.27129 422.025 8.00754 422.025 8.86469C422.025 9.72453 421.863 10.4635 421.538 11.0815C421.215 11.6995 420.752 12.1737 420.147 12.5042C419.545 12.8347 418.825 13 417.987 13ZM416.806 11.5047H417.914C418.43 11.5047 418.864 11.4133 419.216 11.2306C419.571 11.0452 419.837 10.759 420.014 10.3721C420.194 9.98249 420.284 9.48002 420.284 8.86469C420.284 8.25474 420.194 7.7563 420.014 7.36937C419.837 6.98244 419.572 6.69762 419.22 6.5149C418.868 6.33218 418.434 6.24083 417.918 6.24083H416.806V11.5047ZM423.318 13V4.74551H428.88V6.1844H425.063V8.15129H428.594V9.59018H425.063V11.5611H428.897V13H423.318ZM434.746 7.11948C434.714 6.79435 434.575 6.54177 434.331 6.36174C434.086 6.18171 433.754 6.0917 433.335 6.0917C433.05 6.0917 432.81 6.132 432.614 6.21261C432.418 6.29054 432.267 6.39936 432.162 6.53908C432.06 6.67881 432.009 6.83734 432.009 7.01469C432.004 7.16247 432.035 7.29145 432.102 7.40161C432.172 7.51178 432.267 7.60717 432.388 7.68778C432.509 7.7657 432.649 7.83422 432.807 7.89334C432.966 7.94976 433.135 7.99813 433.315 8.03844L434.057 8.21578C434.417 8.29639 434.747 8.40387 435.048 8.53822C435.349 8.67257 435.61 8.83782 435.83 9.03397C436.05 9.23012 436.221 9.46121 436.342 9.72722C436.465 9.99324 436.529 10.2982 436.531 10.6421C436.529 11.1473 436.4 11.5853 436.144 11.9561C435.892 12.3242 435.526 12.6104 435.048 12.8146C434.572 13.0161 433.999 13.1169 433.327 13.1169C432.661 13.1169 432.08 13.0148 431.586 12.8106C431.094 12.6064 430.71 12.3041 430.433 11.9037C430.159 11.5006 430.015 11.0022 430.002 10.4084H431.691C431.709 10.6851 431.789 10.9162 431.928 11.1016C432.071 11.2843 432.26 11.4227 432.497 11.5168C432.736 11.6081 433.006 11.6538 433.307 11.6538C433.602 11.6538 433.859 11.6108 434.077 11.5248C434.297 11.4388 434.468 11.3193 434.589 11.1661C434.71 11.013 434.77 10.837 434.77 10.6381C434.77 10.4527 434.715 10.2969 434.605 10.1706C434.497 10.0443 434.339 9.93681 434.129 9.84814C433.922 9.75947 433.668 9.67886 433.367 9.60631L432.469 9.3806C431.773 9.21132 431.223 8.94665 430.82 8.58659C430.417 8.22653 430.217 7.74152 430.22 7.13157C430.217 6.63179 430.35 6.19515 430.619 5.82165C430.89 5.44816 431.262 5.15662 431.735 4.94703C432.208 4.73744 432.745 4.63265 433.347 4.63265C433.96 4.63265 434.495 4.73744 434.951 4.94703C435.411 5.15662 435.768 5.44816 436.023 5.82165C436.279 6.19515 436.41 6.62776 436.418 7.11948H434.746ZM439.45 4.74551V13H437.705V4.74551H439.45ZM446.36 7.41371C446.303 7.21755 446.224 7.04424 446.122 6.89377C446.02 6.74061 445.895 6.61163 445.747 6.50684C445.602 6.39936 445.435 6.31741 445.247 6.26098C445.062 6.20455 444.856 6.17634 444.631 6.17634C444.209 6.17634 443.838 6.28113 443.518 6.49072C443.201 6.7003 442.954 7.00528 442.777 7.40565C442.599 7.80332 442.511 8.28967 442.511 8.86469C442.511 9.43971 442.598 9.92875 442.773 10.3318C442.947 10.7349 443.194 11.0425 443.514 11.2548C443.834 11.4644 444.211 11.5692 444.647 11.5692C445.042 11.5692 445.379 11.4993 445.658 11.3596C445.941 11.2172 446.156 11.017 446.303 10.759C446.454 10.5011 446.529 10.1961 446.529 9.84411L446.884 9.8965H444.756V8.58256H448.21V9.62243C448.21 10.3479 448.057 10.9713 447.75 11.4926C447.444 12.0112 447.022 12.4115 446.485 12.6937C445.947 12.9731 445.332 13.1129 444.639 13.1129C443.865 13.1129 443.185 12.9422 442.599 12.601C442.013 12.257 441.557 11.7693 441.229 11.1379C440.904 10.5038 440.741 9.7514 440.741 8.88081C440.741 8.21175 440.838 7.61523 441.031 7.09126C441.228 6.56461 441.502 6.11857 441.854 5.75313C442.206 5.3877 442.615 5.1096 443.083 4.91882C443.55 4.72804 444.057 4.63265 444.602 4.63265C445.07 4.63265 445.505 4.70117 445.908 4.83821C446.311 4.97256 446.669 5.16334 446.98 5.41054C447.295 5.65775 447.551 5.95197 447.75 6.29322C447.949 6.63179 448.077 7.00528 448.133 7.41371H446.36ZM456.425 4.74551V13H454.918L451.326 7.80467H451.266V13H449.521V4.74551H451.052L454.615 9.93681H454.688V4.74551H456.425ZM301.125 21.7455V30H300.126V21.7455H301.125ZM309.675 21.7455V30H308.708L304.21 23.5189H304.129V30H303.129V21.7455H304.097L308.611 28.2427H308.691V21.7455H309.675ZM311.224 22.6322V21.7455H317.414V22.6322H314.819V30H313.819V22.6322H311.224ZM318.957 30V21.7455H323.939V22.6322H319.957V25.4213H323.681V26.308H319.957V29.1133H324.003V30H318.957ZM325.741 30V21.7455H326.74V29.1133H330.577V30H325.741ZM332.125 30V21.7455H333.124V29.1133H336.961V30H332.125ZM339.509 21.7455V30H338.509V21.7455H339.509ZM347.156 24.325C347.067 24.0536 346.95 23.8105 346.805 23.5955C346.663 23.3779 346.492 23.1925 346.293 23.0393C346.097 22.8861 345.874 22.7693 345.624 22.6886C345.374 22.608 345.1 22.5677 344.802 22.5677C344.313 22.5677 343.868 22.694 343.468 22.9466C343.067 23.1992 342.749 23.5713 342.512 24.0631C342.276 24.5548 342.158 25.158 342.158 25.8728C342.158 26.5875 342.277 27.1907 342.517 27.6825C342.756 28.1742 343.079 28.5463 343.488 28.7989C343.896 29.0515 344.356 29.1778 344.866 29.1778C345.339 29.1778 345.756 29.077 346.116 28.8755C346.479 28.6713 346.761 28.3838 346.962 28.013C347.166 27.6395 347.269 27.2001 347.269 26.695L347.575 26.7595H345.092V25.8728H348.236V26.7595C348.236 27.4393 348.091 28.0304 347.801 28.5329C347.513 29.0354 347.115 29.425 346.608 29.7017C346.102 29.9758 345.522 30.1129 344.866 30.1129C344.135 30.1129 343.493 29.9409 342.94 29.5969C342.389 29.253 341.959 28.764 341.65 28.1298C341.344 27.4957 341.19 26.7433 341.19 25.8728C341.19 25.2198 341.278 24.6327 341.452 24.1114C341.63 23.5875 341.88 23.1414 342.202 22.7733C342.525 22.4052 342.906 22.123 343.347 21.9269C343.787 21.7307 344.272 21.6327 344.802 21.6327C345.237 21.6327 345.643 21.6985 346.019 21.8301C346.398 21.9591 346.735 22.1432 347.031 22.3823C347.329 22.6188 347.578 22.9023 347.776 23.2328C347.975 23.5606 348.112 23.9247 348.187 24.325H347.156ZM349.948 30V21.7455H354.93V22.6322H350.947V25.4213H354.672V26.308H350.947V29.1133H354.994V30H349.948ZM363.277 21.7455V30H362.309L357.811 23.5189H357.731V30H356.731V21.7455H357.698L362.213 28.2427H362.293V21.7455H363.277ZM371.919 24.325H370.92C370.86 24.0375 370.757 23.7849 370.609 23.5673C370.464 23.3497 370.287 23.1669 370.077 23.0191C369.87 22.8687 369.641 22.7558 369.388 22.6806C369.135 22.6053 368.872 22.5677 368.598 22.5677C368.098 22.5677 367.645 22.694 367.24 22.9466C366.837 23.1992 366.516 23.5713 366.276 24.0631C366.04 24.5548 365.922 25.158 365.922 25.8728C365.922 26.5875 366.04 27.1907 366.276 27.6825C366.516 28.1742 366.837 28.5463 367.24 28.7989C367.645 29.0515 368.098 29.1778 368.598 29.1778C368.872 29.1778 369.135 29.1402 369.388 29.0649C369.641 28.9897 369.87 28.8782 370.077 28.7304C370.287 28.5799 370.464 28.3959 370.609 28.1782C370.757 27.9579 370.86 27.7053 370.92 27.4205H371.919C371.844 27.8423 371.707 28.2199 371.508 28.553C371.309 28.8862 371.062 29.1697 370.766 29.4035C370.471 29.6346 370.139 29.8106 369.771 29.9315C369.405 30.0524 369.014 30.1129 368.598 30.1129C367.894 30.1129 367.268 29.9409 366.72 29.5969C366.172 29.253 365.74 28.764 365.426 28.1298C365.112 27.4957 364.954 26.7433 364.954 25.8728C364.954 25.0022 365.112 24.2498 365.426 23.6157C365.74 22.9815 366.172 22.4925 366.72 22.1486C367.268 21.8046 367.894 21.6327 368.598 21.6327C369.014 21.6327 369.405 21.6931 369.771 21.814C370.139 21.9349 370.471 22.1123 370.766 22.3461C371.062 22.5771 371.309 22.8593 371.508 23.1925C371.707 23.523 371.844 23.9005 371.919 24.325ZM373.534 30V21.7455H378.516V22.6322H374.534V25.4213H378.258V26.308H374.534V29.1133H378.581V30H373.534ZM383.51 30V21.7455H388.459V22.6322H384.509V25.4213H388.089V26.308H384.509V30H383.51ZM397.136 25.8728C397.136 26.7433 396.979 27.4957 396.664 28.1298C396.35 28.764 395.919 29.253 395.371 29.5969C394.823 29.9409 394.196 30.1129 393.492 30.1129C392.788 30.1129 392.162 29.9409 391.614 29.5969C391.066 29.253 390.635 28.764 390.32 28.1298C390.006 27.4957 389.849 26.7433 389.849 25.8728C389.849 25.0022 390.006 24.2498 390.32 23.6157C390.635 22.9815 391.066 22.4925 391.614 22.1486C392.162 21.8046 392.788 21.6327 393.492 21.6327C394.196 21.6327 394.823 21.8046 395.371 22.1486C395.919 22.4925 396.35 22.9815 396.664 23.6157C396.979 24.2498 397.136 25.0022 397.136 25.8728ZM396.169 25.8728C396.169 25.158 396.049 24.5548 395.81 24.0631C395.574 23.5713 395.252 23.1992 394.847 22.9466C394.444 22.694 393.992 22.5677 393.492 22.5677C392.993 22.5677 392.54 22.694 392.134 22.9466C391.731 23.1992 391.41 23.5713 391.171 24.0631C390.934 24.5548 390.816 25.158 390.816 25.8728C390.816 26.5875 390.934 27.1907 391.171 27.6825C391.41 28.1742 391.731 28.5463 392.134 28.7989C392.54 29.0515 392.993 29.1778 393.492 29.1778C393.992 29.1778 394.444 29.0515 394.847 28.7989C395.252 28.5463 395.574 28.1742 395.81 27.6825C396.049 27.1907 396.169 26.5875 396.169 25.8728ZM398.817 30V21.7455H401.606C402.251 21.7455 402.78 21.8557 403.194 22.076C403.608 22.2937 403.914 22.5933 404.113 22.9748C404.312 23.3564 404.411 23.7903 404.411 24.2767C404.411 24.763 404.312 25.1943 404.113 25.5705C403.914 25.9466 403.609 26.2422 403.198 26.4572C402.787 26.6695 402.262 26.7756 401.622 26.7756H399.365V25.8728H401.59C402.03 25.8728 402.385 25.8083 402.654 25.6793C402.925 25.5503 403.121 25.3676 403.242 25.1311C403.366 24.892 403.428 24.6072 403.428 24.2767C403.428 23.9462 403.366 23.6573 403.242 23.4101C403.119 23.1629 402.921 22.9721 402.65 22.8378C402.378 22.7007 402.02 22.6322 401.574 22.6322H399.816V30H398.817ZM402.702 26.2919L404.734 30H403.573L401.574 26.2919H402.702ZM409.607 21.7455L412.058 28.6941H412.155L414.605 21.7455H415.653L412.622 30H411.59L408.56 21.7455H409.607ZM417.939 21.7455V30H416.939V21.7455H417.939ZM419.491 22.6322V21.7455H425.682V22.6322H423.087V30H422.087V22.6322H419.491ZM426.599 30H425.551L428.582 21.7455H429.614L432.645 30H431.597L429.13 23.0514H429.066L426.599 30ZM426.986 26.7756H431.21V27.6623H426.986V26.7756ZM433.931 30V21.7455H434.93V29.1133H438.767V30H433.931ZM441.315 21.7455V30H440.315V21.7455H441.315ZM442.867 22.6322V21.7455H449.058V22.6322H446.463V30H445.463V22.6322H442.867ZM449.891 21.7455H451.036L453.325 25.5987H453.422L455.712 21.7455H456.856L453.874 26.5982V30H452.874V26.5982L449.891 21.7455Z" fill="white"/>
<path d="M19.5249 390.731H24.3371V392.675H19.5249V390.731ZM27.448 387.166H29.4733V398.848C29.4733 399.756 29.5705 399.885 30.1538 399.885C30.4293 399.885 31.5473 399.885 31.8389 399.885C32.4546 399.885 32.568 399.221 32.6814 396.596C33.1513 396.969 33.9938 397.358 34.5285 397.487C34.3503 400.598 33.8642 401.797 32.0333 401.797C31.6445 401.797 30.2186 401.797 29.8622 401.797C27.9989 401.797 27.448 401.117 27.448 398.816V387.166ZM23.3811 387.15H25.4065V401.927H23.3811V387.15ZM32.8111 389.581L34.2045 391.33C32.5356 392.465 30.4779 393.599 28.647 394.522C28.5012 394.085 28.1285 393.404 27.8531 392.983C29.6191 392.076 31.5149 390.682 32.8111 389.581ZM18.9578 398.087C20.2703 397.698 22.328 396.969 24.2723 396.272L24.6287 398.038C23.0085 398.767 21.2424 399.497 19.8166 400.08L18.9578 398.087ZM35.7599 388.446H50.0992V390.31H35.7599V388.446ZM41.8521 386.891H43.926V389.37H41.8521V386.891ZM39.5351 393.097V394.976H46.3078V393.097H39.5351ZM37.607 391.428H48.3817V396.645H37.607V391.428ZM45.6759 398.119L47.4582 397.261C48.4628 398.281 49.7752 399.74 50.4071 400.712L48.479 401.684C47.9443 400.728 46.6967 399.205 45.6759 398.119ZM41.8845 395.981H43.926V400.08C43.926 401.052 43.7316 401.554 43.0025 401.83C42.3058 402.089 41.3336 402.105 40.0212 402.105C39.9402 401.554 39.6648 400.777 39.4055 400.258C40.2318 400.29 41.2688 400.29 41.5281 400.274C41.8035 400.274 41.8845 400.226 41.8845 400.015V395.981ZM38.0445 397.277L40.0212 397.909C39.2111 399.205 38.0121 400.631 36.8617 401.538C36.4404 401.165 35.7437 400.663 35.2901 400.404C36.3756 399.61 37.4936 398.314 38.0445 397.277ZM59.3509 392.108V393.502H64.2603V392.108H59.3509ZM59.3509 389.224V390.585H64.2603V389.224H59.3509ZM57.601 387.571H66.1074V395.138H57.601V387.571ZM57.4876 396.531H66.2856V398.281H57.4876V396.531ZM56.3534 399.837H66.8203V401.587H56.3534V399.837ZM51.6061 387.814H56.9853V389.629H51.6061V387.814ZM51.7681 392.481H56.7099V394.279H51.7681V392.481ZM51.4278 398.638C52.8213 398.281 54.8952 397.633 56.8395 397.001L57.1798 398.865C55.3651 399.48 53.4208 400.112 51.8653 400.615L51.4278 398.638ZM53.4046 388.527H55.2516V398.492L53.4046 398.784V388.527ZM61.0198 388.268H62.6562V394.377H62.8345V400.663H60.8415V394.377H61.0198V388.268ZM68.8618 388.576H81.8563V390.601H68.8618V388.576ZM67.9545 399.027H82.7799V400.987H67.9545V399.027ZM74.1601 389.678H76.3798V399.804H74.1601V389.678ZM84.3515 391.249H98.7718V393.259H84.3515V391.249ZM92.6634 392.06C93.6356 395.77 95.6933 398.848 99.1283 400.209C98.6422 400.647 97.9941 401.489 97.67 402.057C93.9596 400.323 91.9343 396.969 90.7029 392.513L92.6634 392.06ZM90.4275 386.891H92.5662C92.4852 391.833 92.4528 398.703 85.5019 402.057C85.194 401.522 84.5945 400.825 84.0275 400.404C90.6705 397.439 90.3789 391.282 90.4275 386.891ZM103.422 392.432H110.891V394.101H103.422V392.432ZM100.522 396.062H115.023V397.86H100.522V396.062ZM106.76 395.025H108.753V400.031C108.753 401.036 108.51 401.538 107.732 401.83C106.97 402.089 105.933 402.121 104.556 402.121C104.427 401.57 104.07 400.744 103.762 400.242C104.799 400.274 106.014 400.274 106.338 400.274C106.662 400.274 106.76 400.193 106.76 399.966V395.025ZM110.259 392.432H110.746L111.151 392.335L112.382 393.275C111.264 394.474 109.66 395.738 108.072 396.499C107.845 396.175 107.327 395.64 107.035 395.381C108.283 394.733 109.66 393.583 110.259 392.789V392.432ZM100.716 389.467H114.845V393.437H112.917V391.185H102.547V393.437H100.716V389.467ZM111.945 387.004L114.051 387.62C113.306 388.689 112.463 389.791 111.799 390.504L110.211 389.921C110.827 389.127 111.556 387.912 111.945 387.004ZM101.802 387.798L103.454 387.053C104.038 387.685 104.686 388.56 104.945 389.192L103.179 390.002C102.952 389.402 102.353 388.479 101.802 387.798ZM105.885 387.442L107.602 386.794C108.121 387.507 108.672 388.495 108.882 389.143L107.035 389.856C106.873 389.208 106.371 388.187 105.885 387.442ZM121.929 395.219H132.558V402.089H130.549V396.758H123.841V402.089H121.929V395.219ZM123.079 397.649H131.229V399.059H123.079V397.649ZM121.67 388.106H126.806V389.613H121.67V388.106ZM119.742 390.682H127.195V392.205H119.742V390.682ZM123.079 400.015H131.229V401.554H123.079V400.015ZM122.869 388.56H124.7V390.342C124.7 391.995 124.084 394.231 120.795 395.738C120.535 395.349 119.985 394.749 119.547 394.441C122.593 393.275 122.869 391.509 122.869 390.326V388.56ZM121.378 386.794L123.112 387.134C122.707 388.592 121.961 389.986 121.135 390.877C120.778 390.601 120.033 390.164 119.612 389.969C120.438 389.192 121.07 387.993 121.378 386.794ZM124.392 392.124C124.975 392.4 126.79 393.437 127.26 393.745L125.866 394.976C125.234 394.441 123.808 393.388 123.079 392.918L124.392 392.124ZM129.544 389.791V392.529H132.023V389.791H129.544ZM127.746 388.074H133.935V394.263H127.746V388.074ZM138.212 386.81L140.238 387.247C139.655 388.738 138.925 390.326 138.31 391.363L136.625 390.925C137.208 389.824 137.872 388.106 138.212 386.81ZM135.766 390.131C137.516 390.083 140.141 389.969 142.652 389.856L142.636 391.541C140.254 391.719 137.759 391.865 135.912 391.979L135.766 390.131ZM136.722 392.74H141.874V394.344H138.52V402.089H136.722V392.74ZM140.951 392.74H142.879V400.145C142.879 400.971 142.717 401.457 142.166 401.749C141.599 402.04 140.87 402.073 139.881 402.073C139.784 401.554 139.509 400.809 139.266 400.339C139.833 400.371 140.481 400.371 140.691 400.355C140.886 400.355 140.951 400.307 140.951 400.096V392.74ZM137.548 395.187H142.036V396.629H137.548V395.187ZM137.548 397.568H142.036V399.01H137.548V397.568ZM144.143 386.956H146.087V391.816C146.087 392.384 146.184 392.465 146.8 392.465C147.059 392.465 148.226 392.465 148.566 392.465C149.101 392.465 149.198 392.222 149.263 390.796C149.668 391.104 150.462 391.395 150.996 391.509C150.786 393.615 150.267 394.198 148.76 394.198C148.355 394.198 146.897 394.198 146.524 394.198C144.612 394.198 144.143 393.647 144.143 391.849V386.956ZM149.003 387.912L150.235 389.321C148.793 390.018 146.913 390.634 145.309 391.071C145.228 390.682 144.969 390.099 144.758 389.726C146.265 389.256 147.934 388.527 149.003 387.912ZM144.143 394.522H146.071V399.626C146.071 400.226 146.184 400.29 146.816 400.29C147.091 400.29 148.307 400.29 148.663 400.29C149.23 400.29 149.327 399.999 149.408 398.346C149.814 398.638 150.591 398.946 151.126 399.059C150.915 401.344 150.397 401.992 148.841 401.992C148.436 401.992 146.929 401.992 146.541 401.992C144.629 401.992 144.143 401.441 144.143 399.642V394.522ZM149.133 395.203L150.397 396.629C148.922 397.423 146.962 398.103 145.293 398.573C145.196 398.2 144.92 397.585 144.726 397.212C146.298 396.71 148.031 395.916 149.133 395.203ZM140.416 388.592L142.069 387.976C142.863 389.143 143.705 390.682 144.013 391.752L142.247 392.465C141.971 391.428 141.194 389.807 140.416 388.592ZM155.873 392.562H162.97V394.36H155.873V392.562ZM156.57 388.949H165.157V390.812H156.57V388.949ZM152.244 396.094H166.94V397.941H152.244V396.094ZM162.29 392.562H164.299C164.299 392.562 164.266 393.161 164.234 393.421C163.845 398.427 163.424 400.501 162.695 401.279C162.192 401.83 161.722 401.976 160.977 402.057C160.361 402.138 159.292 402.121 158.206 402.073C158.174 401.506 157.899 400.663 157.526 400.112C158.628 400.226 159.73 400.226 160.199 400.226C160.556 400.226 160.766 400.193 161.01 400.015C161.577 399.513 161.965 397.439 162.29 392.902V392.562ZM155.922 386.875L157.963 387.053C157.51 389.726 156.862 393.032 156.376 395.057L154.334 394.895C154.885 392.821 155.549 389.451 155.922 386.875ZM178.136 387.004H179.902V399.756H178.136V387.004ZM175.057 390.342H183.45V391.752H175.057V390.342ZM175.511 396.872H183.142V398.281H175.511V396.872ZM175.916 394.668H182.737V396.078H175.916V394.668ZM172.06 388.187H174.312V389.743H172.06V388.187ZM172.886 392.643H174.668V394.052H172.886V392.643ZM173.874 388.187H174.101L174.377 388.122L175.592 388.43C174.928 390.277 173.891 392.756 173.032 394.717L171.444 394.344C172.319 392.4 173.372 389.759 173.874 388.382V388.187ZM174.198 392.643H174.506L174.814 392.61L175.835 392.772C175.511 397.342 174.474 400.371 172.287 402.073C172.06 401.651 171.574 400.971 171.217 400.631C172.983 399.383 173.955 396.499 174.198 392.918V392.643ZM172.983 395.057C173.858 399.318 175.932 400.161 178.994 400.177C179.74 400.177 182.656 400.177 183.58 400.128C183.32 400.55 183.061 401.376 182.964 401.878H178.897C175.025 401.878 172.692 400.76 171.525 395.478L172.983 395.057ZM176.11 388.203H182.64V393.907H176.11V392.497H181.004V389.613H176.11V388.203ZM170.763 386.94L172.497 387.458C171.655 390.148 170.261 393.064 168.722 394.927C168.592 394.474 168.139 393.34 167.863 392.837C169.062 391.379 170.132 389.175 170.763 386.94ZM169.662 391.622L171.331 389.953L171.363 389.986V402.089H169.662V391.622ZM187.792 392.805H199.572V394.166H187.792V392.805ZM188.748 390.763H198.113V396.24H188.57V394.944H196.283V392.076H188.748V390.763ZM192.151 389.824H194.014V400.193C194.014 401.165 193.804 401.587 193.172 401.846C192.54 402.105 191.616 402.138 190.271 402.138C190.19 401.668 189.947 400.955 189.688 400.501C190.531 400.533 191.503 400.533 191.778 400.517C192.054 400.517 192.151 400.436 192.151 400.177V389.824ZM187.792 397.228L188.846 396.191C189.639 396.564 190.676 397.196 191.211 397.649L190.077 398.8C189.607 398.33 188.586 397.666 187.792 397.228ZM197.498 396.305L198.924 397.455C197.903 398.119 196.72 398.8 195.796 399.205L194.711 398.233C195.586 397.763 196.801 396.92 197.498 396.305ZM194.322 395.835C195.132 397.99 196.817 399.659 199.312 400.371C198.907 400.728 198.389 401.441 198.13 401.927C195.489 400.971 193.82 398.946 192.864 396.175L194.322 395.835ZM187.112 399.966C188.181 399.626 189.785 399.027 191.357 398.427L191.697 399.821C190.45 400.42 189.105 401.02 188.019 401.506L187.112 399.966ZM191.487 386.891H193.512V389.175H191.487V386.891ZM186.577 388.284H199.377V389.969H186.577V388.284ZM185.654 388.284H187.501V392.983C187.501 395.64 187.258 399.642 185.799 402.17C185.459 401.846 184.649 401.295 184.212 401.117C185.556 398.784 185.654 395.397 185.654 392.983V388.284ZM201.71 388.268L202.958 387.085C203.833 387.798 205.016 388.868 205.567 389.564L204.254 390.909C203.736 390.18 202.585 389.046 201.71 388.268ZM202.747 401.878L202.31 400.177L202.65 399.578L205.858 396.872C206.02 397.39 206.344 398.119 206.587 398.492C203.574 401.036 203.039 401.489 202.747 401.878ZM200.641 391.881H203.574V393.745H200.641V391.881ZM208.159 387.409H212.566V389.208H208.159V387.409ZM206.247 393.923H213.636V395.738H206.247V393.923ZM213.052 393.923H213.392L213.733 393.858L214.916 394.36C213.587 398.946 210.314 401.068 206.02 402.073C205.858 401.587 205.469 400.809 205.145 400.388C209.002 399.707 212.031 397.763 213.052 394.198V393.923ZM208.37 395.413C209.65 397.957 212.291 399.723 215.871 400.404C215.466 400.809 214.948 401.603 214.705 402.121C210.913 401.23 208.337 399.14 206.749 395.964L208.37 395.413ZM207.689 387.409H209.504V389.224C209.504 390.861 208.985 392.675 206.668 393.745C206.442 393.372 205.745 392.61 205.388 392.319C207.43 391.46 207.689 390.277 207.689 389.175V387.409ZM211.675 387.409H213.506V390.958C213.506 391.428 213.538 391.622 213.781 391.622C213.943 391.622 214.429 391.622 214.624 391.622C214.867 391.622 215.272 391.573 215.499 391.509C215.531 391.995 215.58 392.675 215.645 393.113C215.402 393.226 215.013 393.242 214.64 393.242C214.397 393.242 213.83 393.242 213.603 393.242C211.999 393.242 211.675 392.562 211.675 390.942V387.409ZM202.747 401.878C202.602 401.425 202.099 400.598 201.775 400.242C202.132 399.983 202.585 399.399 202.585 398.638V391.881H204.465V399.983C204.465 399.983 202.747 401.182 202.747 401.878ZM218.156 388.301L219.387 387.053C220.295 387.75 221.542 388.754 222.126 389.451L220.813 390.861C220.279 390.164 219.063 389.062 218.156 388.301ZM219.339 402.04L218.885 400.145L219.323 399.513L222.903 397.001C223.017 397.552 223.308 398.395 223.519 398.784C220.23 401.165 219.647 401.635 219.339 402.04ZM216.908 391.881H220.522V393.809H216.908V391.881ZM222.223 391.995H231.961V394.02H222.223V391.995ZM226.128 386.956H228.218V402.105H226.128V386.956ZM219.339 402.04C219.177 401.522 218.707 400.631 218.367 400.226C218.756 399.983 219.258 399.432 219.258 398.703V391.881H221.251V400.161C221.251 400.161 219.339 401.327 219.339 402.04ZM233.743 388.203L235.055 387.069C235.866 387.831 236.967 388.916 237.486 389.629L236.092 390.909C235.622 390.18 234.553 389.03 233.743 388.203ZM235.153 401.781L234.715 400.064L235.039 399.464L238.02 396.839C238.199 397.358 238.523 398.087 238.75 398.443C235.93 400.939 235.428 401.392 235.153 401.781ZM233.046 391.865H236.141V393.615H233.046V391.865ZM238.037 395.106H248.082V396.856H238.037V395.106ZM244.42 396.013C245.295 397.504 246.964 399.108 248.471 399.934C248.034 400.29 247.45 400.955 247.143 401.441C245.636 400.355 244.064 398.379 243.124 396.515L244.42 396.013ZM240.532 391.59V392.643H245.506V391.59H240.532ZM240.532 389.078V390.115H245.506V389.078H240.532ZM238.782 387.539H247.337V394.182H238.782V387.539ZM241.812 396.013L243.14 396.483C242.185 398.541 240.532 400.517 238.782 401.57C238.49 401.117 237.923 400.436 237.518 400.096C239.236 399.27 240.937 397.649 241.812 396.013ZM242.249 388.268H244.015V393.404H244.096V402.089H242.185V393.404H242.249V388.268ZM235.153 401.781C234.926 401.425 234.326 400.793 234.002 400.55C234.391 400.177 234.974 399.399 234.974 398.427V391.865H236.838V399.335C236.838 399.335 235.153 401.052 235.153 401.781ZM251.874 390.812V391.59H254.255V390.812H251.874ZM251.874 388.819V389.581H254.255V388.819H251.874ZM250.156 387.523H256.054V392.902H250.156V387.523ZM249.395 393.826H256.751V395.251H249.395V393.826ZM256.702 387.555H264.317V389.078H256.702V387.555ZM252.441 394.279H254.077V400.793L252.441 399.869V394.279ZM253.267 396.564H256.41V397.957H253.267V396.564ZM259.764 387.928L261.709 388.333C261.271 389.273 260.834 390.229 260.493 390.861L258.97 390.455C259.262 389.743 259.602 388.673 259.764 387.928ZM251.452 397.244C252.344 399.966 254.353 400.242 257.642 400.258C258.727 400.258 263.167 400.258 264.495 400.193C264.236 400.566 263.945 401.311 263.864 401.797H257.626C253.64 401.797 251.436 401.246 250.302 397.585L251.452 397.244ZM257.221 390.245H263.702V396.937H262.065V391.622H258.792V397.05H257.221V390.245ZM250.205 395.819L251.793 395.916C251.695 398.508 251.371 400.663 250.351 402.105C250.075 401.862 249.378 401.392 249.006 401.198C249.962 399.966 250.172 398.022 250.205 395.819ZM259.7 392.286H261.304C261.206 396.661 260.785 398.978 256.929 400.161C256.783 399.788 256.378 399.189 256.054 398.897C259.424 397.925 259.619 396.126 259.7 392.286ZM260.526 397.925L261.595 396.872C262.486 397.487 263.75 398.427 264.382 399.027L263.264 400.226C262.665 399.594 261.449 398.605 260.526 397.925ZM271.171 400.047H280.568V401.797H271.171V400.047ZM273.666 391.784H278.608V393.518H273.666V391.784ZM273.682 395.9H278.624V397.617H273.682V395.9ZM272.597 387.685H279.256V400.971H277.328V389.451H274.428V400.971H272.597V387.685ZM266.148 397.909C266.067 397.568 265.775 396.742 265.581 396.305C265.986 396.207 266.375 395.835 266.91 395.251C267.477 394.684 269.194 392.448 270.328 390.245L271.803 391.201C270.539 393.34 268.903 395.478 267.299 397.018V397.05C267.299 397.05 266.148 397.585 266.148 397.909ZM266.148 397.909L266.035 396.467L266.845 395.883L271.544 395.089C271.479 395.575 271.463 396.288 271.479 396.661C267.25 397.487 266.569 397.682 266.148 397.909ZM266.019 393.955C265.921 393.599 265.63 392.724 265.435 392.238C265.759 392.141 266.051 391.8 266.407 391.266C266.78 390.763 267.914 388.722 268.514 386.826L270.247 387.636C269.437 389.548 268.222 391.59 267.039 392.999V393.064C267.039 393.064 266.019 393.631 266.019 393.955ZM266.019 393.955L265.97 392.643L266.748 392.124L269.551 391.914C269.453 392.367 269.372 393.048 269.372 393.421C266.861 393.68 266.343 393.809 266.019 393.955ZM265.613 399.399C267.023 399.124 269.178 398.638 271.22 398.152L271.43 399.756C269.534 400.307 267.542 400.825 265.97 401.246L265.613 399.399ZM20.475 424.647V412.863H20.8432V424.279H26.7351V424.647H20.475ZM31.5222 424.831C31.0389 424.831 30.592 424.731 30.1816 424.532C29.775 424.332 29.447 424.041 29.1977 423.657C28.9522 423.274 28.8295 422.806 28.8295 422.253C28.8295 421.954 28.8774 421.674 28.9733 421.413C29.0692 421.149 29.238 420.909 29.4796 420.694C29.7213 420.479 30.0588 420.295 30.4923 420.142C30.9296 419.988 31.4877 419.871 32.1666 419.791C32.5732 419.745 32.9568 419.691 33.3174 419.63C33.678 419.568 33.9714 419.476 34.1977 419.353C34.424 419.231 34.5372 419.054 34.5372 418.824V418.295C34.5372 417.616 34.309 417.071 33.8525 416.661C33.396 416.246 32.788 416.039 32.0285 416.039C31.4071 416.039 30.8644 416.177 30.4002 416.454C29.9361 416.726 29.612 417.109 29.4278 417.604L29.0826 417.466C29.2207 417.098 29.4336 416.78 29.7213 416.511C30.009 416.243 30.3504 416.035 30.7455 415.89C31.1405 415.744 31.5682 415.671 32.0285 415.671C32.4773 415.671 32.8782 415.738 33.2311 415.872C33.5878 416.003 33.8908 416.187 34.1402 416.425C34.3895 416.659 34.5794 416.935 34.7098 417.253C34.8402 417.572 34.9054 417.919 34.9054 418.295V424.647H34.5372V422.852H34.4912C34.307 423.251 34.0673 423.6 33.7719 423.899C33.4804 424.194 33.1429 424.424 32.7593 424.589C32.3795 424.75 31.9672 424.831 31.5222 424.831ZM31.5222 424.463C32.0822 424.463 32.5905 424.313 33.047 424.014C33.5034 423.711 33.8659 423.291 34.1344 422.754C34.4029 422.213 34.5372 421.586 34.5372 420.872V419.538C34.4298 419.618 34.2994 419.689 34.1459 419.75C33.9963 419.812 33.8256 419.867 33.6338 419.917C33.4459 419.963 33.2407 420.004 33.0182 420.038C32.7957 420.073 32.5579 420.105 32.3047 420.136C31.5145 420.228 30.8931 420.368 30.4405 420.556C29.9879 420.744 29.6676 420.98 29.4796 421.264C29.2917 421.548 29.1977 421.877 29.1977 422.253C29.1977 422.921 29.4202 423.456 29.8651 423.859C30.3139 424.261 30.8663 424.463 31.5222 424.463ZM38.3548 424.647V412.863H38.723V418.065H38.7691C38.9225 417.574 39.145 417.15 39.4365 416.793C39.728 416.432 40.0713 416.156 40.4664 415.964C40.8615 415.769 41.2931 415.671 41.761 415.671C42.4515 415.671 43.0518 415.872 43.562 416.275C44.0721 416.678 44.4672 417.225 44.7472 417.915C45.0273 418.605 45.1673 419.384 45.1673 420.251C45.1673 421.122 45.0273 421.902 44.7472 422.593C44.4711 423.283 44.0779 423.83 43.5677 424.233C43.0614 424.632 42.4592 424.831 41.761 424.831C41.2892 424.831 40.8558 424.733 40.4607 424.538C40.0694 424.342 39.73 424.066 39.4423 423.709C39.1546 423.348 38.9302 422.925 38.7691 422.437H38.723V424.647H38.3548ZM38.723 420.251C38.723 421.049 38.8458 421.766 39.0913 422.403C39.3368 423.036 39.6858 423.538 40.1385 423.91C40.5949 424.279 41.1358 424.463 41.761 424.463C42.3863 424.463 42.9252 424.279 43.3778 423.91C43.8343 423.538 44.1853 423.036 44.4308 422.403C44.6763 421.766 44.799 421.049 44.799 420.251C44.799 419.453 44.6744 418.738 44.425 418.105C44.1795 417.468 43.8286 416.966 43.3721 416.597C42.9195 416.225 42.3824 416.039 41.761 416.039C41.1396 416.039 40.6007 416.225 40.1442 416.597C39.6916 416.966 39.3406 417.468 39.0913 418.105C38.8458 418.738 38.723 419.453 38.723 420.251ZM55.4492 424.831C54.7549 424.831 54.1316 424.632 53.5793 424.233C53.0269 423.83 52.5896 423.283 52.2674 422.593C51.949 421.899 51.7898 421.118 51.7898 420.251C51.7898 419.38 51.949 418.6 52.2674 417.909C52.5896 417.219 53.0269 416.674 53.5793 416.275C54.1316 415.872 54.7549 415.671 55.4492 415.671C56.1435 415.671 56.7649 415.872 57.3135 416.275C57.8658 416.678 58.3031 417.225 58.6253 417.915C58.9475 418.605 59.1086 419.384 59.1086 420.251C59.1086 421.118 58.9475 421.899 58.6253 422.593C58.3069 423.283 57.8716 423.83 57.3192 424.233C56.7668 424.632 56.1435 424.831 55.4492 424.831ZM55.4492 424.463C56.0745 424.463 56.6345 424.279 57.1293 423.91C57.628 423.542 58.0212 423.04 58.3089 422.403C58.5965 421.766 58.7404 421.049 58.7404 420.251C58.7404 419.453 58.5946 418.738 58.3031 418.105C58.0154 417.468 57.6242 416.966 57.1293 416.597C56.6345 416.225 56.0745 416.039 55.4492 416.039C54.8278 416.039 54.2678 416.225 53.7691 416.597C53.2743 416.966 52.8811 417.468 52.5896 418.105C52.3019 418.738 52.1581 419.453 52.1581 420.251C52.1581 421.049 52.3019 421.766 52.5896 422.403C52.8773 423.04 53.2686 423.542 53.7634 423.91C54.262 424.279 54.824 424.463 55.4492 424.463ZM64.7401 415.809V416.177H61.2418V415.809H64.7401ZM62.4616 424.647V414.359C62.4616 413.945 62.5537 413.586 62.7378 413.283C62.9258 412.98 63.1732 412.746 63.48 412.581C63.7908 412.416 64.1264 412.334 64.487 412.334C64.625 412.334 64.7497 412.345 64.861 412.368C64.9722 412.391 65.0815 412.422 65.1889 412.46L65.0738 412.806C64.9779 412.775 64.884 412.75 64.7919 412.731C64.6998 412.712 64.5982 412.702 64.487 412.702C64.0458 412.702 63.6584 412.85 63.3247 413.145C62.9948 413.441 62.8299 413.845 62.8299 414.359L62.8184 424.647H62.4616ZM74.9833 424.647H71.8992V412.863H75.2824C76.368 412.863 77.2963 413.097 78.0673 413.565C78.8421 414.029 79.4347 414.697 79.8452 415.567C80.2595 416.438 80.4647 417.485 80.4608 418.709C80.457 419.963 80.2384 421.034 79.8049 421.92C79.3753 422.802 78.752 423.477 77.9349 423.945C77.1217 424.413 76.1378 424.647 74.9833 424.647ZM72.2675 424.279H74.9833C76.0726 424.279 76.999 424.058 77.7623 423.617C78.5257 423.172 79.1049 422.533 79.5 421.701C79.8989 420.869 80.0964 419.871 80.0926 418.709C80.0888 417.562 79.897 416.58 79.5172 415.763C79.1413 414.946 78.5966 414.321 77.8831 413.887C77.1697 413.45 76.3028 413.231 75.2824 413.231H72.2675V424.279ZM86.5195 424.831C85.7485 424.831 85.0734 424.63 84.4942 424.227C83.9188 423.824 83.472 423.278 83.1536 422.587C82.8352 421.897 82.676 421.118 82.676 420.251C82.676 419.384 82.8352 418.605 83.1536 417.915C83.4758 417.225 83.9131 416.678 84.4655 416.275C85.0178 415.872 85.6411 415.671 86.3354 415.671C86.8494 415.671 87.3251 415.78 87.7624 415.999C88.2035 416.218 88.5871 416.521 88.9131 416.908C89.2392 417.296 89.4923 417.742 89.6726 418.249C89.8567 418.751 89.9488 419.288 89.9488 419.86V420.228H82.8602V419.86H89.5805C89.5805 419.15 89.4348 418.508 89.1433 417.932C88.8517 417.353 88.4605 416.893 87.9695 416.551C87.4785 416.21 86.9338 416.039 86.3354 416.039C85.7294 416.039 85.1808 416.22 84.6899 416.58C84.1989 416.941 83.8057 417.432 83.5103 418.053C83.215 418.675 83.0596 419.376 83.0443 420.159V420.205C83.0443 420.976 83.1785 421.686 83.447 422.334C83.7194 422.978 84.1145 423.494 84.6323 423.882C85.1502 424.269 85.7792 424.463 86.5195 424.463C87.0642 424.463 87.5207 424.367 87.8889 424.175C88.261 423.983 88.5583 423.763 88.7808 423.513C89.0071 423.264 89.174 423.051 89.2814 422.875L89.5805 423.082C89.4501 423.304 89.2545 423.552 88.9937 423.824C88.7328 424.096 88.3991 424.332 87.9925 424.532C87.5859 424.731 87.0949 424.831 86.5195 424.831ZM97.8501 417.673L97.4819 417.765C97.363 417.382 97.1961 417.063 96.9813 416.81C96.7704 416.553 96.5114 416.361 96.2046 416.235C95.8977 416.104 95.541 416.039 95.1344 416.039C94.4286 416.039 93.857 416.22 93.4197 416.58C92.9825 416.937 92.7638 417.409 92.7638 417.996C92.7638 418.46 92.9115 418.849 93.2069 419.164C93.5061 419.478 93.9568 419.71 94.559 419.86L95.9399 420.205C96.5882 420.366 97.0791 420.638 97.4129 421.022C97.7504 421.406 97.9192 421.87 97.9192 422.414C97.9192 422.894 97.7926 423.316 97.5394 423.68C97.2901 424.045 96.9449 424.329 96.5038 424.532C96.0626 424.731 95.5525 424.831 94.9733 424.831C94.1869 424.831 93.5444 424.639 93.0458 424.256C92.5471 423.872 92.223 423.327 92.0734 422.622L92.4416 422.53C92.572 423.155 92.8501 423.634 93.2759 423.968C93.7055 424.298 94.2713 424.463 94.9733 424.463C95.7404 424.463 96.3618 424.275 96.8375 423.899C97.3131 423.523 97.5509 423.028 97.5509 422.414C97.5509 421.958 97.409 421.572 97.1252 421.258C96.8413 420.943 96.4155 420.715 95.8478 420.573L94.4669 420.228C93.788 420.059 93.2721 419.783 92.9192 419.399C92.5701 419.016 92.3956 418.548 92.3956 417.996C92.3956 417.531 92.5107 417.127 92.7408 416.782C92.9748 416.432 93.297 416.16 93.7074 415.964C94.1217 415.769 94.5974 415.671 95.1344 415.671C95.8171 415.671 96.3868 415.84 96.8432 416.177C97.2997 416.511 97.6353 417.01 97.8501 417.673ZM100.593 424.647V415.809H100.961V424.647H100.593ZM100.777 414.198C100.678 414.198 100.591 414.162 100.518 414.089C100.446 414.016 100.409 413.93 100.409 413.83C100.409 413.73 100.446 413.644 100.518 413.571C100.591 413.498 100.678 413.462 100.777 413.462C100.877 413.462 100.963 413.498 101.036 413.571C101.109 413.644 101.146 413.73 101.146 413.83C101.146 413.93 101.109 414.016 101.036 414.089C100.963 414.162 100.877 414.198 100.777 414.198ZM107.131 428.145C106.636 428.145 106.18 428.078 105.762 427.944C105.343 427.813 104.983 427.616 104.68 427.351C104.377 427.09 104.151 426.764 104.001 426.373L104.346 426.235C104.48 426.58 104.68 426.866 104.945 427.092C105.213 427.322 105.533 427.493 105.905 427.604C106.281 427.719 106.69 427.777 107.131 427.777C108.052 427.777 108.769 427.533 109.283 427.046C109.797 426.563 110.054 425.825 110.054 424.831V422.437H110.008C109.854 422.928 109.626 423.339 109.323 423.669C109.02 423.995 108.669 424.24 108.27 424.405C107.871 424.566 107.453 424.647 107.016 424.647C106.325 424.647 105.725 424.461 105.215 424.089C104.705 423.717 104.31 423.201 104.03 422.541C103.75 421.881 103.61 421.118 103.61 420.251C103.61 419.376 103.748 418.594 104.024 417.904C104.3 417.213 104.693 416.668 105.203 416.269C105.714 415.871 106.318 415.671 107.016 415.671C107.492 415.671 107.925 415.769 108.316 415.964C108.707 416.156 109.047 416.432 109.335 416.793C109.622 417.15 109.847 417.574 110.008 418.065H110.054V415.809H110.422V424.831C110.422 425.556 110.29 426.164 110.025 426.655C109.76 427.15 109.383 427.522 108.892 427.771C108.401 428.021 107.814 428.145 107.131 428.145ZM107.016 424.279C107.63 424.279 108.163 424.116 108.615 423.79C109.072 423.464 109.425 422.999 109.674 422.397C109.927 421.791 110.054 421.076 110.054 420.251C110.054 419.453 109.931 418.738 109.686 418.105C109.44 417.468 109.089 416.966 108.633 416.597C108.18 416.225 107.641 416.039 107.016 416.039C106.391 416.039 105.85 416.225 105.393 416.597C104.941 416.966 104.592 417.468 104.346 418.105C104.101 418.738 103.978 419.453 103.978 420.251C103.978 421.049 104.101 421.751 104.346 422.357C104.595 422.959 104.946 423.431 105.399 423.772C105.856 424.11 106.394 424.279 107.016 424.279ZM113.969 418.709V424.647H113.601V415.809H113.969V417.213H114.015C114.222 416.753 114.562 416.385 115.034 416.108C115.509 415.832 116.052 415.694 116.662 415.694C117.253 415.694 117.774 415.823 118.227 416.08C118.68 416.337 119.035 416.691 119.292 417.144C119.549 417.597 119.677 418.118 119.677 418.709V424.647H119.309V418.709C119.309 417.927 119.063 417.29 118.572 416.799C118.081 416.308 117.445 416.062 116.662 416.062C116.14 416.062 115.676 416.175 115.27 416.402C114.867 416.628 114.549 416.941 114.315 417.34C114.084 417.739 113.969 418.195 113.969 418.709ZM128.011 412.863V424.647H127.643V412.863H128.011ZM131.786 418.709V424.647H131.418V415.809H131.786V417.213H131.832C132.039 416.753 132.378 416.385 132.85 416.108C133.326 415.832 133.869 415.694 134.479 415.694C135.069 415.694 135.591 415.823 136.044 416.08C136.496 416.337 136.851 416.691 137.108 417.144C137.365 417.597 137.494 418.118 137.494 418.709V424.647H137.125V418.709C137.125 417.927 136.88 417.29 136.389 416.799C135.898 416.308 135.261 416.062 134.479 416.062C133.957 416.062 133.493 416.175 133.086 416.402C132.683 416.628 132.365 416.941 132.131 417.34C131.901 417.739 131.786 418.195 131.786 418.709ZM143.388 415.809V416.177H139.89V415.809H143.388ZM141.179 413.692H141.547V422.783C141.547 423.128 141.624 423.425 141.777 423.675C141.931 423.92 142.134 424.11 142.387 424.244C142.64 424.375 142.913 424.44 143.204 424.44C143.315 424.44 143.417 424.43 143.509 424.411C143.605 424.392 143.703 424.363 143.803 424.325L143.918 424.67C143.803 424.712 143.689 424.745 143.578 424.768C143.467 424.795 143.342 424.808 143.204 424.808C142.844 424.808 142.508 424.726 142.197 424.561C141.89 424.396 141.643 424.162 141.455 423.859C141.271 423.556 141.179 423.197 141.179 422.783V413.692ZM149.479 424.831C148.708 424.831 148.033 424.63 147.453 424.227C146.878 423.824 146.431 423.278 146.113 422.587C145.794 421.897 145.635 421.118 145.635 420.251C145.635 419.384 145.794 418.605 146.113 417.915C146.435 417.225 146.872 416.678 147.425 416.275C147.977 415.872 148.6 415.671 149.295 415.671C149.809 415.671 150.284 415.78 150.721 415.999C151.163 416.218 151.546 416.521 151.872 416.908C152.198 417.296 152.451 417.742 152.632 418.249C152.816 418.751 152.908 419.288 152.908 419.86V420.228H145.819V419.86H152.54C152.54 419.15 152.394 418.508 152.102 417.932C151.811 417.353 151.42 416.893 150.929 416.551C150.438 416.21 149.893 416.039 149.295 416.039C148.688 416.039 148.14 416.22 147.649 416.58C147.158 416.941 146.765 417.432 146.469 418.053C146.174 418.675 146.019 419.376 146.003 420.159V420.205C146.003 420.976 146.138 421.686 146.406 422.334C146.678 422.978 147.074 423.494 147.591 423.882C148.109 424.269 148.738 424.463 149.479 424.463C150.023 424.463 150.48 424.367 150.848 424.175C151.22 423.983 151.517 423.763 151.74 423.513C151.966 423.264 152.133 423.051 152.24 422.875L152.54 423.082C152.409 423.304 152.214 423.552 151.953 423.824C151.692 424.096 151.358 424.332 150.952 424.532C150.545 424.731 150.054 424.831 149.479 424.831ZM155.884 412.863V424.647H155.516V412.863H155.884ZM159.381 412.863V424.647H159.013V412.863H159.381ZM162.556 424.647V415.809H162.924V424.647H162.556ZM162.74 414.198C162.64 414.198 162.554 414.162 162.481 414.089C162.408 414.016 162.371 413.93 162.371 413.83C162.371 413.73 162.408 413.644 162.481 413.571C162.554 413.498 162.64 413.462 162.74 413.462C162.839 413.462 162.926 413.498 162.999 413.571C163.071 413.644 163.108 413.73 163.108 413.83C163.108 413.93 163.071 414.016 162.999 414.089C162.926 414.162 162.839 414.198 162.74 414.198ZM169.093 428.145C168.598 428.145 168.142 428.078 167.724 427.944C167.306 427.813 166.945 427.616 166.642 427.351C166.339 427.09 166.113 426.764 165.963 426.373L166.308 426.235C166.443 426.58 166.642 426.866 166.907 427.092C167.175 427.322 167.496 427.493 167.868 427.604C168.244 427.719 168.652 427.777 169.093 427.777C170.014 427.777 170.731 427.533 171.245 427.046C171.759 426.563 172.016 425.825 172.016 424.831V422.437H171.97C171.817 422.928 171.588 423.339 171.285 423.669C170.982 423.995 170.631 424.24 170.232 424.405C169.834 424.566 169.415 424.647 168.978 424.647C168.288 424.647 167.687 424.461 167.177 424.089C166.667 423.717 166.272 423.201 165.992 422.541C165.712 421.881 165.572 421.118 165.572 420.251C165.572 419.376 165.71 418.594 165.986 417.904C166.262 417.213 166.656 416.668 167.166 416.269C167.676 415.871 168.28 415.671 168.978 415.671C169.454 415.671 169.887 415.769 170.278 415.964C170.67 416.156 171.009 416.432 171.297 416.793C171.585 417.15 171.809 417.574 171.97 418.065H172.016V415.809H172.384V424.831C172.384 425.556 172.252 426.164 171.987 426.655C171.723 427.15 171.345 427.522 170.854 427.771C170.363 428.021 169.776 428.145 169.093 428.145ZM168.978 424.279C169.592 424.279 170.125 424.116 170.578 423.79C171.034 423.464 171.387 422.999 171.636 422.397C171.89 421.791 172.016 421.076 172.016 420.251C172.016 419.453 171.893 418.738 171.648 418.105C171.402 417.468 171.051 416.966 170.595 416.597C170.142 416.225 169.603 416.039 168.978 416.039C168.353 416.039 167.812 416.225 167.356 416.597C166.903 416.966 166.554 417.468 166.308 418.105C166.063 418.738 165.94 419.453 165.94 420.251C165.94 421.049 166.063 421.751 166.308 422.357C166.558 422.959 166.909 423.431 167.361 423.772C167.818 424.11 168.357 424.279 168.978 424.279ZM178.877 424.831C178.106 424.831 177.431 424.63 176.852 424.227C176.277 423.824 175.83 423.278 175.512 422.587C175.193 421.897 175.034 421.118 175.034 420.251C175.034 419.384 175.193 418.605 175.512 417.915C175.834 417.225 176.271 416.678 176.823 416.275C177.376 415.872 177.999 415.671 178.693 415.671C179.207 415.671 179.683 415.78 180.12 415.999C180.561 416.218 180.945 416.521 181.271 416.908C181.597 417.296 181.85 417.742 182.031 418.249C182.215 418.751 182.307 419.288 182.307 419.86V420.228H175.218V419.86H181.938C181.938 419.15 181.793 418.508 181.501 417.932C181.21 417.353 180.818 416.893 180.327 416.551C179.836 416.21 179.292 416.039 178.693 416.039C178.087 416.039 177.539 416.22 177.048 416.58C176.557 416.941 176.164 417.432 175.868 418.053C175.573 418.675 175.418 419.376 175.402 420.159V420.205C175.402 420.976 175.536 421.686 175.805 422.334C176.077 422.978 176.472 423.494 176.99 423.882C177.508 424.269 178.137 424.463 178.877 424.463C179.422 424.463 179.879 424.367 180.247 424.175C180.619 423.983 180.916 423.763 181.139 423.513C181.365 423.264 181.532 423.051 181.639 422.875L181.938 423.082C181.808 423.304 181.612 423.552 181.352 423.824C181.091 424.096 180.757 424.332 180.35 424.532C179.944 424.731 179.453 424.831 178.877 424.831ZM185.283 418.709V424.647H184.915V415.809H185.283V417.213H185.329C185.536 416.753 185.876 416.385 186.347 416.108C186.823 415.832 187.366 415.694 187.976 415.694C188.566 415.694 189.088 415.823 189.541 416.08C189.993 416.337 190.348 416.691 190.605 417.144C190.862 417.597 190.991 418.118 190.991 418.709V424.647H190.622V418.709C190.622 417.927 190.377 417.29 189.886 416.799C189.395 416.308 188.758 416.062 187.976 416.062C187.454 416.062 186.99 416.175 186.583 416.402C186.18 416.628 185.862 416.941 185.628 417.34C185.398 417.739 185.283 418.195 185.283 418.709ZM197.3 424.831C196.586 424.831 195.949 424.632 195.389 424.233C194.833 423.83 194.394 423.283 194.072 422.593C193.753 421.902 193.594 421.122 193.594 420.251C193.594 419.388 193.753 418.611 194.072 417.921C194.39 417.226 194.827 416.678 195.384 416.275C195.944 415.872 196.582 415.671 197.3 415.671C197.829 415.671 198.314 415.786 198.755 416.016C199.2 416.243 199.572 416.561 199.872 416.971C200.171 417.378 200.364 417.85 200.453 418.387H200.061C199.942 417.693 199.626 417.129 199.112 416.695C198.602 416.258 197.998 416.039 197.3 416.039C196.667 416.039 196.097 416.223 195.591 416.592C195.088 416.956 194.691 417.457 194.4 418.093C194.108 418.726 193.962 419.446 193.962 420.251C193.962 421.034 194.102 421.743 194.382 422.38C194.666 423.017 195.059 423.523 195.562 423.899C196.064 424.275 196.644 424.463 197.3 424.463C197.771 424.463 198.205 424.365 198.6 424.169C198.995 423.97 199.323 423.69 199.584 423.329C199.849 422.969 200.015 422.549 200.084 422.069H200.476C200.391 422.625 200.199 423.111 199.9 423.525C199.601 423.939 199.227 424.261 198.778 424.492C198.33 424.718 197.837 424.831 197.3 424.831ZM206.393 424.831C205.622 424.831 204.947 424.63 204.368 424.227C203.793 423.824 203.346 423.278 203.027 422.587C202.709 421.897 202.55 421.118 202.55 420.251C202.55 419.384 202.709 418.605 203.027 417.915C203.35 417.225 203.787 416.678 204.339 416.275C204.892 415.872 205.515 415.671 206.209 415.671C206.723 415.671 207.199 415.78 207.636 415.999C208.077 416.218 208.461 416.521 208.787 416.908C209.113 417.296 209.366 417.742 209.546 418.249C209.731 418.751 209.823 419.288 209.823 419.86V420.228H202.734V419.86H209.454C209.454 419.15 209.309 418.508 209.017 417.932C208.726 417.353 208.334 416.893 207.843 416.551C207.352 416.21 206.808 416.039 206.209 416.039C205.603 416.039 205.055 416.22 204.564 416.58C204.073 416.941 203.68 417.432 203.384 418.053C203.089 418.675 202.933 419.376 202.918 420.159V420.205C202.918 420.976 203.052 421.686 203.321 422.334C203.593 422.978 203.988 423.494 204.506 423.882C205.024 424.269 205.653 424.463 206.393 424.463C206.938 424.463 207.395 424.367 207.763 424.175C208.135 423.983 208.432 423.763 208.655 423.513C208.881 423.264 209.048 423.051 209.155 422.875L209.454 423.082C209.324 423.304 209.128 423.552 208.868 423.824C208.607 424.096 208.273 424.332 207.866 424.532C207.46 424.731 206.969 424.831 206.393 424.831ZM220.026 415.809V416.177H216.527V415.809H220.026ZM217.747 424.647V414.359C217.747 413.945 217.839 413.586 218.023 413.283C218.211 412.98 218.459 412.746 218.765 412.581C219.076 412.416 219.412 412.334 219.772 412.334C219.91 412.334 220.035 412.345 220.146 412.368C220.258 412.391 220.367 412.422 220.474 412.46L220.359 412.806C220.263 412.775 220.169 412.75 220.077 412.731C219.985 412.712 219.884 412.702 219.772 412.702C219.331 412.702 218.944 412.85 218.61 413.145C218.28 413.441 218.115 413.845 218.115 414.359L218.104 424.647H217.747ZM225.118 424.831C224.423 424.831 223.8 424.632 223.248 424.233C222.695 423.83 222.258 423.283 221.936 422.593C221.617 421.899 221.458 421.118 221.458 420.251C221.458 419.38 221.617 418.6 221.936 417.909C222.258 417.219 222.695 416.674 223.248 416.275C223.8 415.872 224.423 415.671 225.118 415.671C225.812 415.671 226.433 415.872 226.982 416.275C227.534 416.678 227.971 417.225 228.294 417.915C228.616 418.605 228.777 419.384 228.777 420.251C228.777 421.118 228.616 421.899 228.294 422.593C227.975 423.283 227.54 423.83 226.988 424.233C226.435 424.632 225.812 424.831 225.118 424.831ZM225.118 424.463C225.743 424.463 226.303 424.279 226.798 423.91C227.296 423.542 227.69 423.04 227.977 422.403C228.265 421.766 228.409 421.049 228.409 420.251C228.409 419.453 228.263 418.738 227.971 418.105C227.684 417.468 227.293 416.966 226.798 416.597C226.303 416.225 225.743 416.039 225.118 416.039C224.496 416.039 223.936 416.225 223.438 416.597C222.943 416.966 222.55 417.468 222.258 418.105C221.97 418.738 221.826 419.453 221.826 420.251C221.826 421.049 221.97 421.766 222.258 422.403C222.546 423.04 222.937 423.542 223.432 423.91C223.93 424.279 224.492 424.463 225.118 424.463ZM231.371 424.647V415.809H231.739V417.213H231.785C231.992 416.753 232.331 416.385 232.803 416.108C233.279 415.832 233.822 415.694 234.432 415.694C234.478 415.694 234.508 415.694 234.524 415.694C234.539 415.694 234.57 415.694 234.616 415.694V416.062C234.57 416.062 234.539 416.062 234.524 416.062C234.508 416.062 234.478 416.062 234.432 416.062C233.91 416.062 233.446 416.175 233.039 416.402C232.636 416.628 232.318 416.941 232.084 417.34C231.854 417.739 231.739 418.195 231.739 418.709V424.647H231.371ZM240.552 412.863L244.603 424.187H244.649L248.699 412.863H249.091L244.879 424.647H244.373L240.161 412.863H240.552ZM251.227 424.647V415.809H251.595V424.647H251.227ZM251.411 414.198C251.311 414.198 251.225 414.162 251.152 414.089C251.079 414.016 251.043 413.93 251.043 413.83C251.043 413.73 251.079 413.644 251.152 413.571C251.225 413.498 251.311 413.462 251.411 413.462C251.511 413.462 251.597 413.498 251.67 413.571C251.743 413.644 251.779 413.73 251.779 413.83C251.779 413.93 251.743 414.016 251.67 414.089C251.597 414.162 251.511 414.198 251.411 414.198ZM257.534 415.809V416.177H254.036V415.809H257.534ZM255.325 413.692H255.693V422.783C255.693 423.128 255.77 423.425 255.923 423.675C256.077 423.92 256.28 424.11 256.533 424.244C256.786 424.375 257.059 424.44 257.35 424.44C257.461 424.44 257.563 424.43 257.655 424.411C257.751 424.392 257.849 424.363 257.949 424.325L258.064 424.67C257.949 424.712 257.835 424.745 257.724 424.768C257.613 424.795 257.488 424.808 257.35 424.808C256.99 424.808 256.654 424.726 256.343 424.561C256.036 424.396 255.789 424.162 255.601 423.859C255.417 423.556 255.325 423.197 255.325 422.783V413.692ZM262.615 424.831C262.132 424.831 261.685 424.731 261.274 424.532C260.868 424.332 260.54 424.041 260.29 423.657C260.045 423.274 259.922 422.806 259.922 422.253C259.922 421.954 259.97 421.674 260.066 421.413C260.162 421.149 260.331 420.909 260.572 420.694C260.814 420.479 261.151 420.295 261.585 420.142C262.022 419.988 262.58 419.871 263.259 419.791C263.666 419.745 264.049 419.691 264.41 419.63C264.771 419.568 265.064 419.476 265.29 419.353C265.517 419.231 265.63 419.054 265.63 418.824V418.295C265.63 417.616 265.402 417.071 264.945 416.661C264.489 416.246 263.881 416.039 263.121 416.039C262.5 416.039 261.957 416.177 261.493 416.454C261.029 416.726 260.705 417.109 260.52 417.604L260.175 417.466C260.313 417.098 260.526 416.78 260.814 416.511C261.102 416.243 261.443 416.035 261.838 415.89C262.233 415.744 262.661 415.671 263.121 415.671C263.57 415.671 263.971 415.738 264.324 415.872C264.68 416.003 264.983 416.187 265.233 416.425C265.482 416.659 265.672 416.935 265.802 417.253C265.933 417.572 265.998 417.919 265.998 418.295V424.647H265.63V422.852H265.584C265.4 423.251 265.16 423.6 264.865 423.899C264.573 424.194 264.236 424.424 263.852 424.589C263.472 424.75 263.06 424.831 262.615 424.831ZM262.615 424.463C263.175 424.463 263.683 424.313 264.14 424.014C264.596 423.711 264.959 423.291 265.227 422.754C265.496 422.213 265.63 421.586 265.63 420.872V419.538C265.522 419.618 265.392 419.689 265.239 419.75C265.089 419.812 264.918 419.867 264.726 419.917C264.539 419.963 264.333 420.004 264.111 420.038C263.888 420.073 263.651 420.105 263.397 420.136C262.607 420.228 261.986 420.368 261.533 420.556C261.081 420.744 260.76 420.98 260.572 421.264C260.384 421.548 260.29 421.877 260.29 422.253C260.29 422.921 260.513 423.456 260.958 423.859C261.407 424.261 261.959 424.463 262.615 424.463ZM269.54 412.863V424.647H269.171V412.863H269.54ZM272.714 424.647V415.809H273.082V424.647H272.714ZM272.898 414.198C272.799 414.198 272.712 414.162 272.639 414.089C272.566 414.016 272.53 413.93 272.53 413.83C272.53 413.73 272.566 413.644 272.639 413.571C272.712 413.498 272.799 413.462 272.898 413.462C272.998 413.462 273.084 413.498 273.157 413.571C273.23 413.644 273.267 413.73 273.267 413.83C273.267 413.93 273.23 414.016 273.157 414.089C273.084 414.162 272.998 414.198 272.898 414.198ZM279.022 415.809V416.177H275.523V415.809H279.022ZM276.812 413.692H277.181V422.783C277.181 423.128 277.257 423.425 277.411 423.675C277.564 423.92 277.767 424.11 278.021 424.244C278.274 424.375 278.546 424.44 278.838 424.44C278.949 424.44 279.05 424.43 279.143 424.411C279.238 424.392 279.336 424.363 279.436 424.325L279.551 424.67C279.436 424.712 279.323 424.745 279.212 424.768C279.1 424.795 278.976 424.808 278.838 424.808C278.477 424.808 278.141 424.726 277.831 424.561C277.524 424.396 277.276 424.162 277.088 423.859C276.904 423.556 276.812 423.197 276.812 422.783V413.692ZM282.296 427.961C282.146 427.961 281.987 427.94 281.818 427.898C281.649 427.859 281.479 427.804 281.306 427.731L281.444 427.409C281.824 427.57 282.169 427.627 282.48 427.581C282.794 427.539 283.07 427.395 283.308 427.15C283.55 426.904 283.749 426.561 283.907 426.12L284.378 424.808L281.156 415.809H281.548L284.54 424.187H284.586L287.578 415.809H287.969L284.252 426.258C284.121 426.626 283.958 426.937 283.763 427.19C283.567 427.443 283.345 427.635 283.095 427.765C282.85 427.896 282.583 427.961 282.296 427.961Z" fill="white"/>
<path d="M386.289 423.209V422.765C386.544 422.765 386.72 422.715 386.819 422.613C386.917 422.512 386.966 422.348 386.966 422.121V421.634C386.966 421.362 387.004 421.144 387.079 420.981C387.155 420.816 387.261 420.692 387.396 420.608C387.533 420.524 387.695 420.468 387.882 420.44C388.068 420.413 388.273 420.399 388.495 420.399V421.1C388.321 421.1 388.189 421.123 388.098 421.168C388.008 421.213 387.947 421.282 387.915 421.376C387.882 421.468 387.866 421.586 387.866 421.729V422.373C387.866 422.485 387.846 422.591 387.805 422.693C387.763 422.793 387.687 422.882 387.575 422.96C387.463 423.036 387.304 423.097 387.096 423.143C386.889 423.187 386.62 423.209 386.289 423.209ZM388.495 425.982C388.273 425.982 388.068 425.968 387.882 425.94C387.695 425.912 387.533 425.856 387.396 425.772C387.261 425.688 387.155 425.564 387.079 425.399C387.004 425.236 386.966 425.018 386.966 424.746V424.257C386.966 424.03 386.917 423.866 386.819 423.765C386.72 423.663 386.544 423.613 386.289 423.613V423.169C386.62 423.169 386.889 423.192 387.096 423.238C387.304 423.282 387.463 423.343 387.575 423.421C387.687 423.497 387.763 423.586 387.805 423.688C387.846 423.788 387.866 423.894 387.866 424.007V424.651C387.866 424.793 387.882 424.91 387.915 425.002C387.947 425.096 388.008 425.165 388.098 425.21C388.189 425.255 388.321 425.278 388.495 425.278V425.982ZM386.289 423.613V422.765H387.081V423.613H386.289ZM390.66 420.9H395.68V421.627H390.66V420.9ZM390.99 422.708H395.381V423.428H390.99V422.708ZM390.393 424.634H395.984V425.366H390.393V424.634ZM392.772 421.534H393.592V425.025H392.772V421.534ZM392.22 420.142L392.835 419.714C393.232 419.969 393.766 420.372 394.033 420.664L393.375 421.143C393.139 420.857 392.63 420.434 392.22 420.142ZM399.413 421.074H401.854V421.789H399.413V421.074ZM401.469 421.074H402.202C402.202 421.074 402.196 421.323 402.196 421.41C402.127 423.932 402.065 424.845 401.854 425.137C401.705 425.348 401.562 425.416 401.338 425.453C401.14 425.491 400.823 425.491 400.506 425.478C400.487 425.267 400.407 424.95 400.276 424.745C400.574 424.776 400.841 424.776 400.978 424.776C401.078 424.776 401.14 424.752 401.208 424.671C401.357 424.484 401.419 423.596 401.469 421.236V421.074ZM400.121 419.838H400.854C400.848 422.254 400.823 424.335 399.593 425.553C399.469 425.366 399.226 425.106 399.034 424.981C400.152 423.913 400.115 422.068 400.121 419.838ZM396.785 420.205H399.233V420.863H396.785V420.205ZM396.58 421.652H399.338V422.323H396.58V421.652ZM398.369 422.888L398.966 422.72C399.195 423.242 399.456 423.938 399.556 424.366L398.91 424.571C398.823 424.143 398.587 423.428 398.369 422.888ZM396.854 424.882L396.779 424.255L397.096 424.019L399.102 423.546C399.121 423.745 399.171 424.025 399.208 424.18C397.332 424.665 397.04 424.764 396.854 424.882ZM396.847 424.882C396.81 424.739 396.692 424.397 396.611 424.217C396.729 424.174 396.816 424.031 396.922 423.801C397.015 423.584 397.301 422.72 397.431 421.938L398.164 422.149C397.978 422.963 397.642 423.863 397.332 424.484V424.497C397.332 424.497 396.847 424.745 396.847 424.882ZM406.507 419.77H407.184V424.658H406.507V419.77ZM405.326 421.049H408.544V421.59H405.326V421.049ZM405.5 423.553H408.426V424.093H405.5V423.553ZM405.656 422.708H408.271V423.248H405.656V422.708ZM404.177 420.223H405.041V420.82H404.177V420.223ZM404.494 421.931H405.177V422.472H404.494V421.931ZM404.873 420.223H404.96L405.065 420.198L405.531 420.316C405.277 421.025 404.879 421.975 404.55 422.727L403.941 422.584C404.277 421.838 404.68 420.826 404.873 420.298V420.223ZM404.997 421.931H405.115L405.233 421.919L405.624 421.981C405.5 423.733 405.103 424.894 404.264 425.547C404.177 425.385 403.991 425.124 403.854 424.994C404.531 424.515 404.904 423.41 404.997 422.037V421.931ZM404.531 422.857C404.867 424.491 405.662 424.814 406.836 424.82C407.122 424.82 408.24 424.82 408.594 424.801C408.494 424.963 408.395 425.28 408.358 425.472H406.799C405.314 425.472 404.419 425.043 403.972 423.018L404.531 422.857ZM405.73 420.229H408.233V422.416H405.73V421.876H407.606V420.77H405.73V420.229ZM403.68 419.745L404.345 419.944C404.022 420.975 403.488 422.093 402.898 422.807C402.848 422.633 402.674 422.199 402.568 422.006C403.028 421.447 403.438 420.602 403.68 419.745ZM403.258 421.54L403.898 420.9L403.91 420.913V425.553H403.258V421.54ZM410.209 421.994H414.725V422.515H410.209V421.994ZM410.575 421.211H414.166V423.31H410.507V422.813H413.464V421.714H410.575V421.211ZM411.88 420.851H412.594V424.826C412.594 425.199 412.513 425.36 412.271 425.46C412.029 425.559 411.675 425.571 411.159 425.571C411.128 425.391 411.035 425.118 410.936 424.944C411.259 424.957 411.631 424.957 411.737 424.95C411.842 424.95 411.88 424.919 411.88 424.82V420.851ZM410.209 423.689L410.613 423.292C410.917 423.435 411.314 423.677 411.519 423.851L411.085 424.292C410.904 424.112 410.513 423.857 410.209 423.689ZM413.93 423.335L414.476 423.776C414.085 424.031 413.631 424.292 413.277 424.447L412.861 424.074C413.197 423.894 413.662 423.571 413.93 423.335ZM412.712 423.155C413.023 423.981 413.669 424.621 414.625 424.894C414.47 425.031 414.271 425.304 414.172 425.491C413.159 425.124 412.52 424.348 412.153 423.286L412.712 423.155ZM409.948 424.739C410.358 424.609 410.973 424.379 411.575 424.149L411.706 424.683C411.227 424.913 410.712 425.143 410.296 425.329L409.948 424.739ZM411.625 419.726H412.401V420.602H411.625V419.726ZM409.743 420.26H414.65V420.906H409.743V420.26ZM409.389 420.26H410.097V422.062C410.097 423.081 410.004 424.615 409.445 425.584C409.314 425.46 409.004 425.248 408.836 425.18C409.352 424.286 409.389 422.987 409.389 422.062V420.26ZM418.71 423.169V423.613C418.457 423.613 418.281 423.663 418.181 423.765C418.082 423.866 418.033 424.03 418.033 424.257V424.746C418.033 425.018 417.995 425.236 417.918 425.399C417.843 425.564 417.738 425.688 417.601 425.772C417.466 425.856 417.304 425.912 417.118 425.94C416.932 425.968 416.728 425.982 416.504 425.982V425.278C416.678 425.278 416.81 425.255 416.899 425.21C416.991 425.165 417.052 425.096 417.085 425.002C417.117 424.91 417.133 424.793 417.133 424.651V424.007C417.133 423.894 417.154 423.788 417.195 423.688C417.236 423.586 417.313 423.497 417.424 423.421C417.536 423.343 417.696 423.282 417.903 423.238C418.11 423.192 418.379 423.169 418.71 423.169ZM416.504 420.399C416.728 420.399 416.932 420.413 417.118 420.44C417.304 420.468 417.466 420.524 417.601 420.608C417.738 420.692 417.843 420.816 417.918 420.981C417.995 421.144 418.033 421.362 418.033 421.634V422.121C418.033 422.348 418.082 422.512 418.181 422.613C418.281 422.715 418.457 422.765 418.71 422.765V423.209C418.379 423.209 418.11 423.187 417.903 423.143C417.696 423.097 417.536 423.036 417.424 422.96C417.313 422.882 417.236 422.793 417.195 422.693C417.154 422.591 417.133 422.485 417.133 422.373V421.729C417.133 421.586 417.117 421.468 417.085 421.376C417.052 421.282 416.991 421.213 416.899 421.168C416.81 421.123 416.678 421.1 416.504 421.1V420.399ZM418.71 422.765V423.613H417.918V422.765H418.71Z" fill="white"/>
<path d="M432.847 420.08H435.885V420.788H432.847V420.08ZM434.425 422.012H435.189V424.696C435.189 425.093 435.108 425.304 434.835 425.422C434.568 425.534 434.176 425.54 433.617 425.54C433.592 425.323 433.493 425 433.394 424.783C433.748 424.801 434.158 424.801 434.269 424.801C434.387 424.795 434.425 424.77 434.425 424.677V422.012ZM432.58 421.801H436.046V422.509H432.58V421.801ZM431.188 422.534L431.841 421.882L431.934 421.919V425.565H431.188V422.534ZM431.89 421.08L432.599 421.348C432.108 422.174 431.344 423.043 430.679 423.59C430.574 423.435 430.319 423.099 430.17 422.95C430.803 422.503 431.48 421.782 431.89 421.08ZM431.654 419.726L432.369 420.018C431.915 420.608 431.244 421.254 430.654 421.664C430.555 421.497 430.362 421.205 430.238 421.056C430.754 420.72 431.35 420.161 431.654 419.726ZM436.742 421.18H441.494V421.931H436.742V421.18ZM441.177 421.18H441.966C441.966 421.18 441.96 421.428 441.953 421.534C441.873 423.932 441.792 424.826 441.543 425.137C441.369 425.373 441.189 425.441 440.928 425.478C440.692 425.516 440.307 425.509 439.928 425.497C439.916 425.273 439.81 424.938 439.667 424.714C440.053 424.752 440.413 424.752 440.574 424.752C440.699 424.752 440.767 424.727 440.848 424.652C441.034 424.46 441.115 423.534 441.177 421.323V421.18ZM438.674 419.739H439.431V420.583C439.431 421.95 439.257 424.087 437.183 425.447C437.059 425.273 436.773 425.012 436.593 424.888C438.525 423.683 438.674 421.782 438.674 420.577V419.739ZM437.127 420.142L437.779 419.882C438.009 420.155 438.282 420.546 438.4 420.807L437.705 421.105C437.605 420.851 437.35 420.447 437.127 420.142ZM439.282 422.801L439.91 422.509C440.183 422.857 440.518 423.335 440.661 423.652L439.997 423.981C439.866 423.664 439.549 423.168 439.282 422.801ZM443.276 421.838H444.724V422.509H443.276V421.838ZM442.873 420.198H445.165V422.72H444.444V420.888H442.873V420.198ZM442.873 421.838H443.593V423.739C443.593 423.963 443.631 423.987 443.854 423.987C443.954 423.987 444.364 423.987 444.488 423.987C444.68 423.987 444.718 423.901 444.742 423.335C444.892 423.453 445.202 423.571 445.407 423.621C445.32 424.466 445.121 424.689 444.556 424.689C444.407 424.689 443.891 424.689 443.749 424.689C443.065 424.689 442.873 424.484 442.873 423.751V421.838ZM445.941 420.813H448.525V421.521H445.941V420.813ZM445.991 419.732L446.767 419.869C446.519 421.018 446.084 422.099 445.525 422.77C445.382 422.64 445.053 422.404 444.867 422.292C445.42 421.714 445.798 420.745 445.991 419.732ZM447.345 421.118L448.103 421.198C447.786 423.491 447.01 424.832 445.208 425.59C445.134 425.416 444.904 425.087 444.761 424.925C446.438 424.323 447.103 423.149 447.345 421.118ZM446.277 421.372C446.581 423.012 447.252 424.323 448.619 424.888C448.451 425.037 448.215 425.342 448.103 425.547C446.631 424.845 445.966 423.416 445.593 421.49L446.277 421.372ZM450.687 420.757H451.439V422.702H450.687V420.757ZM449.115 420.323H454.513V420.981H449.115V420.323ZM449.88 421.13L450.544 421.304C450.339 421.782 449.985 422.261 449.662 422.565C449.525 422.447 449.246 422.261 449.084 422.174C449.414 421.913 449.712 421.515 449.88 421.13ZM452.905 421.478L453.445 421.13C453.843 421.428 454.296 421.863 454.52 422.155L453.954 422.559C453.725 422.248 453.277 421.782 452.905 421.478ZM451.271 419.819L452.004 419.652C452.134 419.863 452.29 420.155 452.364 420.341L451.6 420.534C451.538 420.347 451.389 420.043 451.271 419.819ZM452.172 420.689H452.923V422.702H452.172V420.689ZM450.532 423.168C451.246 424.186 452.762 424.752 454.7 424.919C454.551 425.081 454.371 425.379 454.277 425.571C452.277 425.348 450.799 424.683 449.904 423.428L450.532 423.168ZM449.476 422.845H453.371V423.491H449.476V422.845ZM453.24 422.845H453.389L453.513 422.813L453.985 423.136C453.147 424.634 451.296 425.298 449.302 425.571C449.246 425.385 449.072 425.068 448.948 424.913C450.892 424.727 452.6 424.168 453.24 422.956V422.845Z" fill="white"/>
<path d="M351.17 422.919H355.245V425.553H354.474V423.509H351.903V425.553H351.17V422.919ZM351.611 423.851H354.735V424.391H351.611V423.851ZM351.07 420.192H353.04V420.77H351.07V420.192ZM350.331 421.18H353.189V421.764H350.331V421.18ZM351.611 424.758H354.735V425.348H351.611V424.758ZM351.53 420.366H352.232V421.049C352.232 421.683 351.996 422.54 350.735 423.118C350.636 422.969 350.424 422.739 350.257 422.621C351.425 422.174 351.53 421.497 351.53 421.043V420.366ZM350.959 419.689L351.623 419.819C351.468 420.378 351.182 420.913 350.865 421.254C350.729 421.149 350.443 420.981 350.282 420.906C350.598 420.608 350.841 420.149 350.959 419.689ZM352.114 421.733C352.338 421.838 353.033 422.236 353.213 422.354L352.679 422.826C352.437 422.621 351.89 422.217 351.611 422.037L352.114 421.733ZM354.089 420.838V421.888H355.04V420.838H354.089ZM353.4 420.18H355.773V422.553H353.4V420.18ZM357.413 419.695L358.189 419.863C357.965 420.434 357.686 421.043 357.45 421.441L356.804 421.273C357.027 420.851 357.282 420.192 357.413 419.695ZM356.475 420.969C357.145 420.95 358.152 420.906 359.115 420.863L359.108 421.509C358.195 421.577 357.239 421.633 356.531 421.677L356.475 420.969ZM356.841 421.969H358.816V422.584H357.531V425.553H356.841V421.969ZM358.462 421.969H359.202V424.807C359.202 425.124 359.139 425.311 358.928 425.422C358.711 425.534 358.431 425.547 358.052 425.547C358.015 425.348 357.91 425.062 357.816 424.882C358.034 424.894 358.282 424.894 358.363 424.888C358.438 424.888 358.462 424.87 358.462 424.789V421.969ZM357.158 422.907H358.879V423.459H357.158V422.907ZM357.158 423.82H358.879V424.373H357.158V423.82ZM359.686 419.751H360.431V421.615C360.431 421.832 360.469 421.863 360.705 421.863C360.804 421.863 361.251 421.863 361.382 421.863C361.587 421.863 361.624 421.77 361.649 421.223C361.804 421.341 362.109 421.453 362.314 421.497C362.233 422.304 362.034 422.528 361.456 422.528C361.301 422.528 360.742 422.528 360.599 422.528C359.866 422.528 359.686 422.317 359.686 421.627V419.751ZM361.55 420.118L362.022 420.658C361.469 420.925 360.748 421.161 360.133 421.329C360.102 421.18 360.003 420.956 359.922 420.813C360.5 420.633 361.14 420.354 361.55 420.118ZM359.686 422.652H360.425V424.609C360.425 424.838 360.469 424.863 360.711 424.863C360.817 424.863 361.283 424.863 361.419 424.863C361.637 424.863 361.674 424.752 361.705 424.118C361.86 424.23 362.158 424.348 362.363 424.391C362.283 425.267 362.084 425.516 361.487 425.516C361.332 425.516 360.755 425.516 360.605 425.516C359.872 425.516 359.686 425.304 359.686 424.615V422.652ZM361.599 422.913L362.084 423.459C361.519 423.764 360.767 424.025 360.127 424.205C360.09 424.062 359.984 423.826 359.91 423.683C360.512 423.491 361.177 423.186 361.599 422.913ZM358.257 420.378L358.891 420.142C359.195 420.59 359.518 421.18 359.636 421.59L358.959 421.863C358.854 421.466 358.556 420.844 358.257 420.378ZM363.121 420.254L363.599 419.801C363.935 420.074 364.388 420.484 364.6 420.751L364.096 421.267C363.898 420.987 363.457 420.552 363.121 420.254ZM363.519 425.472L363.351 424.82L363.481 424.59L364.711 423.553C364.773 423.751 364.898 424.031 364.991 424.174C363.836 425.149 363.631 425.323 363.519 425.472ZM362.711 421.639H363.836V422.354H362.711V421.639ZM365.593 419.925H367.283V420.615H365.593V419.925ZM364.86 422.422H367.693V423.118H364.86V422.422ZM367.469 422.422H367.6L367.73 422.397L368.184 422.59C367.674 424.348 366.42 425.162 364.773 425.547C364.711 425.36 364.562 425.062 364.438 424.901C365.916 424.64 367.078 423.894 367.469 422.528V422.422ZM365.674 422.994C366.165 423.969 367.177 424.646 368.55 424.907C368.395 425.062 368.196 425.366 368.103 425.565C366.649 425.224 365.662 424.422 365.053 423.205L365.674 422.994ZM365.413 419.925H366.109V420.621C366.109 421.248 365.91 421.944 365.022 422.354C364.935 422.211 364.668 421.919 364.531 421.807C365.314 421.478 365.413 421.025 365.413 420.602V419.925ZM366.941 419.925H367.643V421.285C367.643 421.466 367.656 421.54 367.749 421.54C367.811 421.54 367.997 421.54 368.072 421.54C368.165 421.54 368.32 421.521 368.407 421.497C368.42 421.683 368.438 421.944 368.463 422.112C368.37 422.155 368.221 422.161 368.078 422.161C367.985 422.161 367.768 422.161 367.681 422.161C367.066 422.161 366.941 421.9 366.941 421.279V419.925ZM363.519 425.472C363.463 425.298 363.27 424.981 363.146 424.845C363.283 424.745 363.457 424.522 363.457 424.23V421.639H364.177V424.745C364.177 424.745 363.519 425.205 363.519 425.472ZM369.426 420.267L369.898 419.788C370.246 420.055 370.724 420.441 370.948 420.708L370.445 421.248C370.24 420.981 369.774 420.559 369.426 420.267ZM369.88 425.534L369.706 424.807L369.873 424.565L371.246 423.602C371.29 423.814 371.401 424.137 371.482 424.286C370.221 425.199 369.998 425.379 369.88 425.534ZM368.948 421.639H370.333V422.379H368.948V421.639ZM370.985 421.683H374.718V422.459H370.985V421.683ZM372.482 419.751H373.284V425.559H372.482V419.751ZM369.88 425.534C369.817 425.335 369.637 424.994 369.507 424.838C369.656 424.745 369.848 424.534 369.848 424.255V421.639H370.613V424.814C370.613 424.814 369.88 425.261 369.88 425.534Z" fill="white"/>
<rect x="3.24121" y="386.292" width="4.05065" height="38.8862" fill="#D9D9D9"/>
<path d="M381 418V427.455" stroke="white" stroke-width="0.30015"/>
<path d="M424 417.958V427.413" stroke="white" stroke-width="0.30015"/>
</svg>
