<svg width="1010" height="516" viewBox="0 0 1010 516" fill="none" xmlns="http://www.w3.org/2000/svg">
<ellipse cx="502.492" cy="259.5" rx="403.5" ry="256.5" fill="url(#paint0_radial_322_82)"/>
<path d="M807.702 166.745C808.382 166.745 808.957 166.98 809.427 167.45C809.897 167.92 810.132 168.49 810.132 169.16C810.132 169.82 809.897 170.395 809.427 170.885C808.937 171.355 808.362 171.59 807.702 171.59C807.032 171.59 806.462 171.355 805.992 170.885C805.522 170.415 805.287 169.84 805.287 169.16C805.287 168.48 805.522 167.91 805.992 167.45C806.452 166.98 807.022 166.745 807.702 166.745ZM826.362 171.62V172.88H831.372V171.62H826.362ZM831.372 171.005V169.685H826.362V171.005H831.372ZM826.362 173.495V175.985H825.582V169.025H832.137V174.455C832.137 175.435 831.747 175.925 830.967 175.925H829.842L829.647 175.235L830.727 175.265C831.157 175.265 831.372 174.94 831.372 174.29V173.495H826.362ZM828.477 162.245H829.302V163.385H832.872V164.045H829.302V165.29H832.377V165.935H829.302V167.18H833.292V167.84H824.397V167.645L823.947 167.75C823.637 166.86 823.237 165.975 822.747 165.095L823.302 164.915C823.682 165.535 824.047 166.29 824.397 167.18H828.477V165.935H825.357V165.29H828.477V164.045H824.832V163.385H828.477V162.245ZM820.917 165.245C820.857 166.715 820.577 168.115 820.077 169.445L819.462 169.28C819.952 168.01 820.227 166.65 820.287 165.2L820.917 165.245ZM821.652 162.395H822.462V175.955H821.652V162.395ZM837.612 165.95H842.547V166.64H837.612V165.95ZM838.107 167.735H842.142V170.675H838.107V167.735ZM841.377 170.015V168.395H838.872V170.015H841.377ZM847.602 163.79V164.54H843.912C843.972 165.7 844.107 166.655 844.317 167.405C844.457 167.945 844.612 168.415 844.782 168.815C845.372 167.925 845.882 166.825 846.312 165.515L846.957 165.845C846.487 167.325 845.887 168.565 845.157 169.565L845.427 169.955C845.857 170.475 846.252 170.735 846.612 170.735C846.892 170.735 847.197 170.08 847.527 168.77L848.187 169.16C847.757 170.72 847.257 171.5 846.687 171.5C846.097 171.5 845.522 171.195 844.962 170.585C844.882 170.495 844.782 170.36 844.662 170.18C844.162 170.72 843.607 171.175 842.997 171.545L842.577 170.9C843.177 170.55 843.737 170.085 844.257 169.505C843.987 168.975 843.762 168.4 843.582 167.78C843.352 166.93 843.197 165.85 843.117 164.54H836.817V166.49C836.757 168.53 836.267 170.16 835.347 171.38L834.732 170.84C835.552 169.78 835.977 168.33 836.007 166.49V163.79H843.087C843.067 163.47 843.057 162.97 843.057 162.29H843.837C843.837 162.97 843.847 163.47 843.867 163.79H845.832C845.632 163.33 845.407 162.905 845.157 162.515L845.907 162.38C846.167 162.88 846.382 163.35 846.552 163.79H847.602ZM837.207 171.8C836.787 173.25 836.212 174.495 835.482 175.535L834.792 175.085C835.542 174.055 836.097 172.905 836.457 171.635L837.207 171.8ZM840.057 175.79C839.097 175.79 838.617 175.295 838.617 174.305V171.575H839.442V174.14C839.442 174.73 839.727 175.025 840.297 175.025H843.027C843.467 175.025 843.777 174.95 843.957 174.8C844.177 174.61 844.332 174.055 844.422 173.135L845.202 173.375C845.082 174.515 844.862 175.215 844.542 175.475C844.262 175.685 843.807 175.79 843.177 175.79H840.057ZM846.057 171.995C846.977 172.995 847.702 173.905 848.232 174.725L847.587 175.175C847.037 174.315 846.307 173.395 845.397 172.415L846.057 171.995ZM841.362 171.455C842.132 172.285 842.692 172.965 843.042 173.495L842.427 173.915C841.997 173.265 841.437 172.575 840.747 171.845L841.362 171.455ZM854.367 166.94H858.522V162.32H859.362V166.94H863.322V167.75H859.362V176.06H858.522V167.75H854.367V166.94ZM851.262 162.5C852.282 163.28 853.157 164.075 853.887 164.885L853.332 165.455C852.642 164.675 851.757 163.875 850.677 163.055L851.262 162.5ZM849.657 167.015H852.747V173.915C853.347 173.435 853.997 172.86 854.697 172.19L854.907 173.03C853.987 173.93 853.012 174.72 851.982 175.4L851.667 174.68C851.857 174.49 851.952 174.31 851.952 174.14V167.81H849.657V167.015ZM866.697 165.755H876.372V171.5H874.557V172.685H878.082V173.405H874.557V176.06H873.762V173.405H869.292C869.142 173.885 868.927 174.295 868.647 174.635C868.137 175.205 867.317 175.655 866.187 175.985L865.752 175.325C866.812 175.035 867.567 174.645 868.017 174.155C868.207 173.905 868.342 173.655 868.422 173.405H864.822V172.685H868.602C868.632 172.505 868.647 172.335 868.647 172.175V171.5H866.697V165.755ZM869.457 171.5V172.175C869.457 172.295 869.447 172.465 869.427 172.685H873.762V171.5H869.457ZM875.577 170.84V169.715H867.507V170.84H875.577ZM867.507 169.115H875.577V168.095H867.507V169.115ZM867.507 167.48H875.577V166.415H867.507V167.48ZM866.967 164.105C866.597 164.735 866.162 165.32 865.662 165.86L864.987 165.425C865.897 164.485 866.567 163.425 866.997 162.245L867.762 162.41C867.662 162.67 867.522 162.995 867.342 163.385H871.257V164.105H869.082C869.382 164.495 869.622 164.855 869.802 165.185L869.112 165.44C868.882 165 868.592 164.555 868.242 164.105H866.967ZM873.132 164.075C872.852 164.585 872.502 165.08 872.082 165.56L871.407 165.125C872.147 164.295 872.702 163.345 873.072 162.275L873.852 162.44L873.492 163.355H877.962V164.075H875.247C875.567 164.475 875.822 164.85 876.012 165.2L875.337 165.455C875.107 165.055 874.787 164.595 874.377 164.075H873.132Z" fill="white"/>
<path d="M846.202 219.745C846.882 219.745 847.457 219.98 847.927 220.45C848.397 220.92 848.632 221.49 848.632 222.16C848.632 222.82 848.397 223.395 847.927 223.885C847.437 224.355 846.862 224.59 846.202 224.59C845.532 224.59 844.962 224.355 844.492 223.885C844.022 223.415 843.787 222.84 843.787 222.16C843.787 221.48 844.022 220.91 844.492 220.45C844.952 219.98 845.522 219.745 846.202 219.745ZM860.947 219.04C860.327 220.46 859.567 221.62 858.667 222.52L858.127 221.86C859.587 220.36 860.572 218.315 861.082 215.725L861.907 215.89C861.737 216.71 861.517 217.5 861.247 218.26H864.817V215.455H865.612V218.26H870.667V219.04H865.612V222.805H870.367V223.6H865.612V227.695H871.627V228.505H858.487V227.695H864.817V223.6H860.302V222.805H864.817V219.04H860.947ZM883.492 215.35C884.242 215.92 884.872 216.49 885.382 217.06L884.842 217.585C884.372 217.045 883.747 216.465 882.967 215.845L883.492 215.35ZM885.517 220.195C884.907 222.215 884.112 223.915 883.132 225.295C883.362 225.845 883.627 226.34 883.927 226.78C884.467 227.53 884.912 227.905 885.262 227.905C885.592 227.895 885.877 227.09 886.117 225.49L886.852 225.88C886.522 227.83 886.042 228.805 885.412 228.805C884.792 228.805 884.127 228.355 883.417 227.455C883.107 227.065 882.827 226.585 882.577 226.015C881.487 227.325 880.212 228.305 878.752 228.955L878.287 228.265C879.837 227.575 881.147 226.545 882.217 225.175C881.987 224.585 881.792 223.975 881.632 223.345C881.322 222.055 881.112 220.44 881.002 218.5H875.572V221.23H879.247C879.227 223.62 879.137 225.19 878.977 225.94C878.807 226.61 878.372 226.96 877.672 226.99C877.302 226.99 876.862 226.975 876.352 226.945L876.097 226.195C876.877 226.235 877.372 226.255 877.582 226.255C877.962 226.225 878.197 225.965 878.287 225.475C878.387 224.805 878.437 223.65 878.437 222.01H875.572V222.7C875.532 225.33 874.962 227.44 873.862 229.03L873.247 228.475C874.227 227.095 874.737 225.17 874.777 222.7V217.735H880.972C880.942 216.955 880.927 216.145 880.927 215.305H881.737C881.737 215.925 881.757 216.735 881.797 217.735H886.552V218.5H881.827C881.937 220.47 882.137 222.02 882.427 223.15C882.537 223.57 882.657 223.98 882.787 224.38C883.617 223.13 884.282 221.63 884.782 219.88L885.517 220.195ZM889.672 215.59C890.722 216.39 891.577 217.165 892.237 217.915L891.667 218.485C891.027 217.725 890.177 216.94 889.117 216.13L889.672 215.59ZM888.157 220.045H891.142V226.945C891.702 226.515 892.342 225.955 893.062 225.265L893.272 226.135C892.402 226.965 891.432 227.735 890.362 228.445L890.047 227.71C890.237 227.52 890.332 227.33 890.332 227.14V220.84H888.157V220.045ZM893.482 221.785H900.517V222.535C900.007 224.045 899.172 225.31 898.012 226.33C899.072 227.11 900.377 227.78 901.927 228.34L901.492 229.03C899.872 228.39 898.517 227.655 897.427 226.825C896.217 227.755 894.717 228.49 892.927 229.03L892.477 228.355C894.207 227.815 895.642 227.125 896.782 226.285C895.552 225.205 894.717 223.965 894.277 222.565H893.482V221.785ZM895.072 222.565C895.492 223.785 896.257 224.87 897.367 225.82C898.437 224.89 899.217 223.805 899.707 222.565H895.072ZM894.712 215.995H899.542V219.325C899.542 219.715 899.742 219.91 900.142 219.91H901.567V220.66H899.977C899.147 220.66 898.732 220.26 898.732 219.46V216.76H895.522V217.375C895.522 218.975 894.767 220.215 893.257 221.095L892.702 220.48C894.042 219.76 894.712 218.75 894.712 217.45V215.995ZM907.867 219.94H912.022V215.32H912.862V219.94H916.822V220.75H912.862V229.06H912.022V220.75H907.867V219.94ZM904.762 215.5C905.782 216.28 906.657 217.075 907.387 217.885L906.832 218.455C906.142 217.675 905.257 216.875 904.177 216.055L904.762 215.5ZM903.157 220.015H906.247V226.915C906.847 226.435 907.497 225.86 908.197 225.19L908.407 226.03C907.487 226.93 906.512 227.72 905.482 228.4L905.167 227.68C905.357 227.49 905.452 227.31 905.452 227.14V220.81H903.157V220.015Z" fill="white"/>
<path d="M842.202 308.745C842.882 308.745 843.457 308.98 843.927 309.45C844.397 309.92 844.632 310.49 844.632 311.16C844.632 311.82 844.397 312.395 843.927 312.885C843.437 313.355 842.862 313.59 842.202 313.59C841.532 313.59 840.962 313.355 840.492 312.885C840.022 312.415 839.787 311.84 839.787 311.16C839.787 310.48 840.022 309.91 840.492 309.45C840.952 308.98 841.522 308.745 842.202 308.745ZM855.672 304.59C856.722 305.39 857.577 306.165 858.237 306.915L857.667 307.485C857.027 306.725 856.177 305.94 855.117 305.13L855.672 304.59ZM854.157 309.045H857.142V315.945C857.702 315.515 858.342 314.955 859.062 314.265L859.272 315.135C858.402 315.965 857.432 316.735 856.362 317.445L856.047 316.71C856.237 316.52 856.332 316.33 856.332 316.14V309.84H854.157V309.045ZM859.482 310.785H866.517V311.535C866.007 313.045 865.172 314.31 864.012 315.33C865.072 316.11 866.377 316.78 867.927 317.34L867.492 318.03C865.872 317.39 864.517 316.655 863.427 315.825C862.217 316.755 860.717 317.49 858.927 318.03L858.477 317.355C860.207 316.815 861.642 316.125 862.782 315.285C861.552 314.205 860.717 312.965 860.277 311.565H859.482V310.785ZM861.072 311.565C861.492 312.785 862.257 313.87 863.367 314.82C864.437 313.89 865.217 312.805 865.707 311.565H861.072ZM860.712 304.995H865.542V308.325C865.542 308.715 865.742 308.91 866.142 308.91H867.567V309.66H865.977C865.147 309.66 864.732 309.26 864.732 308.46V305.76H861.522V306.375C861.522 307.975 860.767 309.215 859.257 310.095L858.702 309.48C860.042 308.76 860.712 307.75 860.712 306.45V304.995ZM873.867 308.94H878.022V304.32H878.862V308.94H882.822V309.75H878.862V318.06H878.022V309.75H873.867V308.94ZM870.762 304.5C871.782 305.28 872.657 306.075 873.387 306.885L872.832 307.455C872.142 306.675 871.257 305.875 870.177 305.055L870.762 304.5ZM869.157 309.015H872.247V315.915C872.847 315.435 873.497 314.86 874.197 314.19L874.407 315.03C873.487 315.93 872.512 316.72 871.482 317.4L871.167 316.68C871.357 316.49 871.452 316.31 871.452 316.14V309.81H869.157V309.015ZM893.817 304.395C893.817 305.555 893.777 306.705 893.697 307.845C894.517 311.805 895.922 314.945 897.912 317.265L897.342 317.925C895.602 315.755 894.317 313.06 893.487 309.84C893.397 310.45 893.292 311.035 893.172 311.595C892.602 314.195 891.317 316.315 889.317 317.955L888.777 317.28C890.557 315.8 891.737 313.93 892.317 311.67C892.757 309.77 892.987 307.345 893.007 304.395H893.817ZM885.762 304.5C886.782 305.28 887.657 306.075 888.387 306.885L887.832 307.455C887.142 306.675 886.257 305.875 885.177 305.055L885.762 304.5ZM884.157 309.015H887.247V315.795C887.837 315.325 888.472 314.765 889.152 314.115L889.377 314.955C888.497 315.805 887.532 316.585 886.482 317.295L886.167 316.56C886.357 316.37 886.452 316.185 886.452 316.005V309.81H884.157V309.015ZM911.952 306.015V317.31H911.142V316.29H907.977V317.355H907.182V306.015H911.952ZM907.977 315.525H911.142V306.78H907.977V315.525ZM901.287 307.23C900.877 308.12 900.437 308.91 899.967 309.6L899.262 309.165C900.252 307.725 900.987 306.095 901.467 304.275L902.262 304.455C902.042 305.235 901.827 305.9 901.617 306.45H906.162V307.23H903.852C903.842 308.38 903.772 309.475 903.642 310.515H906.297V311.28H903.537C903.477 311.66 903.392 312.095 903.282 312.585C904.302 313.635 905.317 314.79 906.327 316.05L905.847 316.77C904.717 315.25 903.787 314.1 903.057 313.32C902.447 315.08 901.327 316.54 899.697 317.7L899.172 317.04C900.792 315.88 901.872 314.395 902.412 312.585C902.492 312.265 902.587 311.83 902.697 311.28H899.397V310.515H902.817C902.947 309.475 903.017 308.38 903.027 307.23H901.287Z" fill="white"/>
<path d="M794.702 358.745C795.382 358.745 795.957 358.98 796.427 359.45C796.897 359.92 797.132 360.49 797.132 361.16C797.132 361.82 796.897 362.395 796.427 362.885C795.937 363.355 795.362 363.59 794.702 363.59C794.032 363.59 793.462 363.355 792.992 362.885C792.522 362.415 792.287 361.84 792.287 361.16C792.287 360.48 792.522 359.91 792.992 359.45C793.452 358.98 794.022 358.745 794.702 358.745ZM808.427 359.42V362.195H810.617V359.42H808.427ZM810.617 358.655V355.82H808.427V358.655H810.617ZM808.397 362.96C808.287 365.05 807.892 366.765 807.212 368.105L806.582 367.52C807.262 366.13 807.617 364.335 807.647 362.135V355.025H811.427V366.785C811.427 367.575 811.032 367.97 810.242 367.97H809.177L808.967 367.205C809.447 367.225 809.787 367.235 809.987 367.235C810.407 367.235 810.617 366.99 810.617 366.5V362.96H808.397ZM814.877 357.98C815.377 358.88 815.907 359.88 816.467 360.98C816.847 359.95 817.137 358.865 817.337 357.725L818.072 357.845C817.792 359.335 817.402 360.675 816.902 361.865C817.472 363.045 817.912 364.035 818.222 364.835L817.607 365.27C817.237 364.33 816.872 363.48 816.512 362.72C815.982 363.79 815.352 364.725 814.622 365.525L814.127 364.91C814.907 364.04 815.567 363.02 816.107 361.85C815.527 360.69 814.912 359.525 814.262 358.355L814.877 357.98ZM816.122 354.335C816.292 354.795 816.477 355.415 816.677 356.195H820.247V356.99H812.327V356.195H815.867C815.677 355.515 815.492 354.945 815.312 354.485L816.122 354.335ZM813.632 367.175V367.91H812.867V358.91H813.632V366.425H818.882V358.88H819.647V367.88H818.882V367.175H813.632ZM828.137 360.575V362.885H830.582V360.575H828.137ZM831.377 360.575V362.885H833.867V360.575H831.377ZM833.867 363.65H831.377V367.985H830.582V363.65H828.137V364.535H827.327V356.72H830.582V354.32H831.377V356.72H834.677V364.52H833.867V363.65ZM833.867 359.81V357.485H831.377V359.81H833.867ZM830.582 359.81V357.485H828.137V359.81H830.582ZM823.892 361.46C823.312 362.12 822.632 362.79 821.852 363.47L821.597 362.645C823.617 360.855 824.952 359.095 825.602 357.365H821.942V356.585H826.412V357.275C826.062 358.325 825.487 359.395 824.687 360.485V360.605C825.497 361.155 826.192 361.735 826.772 362.345L826.337 363.02C825.777 362.39 825.227 361.87 824.687 361.46V368.03H823.892V361.46ZM824.192 354.26C824.552 354.96 824.822 355.615 825.002 356.225L824.297 356.48C824.057 355.79 823.767 355.12 823.427 354.47L824.192 354.26ZM845.507 363.035H842.432V362.255H849.422V363.035H846.317V366.71H850.112V367.52H841.742V366.71H845.507V363.035ZM846.362 358.79C845.242 359.81 843.837 360.65 842.147 361.31L841.622 360.65C844.522 359.54 846.527 357.955 847.637 355.895H842.342V355.1H848.627V355.745C848.187 356.685 847.607 357.53 846.887 358.28C848.217 359.13 849.337 359.98 850.247 360.83L849.677 361.415C848.867 360.605 847.762 359.73 846.362 358.79ZM841.562 365.63C840.152 366.36 838.567 366.94 836.807 367.37L836.702 366.575C838.542 366.155 840.162 365.59 841.562 364.88V365.63ZM840.122 354.68C839.332 356.67 838.537 358.245 837.737 359.405C838.527 359.315 839.342 359.21 840.182 359.09C840.582 358.32 840.887 357.75 841.097 357.38L841.847 357.65C840.337 360.38 839.112 362.26 838.172 363.29C839.332 363.08 840.472 362.78 841.592 362.39V363.14C840.102 363.64 838.632 363.99 837.182 364.19L836.957 363.44C837.097 363.38 837.227 363.3 837.347 363.2C838.037 362.5 838.837 361.375 839.747 359.825C839.217 359.905 838.292 360.03 836.972 360.2L836.777 359.45C836.907 359.38 837.022 359.285 837.122 359.165C837.972 357.815 838.712 356.22 839.342 354.38L840.122 354.68ZM856.367 358.94H860.522V354.32H861.362V358.94H865.322V359.75H861.362V368.06H860.522V359.75H856.367V358.94ZM853.262 354.5C854.282 355.28 855.157 356.075 855.887 356.885L855.332 357.455C854.642 356.675 853.757 355.875 852.677 355.055L853.262 354.5ZM851.657 359.015H854.747V365.915C855.347 365.435 855.997 364.86 856.697 364.19L856.907 365.03C855.987 365.93 855.012 366.72 853.982 367.4L853.667 366.68C853.857 366.49 853.952 366.31 853.952 366.14V359.81H851.657V359.015ZM868.697 357.755H878.372V363.5H876.557V364.685H880.082V365.405H876.557V368.06H875.762V365.405H871.292C871.142 365.885 870.927 366.295 870.647 366.635C870.137 367.205 869.317 367.655 868.187 367.985L867.752 367.325C868.812 367.035 869.567 366.645 870.017 366.155C870.207 365.905 870.342 365.655 870.422 365.405H866.822V364.685H870.602C870.632 364.505 870.647 364.335 870.647 364.175V363.5H868.697V357.755ZM871.457 363.5V364.175C871.457 364.295 871.447 364.465 871.427 364.685H875.762V363.5H871.457ZM877.577 362.84V361.715H869.507V362.84H877.577ZM869.507 361.115H877.577V360.095H869.507V361.115ZM869.507 359.48H877.577V358.415H869.507V359.48ZM868.967 356.105C868.597 356.735 868.162 357.32 867.662 357.86L866.987 357.425C867.897 356.485 868.567 355.425 868.997 354.245L869.762 354.41C869.662 354.67 869.522 354.995 869.342 355.385H873.257V356.105H871.082C871.382 356.495 871.622 356.855 871.802 357.185L871.112 357.44C870.882 357 870.592 356.555 870.242 356.105H868.967ZM875.132 356.075C874.852 356.585 874.502 357.08 874.082 357.56L873.407 357.125C874.147 356.295 874.702 355.345 875.072 354.275L875.852 354.44L875.492 355.355H879.962V356.075H877.247C877.567 356.475 877.822 356.85 878.012 357.2L877.337 357.455C877.107 357.055 876.787 356.595 876.377 356.075H875.132Z" fill="white"/>
<path d="M759.183 121.745C759.863 121.745 760.438 121.98 760.908 122.45C761.378 122.92 761.613 123.49 761.613 124.16C761.613 124.82 761.378 125.395 760.908 125.885C760.418 126.355 759.843 126.59 759.183 126.59C758.513 126.59 757.943 126.355 757.473 125.885C757.003 125.415 756.768 124.84 756.768 124.16C756.768 123.48 757.003 122.91 757.473 122.45C757.933 121.98 758.503 121.745 759.183 121.745ZM774.723 118.85H775.803L780.093 129.56H779.088L777.843 126.365H772.683L771.438 129.56H770.433L774.723 118.85ZM772.983 125.585H777.543L775.293 119.84H775.248L772.983 125.585ZM781.316 118.85H782.231V129.56H781.316V118.85ZM789.08 118.64C790.4 118.64 791.455 118.975 792.245 119.645C792.975 120.275 793.44 121.165 793.64 122.315H792.71C792.54 121.435 792.16 120.75 791.57 120.26C790.95 119.74 790.12 119.48 789.08 119.48C787.83 119.48 786.835 119.93 786.095 120.83C785.375 121.7 785.015 122.845 785.015 124.265C785.015 125.655 785.375 126.765 786.095 127.595C786.865 128.495 787.965 128.945 789.395 128.945C790.015 128.945 790.625 128.855 791.225 128.675C791.835 128.485 792.32 128.265 792.68 128.015V124.97H789.02V124.16H793.595V128.45C793.075 128.86 792.46 129.18 791.75 129.41C790.97 129.65 790.16 129.77 789.32 129.77C787.64 129.77 786.33 129.225 785.39 128.135C784.53 127.145 784.1 125.855 784.1 124.265C784.1 122.675 784.525 121.365 785.375 120.335C786.285 119.205 787.52 118.64 789.08 118.64ZM800.318 118.64C801.458 118.64 802.428 118.95 803.228 119.57C804.058 120.2 804.543 121.04 804.683 122.09H803.798C803.668 121.26 803.263 120.615 802.583 120.155C801.943 119.705 801.183 119.48 800.303 119.48C798.993 119.48 797.963 119.945 797.213 120.875C796.513 121.735 796.163 122.86 796.163 124.25C796.163 125.64 796.508 126.755 797.198 127.595C797.918 128.485 798.923 128.93 800.213 128.93C801.113 128.93 801.898 128.685 802.568 128.195C803.278 127.655 803.738 126.89 803.948 125.9H804.833C804.603 127.14 804.043 128.11 803.153 128.81C802.313 129.45 801.338 129.77 800.228 129.77C798.628 129.77 797.378 129.22 796.478 128.12C795.658 127.12 795.248 125.83 795.248 124.25C795.248 122.67 795.668 121.365 796.508 120.335C797.418 119.205 798.688 118.64 800.318 118.64Z" fill="white"/>
<path d="M204.492 125.185C205.172 125.185 205.747 125.42 206.217 125.89C206.687 126.36 206.922 126.93 206.922 127.6C206.922 128.26 206.687 128.835 206.217 129.325C205.727 129.795 205.152 130.03 204.492 130.03C203.822 130.03 203.252 129.795 202.782 129.325C202.312 128.855 202.077 128.28 202.077 127.6C202.077 126.92 202.312 126.35 202.782 125.89C203.242 125.42 203.812 125.185 204.492 125.185ZM228.192 122.635V134.455H227.382V133.435H219.102V134.455H218.292V122.635H221.457C221.827 122.005 222.092 121.37 222.252 120.73L223.077 120.85C222.897 121.49 222.642 122.085 222.312 122.635H228.192ZM219.102 132.655H227.382V129.97H219.102V132.655ZM219.102 129.19H227.382V126.685H219.102V129.19ZM219.102 125.905H227.382V123.415H219.102V125.905ZM238.407 128.65C237.497 128.96 236.537 129.245 235.527 129.505V132.955C235.527 133.825 235.112 134.26 234.282 134.26H232.632L232.452 133.495C232.992 133.525 233.507 133.54 233.997 133.54C234.477 133.54 234.717 133.275 234.717 132.745V129.7C233.787 129.91 232.747 130.11 231.597 130.3L231.477 129.505C232.617 129.325 233.697 129.115 234.717 128.875V125.74H231.507V124.96H234.717V122.605C233.867 122.785 232.992 122.935 232.092 123.055L231.927 122.275C234.067 122.035 235.972 121.59 237.642 120.94L237.927 121.705C237.167 121.975 236.367 122.215 235.527 122.425V124.96H239.457C239.357 123.77 239.307 122.385 239.307 120.805H240.117C240.117 122.375 240.162 123.76 240.252 124.96H244.977V125.74H240.312C240.422 126.9 240.572 127.865 240.762 128.635C240.872 129.085 240.992 129.505 241.122 129.895C241.922 128.965 242.612 127.9 243.192 126.7L243.897 127.075C243.207 128.515 242.382 129.74 241.422 130.75C241.632 131.3 241.882 131.8 242.172 132.25C242.682 133 243.102 133.375 243.432 133.375C243.792 133.355 244.102 132.46 244.362 130.69L245.082 131.08C244.722 133.19 244.212 134.245 243.552 134.245C242.972 134.245 242.342 133.79 241.662 132.88C241.352 132.44 241.067 131.93 240.807 131.35C239.697 132.38 238.427 133.175 236.997 133.735L236.547 133.045C238.057 132.475 239.372 131.64 240.492 130.54C240.302 130.02 240.132 129.44 239.982 128.8C239.782 127.96 239.627 126.94 239.517 125.74H235.527V128.68C236.547 128.41 237.507 128.125 238.407 127.825V128.65ZM241.767 121C242.847 121.73 243.762 122.48 244.512 123.25L243.942 123.82C243.272 123.11 242.362 122.345 241.212 121.525L241.767 121ZM247.452 121.09C248.482 121.86 249.362 122.63 250.092 123.4L249.522 123.985C248.852 123.225 247.972 122.44 246.882 121.63L247.452 121.09ZM256.437 134.185C255.927 134.185 255.022 134.175 253.722 134.155C252.712 134.125 251.917 134.03 251.337 133.87C250.737 133.68 250.202 133.31 249.732 132.76C249.522 132.51 249.327 132.385 249.147 132.385C248.737 132.385 248.092 133.08 247.212 134.47L246.597 133.93C247.437 132.61 248.162 131.845 248.772 131.635V126.835H246.552V126.055H249.537V131.665C249.717 131.765 249.877 131.905 250.017 132.085C250.407 132.535 250.827 132.865 251.277 133.075C251.777 133.255 252.472 133.36 253.362 133.39C254.382 133.41 255.367 133.42 256.317 133.42H258.387L259.992 133.36L259.797 134.185H256.437ZM255.342 120.88C255.212 121.51 255.052 122.06 254.862 122.53H258.522V126.235H252.597V127.87H258.957V131.845H251.817V122.53H254.082C254.282 121.93 254.427 121.345 254.517 120.775L255.342 120.88ZM252.597 128.59V131.08H258.177V128.59H252.597ZM252.597 125.56H257.727V123.295H252.597V125.56ZM262.047 121.45H266.232V126.025H264.897V128.56H266.547V129.34H264.897V132.31C265.327 132.17 265.842 131.98 266.442 131.74V132.55C265.002 133.13 263.342 133.665 261.462 134.155L261.252 133.36L262.077 133.15V127.585H262.812V132.955L264.117 132.565V126.025H262.047V121.45ZM265.452 125.26V122.215H262.827V125.26H265.452ZM274.722 122.44V125.185H273.957V123.205H267.927V125.185H267.162V122.44H270.447C270.277 121.87 270.077 121.34 269.847 120.85L270.672 120.7C270.892 121.28 271.082 121.86 271.242 122.44H274.722ZM269.052 129.775C268.622 131.405 268.042 132.785 267.312 133.915L266.607 133.465C267.377 132.315 267.937 131.035 268.287 129.625L269.052 129.775ZM273.432 129.505C274.062 130.675 274.617 131.935 275.097 133.285L274.377 133.6C273.857 132.11 273.297 130.825 272.697 129.745L273.432 129.505ZM269.097 134.23L268.917 133.435C269.457 133.475 269.837 133.495 270.057 133.495C270.477 133.495 270.687 133.245 270.687 132.745V128.455H267.207V127.675H274.692V128.455H271.482V132.955C271.482 133.805 271.107 134.23 270.357 134.23H269.097ZM268.302 125.05H273.582V125.815H268.302V125.05Z" fill="white"/>
<path d="M132.492 340.185C133.172 340.185 133.747 340.42 134.217 340.89C134.687 341.36 134.922 341.93 134.922 342.6C134.922 343.26 134.687 343.835 134.217 344.325C133.727 344.795 133.152 345.03 132.492 345.03C131.822 345.03 131.252 344.795 130.782 344.325C130.312 343.855 130.077 343.28 130.077 342.6C130.077 341.92 130.312 341.35 130.782 340.89C131.242 340.42 131.812 340.185 132.492 340.185ZM157.992 343.995L158.127 344.805L156.507 345.075V349.425H155.697V345.21L150.897 345.99L150.777 345.18L155.697 344.37V335.835H156.507V344.235L157.992 343.995ZM151.992 336.615C153.162 337.445 154.107 338.25 154.827 339.03L154.272 339.6C153.572 338.83 152.627 338.02 151.437 337.17L151.992 336.615ZM151.542 340.08C152.682 340.91 153.647 341.75 154.437 342.6L153.852 343.17C153.142 342.39 152.182 341.545 150.972 340.635L151.542 340.08ZM144.732 339.915H147.252V337.44C146.732 337.52 145.947 337.62 144.897 337.74L144.732 336.975C146.642 336.805 148.372 336.485 149.922 336.015L150.207 336.78C149.617 336.95 148.907 337.12 148.077 337.29V339.915H150.252V340.71H148.077V341.535C148.977 342.275 149.872 343.1 150.762 344.01L150.312 344.685C149.422 343.675 148.677 342.885 148.077 342.315V349.425H147.252V342.045C146.652 343.615 145.797 345.03 144.687 346.29L144.327 345.42C145.667 344.05 146.617 342.48 147.177 340.71H144.732V339.915ZM159.852 349.29L159.687 348.54C160.077 348.57 160.452 348.585 160.812 348.585C161.262 348.585 161.487 348.345 161.487 347.865V343.98C160.847 344.25 160.187 344.49 159.507 344.7L159.297 343.905C160.067 343.685 160.797 343.445 161.487 343.185V339.42H159.582V338.625H161.487V335.805H162.297V338.625H163.962V339.42H162.297V342.84C162.857 342.58 163.432 342.28 164.022 341.94V342.735C163.522 343.025 162.947 343.32 162.297 343.62V348.06C162.297 348.88 161.897 349.29 161.097 349.29H159.852ZM164.592 338.055H168.267V335.82H169.077V338.055H172.752V338.82H169.077V341.505H172.152V342.24C171.582 343.97 170.672 345.43 169.422 346.62C170.422 347.44 171.682 348.17 173.202 348.81L172.782 349.47C171.202 348.77 169.897 347.98 168.867 347.1C167.657 348.1 166.197 348.9 164.487 349.5L164.097 348.81C165.767 348.24 167.167 347.5 168.297 346.59C166.997 345.33 166.122 343.895 165.672 342.285H164.862V341.505H168.267V338.82H164.592V338.055ZM166.437 342.285C166.857 343.715 167.657 344.99 168.837 346.11C169.977 345.03 170.817 343.755 171.357 342.285H166.437ZM179.442 343.8V343.02H183.057V341.25H183.852V343.02H187.572V343.8H184.707C185.367 345.28 186.497 346.585 188.097 347.715L187.572 348.375C185.882 347.005 184.707 345.48 184.047 343.8H183.852V349.41H183.057V343.8H182.877C182.127 345.69 180.857 347.245 179.067 348.465L178.632 347.76C180.302 346.74 181.502 345.42 182.232 343.8H179.442ZM174.867 349.32L174.687 348.54C175.247 348.58 175.652 348.6 175.902 348.6C176.332 348.6 176.547 348.37 176.547 347.91V343.905C175.937 344.125 175.257 344.35 174.507 344.58L174.297 343.77C175.077 343.59 175.827 343.365 176.547 343.095V339.54H174.597V338.745H176.547V335.835H177.357V338.745H178.722V339.54H177.357V342.765C177.827 342.565 178.317 342.33 178.827 342.06V342.885C178.247 343.175 177.757 343.405 177.357 343.575V348.12C177.357 348.92 176.967 349.32 176.187 349.32H174.867ZM187.437 336.45V339.15H186.657V337.215H180.372V339.18H179.592V336.45H187.437ZM182.757 338.7C182.127 340.02 181.287 341.025 180.237 341.715L179.652 341.205C180.712 340.505 181.517 339.585 182.067 338.445L182.757 338.7ZM184.617 338.31C185.707 339.43 186.527 340.395 187.077 341.205L186.417 341.655C185.847 340.775 185.042 339.785 184.002 338.685L184.617 338.31ZM198.582 335.805H199.377V340.83H203.067V341.625H199.377V349.455H198.582V341.625H195.087V340.83H198.582V335.805ZM192.372 335.925C192.252 336.385 192.082 336.925 191.862 337.545H194.937V338.31H191.577C191.117 339.42 190.592 340.405 190.002 341.265L189.342 340.845C190.362 339.345 191.112 337.65 191.592 335.76L192.372 335.925ZM190.962 340.47H194.502V341.22H192.867V343.395H195.102V344.16H192.867V348.06C193.557 347.82 194.257 347.485 194.967 347.055L195.102 347.805C194.262 348.285 193.252 348.695 192.072 349.035L191.772 348.36C191.972 348.28 192.072 348.16 192.072 348V344.16H189.927V343.395H192.072V341.22H190.962V340.47Z" fill="white"/>
<path d="M204.638 390.185C205.318 390.185 205.893 390.42 206.363 390.89C206.833 391.36 207.068 391.93 207.068 392.6C207.068 393.26 206.833 393.835 206.363 394.325C205.873 394.795 205.298 395.03 204.638 395.03C203.968 395.03 203.398 394.795 202.928 394.325C202.458 393.855 202.223 393.28 202.223 392.6C202.223 391.92 202.458 391.35 202.928 390.89C203.388 390.42 203.958 390.185 204.638 390.185ZM216.983 387.29H221.513C222.583 387.29 223.413 387.54 224.003 388.04C224.613 388.56 224.918 389.29 224.918 390.23C224.918 390.84 224.748 391.385 224.408 391.865C224.048 392.345 223.543 392.66 222.893 392.81V392.84C223.973 393.08 224.573 393.74 224.693 394.82L224.843 396.425C224.903 397.095 225.078 397.62 225.368 398H224.363C224.143 397.65 224.003 397.165 223.943 396.545L223.808 395.075C223.748 394.415 223.503 393.94 223.073 393.65C222.683 393.38 222.138 393.245 221.438 393.245H217.898V398H216.983V387.29ZM217.898 388.1V392.435H221.423C222.253 392.435 222.903 392.23 223.373 391.82C223.793 391.43 224.003 390.91 224.003 390.26C224.003 389.55 223.798 389.015 223.388 388.655C222.978 388.285 222.318 388.1 221.408 388.1H217.898ZM228.684 387.74V390.245H230.709V391.025H228.684V396.275C228.684 396.615 228.744 396.86 228.864 397.01C228.984 397.15 229.209 397.22 229.539 397.22H230.514V398H229.419C228.819 398 228.389 397.845 228.129 397.535C227.899 397.275 227.784 396.855 227.784 396.275V391.025H226.134V390.245H227.784V388.115L228.684 387.74ZM232.218 387.29H236.028C237.698 387.29 238.953 387.79 239.793 388.79C240.563 389.7 240.948 390.985 240.948 392.645C240.948 394.275 240.518 395.565 239.658 396.515C238.758 397.505 237.483 398 235.833 398H232.218V387.29ZM233.133 388.1V397.19H235.698C237.128 397.19 238.218 396.785 238.968 395.975C239.688 395.195 240.048 394.085 240.048 392.645C240.048 391.145 239.733 390.03 239.103 389.3C238.423 388.5 237.353 388.1 235.893 388.1H233.133Z" fill="white"/>
<path d="M99.4922 282.185C100.172 282.185 100.747 282.42 101.217 282.89C101.687 283.36 101.922 283.93 101.922 284.6C101.922 285.26 101.687 285.835 101.217 286.325C100.727 286.795 100.152 287.03 99.4922 287.03C98.8222 287.03 98.2522 286.795 97.7822 286.325C97.3122 285.855 97.0772 285.28 97.0772 284.6C97.0772 283.92 97.3122 283.35 97.7822 282.89C98.2422 282.42 98.8122 282.185 99.4922 282.185ZM119.877 277.835H120.687V280.91H124.302C124.302 285.63 124.197 288.53 123.987 289.61C123.807 290.73 123.022 291.29 121.632 291.29C121.412 291.29 121.022 291.275 120.462 291.245L120.252 290.465C120.732 290.495 121.147 290.51 121.497 290.51C122.447 290.51 123.012 290.145 123.192 289.415C123.392 288.525 123.492 285.95 123.492 281.69H120.672C120.552 286.1 119.567 289.35 117.717 291.44L117.087 290.885C118.817 288.945 119.742 285.88 119.862 281.69H117.792V280.91H119.877V277.835ZM112.482 281.81C113.402 282.84 114.282 283.91 115.122 285.02C115.692 283.61 116.037 282.055 116.157 280.355H112.077V279.59H116.952V280.16C116.852 282.21 116.422 284.075 115.662 285.755C116.352 286.715 116.962 287.63 117.492 288.5L116.892 289.1C116.432 288.29 115.892 287.445 115.272 286.565C114.422 288.165 113.287 289.555 111.867 290.735L111.402 290.03C112.862 288.85 113.982 287.455 114.762 285.845C113.922 284.705 112.977 283.535 111.927 282.335L112.482 281.81ZM126.567 286.175H135.777V285.11H136.587V286.175H139.902V286.985H136.587V290.36C136.587 291.12 136.177 291.5 135.357 291.5H133.407L133.227 290.72C133.857 290.75 134.472 290.765 135.072 290.765C135.542 290.765 135.777 290.57 135.777 290.18V286.985H126.567V286.175ZM137.607 278.42V281.81H128.997V283.115C128.997 283.525 129.207 283.74 129.627 283.76H137.787C138.127 283.76 138.367 283.645 138.507 283.415C138.617 283.255 138.702 282.835 138.762 282.155L139.527 282.41C139.457 283.06 139.357 283.545 139.227 283.865C138.997 284.295 138.587 284.51 137.997 284.51H129.372C128.582 284.51 128.187 284.13 128.187 283.37V278.42H137.607ZM128.997 281.06H136.797V279.17H128.997V281.06ZM129.777 287.615C130.827 288.445 131.687 289.255 132.357 290.045L131.757 290.645C131.117 289.855 130.262 289.035 129.192 288.185L129.777 287.615ZM141.852 291.29L141.687 290.54C142.077 290.57 142.452 290.585 142.812 290.585C143.262 290.585 143.487 290.345 143.487 289.865V285.98C142.847 286.25 142.187 286.49 141.507 286.7L141.297 285.905C142.067 285.685 142.797 285.445 143.487 285.185V281.42H141.582V280.625H143.487V277.805H144.297V280.625H145.962V281.42H144.297V284.84C144.857 284.58 145.432 284.28 146.022 283.94V284.735C145.522 285.025 144.947 285.32 144.297 285.62V290.06C144.297 290.88 143.897 291.29 143.097 291.29H141.852ZM146.592 280.055H150.267V277.82H151.077V280.055H154.752V280.82H151.077V283.505H154.152V284.24C153.582 285.97 152.672 287.43 151.422 288.62C152.422 289.44 153.682 290.17 155.202 290.81L154.782 291.47C153.202 290.77 151.897 289.98 150.867 289.1C149.657 290.1 148.197 290.9 146.487 291.5L146.097 290.81C147.767 290.24 149.167 289.5 150.297 288.59C148.997 287.33 148.122 285.895 147.672 284.285H146.862V283.505H150.267V280.82H146.592V280.055ZM148.437 284.285C148.857 285.715 149.657 286.99 150.837 288.11C151.977 287.03 152.817 285.755 153.357 284.285H148.437ZM156.912 281.435H162.837V277.745H163.647V281.435H169.587V282.2H164.562C165.572 284.83 167.392 287.16 170.022 289.19L169.482 289.865C166.732 287.595 164.837 285.04 163.797 282.2H163.647V291.44H162.837V282.2H162.687C161.577 285.38 159.632 287.975 156.852 289.985L156.402 289.28C158.982 287.46 160.827 285.1 161.937 282.2H156.912V281.435ZM166.047 277.775C166.997 278.755 167.712 279.595 168.192 280.295L167.547 280.745C167.037 279.985 166.322 279.13 165.402 278.18L166.047 277.775Z" fill="white"/>
<path d="M99.4922 216.185C100.172 216.185 100.747 216.42 101.217 216.89C101.687 217.36 101.922 217.93 101.922 218.6C101.922 219.26 101.687 219.835 101.217 220.325C100.727 220.795 100.152 221.03 99.4922 221.03C98.8222 221.03 98.2522 220.795 97.7822 220.325C97.3122 219.855 97.0772 219.28 97.0772 218.6C97.0772 217.92 97.3122 217.35 97.7822 216.89C98.2422 216.42 98.8122 216.185 99.4922 216.185ZM120.522 214.955C120.422 215.355 120.342 215.65 120.282 215.84C120.682 217.68 121.217 219.285 121.887 220.655C122.557 219.005 122.907 217.105 122.937 214.955H120.522ZM121.497 221.48C120.857 220.26 120.322 218.805 119.892 217.115C119.602 217.895 119.272 218.61 118.902 219.26L118.392 218.63C119.302 216.93 119.922 214.63 120.252 211.73L121.062 211.88C120.962 212.66 120.842 213.42 120.702 214.16H124.782V214.955H123.717C123.657 217.545 123.202 219.735 122.352 221.525C123.152 222.915 124.107 223.985 125.217 224.735L124.752 225.425C123.662 224.655 122.727 223.605 121.947 222.275C121.187 223.575 120.232 224.635 119.082 225.455L118.632 224.765C119.842 223.905 120.797 222.81 121.497 221.48ZM114.387 218.75L115.167 218.84L114.807 219.77H118.017V220.46C117.657 221.51 117.057 222.41 116.217 223.16C116.957 223.47 117.707 223.84 118.467 224.27L118.017 224.915C117.317 224.505 116.502 224.095 115.572 223.685C114.562 224.415 113.307 224.995 111.807 225.425L111.402 224.735C112.722 224.375 113.837 223.9 114.747 223.31C114.107 223.03 113.382 222.74 112.572 222.44C112.992 221.76 113.352 221.115 113.652 220.505H111.747V219.77H113.997L114.387 218.75ZM115.422 222.83C116.232 222.16 116.837 221.385 117.237 220.505H114.477C114.227 221.035 113.927 221.57 113.577 222.11C114.207 222.32 114.822 222.56 115.422 222.83ZM112.782 212.15C113.162 212.73 113.487 213.355 113.757 214.025L113.112 214.31C112.812 213.62 112.472 212.975 112.092 212.375L112.782 212.15ZM118.167 212.33C117.877 213.01 117.487 213.675 116.997 214.325L116.382 214.01C116.862 213.31 117.232 212.645 117.492 212.015L118.167 212.33ZM111.792 214.73H114.762V211.805H115.527V214.73H118.362V215.465H115.527V215.645C116.457 216.155 117.317 216.685 118.107 217.235L117.672 217.88C116.852 217.21 116.137 216.67 115.527 216.26V218.42H114.762V215.465H114.717C114.237 216.675 113.312 217.725 111.942 218.615L111.522 217.94C112.792 217.22 113.652 216.395 114.102 215.465H111.792V214.73ZM126.927 225.32L126.762 224.555C127.282 224.595 127.667 224.615 127.917 224.615C128.327 224.615 128.532 224.38 128.532 223.91V219.92C127.942 220.14 127.307 220.355 126.627 220.565L126.417 219.77C127.177 219.58 127.882 219.365 128.532 219.125V215.54H126.657V214.745H128.532V211.835H129.342V214.745H130.872V215.54H129.342V218.81C129.852 218.58 130.347 218.34 130.827 218.09V218.885C130.307 219.165 129.812 219.4 129.342 219.59V224.105C129.342 224.915 128.962 225.32 128.202 225.32H126.927ZM132.537 218.63C132.357 221.22 131.762 223.495 130.752 225.455L130.122 224.9C131.222 222.87 131.782 220.24 131.802 217.01V212.465H139.572V215.9H136.677V217.865H139.977V218.63H136.677V220.67H139.272V225.455H138.522V224.675H134.037V225.455H133.287V220.67H135.867V218.63H132.537ZM135.867 215.9H132.597L132.582 217.865H135.867V215.9ZM134.037 223.925H138.522V221.42H134.037V223.925ZM138.777 213.23H132.597V215.165H138.777V213.23ZM143.817 212.465H152.697V216.635H143.817V212.465ZM151.917 215.855V213.23H144.612V215.855H151.917ZM142.692 218.255H153.792V219.035H148.677V221.135H153.327V221.885H148.677V224.12H154.617V224.9H141.897V224.12H147.852V221.885H143.232V221.135H147.852V219.035H142.692V218.255ZM168.807 212.435V220.64H167.997V213.215H163.167V220.64H162.357V212.435H168.807ZM167.007 225.23C166.277 225.23 165.912 224.87 165.912 224.15V220.58H166.722V223.97C166.722 224.3 166.897 224.465 167.247 224.465H168.417C168.717 224.465 168.922 224.385 169.032 224.225C169.192 224.025 169.302 223.415 169.362 222.395L170.112 222.65C170.022 223.86 169.857 224.605 169.617 224.885C169.387 225.115 169.037 225.23 168.567 225.23H167.007ZM165.132 214.385H165.897V218.105C165.867 220.105 165.482 221.695 164.742 222.875C164.022 223.965 162.827 224.83 161.157 225.47L160.692 224.78C162.322 224.18 163.472 223.355 164.142 222.305C164.772 221.225 165.102 219.825 165.132 218.105V214.385ZM156.732 217.43H158.562V213.65H156.522V212.885H161.382V213.65H159.372V217.43H161.172V218.21H159.372V221.96C160.052 221.73 160.732 221.475 161.412 221.195V221.99C159.932 222.59 158.352 223.085 156.672 223.475L156.477 222.695C157.177 222.545 157.872 222.38 158.562 222.2V218.21H156.732V217.43Z" fill="white"/>
<circle cx="502.023" cy="257.881" r="180.549" stroke="url(#paint1_linear_322_82)" stroke-width="8"/>
<path d="M758.656 354.378C757.342 354.459 756.021 354.513 754.693 354.54L754.673 353.54C754.018 353.553 753.361 353.56 752.702 353.56C752.044 353.56 751.387 353.553 750.731 353.54L750.711 354.54C749.383 354.513 748.062 354.459 746.748 354.378L746.809 353.38C745.498 353.3 744.195 353.193 742.899 353.06L742.797 354.055C741.475 353.92 740.161 353.757 738.855 353.569L738.998 352.579C737.698 352.391 736.406 352.177 735.123 351.937L734.939 352.92C733.634 352.676 732.339 352.405 731.054 352.109L731.279 351.135C730 350.84 728.731 350.519 727.472 350.174L727.207 351.138C725.929 350.787 724.661 350.41 723.404 350.007L723.709 349.055C722.46 348.655 721.223 348.23 719.997 347.781L719.652 348.719C718.407 348.263 717.175 347.782 715.955 347.276L716.338 346.352C715.126 345.849 713.927 345.323 712.742 344.772L712.321 345.679C711.119 345.121 709.931 344.539 708.756 343.934L709.215 343.045C708.05 342.444 706.899 341.82 705.763 341.173L705.268 342.042C704.117 341.387 702.982 340.708 701.861 340.007L702.392 339.16C701.281 338.465 700.186 337.748 699.106 337.009L698.541 337.834C697.449 337.086 696.373 336.317 695.314 335.526L695.912 334.724C694.863 333.94 693.83 333.135 692.814 332.31L692.183 333.086C691.157 332.251 690.147 331.395 689.156 330.519L689.819 329.77C688.837 328.903 687.874 328.016 686.93 327.109L686.237 327.831C685.283 326.915 684.347 325.979 683.431 325.025L684.153 324.332C683.246 323.388 682.359 322.425 681.492 321.444L680.743 322.106C679.867 321.115 679.011 320.106 678.176 319.079L678.952 318.448C678.127 317.433 677.322 316.4 676.538 315.35L675.737 315.948C674.946 314.889 674.176 313.813 673.428 312.721L674.253 312.156C673.515 311.077 672.797 309.981 672.103 308.871L671.255 309.401C670.554 308.281 669.876 307.145 669.22 305.994L670.089 305.499C669.442 304.363 668.818 303.212 668.217 302.047L667.329 302.506C666.723 301.332 666.141 300.143 665.583 298.942L666.49 298.521C665.94 297.335 665.413 296.136 664.91 294.925L663.987 295.308C663.481 294.088 662.999 292.855 662.543 291.61L663.482 291.266C663.032 290.04 662.607 288.802 662.207 287.553L661.255 287.858C660.853 286.601 660.476 285.334 660.124 284.055L661.089 283.79C660.743 282.532 660.422 281.263 660.127 279.984L659.153 280.208C658.857 278.923 658.586 277.628 658.342 276.323L659.325 276.139C659.085 274.856 658.871 273.564 658.683 272.264L657.693 272.407C657.505 271.101 657.342 269.787 657.207 268.466L658.202 268.364C658.069 267.068 657.962 265.764 657.882 264.453L656.884 264.514C656.803 263.2 656.749 261.879 656.722 260.551L657.722 260.531C657.709 259.875 657.702 259.219 657.702 258.56C657.702 257.902 657.709 257.245 657.722 256.589L656.722 256.569C656.749 255.241 656.803 253.92 656.884 252.606L657.882 252.667C657.962 251.356 658.069 250.053 658.202 248.757L657.207 248.655C657.342 247.333 657.505 246.019 657.693 244.713L658.683 244.856C658.871 243.556 659.085 242.264 659.325 240.981L658.342 240.797C658.586 239.492 658.857 238.197 659.153 236.912L660.127 237.136C660.422 235.858 660.743 234.589 661.089 233.33L660.124 233.065C660.476 231.787 660.853 230.519 661.255 229.262L662.207 229.567C662.607 228.318 663.032 227.08 663.482 225.855L662.543 225.51C662.999 224.265 663.481 223.033 663.987 221.812L664.91 222.195C665.413 220.984 665.94 219.785 666.49 218.6L665.583 218.178C666.141 216.977 666.723 215.789 667.329 214.614L668.217 215.073C668.818 213.908 669.442 212.757 670.089 211.621L669.22 211.126C669.876 209.975 670.554 208.84 671.255 207.719L672.103 208.25C672.797 207.139 673.514 206.043 674.253 204.964L673.428 204.399C674.176 203.307 674.946 202.231 675.737 201.172L676.538 201.77C677.322 200.72 678.127 199.688 678.952 198.672L678.176 198.041C679.011 197.014 679.867 196.005 680.743 195.014L681.492 195.676C682.359 194.695 683.246 193.732 684.153 192.788L683.431 192.095C684.347 191.141 685.283 190.205 686.237 189.289L686.93 190.011C687.874 189.104 688.837 188.217 689.819 187.35L689.156 186.601C690.147 185.725 691.157 184.869 692.183 184.034L692.814 184.81C693.83 183.985 694.863 183.18 695.912 182.396L695.314 181.595C696.373 180.803 697.449 180.034 698.541 179.286L699.106 180.111C700.186 179.372 701.281 178.655 702.392 177.96L701.861 177.113C702.982 176.412 704.117 175.734 705.268 175.078L705.763 175.947C706.899 175.3 708.05 174.676 709.215 174.075L708.756 173.187C709.931 172.581 711.119 171.999 712.321 171.441L712.742 172.348C713.927 171.797 715.126 171.271 716.338 170.768L715.955 169.845C717.175 169.339 718.407 168.857 719.652 168.401L719.997 169.339C721.223 168.89 722.46 168.465 723.709 168.065L723.404 167.113C724.661 166.711 725.929 166.334 727.207 165.982L727.472 166.947C728.731 166.601 730 166.28 731.279 165.985L731.054 165.011C732.339 164.715 733.634 164.444 734.939 164.2L735.123 165.183C736.406 164.943 737.698 164.729 738.998 164.541L738.855 163.551C740.161 163.363 741.475 163.2 742.797 163.065L742.899 164.06C744.195 163.927 745.498 163.82 746.809 163.74L746.748 162.742C748.062 162.661 749.383 162.607 750.711 162.58L750.731 163.58C751.387 163.567 752.044 163.56 752.702 163.56C753.361 163.56 754.018 163.567 754.673 163.58L754.693 162.58C756.021 162.607 757.342 162.661 758.656 162.742L758.595 163.74C759.906 163.82 761.21 163.927 762.506 164.06L762.608 163.065C763.93 163.2 765.243 163.363 766.549 163.551L766.406 164.541C767.707 164.729 768.999 164.943 770.282 165.183L770.465 164.2C771.77 164.444 773.065 164.715 774.35 165.011L774.126 165.985C775.405 166.28 776.674 166.601 777.932 166.947L778.197 165.982C779.476 166.334 780.743 166.711 782 167.113L781.695 168.065C782.944 168.465 784.182 168.89 785.408 169.339L785.752 168.401C786.997 168.857 788.23 169.339 789.45 169.845L789.067 170.768C790.278 171.271 791.477 171.797 792.663 172.348L793.084 171.441C794.285 171.999 795.474 172.581 796.648 173.187L796.189 174.075C797.354 174.676 798.505 175.3 799.641 175.947L800.136 175.078C801.287 175.734 802.423 176.412 803.543 177.113L803.013 177.96C804.123 178.655 805.219 179.372 806.298 180.111L806.863 179.286C807.955 180.034 809.031 180.803 810.091 181.595L809.492 182.396C810.542 183.18 811.575 183.985 812.59 184.81L813.221 184.034C814.248 184.869 815.257 185.725 816.248 186.601L815.586 187.35C816.567 188.217 817.53 189.104 818.475 190.011L819.167 189.289C820.121 190.205 821.057 191.141 821.973 192.095L821.252 192.788C822.158 193.732 823.045 194.695 823.912 195.676L824.661 195.014C825.537 196.005 826.393 197.014 827.228 198.041L826.452 198.672C827.278 199.688 828.083 200.72 828.866 201.77L829.668 201.172C830.459 202.231 831.228 203.307 831.976 204.399L831.151 204.964C831.89 206.043 832.607 207.139 833.302 208.25L834.15 207.719C834.85 208.84 835.529 209.975 836.184 211.126L835.315 211.621C835.962 212.757 836.586 213.908 837.187 215.073L838.076 214.614C838.681 215.789 839.263 216.977 839.821 218.178L838.914 218.6C839.465 219.785 839.992 220.984 840.494 222.195L841.418 221.812C841.924 223.033 842.405 224.265 842.862 225.51L841.923 225.855C842.372 227.08 842.797 228.318 843.197 229.567L844.149 229.262C844.552 230.519 844.929 231.787 845.28 233.065L844.316 233.33C844.662 234.589 844.982 235.858 845.277 237.137L846.251 236.912C846.548 238.197 846.818 239.492 847.062 240.797L846.079 240.981C846.319 242.264 846.533 243.556 846.721 244.856L847.711 244.713C847.9 246.019 848.062 247.333 848.197 248.655L847.203 248.757C847.335 250.053 847.442 251.356 847.522 252.667L848.521 252.606C848.601 253.92 848.655 255.241 848.682 256.569L847.682 256.589C847.695 257.245 847.702 257.902 847.702 258.56C847.702 259.219 847.695 259.875 847.682 260.531L848.682 260.551C848.655 261.879 848.601 263.2 848.521 264.514L847.522 264.453C847.442 265.764 847.335 267.068 847.203 268.364L848.197 268.466C848.062 269.787 847.899 271.101 847.711 272.407L846.721 272.264C846.533 273.564 846.319 274.856 846.079 276.139L847.062 276.323C846.818 277.628 846.548 278.923 846.251 280.208L845.277 279.984C844.982 281.263 844.662 282.532 844.316 283.79L845.28 284.055C844.929 285.334 844.552 286.601 844.149 287.858L843.197 287.553C842.797 288.802 842.372 290.04 841.923 291.266L842.862 291.61C842.405 292.855 841.924 294.088 841.418 295.308L840.494 294.925C839.992 296.136 839.465 297.335 838.914 298.521L839.821 298.942C839.263 300.143 838.681 301.332 838.076 302.506L837.187 302.047C836.586 303.212 835.962 304.363 835.315 305.499L836.184 305.994C835.529 307.145 834.85 308.281 834.15 309.401L833.302 308.871C832.607 309.981 831.89 311.077 831.151 312.156L831.976 312.721C831.228 313.813 830.459 314.889 829.668 315.948L828.866 315.35C828.083 316.4 827.278 317.432 826.452 318.448L827.228 319.079C826.393 320.106 825.537 321.115 824.661 322.106L823.912 321.444C823.045 322.425 822.158 323.388 821.252 324.332L821.973 325.025C821.057 325.979 820.121 326.915 819.167 327.831L818.475 327.109C817.53 328.016 816.567 328.903 815.586 329.77L816.248 330.519C815.257 331.395 814.248 332.251 813.221 333.086L812.59 332.31C811.575 333.135 810.542 333.94 809.492 334.724L810.091 335.526C809.031 336.317 807.955 337.086 806.863 337.834L806.298 337.009C805.219 337.748 804.123 338.465 803.013 339.16L803.543 340.007C802.423 340.708 801.287 341.387 800.136 342.042L799.641 341.173C798.505 341.82 797.354 342.444 796.189 343.045L796.648 343.934C795.474 344.539 794.285 345.121 793.084 345.679L792.663 344.772C791.477 345.323 790.278 345.849 789.067 346.352L789.45 347.276C788.23 347.782 786.997 348.263 785.752 348.72L785.408 347.781C784.182 348.23 782.944 348.655 781.695 349.055L782 350.007C780.743 350.41 779.476 350.787 778.197 351.138L777.932 350.174C776.674 350.519 775.405 350.84 774.126 351.135L774.35 352.109C773.065 352.405 771.77 352.676 770.465 352.92L770.282 351.937C768.999 352.177 767.707 352.391 766.406 352.579L766.549 353.569C765.243 353.757 763.93 353.92 762.608 354.055L762.506 353.06C761.21 353.193 759.906 353.3 758.595 353.38L758.656 354.378Z" stroke="url(#paint2_linear_322_82)" stroke-width="2" stroke-dasharray="4 4"/>
<circle cx="501.702" cy="257.56" r="196.172" stroke="url(#paint3_linear_322_82)" stroke-width="1.65563" stroke-dasharray="4.97 4.97"/>
<circle cx="501.702" cy="257.56" r="108.172" stroke="white" stroke-width="1.65563" stroke-dasharray="4.97 4.97"/>
<path d="M453.92 248.884V250.561H452.699C451.926 250.561 451.54 251.009 451.54 251.906V255.962C451.54 257.245 450.947 258.108 449.76 258.549C450.947 259.046 451.54 259.908 451.54 261.136V265.213C451.54 266.096 451.926 266.538 452.699 266.538H453.92V268.214H452.326C451.429 268.214 450.726 267.917 450.215 267.324C449.76 266.786 449.532 266.055 449.532 265.13V261.24C449.532 260.633 449.408 260.198 449.16 259.936C448.884 259.618 448.367 259.439 447.608 259.398V257.701C448.353 257.659 448.87 257.48 449.16 257.163C449.408 256.873 449.532 256.438 449.532 255.859V251.989C449.532 251.051 449.76 250.312 450.215 249.774C450.712 249.181 451.416 248.884 452.326 248.884H453.92ZM470.456 254.307H462.943V252.382H470.456C470.125 251.361 469.731 250.388 469.276 249.464L471.18 248.947C471.677 250.133 472.077 251.271 472.38 252.361L472.318 252.382H479.976V254.307H472.443V258.611H478.982V260.453H472.443V265.503H480.7V267.427H462.219V265.503H470.456V260.453H463.937V258.611H470.456V254.307ZM483.556 250.312H491.255V252.196H483.556V250.312ZM482.79 255.9H492V257.804H487.343C486.598 260.619 485.957 262.695 485.419 264.033C486.757 263.744 488.136 263.337 489.558 262.812C489.088 261.791 488.612 260.839 488.13 259.956L489.785 259.149C490.723 260.86 491.634 262.778 492.517 264.903L490.82 265.772L490.282 264.447C488.102 265.192 485.757 265.793 483.245 266.248L482.769 264.385C482.949 264.344 483.087 264.289 483.183 264.22C483.735 263.419 484.487 261.281 485.439 257.804H482.79V255.9ZM494.794 249.091H496.76V252.775H501.25C501.25 259.687 501.154 263.978 500.961 265.648C500.74 267.179 499.705 267.945 497.856 267.945L496.077 267.862L495.621 266.124C496.449 266.193 497.098 266.227 497.567 266.227C498.436 266.227 498.939 265.751 499.077 264.799C499.202 263.778 499.284 260.398 499.326 254.658H496.76V255.093C496.718 261.081 495.297 265.475 492.496 268.276L490.944 266.889C493.469 264.447 494.752 260.515 494.794 255.093V254.658H492.393V252.775H494.794V249.091ZM521.18 257.97H517.683V259.232H521.428V260.764H517.683V261.923H522.07V263.537H517.683V265.358H515.82V263.537H512.592V261.923H515.82V260.764H513.254V259.232H515.82V257.97H513.419V256.397H515.82V255.093H512.592V253.52H515.82V252.196H513.419V250.623H515.82V249.153H517.683V250.623H521.18V253.52H522.36V255.093H521.18V257.97ZM517.683 252.196V253.52H519.442V252.196H517.683ZM517.683 255.093V256.397H519.442V255.093H517.683ZM508.121 250.83H512.447V252.444C511.66 254.044 510.908 255.403 510.191 256.521H512.571V257.618C512.516 260.06 512.122 262.15 511.391 263.889C511.998 264.482 512.654 264.93 513.357 265.234C514.433 265.689 516.103 265.958 518.366 266.041C519.359 266.041 520.711 266.013 522.422 265.958L522.07 267.8H519.587C515.861 267.759 513.33 267.359 511.991 266.6C511.481 266.324 510.991 265.972 510.522 265.544C509.874 266.538 509.06 267.386 508.08 268.09L507.128 266.413C507.983 265.806 508.701 265.034 509.28 264.096C508.48 262.937 507.825 261.46 507.314 259.667L508.908 259.067C509.184 260.253 509.598 261.302 510.149 262.212C510.55 260.984 510.791 259.639 510.874 258.177H507.914V256.769C508.797 255.569 509.611 254.21 510.356 252.692H508.121V250.83ZM505.038 257.307C504.541 258.039 504.113 258.639 503.755 259.108L503.113 256.997C504.672 254.748 505.817 252.092 506.548 249.029L508.328 249.857C507.942 251.278 507.48 252.603 506.942 253.831V268.173H505.038V257.307ZM540.758 260.474H535.708V261.509C536.205 262.005 536.798 262.509 537.488 263.019C538.509 262.343 539.399 261.564 540.158 260.681L541.565 261.902C540.806 262.633 539.923 263.316 538.916 263.951C540.089 264.654 541.434 265.282 542.952 265.834L541.958 267.552C539.558 266.558 537.474 265.22 535.708 263.537V266.186C535.708 267.414 535.087 268.028 533.846 268.028H531.611L531.217 266.248C531.921 266.331 532.583 266.372 533.204 266.372C533.618 266.372 533.825 266.151 533.825 265.71V264.096C532.183 265.227 530.224 266.269 527.947 267.221L527.182 265.461C528.561 264.965 529.803 264.44 530.907 263.889C530.038 263.295 529.12 262.812 528.154 262.44L529.106 261.053C530.072 261.44 530.983 261.929 531.838 262.523L530.948 263.868C531.997 263.344 532.956 262.799 533.825 262.233V260.474H528.837V258.88H533.825V257.701H527.451C527.327 262.019 526.637 265.475 525.381 268.069L523.891 266.765C524.954 264.489 525.512 261.302 525.568 257.204V250.312H533.349C533.142 249.94 532.935 249.588 532.728 249.257L534.777 248.926C534.929 249.229 535.129 249.692 535.377 250.312H542.476V252.072H535.708V253.272H540.758V256.086H542.683V257.701H540.758V260.474ZM527.472 256.086H533.825V254.865H528.962V253.272H533.825V252.072H527.472V256.086ZM535.708 254.865V256.086H538.895V254.865H535.708ZM538.895 257.701H535.708V258.88H538.895V257.701ZM551.064 248.884H552.658C553.569 248.884 554.272 249.181 554.769 249.774C555.224 250.312 555.452 251.051 555.452 251.989V255.859C555.452 256.466 555.583 256.907 555.845 257.183C556.121 257.487 556.631 257.659 557.376 257.701V259.398C556.618 259.439 556.1 259.618 555.824 259.936C555.576 260.198 555.452 260.633 555.452 261.24V265.13C555.452 266.055 555.224 266.786 554.769 267.324C554.258 267.917 553.555 268.214 552.658 268.214H551.064V266.538H552.285C553.058 266.538 553.444 266.096 553.444 265.213V261.136C553.444 259.908 554.038 259.046 555.224 258.549C554.038 258.121 553.444 257.259 553.444 255.962V251.906C553.444 251.009 553.058 250.561 552.285 250.561H551.064V248.884Z" fill="white"/>
<path d="M220.497 251.155V252.37H219.612C219.052 252.37 218.772 252.695 218.772 253.345V256.285C218.772 257.215 218.342 257.84 217.482 258.16C218.342 258.52 218.772 259.145 218.772 260.035V262.99C218.772 263.63 219.052 263.95 219.612 263.95H220.497V265.165H219.342C218.692 265.165 218.182 264.95 217.812 264.52C217.482 264.13 217.317 263.6 217.317 262.93V260.11C217.317 259.67 217.227 259.355 217.047 259.165C216.847 258.935 216.472 258.805 215.922 258.775V257.545C216.462 257.515 216.837 257.385 217.047 257.155C217.227 256.945 217.317 256.63 217.317 256.21V253.405C217.317 252.725 217.482 252.19 217.812 251.8C218.172 251.37 218.682 251.155 219.342 251.155H220.497ZM232.002 252.1H239.322V253.495H232.002V252.1ZM231.627 255.85H239.967V257.245H237.627V263.56C237.627 264.55 237.092 265.045 236.022 265.045H233.847L233.532 263.65C234.222 263.71 234.887 263.74 235.527 263.74C235.967 263.74 236.187 263.565 236.187 263.215V257.245H231.627V255.85ZM230.757 251.965C229.947 253.615 228.587 255.095 226.677 256.405L226.242 254.98C227.692 253.95 228.762 252.745 229.452 251.365L230.757 251.965ZM231.447 255.4C231.047 256.21 230.537 256.975 229.917 257.695V265.105H228.522V259.09C227.942 259.59 227.362 260.04 226.782 260.44L226.362 259.03C228.092 257.82 229.357 256.41 230.157 254.8L231.447 255.4ZM243.612 251.605C244.452 252.445 245.122 253.225 245.622 253.945L244.512 254.71C243.992 253.98 243.332 253.205 242.532 252.385L243.612 251.605ZM248.997 257.905C249.997 259.015 250.797 260.015 251.397 260.905L250.137 261.775C249.537 260.785 248.777 259.735 247.857 258.625L248.997 257.905ZM246.702 251.26H248.097V253.375C248.087 253.735 248.062 254.23 248.022 254.86H254.157C254.157 259.21 253.967 261.995 253.587 263.215C253.187 264.415 252.477 265.015 251.457 265.015C250.737 265.015 250.087 264.99 249.507 264.94L249.132 263.56C249.992 263.64 250.737 263.68 251.367 263.68C252.047 263.62 252.442 262.825 252.552 261.295C252.652 259.575 252.702 257.895 252.702 256.255H247.887C247.647 258.115 247.217 259.69 246.597 260.98C245.717 262.73 244.257 264.085 242.217 265.045L241.422 263.785C243.432 262.765 244.797 261.47 245.517 259.9C245.947 258.88 246.267 257.665 246.477 256.255H241.932V254.86H246.627C246.667 254.23 246.692 253.735 246.702 253.375V251.26ZM264.762 254.74C264.672 255.01 264.582 255.265 264.492 255.505C264.942 257.105 265.512 258.505 266.202 259.705C266.912 258.305 267.292 256.65 267.342 254.74H264.762ZM268.722 254.74C268.612 257.22 268.052 259.31 267.042 261.01C267.972 262.27 269.042 263.25 270.252 263.95L269.442 265.15C268.192 264.41 267.117 263.42 266.217 262.18C265.237 263.39 263.962 264.37 262.392 265.12L261.522 263.95C263.162 263.24 264.462 262.25 265.422 260.98C264.752 259.84 264.187 258.57 263.727 257.17C263.397 257.72 263.117 258.145 262.887 258.445L262.017 257.335C263.067 255.835 263.772 253.81 264.132 251.26L265.527 251.5C265.387 252.28 265.262 252.91 265.152 253.39H269.772V254.74H268.722ZM258.567 262.48C259.817 262.04 261.037 261.535 262.227 260.965L262.422 262.27C260.802 263.05 259.017 263.75 257.067 264.37L256.662 263.14C257.012 263 257.187 262.695 257.187 262.225V256.795H260.472V253.57H256.512V252.205H261.867V258.115H258.567V262.48ZM282.327 254.395C283.437 255.155 284.347 255.895 285.057 256.615L284.067 257.605C283.427 256.895 282.532 256.13 281.382 255.31L282.327 254.395ZM278.547 251.11C278.677 251.46 278.817 251.91 278.967 252.46H284.697V253.84H280.677V257.725H279.267V253.84H277.152V257.725H275.742V253.84H271.707V252.46H277.512C277.352 252.05 277.187 251.68 277.017 251.35L278.547 251.11ZM275.112 255.37C274.342 256.18 273.377 256.915 272.217 257.575L271.347 256.435C272.417 255.875 273.322 255.215 274.062 254.455L275.112 255.37ZM272.727 258.37H283.122V259.45C282.182 260.62 281.052 261.605 279.732 262.405C281.312 263.025 283.127 263.47 285.177 263.74L284.517 265.045C282.137 264.645 280.082 264.02 278.352 263.17C276.562 264.04 274.487 264.67 272.127 265.06L271.467 263.71C273.467 263.43 275.262 262.97 276.852 262.33C275.672 261.56 274.687 260.66 273.897 259.63H272.727V258.37ZM275.502 259.63C276.242 260.44 277.142 261.13 278.202 261.7C279.332 261.1 280.312 260.41 281.142 259.63H275.502ZM290.907 251.155H292.062C292.722 251.155 293.232 251.37 293.592 251.8C293.922 252.19 294.087 252.725 294.087 253.405V256.21C294.087 256.65 294.182 256.97 294.372 257.17C294.572 257.39 294.942 257.515 295.482 257.545V258.775C294.932 258.805 294.557 258.935 294.357 259.165C294.177 259.355 294.087 259.67 294.087 260.11V262.93C294.087 263.6 293.922 264.13 293.592 264.52C293.222 264.95 292.712 265.165 292.062 265.165H290.907V263.95H291.792C292.352 263.95 292.632 263.63 292.632 262.99V260.035C292.632 259.145 293.062 258.52 293.922 258.16C293.062 257.85 292.632 257.225 292.632 256.285V253.345C292.632 252.695 292.352 252.37 291.792 252.37H290.907V251.155Z" fill="white"/>
<path d="M132.492 158.185C133.172 158.185 133.747 158.42 134.217 158.89C134.687 159.36 134.922 159.93 134.922 160.6C134.922 161.26 134.687 161.835 134.217 162.325C133.727 162.795 133.152 163.03 132.492 163.03C131.822 163.03 131.252 162.795 130.782 162.325C130.312 161.855 130.077 161.28 130.077 160.6C130.077 159.92 130.312 159.35 130.782 158.89C131.242 158.42 131.812 158.185 132.492 158.185ZM146.142 160.045H156.372V163.81H151.632V164.785H156.822V165.37H151.632V166.39H157.932V167.05H144.552V166.39H150.822V165.37H145.692V164.785H150.822V163.81H146.142V160.045ZM155.607 163.27V162.205H151.632V163.27H155.607ZM150.822 163.27V162.205H146.907V163.27H150.822ZM146.907 161.695H150.822V160.585H146.907V161.695ZM151.632 160.585V161.695H155.607V160.585H151.632ZM146.472 154.045H156.057V157.675H146.472V154.045ZM155.277 157.135V156.115H147.252V157.135H155.277ZM147.252 155.59H155.277V154.585H147.252V155.59ZM144.552 158.56H157.932V159.19H144.552V158.56ZM164.802 154.09C164.262 155.35 163.597 156.51 162.807 157.57V167.5H161.997V158.575C161.287 159.375 160.497 160.135 159.627 160.855L159.372 160.015C161.522 158.185 163.077 156.095 164.037 153.745L164.802 154.09ZM167.982 167.215C167.022 167.215 166.542 166.745 166.542 165.805V160.945C165.812 161.365 165.102 161.74 164.412 162.07L164.022 161.29C164.872 160.92 165.712 160.49 166.542 160V153.85H167.352V159.49C169.002 158.41 170.447 157.16 171.687 155.74L172.242 156.37C170.862 157.92 169.232 159.28 167.352 160.45V165.685C167.352 166.185 167.627 166.435 168.177 166.435H170.727C171.147 166.435 171.457 166.31 171.657 166.06C171.847 165.8 171.972 164.88 172.032 163.3L172.782 163.54C172.692 165.27 172.522 166.32 172.272 166.69C172.002 167.04 171.532 167.215 170.862 167.215H167.982ZM186.192 155.635V167.455H185.382V166.435H177.102V167.455H176.292V155.635H179.457C179.827 155.005 180.092 154.37 180.252 153.73L181.077 153.85C180.897 154.49 180.642 155.085 180.312 155.635H186.192ZM177.102 165.655H185.382V162.97H177.102V165.655ZM177.102 162.19H185.382V159.685H177.102V162.19ZM177.102 158.905H185.382V156.415H177.102V158.905ZM196.407 161.65C195.497 161.96 194.537 162.245 193.527 162.505V165.955C193.527 166.825 193.112 167.26 192.282 167.26H190.632L190.452 166.495C190.992 166.525 191.507 166.54 191.997 166.54C192.477 166.54 192.717 166.275 192.717 165.745V162.7C191.787 162.91 190.747 163.11 189.597 163.3L189.477 162.505C190.617 162.325 191.697 162.115 192.717 161.875V158.74H189.507V157.96H192.717V155.605C191.867 155.785 190.992 155.935 190.092 156.055L189.927 155.275C192.067 155.035 193.972 154.59 195.642 153.94L195.927 154.705C195.167 154.975 194.367 155.215 193.527 155.425V157.96H197.457C197.357 156.77 197.307 155.385 197.307 153.805H198.117C198.117 155.375 198.162 156.76 198.252 157.96H202.977V158.74H198.312C198.422 159.9 198.572 160.865 198.762 161.635C198.872 162.085 198.992 162.505 199.122 162.895C199.922 161.965 200.612 160.9 201.192 159.7L201.897 160.075C201.207 161.515 200.382 162.74 199.422 163.75C199.632 164.3 199.882 164.8 200.172 165.25C200.682 166 201.102 166.375 201.432 166.375C201.792 166.355 202.102 165.46 202.362 163.69L203.082 164.08C202.722 166.19 202.212 167.245 201.552 167.245C200.972 167.245 200.342 166.79 199.662 165.88C199.352 165.44 199.067 164.93 198.807 164.35C197.697 165.38 196.427 166.175 194.997 166.735L194.547 166.045C196.057 165.475 197.372 164.64 198.492 163.54C198.302 163.02 198.132 162.44 197.982 161.8C197.782 160.96 197.627 159.94 197.517 158.74H193.527V161.68C194.547 161.41 195.507 161.125 196.407 160.825V161.65ZM199.767 154C200.847 154.73 201.762 155.48 202.512 156.25L201.942 156.82C201.272 156.11 200.362 155.345 199.212 154.525L199.767 154Z" fill="white"/>
<path d="M717.497 254.155V255.37H716.612C716.052 255.37 715.772 255.695 715.772 256.345V259.285C715.772 260.215 715.342 260.84 714.482 261.16C715.342 261.52 715.772 262.145 715.772 263.035V265.99C715.772 266.63 716.052 266.95 716.612 266.95H717.497V268.165H716.342C715.692 268.165 715.182 267.95 714.812 267.52C714.482 267.13 714.317 266.6 714.317 265.93V263.11C714.317 262.67 714.227 262.355 714.047 262.165C713.847 261.935 713.472 261.805 712.922 261.775V260.545C713.462 260.515 713.837 260.385 714.047 260.155C714.227 259.945 714.317 259.63 714.317 259.21V256.405C714.317 255.725 714.482 255.19 714.812 254.8C715.172 254.37 715.682 254.155 716.342 254.155H717.497ZM725.522 256.495C725.212 256.935 724.882 257.315 724.532 257.635H726.692C726.752 257.255 726.797 256.875 726.827 256.495H725.522ZM726.302 258.94H723.512V257.635H724.187L723.482 256.75C724.192 256.12 724.797 255.245 725.297 254.125L726.572 254.395C726.502 254.595 726.387 254.875 726.227 255.235H730.337V256.495H728.192C728.152 256.995 728.112 257.375 728.072 257.635H730.757V258.94H727.772L727.712 259.15C728.792 259.7 729.732 260.27 730.532 260.86L729.647 261.76H735.377V268.135H733.937V267.55H726.857V268.135H725.432V261.97C724.942 262.27 724.527 262.5 724.187 262.66L723.227 261.505C724.777 260.815 725.792 259.98 726.272 259L726.302 258.94ZM726.857 266.29H733.937V265.3H726.857V266.29ZM726.857 264.07H733.937V263.02H726.857V264.07ZM729.392 261.76C728.802 261.23 728.087 260.705 727.247 260.185C726.887 260.745 726.382 261.27 725.732 261.76H729.392ZM731.222 255.25H736.472V260.92H731.222V255.25ZM735.077 259.675V256.51H732.617V259.675H735.077ZM740.567 263.05V264.145H743.687V263.05H740.567ZM743.687 261.88V260.725H740.567V261.88H743.687ZM740.567 265.33V268.135H739.187V259.495H745.067V266.47C745.067 267.51 744.582 268.03 743.612 268.03H742.427L742.082 266.695L743.147 266.755C743.507 266.755 743.687 266.56 743.687 266.17V265.33H740.567ZM747.722 260.89C746.672 260.89 746.147 260.315 746.147 259.165V254.305H747.557V256.09C749.187 255.84 750.452 255.59 751.352 255.34L751.817 256.6C750.537 256.9 749.117 257.165 747.557 257.395V258.865C747.557 259.365 747.742 259.615 748.112 259.615H749.897C750.137 259.615 750.307 259.54 750.407 259.39C750.537 259.19 750.617 258.685 750.647 257.875L751.982 258.31C751.862 259.55 751.662 260.295 751.382 260.545C751.102 260.775 750.697 260.89 750.167 260.89H747.722ZM747.572 266.185C747.572 266.465 747.747 266.605 748.097 266.605H749.897C750.127 266.605 750.297 266.535 750.407 266.395C750.537 266.205 750.622 265.695 750.662 264.865L751.967 265.27C751.847 266.53 751.647 267.285 751.367 267.535C751.107 267.765 750.707 267.88 750.167 267.88H747.707C746.677 267.88 746.162 267.415 746.162 266.485V261.43H747.572V263.08C748.932 262.94 750.192 262.695 751.352 262.345L751.817 263.62C750.557 263.96 749.142 264.21 747.572 264.37V266.185ZM743.972 255.31C744.832 256.46 745.512 257.49 746.012 258.4L744.842 259.24C744.672 258.9 744.507 258.59 744.347 258.31C742.787 258.55 740.912 258.73 738.722 258.85L738.332 257.665C738.582 257.575 738.797 257.455 738.977 257.305C739.907 256.275 740.607 255.255 741.077 254.245L742.442 254.65C741.822 255.86 741.117 256.845 740.327 257.605C741.237 257.555 742.372 257.445 743.732 257.275C743.512 256.925 743.227 256.5 742.877 256L743.972 255.31ZM755.222 254.455C756.182 255.195 756.997 255.93 757.667 256.66L756.692 257.65C756.112 256.96 755.292 256.21 754.232 255.4L755.222 254.455ZM753.317 258.76H756.677V265.105C757.097 264.755 757.597 264.305 758.177 263.755L758.567 265.255C757.577 266.175 756.542 266.98 755.462 267.67L754.922 266.38C755.172 266.16 755.297 265.895 755.297 265.585V260.125H753.317V258.76ZM758.672 260.545H765.947V261.85C765.517 263.18 764.797 264.325 763.787 265.285C764.767 265.925 765.927 266.485 767.267 266.965L766.502 268.195C765.052 267.615 763.797 266.935 762.737 266.155C761.577 266.985 760.132 267.66 758.402 268.18L757.607 266.98C759.207 266.51 760.542 265.92 761.612 265.21C760.582 264.21 759.887 263.115 759.527 261.925H758.672V260.545ZM760.862 261.925C761.202 262.835 761.792 263.665 762.632 264.415C763.452 263.665 764.077 262.835 764.507 261.925H760.862ZM759.722 254.755H765.032V257.905C765.032 258.245 765.217 258.415 765.587 258.415H766.907V259.72H765.212C764.152 259.72 763.622 259.22 763.622 258.22V256.09H761.132V256.54C761.132 258.1 760.342 259.31 758.762 260.17L757.817 259.075C759.087 258.505 759.722 257.71 759.722 256.69V254.755ZM773.027 258.64H776.957V254.245H778.427V258.64H782.147V260.05H778.427V268.135H776.957V260.05H773.027V258.64ZM770.297 254.38C771.287 255.13 772.112 255.87 772.772 256.6L771.797 257.59C771.177 256.86 770.347 256.115 769.307 255.355L770.297 254.38ZM768.317 258.73H771.782V265.12C772.192 264.79 772.692 264.345 773.282 263.785L773.657 265.24C772.687 266.15 771.657 266.955 770.567 267.655L770.027 266.38C770.287 266.17 770.417 265.915 770.417 265.615V260.095H768.317V258.73ZM787.907 254.155H789.062C789.722 254.155 790.232 254.37 790.592 254.8C790.922 255.19 791.087 255.725 791.087 256.405V259.21C791.087 259.65 791.182 259.97 791.372 260.17C791.572 260.39 791.942 260.515 792.482 260.545V261.775C791.932 261.805 791.557 261.935 791.357 262.165C791.177 262.355 791.087 262.67 791.087 263.11V265.93C791.087 266.6 790.922 267.13 790.592 267.52C790.222 267.95 789.712 268.165 789.062 268.165H787.907V266.95H788.792C789.352 266.95 789.632 266.63 789.632 265.99V263.035C789.632 262.145 790.062 261.52 790.922 261.16C790.062 260.85 789.632 260.225 789.632 259.285V256.345C789.632 255.695 789.352 255.37 788.792 255.37H787.907V254.155Z" fill="white"/>
<circle cx="261.228" cy="257.78" r="82.6093" transform="rotate(43.9016 261.228 257.78)" stroke="url(#paint4_linear_322_82)" stroke-width="2" stroke-dasharray="4 4"/>
<circle cx="257.773" cy="257.78" r="179.812" transform="rotate(43.9016 257.773 257.78)" stroke="url(#paint5_linear_322_82)" stroke-width="5"/>
<circle cx="182.312" cy="182.312" r="179.812" transform="matrix(-0.720532 0.693421 0.693421 0.720532 756.271 -0.000488281)" stroke="url(#paint6_linear_322_82)" stroke-width="5"/>
<path d="M571.677 143.859C572.565 143.859 573.318 144.168 573.956 144.786C574.574 145.404 574.883 146.157 574.883 147.046C574.883 147.934 574.574 148.688 573.956 149.325C573.318 149.943 572.565 150.252 571.677 150.252C570.788 150.252 570.035 149.943 569.417 149.325C568.798 148.688 568.489 147.934 568.489 147.046C568.489 146.157 568.798 145.404 569.417 144.786C570.035 144.168 570.788 143.859 571.677 143.859ZM596.806 138.161L598.158 138.373C598.042 139.281 597.888 140.131 597.695 140.903H603.798V141.811C603.412 143.53 602.91 145.23 602.292 146.911L600.92 146.524C601.519 145.269 602.002 143.839 602.369 142.256H597.347C596.806 144.013 596.072 145.443 595.184 146.524L594.025 145.732C595.473 143.917 596.401 141.386 596.806 138.161ZM598.236 144.187H599.626C599.588 145.385 599.491 146.466 599.375 147.432C600.438 150.523 602.234 152.995 604.784 154.811L603.818 155.931C601.693 154.231 600.071 152.145 598.989 149.634C598.796 150.445 598.564 151.121 598.294 151.701C597.482 153.362 596.111 154.811 594.218 156.028L593.329 154.888C595.048 153.845 596.265 152.589 596.999 151.121C597.714 149.692 598.12 147.374 598.236 144.187ZM589.795 142.777C589.254 144.361 588.578 145.713 587.766 146.795L586.878 145.694C588.114 143.878 588.964 141.425 589.408 138.354L590.78 138.586C590.606 139.629 590.393 140.594 590.162 141.502H594.083V142.584C593.561 143.762 592.982 144.747 592.364 145.559L591.34 144.747C591.784 144.187 592.19 143.53 592.576 142.777H589.795ZM589.64 145.307H591.012V153.729C591.784 153.343 592.557 152.802 593.329 152.145L593.6 153.439C592.479 154.289 591.205 155.004 589.775 155.545L589.215 154.367C589.486 154.193 589.64 153.942 589.64 153.594V145.307ZM614.635 138.257H615.6C617.996 140.575 620.758 142.391 623.887 143.724L623.211 144.94C620.043 143.55 617.358 141.734 615.117 139.513C613.07 141.676 610.347 143.55 606.986 145.114L606.31 143.897C609.651 142.391 612.433 140.498 614.635 138.257ZM611.583 147.799V149.383H618.961V147.799H611.583ZM618.961 146.602V145.018H611.583V146.602H618.961ZM621.395 150.252L622.573 150.832C621.781 151.72 620.931 152.532 620.024 153.246C621.183 153.826 622.264 154.424 623.249 155.043L622.38 156.086C620.333 154.695 617.725 153.381 614.557 152.165L615.33 151.218C616.585 151.682 617.764 152.184 618.865 152.686C619.792 151.933 620.642 151.121 621.395 150.252ZM609.96 155.97L609.593 154.869C609.999 154.753 610.211 154.386 610.211 153.806V143.782H614.75C614.519 143.067 614.248 142.41 613.978 141.811L615.253 141.599C615.523 142.236 615.794 142.97 616.025 143.782H620.333V150.619H611.583V154.405C613.109 154.096 614.557 153.748 615.929 153.343L616.18 154.521C614.519 155.062 612.433 155.545 609.96 155.97Z" fill="white"/>
<path d="M471.967 392.936C472.842 392.936 473.583 393.239 474.188 393.844C474.793 394.449 475.096 395.183 475.096 396.046C475.096 396.896 474.793 397.636 474.188 398.267C473.557 398.872 472.816 399.175 471.967 399.175C471.104 399.175 470.37 398.872 469.765 398.267C469.159 397.662 468.857 396.922 468.857 396.046C468.857 395.17 469.159 394.436 469.765 393.844C470.357 393.239 471.091 392.936 471.967 392.936ZM489.544 397.224H502.698V398.229H496.633V403.212H504.301V404.236H487.941V403.212H495.57V398.229H489.544V397.224ZM497.83 391.719C499.865 392.659 501.719 393.818 503.393 395.196L502.814 396.084C500.998 394.552 499.15 393.367 497.27 392.53L497.83 391.719ZM494.605 392.608C493.137 393.998 491.269 395.144 489.003 396.046L488.52 395.099C490.683 394.275 492.493 393.2 493.948 391.874L494.605 392.608ZM496.015 387.161C496.324 387.856 496.581 388.564 496.787 389.285H504.224V393.013H503.181V390.27H489.061V392.994H488.018V389.285H495.744C495.448 388.513 495.165 387.869 494.894 387.354L496.015 387.161ZM511.815 392.569H518.884V401.338H511.815V392.569ZM517.899 400.373V397.417H512.819V400.373H517.899ZM512.819 396.49H517.899V393.535H512.819V396.49ZM519.56 404.757L519.271 403.753L520.97 403.791C521.614 403.791 521.936 403.373 521.936 402.536V389.285H514.307V388.3H522.979V402.806C522.979 404.107 522.38 404.757 521.183 404.757H519.56ZM507.836 390.483H508.879V404.892H507.836V390.483ZM510.308 387.122C511.184 388.178 511.976 389.35 512.684 390.637L511.738 391.12C511.029 389.781 510.231 388.59 509.342 387.547L510.308 387.122Z" fill="white"/>
<path d="M471.967 115.859C472.855 115.859 473.608 116.168 474.246 116.786C474.864 117.404 475.173 118.157 475.173 119.046C475.173 119.934 474.864 120.688 474.246 121.325C473.608 121.943 472.855 122.252 471.967 122.252C471.078 122.252 470.325 121.943 469.707 121.325C469.089 120.688 468.779 119.934 468.779 119.046C468.779 118.157 469.089 117.404 469.707 116.786C470.325 116.168 471.078 115.859 471.967 115.859ZM496.111 122.368V123.72H502.234V122.368H496.111ZM502.234 121.286V119.857H496.111V121.286H502.234ZM496.111 124.783V127.892H494.798V118.698H503.567V126.212C503.567 127.255 503.026 127.796 501.964 127.796H500.457L500.109 126.56L501.558 126.637C502.002 126.637 502.234 126.386 502.234 125.922V124.783H496.111ZM498.545 110.219H499.936V111.455H504.417V112.594H499.936V113.927H503.779V115.048H499.936V116.342H504.977V117.501H493.426V117.134L492.557 117.346C492.248 116.129 491.842 114.951 491.359 113.831L492.364 113.522C492.75 114.391 493.117 115.376 493.426 116.477V116.342H498.545V115.048H494.662V113.927H498.545V112.594H494.006V111.455H498.545V110.219ZM487.805 113.947L488.887 114.024C488.848 115.975 488.617 117.81 488.23 119.548L487.168 119.258C487.554 117.578 487.767 115.801 487.805 113.947ZM489.776 110.277H491.128V127.854H489.776V110.277ZM514.036 112.479H517.127V110.257H518.479V112.479H521.318V113.695H518.479V116.187H519.522C520.835 114.758 521.975 113.097 522.902 111.184L524.08 111.783C523.269 113.425 522.323 114.893 521.279 116.187H524.158V117.462H520.121C519.425 118.138 518.73 118.756 517.996 119.316H522.883V127.892H521.55V126.985H516.393V127.892H515.079V121.074C514.538 121.344 513.997 121.576 513.457 121.789L512.703 120.63C514.77 119.876 516.605 118.814 518.189 117.462H513.244V116.187H517.127V113.695H514.036V112.479ZM516.393 123.72V125.748H521.55V123.72H516.393ZM521.55 122.542V120.533H516.393V122.542H521.55ZM513.302 123.913V125.285C511.428 126.096 509.304 126.753 506.928 127.255L506.754 125.864C509.246 125.381 511.428 124.725 513.302 123.913ZM509.671 110.257L510.984 110.779C510.115 113.251 509.226 115.221 508.338 116.689C509.169 116.573 509.999 116.438 510.83 116.264C511.158 115.569 511.486 114.835 511.834 114.082L513.09 114.545C511.467 117.964 510.096 120.398 509.014 121.847C510.154 121.576 511.293 121.209 512.414 120.746V122.02C510.656 122.716 508.956 123.199 507.334 123.45L506.967 122.194C507.218 122.098 507.43 121.963 507.604 121.789C508.299 120.958 509.169 119.529 510.212 117.501C509.169 117.732 508.126 117.926 507.063 118.099L506.715 116.825C506.928 116.709 507.121 116.535 507.314 116.284C508.222 114.526 509.014 112.517 509.671 110.257Z" fill="white"/>
<path d="M386.677 364.859C387.565 364.859 388.318 365.168 388.956 365.786C389.574 366.404 389.883 367.157 389.883 368.046C389.883 368.934 389.574 369.688 388.956 370.325C388.318 370.943 387.565 371.252 386.677 371.252C385.788 371.252 385.035 370.943 384.417 370.325C383.798 369.688 383.489 368.934 383.489 368.046C383.489 367.157 383.798 366.404 384.417 365.786C385.035 365.168 385.788 364.859 386.677 364.859ZM413.313 359.315H414.742V365.071H419.146V366.443H414.742V374.903H419.61V376.274H408.329V374.903H413.313V366.443H409.005V365.071H413.313V359.315ZM404.968 368.857C404.196 369.63 403.346 370.422 402.399 371.214L401.975 369.746C404.64 367.544 406.436 365.38 407.325 363.275H402.438V361.942H405.413C405.104 361.092 404.756 360.281 404.35 359.508L405.683 359.141C406.108 360.107 406.456 360.976 406.707 361.788L406.301 361.942H408.735V363.12C408.233 364.511 407.422 365.902 406.34 367.293C407.46 367.93 408.484 368.683 409.45 369.552L408.677 370.75C407.885 369.939 407.112 369.263 406.34 368.722V376.892H404.968V368.857ZM421.599 361.517H429.577C429.229 360.725 428.843 360.011 428.418 359.354L429.963 359.083C430.349 359.817 430.736 360.629 431.083 361.517H438.694V362.85H421.599V361.517ZM433.189 363.429C435.333 365.129 437.129 366.81 438.578 368.509L437.554 369.533C436.279 367.911 434.502 366.192 432.242 364.337L433.189 363.429ZM433.382 367.041L434.657 367.602C433.73 369.379 432.609 370.905 431.276 372.199C433.363 373.705 435.893 374.826 438.906 375.598L438.037 376.892C434.908 376.004 432.3 374.768 430.214 373.145C428.051 374.884 425.424 376.158 422.333 376.97L421.483 375.695C424.535 374.922 427.066 373.763 429.094 372.218C427.684 370.943 426.525 369.475 425.617 367.853L426.814 367.177C427.664 368.761 428.785 370.132 430.156 371.31C431.47 370.074 432.551 368.664 433.382 367.041ZM426.969 363.449L427.973 364.337C426.505 366.25 424.69 367.93 422.526 369.359L421.638 368.181C423.743 366.829 425.52 365.264 426.969 363.449Z" fill="white"/>
<path d="M571.677 367.859C572.565 367.859 573.318 368.168 573.956 368.786C574.574 369.404 574.883 370.157 574.883 371.046C574.883 371.934 574.574 372.688 573.956 373.325C573.318 373.943 572.565 374.252 571.677 374.252C570.788 374.252 570.035 373.943 569.417 373.325C568.798 372.688 568.489 371.934 568.489 371.046C568.489 370.157 568.798 369.404 569.417 368.786C570.035 368.168 570.788 367.859 571.677 367.859ZM604.513 372.688L604.726 374.04L602.775 374.349V379.873H601.365V374.581L595.338 375.566L595.145 374.214L601.365 373.209V362.296H602.775V372.977L604.513 372.688ZM596.98 363.3C598.371 364.285 599.53 365.27 600.476 366.275L599.53 367.241C598.68 366.294 597.502 365.29 595.995 364.247L596.98 363.3ZM596.401 367.743C597.811 368.786 599.008 369.81 599.974 370.853L598.989 371.838C598.12 370.853 596.922 369.81 595.415 368.689L596.401 367.743ZM587.38 367.434H590.548V364.575C589.621 364.71 588.674 364.826 587.67 364.923L587.399 363.609C589.911 363.416 592.151 363.011 594.083 362.431L594.566 363.745C593.735 363.976 592.866 364.169 591.939 364.343V367.434H594.604V368.767H591.939V369.713C593.02 370.582 594.141 371.567 595.261 372.649L594.469 373.827C593.465 372.649 592.634 371.722 591.939 371.046V379.873H590.548V370.853C589.775 372.746 588.752 374.465 587.438 376.01L586.839 374.465C588.481 372.804 589.659 370.891 590.393 368.767H587.38V367.434ZM612.606 365.599H607.372V364.305H611.486C611.177 363.629 610.849 363.011 610.501 362.45L611.95 362.219C612.297 362.837 612.645 363.532 612.954 364.305H617.01C617.474 363.59 617.899 362.856 618.266 362.083L619.599 362.547C619.27 363.204 618.923 363.783 618.536 364.305H622.902V365.599H617.648V369.385H623.636V370.698H606.638V369.385H612.606V365.599ZM616.315 365.599H613.939V369.385H616.315V365.599ZM620.816 366.101L621.936 366.623C621.511 367.511 620.951 368.361 620.275 369.172L619.174 368.612C619.869 367.762 620.41 366.932 620.816 366.101ZM609.806 366.14C610.308 366.932 610.733 367.782 611.1 368.67L609.922 369.192C609.535 368.187 609.091 367.318 608.589 366.545L609.806 366.14ZM621.028 372.108V379.912H619.695V379.004H610.54V379.912H609.207V372.108H621.028ZM610.54 377.826H619.695V376.145H610.54V377.826ZM610.54 375.025H619.695V373.267H610.54V375.025Z" fill="white"/>
<path d="M386.677 143.936C387.552 143.936 388.293 144.239 388.898 144.844C389.503 145.449 389.806 146.183 389.806 147.046C389.806 147.896 389.503 148.636 388.898 149.267C388.267 149.872 387.526 150.175 386.677 150.175C385.814 150.175 385.08 149.872 384.475 149.267C383.869 148.662 383.567 147.922 383.567 147.046C383.567 146.17 383.869 145.436 384.475 144.844C385.067 144.239 385.801 143.936 386.677 143.936ZM409.044 139.126H417.717V140.092H409.044V139.126ZM407.769 143.762H419.088V144.747H412.946C411.735 147.786 410.699 149.834 409.836 150.89C412.695 150.619 415.032 150.291 416.848 149.905C416.32 148.707 415.772 147.606 415.206 146.602L416.075 146.312C417.105 148.05 418.039 150.104 418.876 152.474L417.929 152.705C417.697 152.049 417.466 151.431 417.234 150.851C415.006 151.289 412.135 151.649 408.619 151.933L408.31 150.986C409.134 150.742 410.332 148.662 411.903 144.747H407.769V143.762ZM403.52 138.663C404.807 139.654 405.902 140.646 406.803 141.637L406.069 142.391C405.284 141.464 404.189 140.453 402.786 139.358L403.52 138.663ZM414.935 155.525C414.291 155.525 413.145 155.513 411.497 155.487C410.222 155.448 409.224 155.326 408.503 155.12C407.731 154.875 407.048 154.399 406.456 153.69C406.211 153.356 405.966 153.188 405.722 153.188C405.194 153.188 404.35 154.083 403.191 155.873L402.399 155.178C403.481 153.491 404.434 152.512 405.258 152.242V146.061H402.399V145.056H406.243V152.28C406.475 152.422 406.675 152.602 406.842 152.821C407.331 153.401 407.859 153.826 408.426 154.096C409.044 154.328 409.92 154.463 411.053 154.502C412.341 154.527 413.583 154.54 414.781 154.54H417.446L419.513 154.463L419.262 155.525H414.935ZM422.275 139.745H429.152V140.73H422.275V139.745ZM421.503 144.94H429.905V145.984H425.366C424.503 149.164 423.75 151.385 423.106 152.647C424.78 152.351 426.486 151.875 428.225 151.218C427.619 149.969 427.085 148.945 426.621 148.147L427.51 147.722C428.45 149.383 429.345 151.192 430.195 153.15L429.268 153.613L428.611 152.087C426.576 152.808 424.336 153.394 421.889 153.845L421.638 152.86C421.767 152.808 421.837 152.776 421.85 152.763C422.468 151.952 423.299 149.692 424.342 145.984H421.503V144.94ZM433.015 138.315H434.058V141.908H438.307C438.307 148.102 438.217 151.958 438.037 153.478C437.882 154.946 437.078 155.68 435.622 155.68C435.275 155.68 434.663 155.661 433.787 155.622L433.536 154.714C434.567 154.74 435.23 154.753 435.526 154.753C436.376 154.753 436.878 154.225 437.032 153.169C437.161 152.049 437.245 148.63 437.284 142.912H434.058V143.183C434.006 148.977 432.635 153.227 429.944 155.931L429.113 155.197C431.676 152.699 432.976 148.694 433.015 143.183V142.912H430.465V141.908H433.015V138.315Z" fill="white"/>
<defs>
<radialGradient id="paint0_radial_322_82" cx="0" cy="0" r="1" gradientUnits="userSpaceOnUse" gradientTransform="translate(502.492 259.5) rotate(90) scale(256.5 403.5)">
<stop stop-color="#0F44FE"/>
<stop offset="1"/>
</radialGradient>
<linearGradient id="paint1_linear_322_82" x1="306.51" y1="213.114" x2="586.26" y2="629.943" gradientUnits="userSpaceOnUse">
<stop stop-color="white"/>
<stop offset="0.713417" stop-color="white" stop-opacity="0"/>
</linearGradient>
<linearGradient id="paint2_linear_322_82" x1="848.702" y1="258.56" x2="656.702" y2="258.56" gradientUnits="userSpaceOnUse">
<stop stop-color="white"/>
<stop offset="0.808302" stop-color="white" stop-opacity="0"/>
</linearGradient>
<linearGradient id="paint3_linear_322_82" x1="312.702" y1="60.5601" x2="692.202" y2="60.5601" gradientUnits="userSpaceOnUse">
<stop stop-color="white" stop-opacity="0"/>
<stop offset="0.54" stop-color="white"/>
<stop offset="0.955" stop-color="white" stop-opacity="0"/>
</linearGradient>
<linearGradient id="paint4_linear_322_82" x1="200.797" y1="315.727" x2="304.688" y2="201.902" gradientUnits="userSpaceOnUse">
<stop stop-color="white"/>
<stop offset="0.857676" stop-color="white" stop-opacity="0"/>
</linearGradient>
<linearGradient id="paint5_linear_322_82" x1="126.003" y1="384.135" x2="352.539" y2="135.938" gradientUnits="userSpaceOnUse">
<stop stop-color="white"/>
<stop offset="0.857676" stop-color="white" stop-opacity="0"/>
</linearGradient>
<linearGradient id="paint6_linear_322_82" x1="50.5419" y1="308.666" x2="277.078" y2="60.4697" gradientUnits="userSpaceOnUse">
<stop stop-color="white"/>
<stop offset="0.857676" stop-color="white" stop-opacity="0"/>
</linearGradient>
</defs>
</svg>
