<svg width="524" height="506" viewBox="0 0 524 506" fill="none" xmlns="http://www.w3.org/2000/svg">
<path d="M450.696 334.528C451.584 334.528 452.338 334.837 452.975 335.455C453.593 336.073 453.902 336.826 453.902 337.715C453.902 338.603 453.593 339.357 452.975 339.994C452.338 340.612 451.584 340.921 450.696 340.921C449.807 340.921 449.054 340.612 448.436 339.994C447.818 339.357 447.509 338.603 447.509 337.715C447.509 336.826 447.818 336.073 448.436 335.455C449.054 334.837 449.807 334.528 450.696 334.528ZM474.841 341.037V342.389H480.964V341.037H474.841ZM480.964 339.955V338.526H474.841V339.955H480.964ZM474.841 343.452V346.561H473.527V337.367H482.296V344.881C482.296 345.924 481.756 346.465 480.693 346.465H479.187L478.839 345.229L480.288 345.306C480.732 345.306 480.964 345.055 480.964 344.591V343.452H474.841ZM477.274 328.888H478.665V330.124H483.146V331.263H478.665V332.596H482.509V333.716H478.665V335.011H483.706V336.17H472.156V335.803L471.286 336.015C470.977 334.798 470.572 333.62 470.089 332.5L471.093 332.191C471.48 333.06 471.847 334.045 472.156 335.146V335.011H477.274V333.716H473.392V332.596H477.274V331.263H472.735V330.124H477.274V328.888ZM466.535 332.615L467.616 332.693C467.578 334.644 467.346 336.479 466.96 338.217L465.897 337.927C466.284 336.247 466.496 334.47 466.535 332.615ZM468.505 328.945H469.857V346.523H468.505V328.945ZM489.269 333.446H495.624V334.586H489.269V333.446ZM489.791 335.822H495.18V339.762H489.791V335.822ZM493.886 338.681V336.904H491.104V338.681H493.886ZM502.153 330.626V331.901H497.594C497.672 333.253 497.826 334.373 498.058 335.242C498.193 335.841 498.348 336.382 498.541 336.865C499.236 335.745 499.835 334.45 500.299 332.944L501.38 333.504C500.781 335.397 500.047 336.942 499.159 338.178L499.333 338.449C499.835 339.125 500.299 339.473 500.724 339.473C501.071 339.473 501.438 338.661 501.825 337.058L502.945 337.715C502.365 339.743 501.67 340.767 500.859 340.767C500.086 340.767 499.352 340.361 498.637 339.588C498.522 339.453 498.406 339.318 498.328 339.202C497.691 339.878 497.015 340.419 496.32 340.844L495.605 339.762C496.358 339.318 497.054 338.739 497.672 338.043C497.363 337.425 497.092 336.71 496.86 335.918C496.551 334.837 496.358 333.504 496.262 331.901H488.381V334.431C488.323 336.981 487.666 339.048 486.43 340.612L485.387 339.666C486.43 338.41 486.971 336.672 487.029 334.431V330.626H496.204C496.165 330.046 496.165 329.428 496.165 328.81H497.498C497.498 329.448 497.498 330.046 497.536 330.626H499.642C499.449 330.085 499.236 329.583 499.004 329.119L500.241 328.907C500.453 329.409 500.666 329.989 500.859 330.626H502.153ZM487.627 340.979L488.902 341.25C488.361 343.065 487.627 344.63 486.662 345.963L485.483 345.209C486.449 343.934 487.164 342.524 487.627 340.979ZM496.687 346.291H491.896C490.757 346.291 490.196 345.673 490.196 344.456V340.767H491.607V344.166C491.607 344.707 491.838 344.978 492.321 344.978H496.435C496.822 344.978 497.111 344.881 497.285 344.688C497.478 344.456 497.633 343.799 497.71 342.679L499.024 343.123C498.908 344.63 498.657 345.538 498.27 345.885C497.923 346.156 497.401 346.291 496.687 346.291ZM500.337 341.385C501.496 342.66 502.365 343.78 502.964 344.746L501.863 345.538C501.206 344.495 500.337 343.336 499.217 342.08L500.337 341.385ZM494.156 340.438C495.064 341.404 495.759 342.273 496.242 343.007L495.199 343.741C494.697 342.93 494.002 342.042 493.113 341.076L494.156 340.438ZM472.098 361.682H477.332V355.868H478.762V361.682H483.726V363.073H478.762V373.639H477.332V363.073H472.098V361.682ZM468.312 356.081C469.625 357.066 470.726 358.051 471.615 359.055L470.668 360.021C469.857 359.075 468.737 358.07 467.346 357.027L468.312 356.081ZM466.052 361.798H470.224V370.394C470.919 369.814 471.692 369.157 472.503 368.385L472.851 369.814C471.653 370.973 470.359 371.997 468.988 372.905L468.447 371.649C468.737 371.417 468.891 371.147 468.891 370.838V363.131H466.052V361.798ZM487.917 360.253H500.627V367.844H498.328V369.138H502.713V370.374H498.328V373.639H496.957V370.374H491.471C491.278 370.934 491.027 371.417 490.679 371.823C490.023 372.576 488.941 373.156 487.454 373.581L486.739 372.48C488.091 372.093 489.038 371.611 489.578 371.031C489.733 370.819 489.868 370.606 489.984 370.374H485.599V369.138H490.332C490.351 368.945 490.37 368.752 490.37 368.597V367.844H487.917V360.253ZM491.761 367.844V368.597C491.761 368.79 491.742 368.964 491.722 369.138H496.957V367.844H491.761ZM499.275 366.762V365.565H489.269V366.762H499.275ZM489.269 364.56H499.275V363.479H489.269V364.56ZM489.269 362.494H499.275V361.335H489.269V362.494ZM488.497 358.36C488.033 359.133 487.492 359.867 486.874 360.523L485.715 359.809C486.894 358.572 487.743 357.22 488.265 355.752L489.598 356.042C489.443 356.428 489.269 356.815 489.115 357.182H493.905V358.36H491.375C491.703 358.785 491.974 359.171 492.186 359.538L491.027 359.963C490.718 359.422 490.37 358.881 489.984 358.36H488.497ZM496.435 358.302C496.049 358.959 495.624 359.577 495.141 360.137L494.002 359.403C494.967 358.321 495.663 357.104 496.088 355.791L497.44 356.081L497.034 357.124H502.539V358.302H499.313C499.661 358.746 499.932 359.171 500.163 359.558L499.004 359.982C498.695 359.403 498.328 358.843 497.903 358.302H496.435Z" fill="white"/>
<circle cx="263.477" cy="244.721" r="208.195" fill="url(#paint0_radial_100_435)" stroke="url(#paint1_linear_100_435)" stroke-width="0.827815"/>
<circle cx="189.786" cy="209.126" r="79.4702" transform="rotate(19.0508 189.786 209.126)" stroke="url(#paint2_linear_100_435)" stroke-width="8.27815"/>
<circle cx="336.314" cy="209.126" r="79.4702" transform="rotate(41.2221 336.314 209.126)" stroke="url(#paint3_linear_100_435)" stroke-width="8.27815"/>
<circle cx="263.469" cy="244.721" r="186.258" stroke="white" stroke-width="1.65563" stroke-dasharray="4.97 4.97"/>
<path opacity="0.48" d="M93.9766 439.265C139.261 478.95 198.56 502.999 263.471 502.999C328.382 502.999 387.682 478.95 432.966 439.265" stroke="url(#paint4_linear_100_435)" stroke-width="5.7947"/>
<path opacity="0.48" d="M520.921 245.255C520.921 150.792 470.162 68.1978 394.461 23.3188" stroke="url(#paint5_linear_100_435)" stroke-width="5.7947"/>
<path opacity="0.48" d="M6.02344 246.911C6.02344 133.795 78.8079 37.6977 180.048 2.99949" stroke="url(#paint6_linear_100_435)" stroke-width="5.7947"/>
<path d="M141.256 199.938V201.614H140.035C139.262 201.614 138.876 202.063 138.876 202.96V207.016C138.876 208.299 138.283 209.161 137.096 209.603C138.283 210.1 138.876 210.962 138.876 212.19V216.267C138.876 217.15 139.262 217.591 140.035 217.591H141.256V219.268H139.662C138.765 219.268 138.062 218.971 137.551 218.378C137.096 217.84 136.868 217.108 136.868 216.184V212.293C136.868 211.686 136.744 211.252 136.496 210.989C136.22 210.672 135.703 210.493 134.944 210.451V208.754C135.689 208.713 136.206 208.534 136.496 208.216C136.744 207.927 136.868 207.492 136.868 206.912V203.042C136.868 202.104 137.096 201.366 137.551 200.828C138.048 200.235 138.752 199.938 139.662 199.938H141.256ZM157.792 205.36H150.279V203.436H157.792C157.461 202.415 157.067 201.442 156.612 200.518L158.516 200C159.013 201.187 159.413 202.325 159.716 203.415L159.654 203.436H167.312V205.36H159.778V209.665H166.318V211.507H159.778V216.557H168.036V218.481H149.555V216.557H157.792V211.507H151.273V209.665H157.792V205.36ZM170.892 201.366H178.591V203.249H170.892V201.366ZM170.126 206.954H179.336V208.858H174.679C173.934 211.672 173.293 213.749 172.754 215.087C174.093 214.797 175.472 214.39 176.894 213.866C176.424 212.845 175.948 211.893 175.466 211.01L177.121 210.203C178.059 211.914 178.97 213.832 179.853 215.956L178.156 216.826L177.618 215.501C175.438 216.246 173.092 216.846 170.581 217.302L170.105 215.439C170.285 215.398 170.423 215.342 170.519 215.273C171.071 214.473 171.823 212.335 172.775 208.858H170.126V206.954ZM182.129 200.145H184.096V203.829H188.586C188.586 210.741 188.49 215.032 188.297 216.701C188.076 218.233 187.041 218.999 185.192 218.999L183.413 218.916L182.957 217.177C183.785 217.246 184.434 217.281 184.903 217.281C185.772 217.281 186.275 216.805 186.413 215.853C186.538 214.832 186.62 211.452 186.662 205.712H184.096V206.147C184.054 212.135 182.633 216.529 179.832 219.33L178.28 217.943C180.805 215.501 182.088 211.569 182.129 206.147V205.712H179.729V203.829H182.129V200.145ZM208.516 209.023H205.019V210.286H208.764V211.817H205.019V212.976H209.406V214.59H205.019V216.412H203.156V214.59H199.927V212.976H203.156V211.817H200.59V210.286H203.156V209.023H200.755V207.451H203.156V206.147H199.927V204.574H203.156V203.249H200.755V201.677H203.156V200.207H205.019V201.677H208.516V204.574H209.696V206.147H208.516V209.023ZM205.019 203.249V204.574H206.778V203.249H205.019ZM205.019 206.147V207.451H206.778V206.147H205.019ZM195.457 201.884H199.783V203.498C198.996 205.098 198.244 206.457 197.527 207.575H199.907V208.672C199.852 211.114 199.458 213.204 198.727 214.942C199.334 215.536 199.99 215.984 200.693 216.287C201.769 216.743 203.439 217.012 205.701 217.095C206.695 217.095 208.047 217.067 209.758 217.012L209.406 218.854H206.923C203.197 218.812 200.666 218.412 199.327 217.653C198.817 217.377 198.327 217.026 197.858 216.598C197.209 217.591 196.395 218.44 195.416 219.143L194.464 217.467C195.319 216.86 196.037 216.087 196.616 215.149C195.816 213.99 195.161 212.514 194.65 210.72L196.244 210.12C196.52 211.307 196.934 212.355 197.485 213.266C197.886 212.038 198.127 210.693 198.21 209.23H195.25V207.823C196.133 206.623 196.947 205.264 197.692 203.746H195.457V201.884ZM192.374 208.361C191.877 209.092 191.449 209.693 191.091 210.162L190.449 208.051C192.008 205.802 193.153 203.146 193.884 200.083L195.664 200.911C195.278 202.332 194.816 203.656 194.278 204.884V219.226H192.374V208.361ZM228.094 211.528H223.044V212.562C223.541 213.059 224.134 213.563 224.824 214.073C225.845 213.397 226.735 212.618 227.494 211.735L228.901 212.956C228.142 213.687 227.259 214.37 226.252 215.004C227.425 215.708 228.77 216.336 230.288 216.888L229.294 218.605C226.894 217.612 224.81 216.274 223.044 214.59V217.239C223.044 218.467 222.423 219.081 221.182 219.081H218.947L218.553 217.302C219.257 217.384 219.919 217.426 220.54 217.426C220.954 217.426 221.161 217.205 221.161 216.763V215.149C219.519 216.281 217.56 217.322 215.283 218.274L214.518 216.515C215.897 216.018 217.139 215.494 218.243 214.942C217.374 214.349 216.456 213.866 215.49 213.494L216.442 212.107C217.408 212.493 218.319 212.983 219.174 213.576L218.284 214.922C219.333 214.397 220.292 213.852 221.161 213.287V211.528H216.173V209.934H221.161V208.754H214.787C214.663 213.073 213.973 216.529 212.717 219.123L211.227 217.819C212.29 215.542 212.848 212.355 212.903 208.258V201.366H220.685C220.478 200.994 220.271 200.642 220.064 200.311L222.113 199.98C222.265 200.283 222.465 200.745 222.713 201.366H229.812V203.125H223.044V204.326H228.094V207.14H230.019V208.754H228.094V211.528ZM214.807 207.14H221.161V205.919H216.298V204.326H221.161V203.125H214.807V207.14ZM223.044 205.919V207.14H226.231V205.919H223.044ZM226.231 208.754H223.044V209.934H226.231V208.754ZM238.4 199.938H239.994C240.904 199.938 241.608 200.235 242.105 200.828C242.56 201.366 242.788 202.104 242.788 203.042V206.912C242.788 207.52 242.919 207.961 243.181 208.237C243.457 208.541 243.967 208.713 244.712 208.754V210.451C243.954 210.493 243.436 210.672 243.16 210.989C242.912 211.252 242.788 211.686 242.788 212.293V216.184C242.788 217.108 242.56 217.84 242.105 218.378C241.594 218.971 240.891 219.268 239.994 219.268H238.4V217.591H239.621C240.394 217.591 240.78 217.15 240.78 216.267V212.19C240.78 210.962 241.374 210.1 242.56 209.603C241.374 209.175 240.78 208.313 240.78 207.016V202.96C240.78 202.063 240.394 201.614 239.621 201.614H238.4V199.938Z" fill="white"/>
<path d="M214.935 318.315V319.991H213.714C212.942 319.991 212.555 320.44 212.555 321.337V325.393C212.555 326.676 211.962 327.538 210.776 327.98C211.962 328.477 212.555 329.339 212.555 330.567V334.644C212.555 335.527 212.942 335.968 213.714 335.968H214.935V337.645H213.342C212.445 337.645 211.741 337.348 211.231 336.755C210.776 336.217 210.548 335.485 210.548 334.561V330.67C210.548 330.063 210.424 329.629 210.176 329.366C209.9 329.049 209.382 328.87 208.623 328.828V327.131C209.368 327.09 209.886 326.911 210.176 326.593C210.424 326.304 210.548 325.869 210.548 325.289V321.419C210.548 320.481 210.776 319.743 211.231 319.205C211.728 318.612 212.431 318.315 213.342 318.315H214.935ZM225.118 327.152H239.853V332.533H233.417V333.443H240.267V334.706H233.417V335.679H241.778V337.169H223.152V335.679H231.471V334.706H224.704V333.443H231.471V332.533H225.118V327.152ZM237.99 331.374V330.381H233.417V331.374H237.99ZM231.471 331.374V330.381H226.98V331.374H231.471ZM226.98 329.304H231.471V328.311H226.98V329.304ZM233.417 328.311V329.304H237.99V328.311H233.417ZM225.573 318.77H239.418V324.027H225.573V318.77ZM237.535 322.909V321.957H227.456V322.909H237.535ZM227.456 320.84H237.535V319.909H227.456V320.84ZM223.152 324.896H241.778V326.304H223.152V324.896ZM251.567 319.164C250.863 320.861 249.952 322.447 248.835 323.924V337.603H246.889V326.221C246.131 327.021 245.22 327.863 244.158 328.746L243.537 326.697C246.338 324.296 248.4 321.495 249.725 318.294L251.567 319.164ZM255.685 337.231C254.029 337.231 253.202 336.403 253.202 334.747V328.953C252.332 329.408 251.567 329.794 250.904 330.111L250.014 328.249C251.284 327.683 252.346 327.152 253.202 326.655V318.605H255.168V325.434C257.223 324.068 259.01 322.537 260.528 320.84L261.894 322.392C259.879 324.462 257.637 326.269 255.168 327.814V334.478C255.168 335.058 255.499 335.347 256.161 335.347H259.224C259.693 335.347 260.045 335.189 260.279 334.871C260.5 334.54 260.631 333.437 260.673 331.56L262.494 332.16C262.356 334.533 262.094 335.975 261.707 336.486C261.321 336.982 260.604 337.231 259.555 337.231H255.685ZM280.975 320.778V337.541H278.988V336.382H268.723V337.541H266.736V320.778H271.206C271.648 319.964 271.965 319.171 272.158 318.398L274.166 318.688C273.987 319.364 273.69 320.06 273.276 320.778H280.975ZM268.723 334.52H278.988V331.622H268.723V334.52ZM268.723 329.801H278.988V327.09H268.723V329.801ZM268.723 325.269H278.988V322.661H268.723V325.269ZM294.779 329.925C293.868 330.229 292.688 330.574 291.24 330.96V335.244C291.24 336.61 290.543 337.293 289.149 337.293H286.831L286.397 335.409C287.128 335.492 287.818 335.534 288.466 335.534C288.991 335.534 289.253 335.272 289.253 334.747V331.415C287.859 331.719 286.583 331.96 285.424 332.14L285.155 330.174C286.59 329.939 287.956 329.691 289.253 329.429V325.724H285.155V323.841H289.253V321.647C288.48 321.799 287.418 321.978 286.066 322.185L285.652 320.323C288.577 320.005 291.143 319.398 293.351 318.501L294.033 320.343C293.15 320.647 292.219 320.937 291.24 321.212V323.841H295.71C295.586 322.227 295.524 320.447 295.524 318.501H297.51C297.51 320.53 297.572 322.309 297.697 323.841H303.947V325.724H297.862C297.986 327.09 298.173 328.228 298.421 329.139C298.49 329.442 298.586 329.801 298.711 330.215C299.621 329.125 300.401 327.904 301.049 326.552L302.746 327.442C301.808 329.36 300.704 330.994 299.435 332.347C299.725 332.981 299.966 333.45 300.159 333.754C300.78 334.692 301.256 335.161 301.587 335.161C301.863 335.161 302.132 334.085 302.394 331.933L304.133 332.843C303.609 335.796 302.85 337.272 301.856 337.272C300.973 337.272 300.042 336.658 299.062 335.43C298.649 334.92 298.297 334.347 298.007 333.712C296.558 334.927 294.958 335.872 293.206 336.548L292.109 334.851C294.054 334.147 295.751 333.133 297.2 331.808C296.965 331.174 296.751 330.463 296.558 329.677C296.269 328.559 296.041 327.242 295.875 325.724H291.24V328.973C292.481 328.642 293.661 328.29 294.779 327.918V329.925ZM299.787 318.688C301.235 319.598 302.484 320.53 303.533 321.481L302.105 322.889C301.235 321.978 300.021 320.999 298.462 319.95L299.787 318.688ZM312.08 318.315H313.674C314.584 318.315 315.288 318.612 315.784 319.205C316.24 319.743 316.467 320.481 316.467 321.419V325.289C316.467 325.897 316.599 326.338 316.861 326.614C317.137 326.917 317.647 327.09 318.392 327.131V328.828C317.633 328.87 317.116 329.049 316.84 329.366C316.592 329.629 316.467 330.063 316.467 330.67V334.561C316.467 335.485 316.24 336.217 315.784 336.755C315.274 337.348 314.57 337.645 313.674 337.645H312.08V335.968H313.301C314.074 335.968 314.46 335.527 314.46 334.644V330.567C314.46 329.339 315.053 328.477 316.24 327.98C315.053 327.552 314.46 326.69 314.46 325.393V321.337C314.46 320.44 314.074 319.991 313.301 319.991H312.08V318.315Z" fill="white"/>
<path d="M136.598 45.9711C137.487 45.9711 138.24 46.2801 138.878 46.8982C139.496 47.5163 139.805 48.2697 139.805 49.1582C139.805 50.0467 139.496 50.8 138.878 51.4374C138.24 52.0555 137.487 52.3646 136.598 52.3646C135.71 52.3646 134.957 52.0555 134.338 51.4374C133.72 50.8 133.411 50.0467 133.411 49.1582C133.411 48.2697 133.72 47.5163 134.338 46.8982C134.957 46.2801 135.71 45.9711 136.598 45.9711ZM161.728 40.273L163.08 40.4854C162.964 41.3933 162.81 42.2432 162.617 43.0158H168.72V43.9236C168.334 45.6427 167.832 47.3425 167.214 49.023L165.842 48.6366C166.441 47.3811 166.924 45.9518 167.291 44.3679H162.269C161.728 46.1256 160.994 47.555 160.106 48.6366L158.947 47.8447C160.395 46.029 161.322 43.4987 161.728 40.273ZM163.157 46.2995H164.548C164.51 47.497 164.413 48.5787 164.297 49.5445C165.359 52.635 167.156 55.1074 169.705 56.9231L168.74 58.0434C166.615 56.3436 164.992 54.2575 163.911 51.7465C163.718 52.5577 163.486 53.2338 163.215 53.8133C162.404 55.4744 161.033 56.9231 159.14 58.14L158.251 57.0003C159.97 55.9573 161.187 54.7018 161.921 53.2338C162.636 51.8044 163.042 49.4865 163.157 46.2995ZM154.716 44.8894C154.176 46.4733 153.5 47.8254 152.688 48.9071L151.8 47.8061C153.036 45.9904 153.886 43.5373 154.33 40.4661L155.702 40.6979C155.528 41.741 155.315 42.7067 155.083 43.6146H159.005V44.6962C158.483 45.8745 157.904 46.8596 157.285 47.6709L156.262 46.8596C156.706 46.2995 157.112 45.6427 157.498 44.8894H154.716ZM154.562 47.4198H155.933V55.8414C156.706 55.4551 157.479 54.9142 158.251 54.2575L158.522 55.5517C157.401 56.4016 156.127 57.1162 154.697 57.6571L154.137 56.4788C154.407 56.305 154.562 56.0539 154.562 55.7062V47.4198ZM179.556 40.3695H180.522C182.917 42.6874 185.68 44.5031 188.809 45.8359L188.133 47.0528C184.965 45.662 182.28 43.8464 180.039 41.6251C177.992 43.7884 175.268 45.662 171.907 47.2266L171.231 46.0097C174.573 44.5031 177.354 42.6102 179.556 40.3695ZM176.505 49.9115V51.4954H183.883V49.9115H176.505ZM183.883 48.7139V47.13H176.505V48.7139H183.883ZM186.317 52.3646L187.495 52.944C186.703 53.8326 185.853 54.6438 184.946 55.3585C186.104 55.938 187.186 56.5368 188.171 57.1549L187.302 58.1979C185.255 56.8072 182.647 55.4937 179.479 54.2768L180.252 53.3304C181.507 53.7939 182.686 54.2961 183.787 54.7984C184.714 54.045 185.564 53.2338 186.317 52.3646ZM174.882 58.082L174.515 56.981C174.921 56.8651 175.133 56.4981 175.133 55.9187V45.8938H179.672C179.441 45.1791 179.17 44.5224 178.9 43.9236L180.175 43.7111C180.445 44.3486 180.715 45.0826 180.947 45.8938H185.255V52.7316H176.505V56.5174C178.031 56.2084 179.479 55.8607 180.851 55.4551L181.102 56.6333C179.441 57.1742 177.354 57.6571 174.882 58.082Z" fill="white"/>
<path d="M20.7078 188.356C21.5963 188.356 22.3496 188.665 22.987 189.283C23.6051 189.901 23.9142 190.654 23.9142 191.543C23.9142 192.431 23.6051 193.185 22.987 193.822C22.3496 194.44 21.5963 194.749 20.7078 194.749C19.8192 194.749 19.0659 194.44 18.4478 193.822C17.8297 193.185 17.5207 192.431 17.5207 191.543C17.5207 190.654 17.8297 189.901 18.4478 189.283C19.0659 188.665 19.8192 188.356 20.7078 188.356ZM38.2464 192.567H51.4776V193.88H45.5477V198.458H53.1002V199.791H36.6239V198.458H44.1377V193.88H38.2464V192.567ZM46.6487 187.139C48.6769 188.066 50.5312 189.206 52.1923 190.539L51.4004 191.717C49.6233 190.249 47.7883 189.09 45.9147 188.24L46.6487 187.139ZM42.6117 187.274L43.4809 188.279C41.9743 189.631 40.1007 190.77 37.8601 191.678L37.2613 190.403C39.4247 189.611 41.2017 188.568 42.6117 187.274ZM44.9296 182.6C45.1807 183.199 45.4318 183.875 45.6636 184.628H53.0615V188.51H51.6515V185.922H38.0726V188.491H36.6625V184.628H44.2343C43.9832 183.971 43.7127 183.372 43.423 182.832L44.9296 182.6ZM60.4208 187.95H67.7608V196.951H60.4208V187.95ZM66.4666 195.715V193.069H61.7343V195.715H66.4666ZM61.7343 191.833H66.4666V189.186H61.7343V191.833ZM69.9241 200.274H68.3016L67.9539 198.979L69.6344 199.018C70.2138 199.018 70.5229 198.612 70.5229 197.84V184.976H63.0284V183.681H71.875V198.226C71.875 199.578 71.2183 200.274 69.9241 200.274ZM56.4225 185.922H57.7746V200.447H56.4225V185.922ZM59.2232 182.542C60.1117 183.604 60.9037 184.763 61.5797 186.038L60.3435 186.695C59.6095 185.343 58.8176 184.145 57.9484 183.102L59.2232 182.542Z" fill="white"/>
<path d="M110.291 430.906C111.179 430.906 111.932 431.215 112.57 431.833C113.188 432.451 113.497 433.204 113.497 434.093C113.497 434.981 113.188 435.735 112.57 436.372C111.932 436.99 111.179 437.299 110.291 437.299C109.402 437.299 108.649 436.99 108.031 436.372C107.412 435.735 107.103 434.981 107.103 434.093C107.103 433.204 107.412 432.451 108.031 431.833C108.649 431.215 109.402 430.906 110.291 430.906ZM140.925 427.564V442.959H139.515V441.761H129.355V442.959H127.945V427.564H132.079C132.504 426.791 132.832 426.019 133.025 425.208L134.435 425.401C134.223 426.173 133.914 426.907 133.527 427.564H140.925ZM129.355 440.428H139.515V437.28H129.355V440.428ZM129.355 436.005H139.515V433.05H129.355V436.005ZM129.355 431.775H139.515V428.897H129.355V431.775ZM153.963 434.247V435.657C152.843 436.024 151.684 436.372 150.448 436.7V441.046C150.448 442.167 149.849 442.727 148.671 442.727H146.527L146.237 441.394C146.913 441.452 147.57 441.491 148.207 441.491C148.748 441.491 149.018 441.22 149.018 440.699V437.029C147.782 437.299 146.527 437.55 145.213 437.763L145.02 436.353C146.43 436.121 147.763 435.889 149.018 435.619V431.813H145.039V430.481H149.018V427.892C147.995 428.105 146.932 428.279 145.831 428.433L145.542 427.1C148.284 426.791 150.718 426.231 152.843 425.401L153.307 426.714C152.418 427.023 151.452 427.313 150.448 427.583V430.481H155.084C154.968 428.916 154.91 427.197 154.91 425.304H156.3C156.32 427.255 156.378 428.974 156.494 430.481H162.462V431.813H156.61C156.745 433.204 156.919 434.363 157.15 435.31C157.266 435.812 157.401 436.256 157.537 436.681C158.464 435.561 159.294 434.286 159.99 432.857L161.187 433.494C160.299 435.31 159.256 436.855 158.039 438.149C158.309 438.806 158.58 439.366 158.889 439.81C159.507 440.737 160.009 441.22 160.376 441.22C160.762 441.201 161.091 440.119 161.4 437.956L162.617 438.593C162.153 441.336 161.477 442.708 160.589 442.708C159.797 442.708 158.966 442.128 158.078 440.969C157.691 440.448 157.324 439.829 157.015 439.134C155.624 440.37 154.041 441.336 152.283 442.031L151.529 440.834C153.422 440.139 155.064 439.115 156.474 437.782C156.243 437.125 156.03 436.411 155.837 435.657C155.566 434.556 155.354 433.281 155.199 431.813H150.448V435.29C151.703 434.962 152.882 434.614 153.963 434.247ZM158.425 425.517C159.816 426.444 160.994 427.352 161.96 428.279L160.956 429.283C160.106 428.395 158.966 427.429 157.498 426.405L158.425 425.517ZM165.765 425.575C167.079 426.579 168.199 427.564 169.107 428.568L168.122 429.554C167.31 428.607 166.209 427.583 164.799 426.482L165.765 425.575ZM177.142 442.63C176.08 442.63 174.921 442.611 173.665 442.592C172.41 442.572 171.386 442.456 170.594 442.244C169.821 442.012 169.126 441.529 168.547 440.834C168.276 440.506 168.006 440.351 167.774 440.351C167.31 440.351 166.538 441.24 165.475 443.017L164.432 442.07C165.456 440.448 166.364 439.463 167.156 439.115V433.243H164.413V431.968H168.45V439.192C168.605 439.308 168.759 439.443 168.933 439.636C169.396 440.196 169.918 440.602 170.459 440.853C171.077 441.124 171.946 441.278 173.105 441.317C174.148 441.336 175.423 441.355 176.949 441.355C177.837 441.355 178.765 441.336 179.711 441.317C180.638 441.297 181.353 441.278 181.855 441.24L181.527 442.63H177.142ZM174.592 425.227L176.002 425.439C175.867 426.154 175.693 426.811 175.462 427.429H179.962V432.432H172.448V434.305H180.561V439.598H171.116V427.429H174.09C174.322 426.714 174.477 425.98 174.592 425.227ZM172.448 435.464V438.304H179.209V435.464H172.448ZM172.448 431.273H178.61V428.684H172.448V431.273ZM184.289 426.057H189.948V432.161H188.229V435.155H190.219V436.507H188.229V439.887C188.847 439.656 189.465 439.443 190.045 439.211V440.602C188.229 441.336 186.124 441.993 183.729 442.611L183.323 441.278C183.651 441.201 183.98 441.124 184.289 441.046V434.054H185.525V440.718L186.916 440.312V432.161H184.289V426.057ZM188.596 430.867V427.352H185.622V430.867H188.596ZM200.784 427.313V431.002H199.471V428.568H192.228V431.002H190.914V427.313H195.028C194.797 426.598 194.526 425.961 194.256 425.381L195.666 425.15C195.917 425.787 196.168 426.502 196.4 427.313H200.784ZM192.247 436.7L193.522 436.971C193.02 439.018 192.305 440.776 191.378 442.283L190.18 441.529C191.127 440.061 191.822 438.458 192.247 436.7ZM199.239 436.546C200.031 438.014 200.727 439.598 201.306 441.297L200.05 441.858C199.432 440.003 198.756 438.381 198.022 436.951L199.239 436.546ZM195.125 442.669H193.483L193.174 441.317C193.676 441.375 194.179 441.413 194.642 441.413C195.106 441.413 195.337 441.104 195.337 440.506V435.348H190.991V434.035H200.746V435.348H196.747V440.834C196.747 442.051 196.207 442.669 195.125 442.669ZM192.401 430.655H199.297V431.949H192.401V430.655Z" fill="white"/>
<path d="M225.361 458.223C226.249 458.223 227.003 458.532 227.64 459.15C228.258 459.768 228.567 460.522 228.567 461.41C228.567 462.299 228.258 463.052 227.64 463.689C227.003 464.307 226.249 464.617 225.361 464.617C224.472 464.617 223.719 464.307 223.101 463.689C222.483 463.052 222.174 462.299 222.174 461.41C222.174 460.522 222.483 459.768 223.101 459.15C223.719 458.532 224.472 458.223 225.361 458.223ZM252.557 456.871L252.306 457.875C252.789 460.135 253.407 462.086 254.18 463.709C254.933 461.758 255.339 459.479 255.416 456.871H252.557ZM253.542 465.099C252.789 463.612 252.152 461.912 251.63 459.981C251.282 460.869 250.896 461.661 250.491 462.357L249.621 461.294C250.761 459.131 251.534 456.214 251.92 452.544L253.272 452.776C253.156 453.761 253.002 454.688 252.847 455.538H257.946V456.871H256.691C256.594 460.097 255.995 462.859 254.914 465.138C255.918 466.876 257.096 468.209 258.487 469.156L257.734 470.295C256.382 469.33 255.223 468.016 254.257 466.394C253.33 467.939 252.132 469.233 250.684 470.276L249.969 469.117C251.476 468.074 252.654 466.741 253.542 465.099ZM244.387 461.565L245.681 461.719C245.546 462.086 245.411 462.434 245.295 462.782H249.332V463.921C248.907 465.196 248.192 466.297 247.188 467.224C248.115 467.649 249.003 468.074 249.853 468.538L249.1 469.619C248.25 469.117 247.265 468.596 246.125 468.093C244.85 468.982 243.247 469.697 241.316 470.237L240.659 469.078C242.243 468.654 243.614 468.132 244.734 467.495C243.885 467.128 242.996 466.761 242.05 466.413C242.552 465.563 242.996 464.771 243.382 463.998H241.103V462.782H243.923C244.097 462.357 244.252 461.951 244.387 461.565ZM245.913 466.683C246.878 465.911 247.612 465.003 248.076 463.998H244.754C244.445 464.655 244.097 465.273 243.711 465.853C244.483 466.123 245.217 466.394 245.913 466.683ZM242.629 452.95C243.093 453.703 243.479 454.514 243.827 455.364L242.822 455.828C242.417 454.881 241.992 454.051 241.528 453.317L242.629 452.95ZM248.501 452.892L249.505 453.355C249.119 454.205 248.636 455.036 248.018 455.847L247.033 455.345C247.651 454.514 248.153 453.703 248.501 452.892ZM241.142 456.291H244.908V452.602H246.202V456.291H249.718V457.508H246.202V457.721C247.245 458.242 248.327 458.841 249.409 459.498L248.694 460.58C247.728 459.807 246.898 459.189 246.202 458.725V461.236H244.908V457.566C244.271 459.092 243.112 460.406 241.451 461.526L240.775 460.406C242.262 459.537 243.305 458.571 243.885 457.508H241.142V456.291ZM262.331 470.121H260.689L260.399 468.808C260.902 468.866 261.404 468.905 261.867 468.905C262.35 468.905 262.601 468.615 262.601 468.074V463.342C261.829 463.631 261.076 463.902 260.322 464.134L259.975 462.782C260.863 462.569 261.752 462.299 262.601 461.99V457.624H260.284V456.291H262.601V452.641H263.954V456.291H265.808V457.624H263.954V461.429C264.572 461.159 265.17 460.869 265.75 460.56V461.932C265.151 462.241 264.552 462.511 263.954 462.782V468.422C263.954 469.542 263.413 470.121 262.331 470.121ZM268.106 461.584C267.875 464.887 267.121 467.784 265.846 470.295L264.765 469.33C266.136 466.78 266.832 463.458 266.851 459.401V453.355H277.03V458.049H273.399V460.328H277.532V461.584H273.399V463.96H276.644V470.295H275.35V469.349H270.115V470.295H268.821V463.96H272.047V461.584H268.106ZM272.047 458.049H268.203V459.401C268.203 459.71 268.184 460.019 268.184 460.328H272.047V458.049ZM270.115 468.113H275.35V465.196H270.115V468.113ZM275.678 454.65H268.203V456.794H275.678V454.65ZM280.623 460.811H295.67V462.125H288.89V464.559H294.723V465.833H288.89V468.306H296.713V469.658H279.561V468.306H287.499V465.833H281.724V464.559H287.499V462.125H280.623V460.811ZM281.898 453.298H294.376V459.17H281.898V453.298ZM293.004 457.856V454.611H283.269V457.856H293.004ZM314.754 453.355V464.037H313.344V454.688H307.549V464.037H306.178V453.355H314.754ZM314.329 469.986H312.32C311.258 469.986 310.736 469.445 310.736 468.383V463.96H312.127V468.093C312.127 468.499 312.32 468.711 312.726 468.711H314.078C314.387 468.711 314.619 468.596 314.754 468.402C314.908 468.151 315.024 467.417 315.101 466.22L316.396 466.625C316.28 468.209 316.048 469.194 315.72 469.542C315.411 469.832 314.947 469.986 314.329 469.986ZM309.712 456.06H311.045V460.773C310.968 463.361 310.446 465.428 309.481 466.973C308.553 468.402 307.008 469.542 304.845 470.353L304.092 469.175C306.178 468.364 307.646 467.321 308.476 466.046C309.249 464.694 309.674 462.936 309.712 460.773V456.06ZM299.012 459.73H301.233V455.21H298.76V453.877H305.096V455.21H302.662V459.73H304.826V461.082H302.662V465.466C303.512 465.177 304.323 464.868 305.135 464.539V465.872C303.222 466.645 301.175 467.282 298.992 467.804L298.664 466.471C299.533 466.316 300.383 466.123 301.233 465.891V461.082H299.012V459.73Z" fill="white"/>
<path d="M337.111 430.906C337.999 430.906 338.753 431.215 339.39 431.833C340.008 432.451 340.317 433.204 340.317 434.093C340.317 434.981 340.008 435.735 339.39 436.372C338.753 436.99 337.999 437.299 337.111 437.299C336.222 437.299 335.469 436.99 334.851 436.372C334.233 435.735 333.924 434.981 333.924 434.093C333.924 433.204 334.233 432.451 334.851 431.833C335.469 431.215 336.222 430.906 337.111 430.906ZM359.807 426.502H369.059V427.873H359.807V426.502ZM359.285 431.408H369.909V432.779H366.78V441.22C366.78 442.341 366.142 442.901 364.906 442.901H362.067L361.777 441.529C362.704 441.587 363.573 441.626 364.423 441.626C365.041 441.626 365.37 441.375 365.37 440.873V432.779H359.285V431.408ZM356.755 425.439L358.01 426.019C356.929 428.163 355.19 430.056 352.795 431.698L352.39 430.307C354.398 428.878 355.847 427.255 356.755 425.439ZM357.663 429.843L358.918 430.423C358.358 431.504 357.663 432.547 356.813 433.513V442.978H355.441V434.923C354.669 435.619 353.838 436.295 352.911 436.932L352.505 435.541C354.862 433.88 356.581 431.987 357.663 429.843ZM374.467 425.748C375.588 426.907 376.457 427.931 377.075 428.82L375.993 429.573C375.317 428.607 374.448 427.583 373.405 426.502L374.467 425.748ZM381.266 433.9C382.657 435.426 383.72 436.758 384.473 437.879L383.256 438.729C382.483 437.492 381.46 436.102 380.146 434.595L381.266 433.9ZM378.852 425.265H380.223V427.564C380.204 428.414 380.165 429.245 380.108 430.036H388.066C388.066 435.561 387.814 439.076 387.332 440.583C386.829 442.089 385.922 442.843 384.627 442.843C383.681 442.843 382.889 442.804 382.232 442.765L381.865 441.413C382.85 441.491 383.739 441.529 384.55 441.529C385.632 441.452 386.269 440.351 386.424 438.265C386.578 436.16 386.656 433.861 386.656 431.389H379.972C379.663 433.822 379.122 435.85 378.33 437.512C377.191 439.81 375.317 441.607 372.69 442.901L371.898 441.664C374.487 440.351 376.302 438.613 377.307 436.43C377.906 435.001 378.33 433.32 378.582 431.389H372.574V430.036H378.736C378.794 429.225 378.833 428.414 378.852 427.564V425.265ZM401.741 429.457C401.587 429.921 401.432 430.345 401.278 430.751C401.896 432.992 402.726 434.962 403.731 436.623C404.832 434.634 405.411 432.238 405.45 429.457H401.741ZM406.782 429.457C406.705 432.799 405.952 435.599 404.542 437.859C405.759 439.559 407.207 440.892 408.907 441.858L408.115 443.017C406.415 442.051 404.947 440.718 403.731 439.018C402.456 440.66 400.756 441.974 398.67 442.959L397.801 441.819C399.983 440.853 401.702 439.54 402.958 437.84C401.992 436.275 401.181 434.46 400.544 432.393C400.157 433.127 399.752 433.784 399.307 434.363L398.457 433.281C399.867 431.311 400.814 428.626 401.316 425.246L402.668 425.478C402.514 426.424 402.321 427.313 402.127 428.124H408.289V429.457H406.782ZM393.648 440.042C395.27 439.501 396.951 438.806 398.651 437.956L398.863 439.231C396.854 440.196 394.633 441.104 392.161 441.916L391.755 440.718C392.103 440.563 392.296 440.254 392.296 439.752V432.547H396.622V427.97H391.33V426.637H397.975V433.822H393.648V440.042ZM424.302 429.38C425.77 430.345 426.987 431.311 427.991 432.277L427.025 433.243C426.137 432.316 424.92 431.311 423.375 430.268L424.302 429.38ZM419.396 425.034C419.627 425.613 419.84 426.251 420.052 426.965H427.508V428.317H422.177V433.533H420.786V428.317H417.638V433.533H416.247V428.317H410.897V426.965H418.642C418.411 426.347 418.159 425.768 417.889 425.265L419.396 425.034ZM414.122 429.438L415.146 430.345C414.103 431.446 412.809 432.432 411.283 433.281L410.433 432.161C411.901 431.389 413.118 430.481 414.122 429.438ZM412.21 434.556H425.403V435.619C424.128 437.203 422.563 438.555 420.709 439.656C422.795 440.563 425.268 441.22 428.107 441.607L427.47 442.881C424.282 442.341 421.578 441.51 419.357 440.39C417.039 441.529 414.316 442.36 411.225 442.881L410.588 441.568C413.369 441.162 415.803 440.506 417.928 439.598C416.209 438.516 414.818 437.261 413.736 435.793H412.21V434.556ZM415.281 435.793C416.324 437.029 417.657 438.091 419.26 438.96C420.922 438.072 422.332 437.009 423.529 435.793H415.281Z" fill="white"/>
<path d="M80.3093 81.5668C81.1978 81.5668 81.9512 81.8758 82.5886 82.4939C83.2067 83.112 83.5157 83.8654 83.5157 84.7539C83.5157 85.6424 83.2067 86.3957 82.5886 87.0331C81.9512 87.6512 81.1978 87.9603 80.3093 87.9603C79.4208 87.9603 78.6675 87.6512 78.0494 87.0331C77.4313 86.3957 77.1222 85.6424 77.1222 84.7539C77.1222 83.8654 77.4313 83.112 78.0494 82.4939C78.6675 81.8758 79.4208 81.5668 80.3093 81.5668ZM104.454 88.0762V89.4283H110.577V88.0762H104.454ZM110.577 86.9945V85.5651H104.454V86.9945H110.577ZM104.454 90.4906V93.6005H103.14V84.4062H111.91V91.92C111.91 92.963 111.369 93.5039 110.307 93.5039H108.8L108.452 92.2677L109.901 92.3449C110.345 92.3449 110.577 92.0938 110.577 91.6303V90.4906H104.454ZM106.888 75.9266H108.278V77.1628H112.76V78.3024H108.278V79.6352H112.122V80.7555H108.278V82.0497H113.32V83.2086H101.769V82.8416L100.9 83.0541C100.591 81.8372 100.185 80.659 99.7023 79.5386L100.707 79.2296C101.093 80.0988 101.46 81.0839 101.769 82.1849V82.0497H106.888V80.7555H103.005V79.6352H106.888V78.3024H102.349V77.1628H106.888V75.9266ZM96.1482 79.6545L97.2299 79.7318C97.1912 81.6827 96.9594 83.5177 96.5731 85.2561L95.5108 84.9663C95.8971 83.2859 96.1095 81.5088 96.1482 79.6545ZM98.1184 75.9846H99.4705V93.5618H98.1184V75.9846ZM122.379 78.1865H125.469V75.9652H126.821V78.1865H129.661V79.4034H126.821V81.8952H127.865C129.178 80.4658 130.318 78.8046 131.245 76.8924L132.423 77.4912C131.612 79.133 130.665 80.601 129.622 81.8952H132.5V83.17H128.463C127.768 83.846 127.073 84.4641 126.339 85.0243H131.225V93.6005H129.893V92.6926H124.735V93.6005H123.422V86.782C122.881 87.0524 122.34 87.2842 121.799 87.4967L121.046 86.3378C123.113 85.5844 124.948 84.5221 126.532 83.17H121.587V81.8952H125.469V79.4034H122.379V78.1865ZM124.735 89.4283V91.4564H129.893V89.4283H124.735ZM129.893 88.25V86.2412H124.735V88.25H129.893ZM121.645 89.6214V90.9928C119.771 91.8041 117.647 92.4608 115.271 92.963L115.097 91.5723C117.589 91.0894 119.771 90.4327 121.645 89.6214ZM118.014 75.9652L119.327 76.4868C118.458 78.9592 117.569 80.9294 116.681 82.3974C117.511 82.2815 118.342 82.1463 119.172 81.9724C119.501 81.2771 119.829 80.5431 120.177 79.7897L121.432 80.2533C119.81 83.6722 118.438 86.106 117.357 87.5546C118.496 87.2842 119.636 86.9172 120.756 86.4537V87.7285C118.999 88.4239 117.299 88.9067 115.676 89.1578L115.309 87.9023C115.56 87.8058 115.773 87.6705 115.947 87.4967C116.642 86.6661 117.511 85.2368 118.554 83.2086C117.511 83.4404 116.468 83.6336 115.406 83.8074L115.058 82.5326C115.271 82.4167 115.464 82.2428 115.657 81.9917C116.565 80.234 117.357 78.2252 118.014 75.9652Z" fill="white"/>
<path d="M45.5437 128.753C46.4322 128.753 47.1855 129.062 47.8229 129.68C48.441 130.299 48.7501 131.052 48.7501 131.94C48.7501 132.829 48.441 133.582 47.8229 134.22C47.1855 134.838 46.4322 135.147 45.5437 135.147C44.6552 135.147 43.9019 134.838 43.2838 134.22C42.6657 133.582 42.3566 132.829 42.3566 131.94C42.3566 131.052 42.6657 130.299 43.2838 129.68C43.9019 129.062 44.6552 128.753 45.5437 128.753ZM72.18 123.21H73.6094V128.966H78.0134V130.337H73.6094V138.797H78.4769V140.169H67.1966V138.797H72.18V130.337H67.8726V128.966H72.18V123.21ZM63.8356 132.752C63.063 133.524 62.2131 134.316 61.2667 135.108L60.8417 133.64C63.5073 131.438 65.3036 129.275 66.1922 127.169H61.3053V125.837H64.2799C63.9709 124.987 63.6232 124.175 63.2175 123.403L64.5503 123.036C64.9753 124.002 65.323 124.871 65.5741 125.682L65.1684 125.837H67.6022V127.015C67.1 128.406 66.2887 129.796 65.2071 131.187C66.3274 131.825 67.3511 132.578 68.3169 133.447L67.5443 134.645C66.7523 133.833 65.9797 133.157 65.2071 132.616V140.787H63.8356V132.752ZM80.4664 125.412H88.4438C88.0961 124.62 87.7098 123.905 87.2849 123.248L88.8301 122.978C89.2165 123.712 89.6028 124.523 89.9504 125.412H97.5608V126.744H80.4664V125.412ZM92.0559 127.324C94.1999 129.024 95.9963 130.704 97.4449 132.404L96.4212 133.428C95.1464 131.805 93.3693 130.086 91.1094 128.232L92.0559 127.324ZM92.249 130.936L93.5238 131.496C92.5967 133.273 91.4764 134.799 90.1436 136.093C92.2297 137.6 94.7601 138.72 97.7733 139.493L96.9041 140.787C93.775 139.898 91.1673 138.662 89.0812 137.04C86.9179 138.778 84.291 140.053 81.2004 140.864L80.3506 139.589C83.4024 138.817 85.9328 137.658 87.9609 136.113C86.5509 134.838 85.3919 133.37 84.4841 131.747L85.6817 131.071C86.5316 132.655 87.6519 134.026 89.0233 135.205C90.3368 133.969 91.4184 132.558 92.249 130.936ZM85.8362 127.343L86.8406 128.232C85.3726 130.144 83.557 131.825 81.3936 133.254L80.5051 132.076C82.6105 130.724 84.3875 129.159 85.8362 127.343Z" fill="white"/>
<path d="M14.9109 247.958C15.7994 247.958 16.5527 248.267 17.1901 248.886C17.8082 249.504 18.1173 250.257 18.1173 251.145C18.1173 252.034 17.8082 252.787 17.1901 253.425C16.5527 254.043 15.7994 254.352 14.9109 254.352C14.0224 254.352 13.2691 254.043 12.651 253.425C12.0328 252.787 11.7238 252.034 11.7238 251.145C11.7238 250.257 12.0328 249.504 12.651 248.886C13.2691 248.267 14.0224 247.958 14.9109 247.958ZM47.7475 252.787L47.96 254.139L46.0091 254.448V259.973H44.5991V254.68L38.5726 255.665L38.3794 254.313L44.5991 253.309V242.395H46.0091V253.077L47.7475 252.787ZM40.2144 243.4C41.6052 244.385 42.7641 245.37 43.7106 246.375L42.7641 247.34C41.9142 246.394 40.7359 245.389 39.2293 244.346L40.2144 243.4ZM39.635 247.842C41.045 248.886 42.2426 249.909 43.2084 250.952L42.2233 251.937C41.3541 250.952 40.1565 249.909 38.6499 248.789L39.635 247.842ZM30.6145 247.533H33.7823V244.675C32.8552 244.81 31.9087 244.926 30.9043 245.022L30.6338 243.709C33.1449 243.516 35.3855 243.11 37.3171 242.531L37.8 243.844C36.9694 244.076 36.1002 244.269 35.173 244.443V247.533H37.8386V248.866H35.173V249.813C36.2547 250.682 37.375 251.667 38.4953 252.749L37.7034 253.927C36.699 252.749 35.8684 251.822 35.173 251.145V259.973H33.7823V250.952C33.0097 252.845 31.9859 254.564 30.6725 256.11L30.0737 254.564C31.7155 252.903 32.8938 250.991 33.6278 248.866H30.6145V247.533ZM55.8408 245.698H50.6063V244.404H54.7205C54.4115 243.728 54.0831 243.11 53.7354 242.55L55.1841 242.318C55.5318 242.936 55.8794 243.632 56.1885 244.404H60.2448C60.7084 243.69 61.1333 242.956 61.5003 242.183L62.8331 242.647C62.5047 243.303 62.157 243.883 61.7707 244.404H66.1361V245.698H60.8822V249.484H66.8701V250.798H49.8723V249.484H55.8408V245.698ZM59.5494 245.698H57.1736V249.484H59.5494V245.698ZM64.05 246.201L65.1703 246.722C64.7453 247.611 64.1852 248.461 63.5091 249.272L62.4081 248.712C63.1035 247.862 63.6443 247.031 64.05 246.201ZM53.04 246.239C53.5422 247.031 53.9672 247.881 54.3342 248.77L53.1559 249.291C52.7696 248.287 52.3254 247.418 51.8232 246.645L53.04 246.239ZM64.2624 252.208V260.011H62.9297V259.104H53.774V260.011H52.4413V252.208H64.2624ZM53.774 257.925H62.9297V256.245H53.774V257.925ZM53.774 255.125H62.9297V253.367H53.774V255.125Z" fill="white"/>
<path d="M427.086 132.064C427.975 132.064 428.728 132.373 429.366 132.991C429.984 133.609 430.293 134.362 430.293 135.251C430.293 136.139 429.984 136.893 429.366 137.53C428.728 138.148 427.975 138.457 427.086 138.457C426.198 138.457 425.445 138.148 424.826 137.53C424.208 136.893 423.899 136.139 423.899 135.251C423.899 134.362 424.208 133.609 424.826 132.991C425.445 132.373 426.198 132.064 427.086 132.064ZM447.001 128.413H448.836L454.264 142.205H452.544L451.076 138.341H444.741L443.273 142.205H441.573L447.001 128.413ZM445.243 137.009H450.574L447.967 130.113H447.889L445.243 137.009ZM455.775 128.413H457.339V142.205H455.775V128.413ZM466.134 128.143C467.853 128.143 469.224 128.548 470.248 129.398C471.214 130.19 471.812 131.33 472.064 132.836H470.48C470.267 131.793 469.804 131.001 469.089 130.441C468.336 129.843 467.35 129.553 466.134 129.553C464.627 129.553 463.449 130.074 462.56 131.137C461.672 132.18 461.247 133.59 461.247 135.367C461.247 137.105 461.672 138.477 462.522 139.481C463.429 140.543 464.782 141.084 466.578 141.084C467.331 141.084 468.046 140.968 468.741 140.775C469.417 140.582 469.997 140.312 470.48 140.003V136.487H466.153V135.116H472.044V140.756C471.387 141.297 470.576 141.702 469.63 142.011C468.625 142.32 467.563 142.475 466.423 142.475C464.241 142.475 462.541 141.78 461.343 140.389C460.223 139.095 459.663 137.414 459.663 135.367C459.663 133.319 460.204 131.639 461.324 130.306C462.502 128.857 464.105 128.143 466.134 128.143ZM480.641 128.143C482.167 128.143 483.461 128.548 484.504 129.36C485.547 130.171 486.165 131.272 486.358 132.643H484.832C484.639 131.639 484.137 130.866 483.364 130.325C482.611 129.804 481.703 129.553 480.621 129.553C479.018 129.553 477.782 130.113 476.913 131.233C476.101 132.276 475.696 133.648 475.696 135.367C475.696 137.086 476.082 138.457 476.893 139.462C477.743 140.524 478.96 141.065 480.583 141.065C481.684 141.065 482.611 140.775 483.383 140.196C484.195 139.578 484.755 138.67 485.025 137.472H486.551C486.242 139.075 485.527 140.331 484.388 141.219C483.325 142.05 482.051 142.475 480.583 142.475C478.439 142.475 476.797 141.76 475.657 140.35C474.614 139.075 474.112 137.414 474.112 135.367C474.112 133.319 474.633 131.639 475.696 130.325C476.855 128.857 478.516 128.143 480.641 128.143Z" fill="white"/>
<path d="M287.787 199.938V201.614H286.566C285.793 201.614 285.407 202.063 285.407 202.96V207.016C285.407 208.299 284.814 209.161 283.627 209.603C284.814 210.1 285.407 210.962 285.407 212.19V216.267C285.407 217.15 285.793 217.591 286.566 217.591H287.787V219.268H286.193C285.297 219.268 284.593 218.971 284.083 218.378C283.627 217.84 283.4 217.108 283.4 216.184V212.293C283.4 211.686 283.275 211.252 283.027 210.989C282.751 210.672 282.234 210.493 281.475 210.451V208.754C282.22 208.713 282.737 208.534 283.027 208.216C283.275 207.927 283.4 207.492 283.4 206.912V203.042C283.4 202.104 283.627 201.366 284.083 200.828C284.579 200.235 285.283 199.938 286.193 199.938H287.787ZM298.859 203.167C298.432 203.774 297.976 204.298 297.493 204.739H300.474C300.556 204.215 300.618 203.691 300.66 203.167H298.859ZM299.936 206.54H296.086V204.739H297.017L296.045 203.518C297.024 202.649 297.859 201.442 298.549 199.897L300.308 200.269C300.211 200.545 300.053 200.932 299.832 201.428H305.503V203.167H302.543C302.488 203.856 302.433 204.381 302.378 204.739H306.082V206.54H301.964L301.881 206.83C303.371 207.589 304.668 208.375 305.772 209.189L304.551 210.431H312.456V219.226H310.469V218.419H300.701V219.226H298.735V210.72C298.059 211.134 297.487 211.452 297.017 211.672L295.693 210.079C297.831 209.127 299.232 207.975 299.894 206.623L299.936 206.54ZM300.701 216.681H310.469V215.315H300.701V216.681ZM300.701 213.618H310.469V212.169H300.701V213.618ZM304.199 210.431C303.385 209.699 302.398 208.975 301.239 208.258C300.743 209.03 300.046 209.755 299.149 210.431H304.199ZM306.724 201.449H313.967V209.272H306.724V201.449ZM312.042 207.554V203.187H308.648V207.554H312.042ZM319.617 212.211V213.721H323.921V212.211H319.617ZM323.921 210.596V209.003H319.617V210.596H323.921ZM319.617 215.356V219.226H317.713V207.306H325.825V216.929C325.825 218.364 325.156 219.081 323.818 219.081H322.183L321.707 217.239L323.176 217.322C323.673 217.322 323.921 217.053 323.921 216.515V215.356H319.617ZM329.489 209.23C328.04 209.23 327.315 208.437 327.315 206.85V200.145H329.261V202.608C331.51 202.263 333.255 201.918 334.497 201.573L335.138 203.311C333.372 203.725 331.413 204.091 329.261 204.408V206.436C329.261 207.126 329.516 207.471 330.027 207.471H332.489C332.82 207.471 333.055 207.368 333.193 207.161C333.372 206.885 333.483 206.188 333.524 205.071L335.366 205.671C335.2 207.382 334.924 208.409 334.538 208.754C334.152 209.072 333.593 209.23 332.862 209.23H329.489ZM329.282 216.536C329.282 216.922 329.523 217.115 330.006 217.115H332.489C332.807 217.115 333.041 217.019 333.193 216.826C333.372 216.563 333.49 215.86 333.545 214.715L335.345 215.273C335.18 217.012 334.904 218.053 334.517 218.398C334.159 218.716 333.607 218.874 332.862 218.874H329.468C328.047 218.874 327.336 218.233 327.336 216.95V209.975H329.282V212.252C331.158 212.059 332.896 211.721 334.497 211.238L335.138 212.997C333.4 213.466 331.448 213.811 329.282 214.032V216.536ZM324.315 201.532C325.501 203.118 326.439 204.539 327.129 205.795L325.515 206.954C325.28 206.485 325.053 206.057 324.832 205.671C322.68 206.002 320.093 206.25 317.071 206.416L316.533 204.781C316.878 204.657 317.175 204.491 317.423 204.284C318.706 202.863 319.672 201.456 320.32 200.062L322.204 200.621C321.348 202.291 320.376 203.65 319.286 204.698C320.541 204.629 322.107 204.477 323.984 204.243C323.68 203.76 323.287 203.174 322.804 202.484L324.315 201.532ZM339.836 200.352C341.161 201.373 342.285 202.387 343.21 203.394L341.864 204.76C341.064 203.808 339.933 202.773 338.47 201.656L339.836 200.352ZM337.208 206.292H341.844V215.046C342.423 214.563 343.113 213.942 343.913 213.183L344.451 215.253C343.085 216.522 341.657 217.633 340.167 218.585L339.422 216.805C339.767 216.501 339.94 216.136 339.94 215.708V208.175H337.208V206.292ZM344.596 208.754H354.633V210.555C354.04 212.39 353.047 213.97 351.653 215.294C353.005 216.177 354.606 216.95 356.455 217.612L355.399 219.309C353.399 218.509 351.667 217.571 350.205 216.494C348.604 217.64 346.61 218.571 344.224 219.288L343.127 217.633C345.334 216.984 347.176 216.17 348.652 215.191C347.231 213.811 346.272 212.3 345.776 210.658H344.596V208.754ZM347.618 210.658C348.087 211.914 348.901 213.059 350.06 214.094C351.191 213.059 352.053 211.914 352.647 210.658H347.618ZM346.045 200.766H353.371V205.112C353.371 205.581 353.626 205.816 354.137 205.816H355.958V207.616H353.619C352.157 207.616 351.426 206.926 351.426 205.547V202.608H347.99V203.229C347.99 205.381 346.9 207.05 344.72 208.237L343.416 206.726C345.169 205.94 346.045 204.843 346.045 203.436V200.766ZM364.402 206.126H369.824V200.062H371.852V206.126H376.984V208.071H371.852V219.226H369.824V208.071H364.402V206.126ZM360.635 200.249C362.001 201.283 363.139 202.304 364.05 203.311L362.705 204.677C361.849 203.67 360.704 202.642 359.269 201.594L360.635 200.249ZM357.903 206.25H362.684V215.066C363.25 214.611 363.939 213.997 364.753 213.225L365.271 215.232C363.933 216.488 362.511 217.598 361.008 218.564L360.263 216.805C360.621 216.515 360.801 216.163 360.801 215.749V208.134H357.903V206.25ZM384.932 199.938H386.525C387.436 199.938 388.139 200.235 388.636 200.828C389.091 201.366 389.319 202.104 389.319 203.042V206.912C389.319 207.52 389.45 207.961 389.712 208.237C389.988 208.541 390.499 208.713 391.244 208.754V210.451C390.485 210.493 389.967 210.672 389.692 210.989C389.443 211.252 389.319 211.686 389.319 212.293V216.184C389.319 217.108 389.091 217.84 388.636 218.378C388.126 218.971 387.422 219.268 386.525 219.268H384.932V217.591H386.153C386.925 217.591 387.312 217.15 387.312 216.267V212.19C387.312 210.962 387.905 210.1 389.091 209.603C387.905 209.175 387.312 208.313 387.312 207.016V202.96C387.312 202.063 386.925 201.614 386.153 201.614H384.932V199.938Z" fill="white"/>
<circle cx="263.479" cy="325.847" r="79.4702" transform="rotate(-28.7636 263.479 325.847)" stroke="url(#paint7_linear_100_435)" stroke-width="8.27815"/>
<defs>
<radialGradient id="paint0_radial_100_435" cx="0" cy="0" r="1" gradientUnits="userSpaceOnUse" gradientTransform="translate(263.477 244.721) rotate(90) scale(208.609)">
<stop stop-color="#0F44FE"/>
<stop offset="1"/>
</radialGradient>
<linearGradient id="paint1_linear_100_435" x1="263.477" y1="36.1118" x2="263.477" y2="453.331" gradientUnits="userSpaceOnUse">
<stop stop-color="white"/>
<stop offset="1"/>
</linearGradient>
<linearGradient id="paint2_linear_100_435" x1="101.21" y1="188.844" x2="281.674" y2="188.844" gradientUnits="userSpaceOnUse">
<stop stop-color="white"/>
<stop offset="0.713417" stop-color="white" stop-opacity="0"/>
</linearGradient>
<linearGradient id="paint3_linear_100_435" x1="336.314" y1="125.516" x2="336.314" y2="292.735" gradientUnits="userSpaceOnUse">
<stop stop-color="white"/>
<stop offset="0.808302" stop-color="white" stop-opacity="0"/>
</linearGradient>
<linearGradient id="paint4_linear_100_435" x1="433.174" y1="433.463" x2="102.462" y2="433.463" gradientUnits="userSpaceOnUse">
<stop offset="0.0235693" stop-color="white" stop-opacity="0"/>
<stop offset="0.522579" stop-color="white"/>
<stop offset="0.951798" stop-color="white" stop-opacity="0"/>
</linearGradient>
<linearGradient id="paint5_linear_100_435" x1="411.651" y1="23.6948" x2="532.098" y2="290.665" gradientUnits="userSpaceOnUse">
<stop offset="0.117781" stop-color="white" stop-opacity="0"/>
<stop offset="0.489754" stop-color="white"/>
<stop offset="0.546168" stop-color="white"/>
<stop offset="0.853732" stop-color="white" stop-opacity="0"/>
</linearGradient>
<linearGradient id="paint6_linear_100_435" x1="190.212" y1="-23.371" x2="16.371" y2="229.113" gradientUnits="userSpaceOnUse">
<stop offset="0.0423841" stop-color="white" stop-opacity="0"/>
<stop offset="0.412141" stop-color="white"/>
<stop offset="0.658858" stop-color="white"/>
<stop offset="0.96909" stop-color="white" stop-opacity="0"/>
</linearGradient>
<linearGradient id="paint7_linear_100_435" x1="203.048" y1="383.794" x2="306.939" y2="269.97" gradientUnits="userSpaceOnUse">
<stop stop-color="white"/>
<stop offset="0.857676" stop-color="white" stop-opacity="0"/>
</linearGradient>
</defs>
</svg>
