<svg width="581" height="141" viewBox="0 0 581 141" fill="none" xmlns="http://www.w3.org/2000/svg">
<path d="M43.5595 59.9788V61.5988H42.3795C41.6328 61.5988 41.2595 62.0321 41.2595 62.8988V66.8188C41.2595 68.0588 40.6862 68.8921 39.5395 69.3188C40.6862 69.7988 41.2595 70.6321 41.2595 71.8188V75.7588C41.2595 76.6121 41.6328 77.0388 42.3795 77.0388H43.5595V78.6588H42.0195C41.1528 78.6588 40.4728 78.3721 39.9795 77.7988C39.5395 77.2788 39.3195 76.5721 39.3195 75.6788V71.9188C39.3195 71.3321 39.1995 70.9121 38.9595 70.6588C38.6928 70.3521 38.1928 70.1788 37.4595 70.1388V68.4988C38.1795 68.4588 38.6795 68.2855 38.9595 67.9788C39.1995 67.6988 39.3195 67.2788 39.3195 66.7188V62.9788C39.3195 62.0721 39.5395 61.3588 39.9795 60.8388C40.4595 60.2655 41.1395 59.9788 42.0195 59.9788H43.5595ZM58.8998 61.2388H68.6598V63.0988H58.8998V61.2388ZM58.3998 66.2388H69.5198V68.0988H66.3998V76.5188C66.3998 77.8388 65.6865 78.4988 64.2598 78.4988H61.3598L60.9398 76.6388C61.8598 76.7188 62.7465 76.7588 63.5998 76.7588C64.1865 76.7588 64.4798 76.5255 64.4798 76.0588V68.0988H58.3998V66.2388ZM57.2398 61.0588C56.1598 63.2588 54.3465 65.2321 51.7998 66.9788L51.2198 65.0788C53.1531 63.7055 54.5798 62.0988 55.4998 60.2588L57.2398 61.0588ZM58.1598 65.6388C57.6265 66.7188 56.9465 67.7388 56.1198 68.6988V78.5788H54.2598V70.5588C53.4865 71.2255 52.7131 71.8255 51.9398 72.3588L51.3798 70.4788C53.6865 68.8655 55.3731 66.9855 56.4398 64.8388L58.1598 65.6388ZM74.3798 60.5788C75.4998 61.6988 76.3931 62.7388 77.0598 63.6988L75.5798 64.7188C74.8865 63.7455 74.0065 62.7121 72.9398 61.6188L74.3798 60.5788ZM81.5598 68.9788C82.8931 70.4588 83.9598 71.7921 84.7598 72.9788L83.0798 74.1388C82.2798 72.8188 81.2665 71.4188 80.0398 69.9388L81.5598 68.9788ZM78.4998 60.1188H80.3598V62.9388C80.3465 63.4188 80.3131 64.0788 80.2598 64.9188H88.4398C88.4398 70.7188 88.1865 74.4321 87.6798 76.0588C87.1465 77.6588 86.1998 78.4588 84.8398 78.4588C83.8798 78.4588 83.0131 78.4255 82.2398 78.3588L81.7398 76.5188C82.8865 76.6255 83.8798 76.6788 84.7198 76.6788C85.6265 76.5988 86.1531 75.5388 86.2998 73.4988C86.4331 71.2055 86.4998 68.9655 86.4998 66.7788H80.0798C79.7598 69.2588 79.1865 71.3588 78.3598 73.0788C77.1865 75.4121 75.2398 77.2188 72.5198 78.4988L71.4598 76.8188C74.1398 75.4588 75.9598 73.7321 76.9198 71.6388C77.4931 70.2788 77.9198 68.6588 78.1998 66.7788H72.1398V64.9188H78.3998C78.4531 64.0788 78.4865 63.4188 78.4998 62.9388V60.1188ZM97.44 59.9788H98.98C99.86 59.9788 100.54 60.2655 101.02 60.8388C101.46 61.3588 101.68 62.0721 101.68 62.9788V66.7188C101.68 67.3055 101.807 67.7321 102.06 67.9988C102.327 68.2921 102.82 68.4588 103.54 68.4988V70.1388C102.807 70.1788 102.307 70.3521 102.04 70.6588C101.8 70.9121 101.68 71.3321 101.68 71.9188V75.6788C101.68 76.5721 101.46 77.2788 101.02 77.7988C100.527 78.3721 99.8466 78.6588 98.98 78.6588H97.44V77.0388H98.62C99.3666 77.0388 99.74 76.6121 99.74 75.7588V71.8188C99.74 70.6321 100.313 69.7988 101.46 69.3188C100.313 68.9055 99.74 68.0721 99.74 66.8188V62.8988C99.74 62.0321 99.3666 61.5988 98.62 61.5988H97.44V59.9788Z" fill="white"/>
<circle cx="70.5" cy="70.5" r="69.6188" stroke="white" stroke-width="1.7625" stroke-dasharray="4.41 4.41"/>
<path d="M266.203 59.9788V61.5988H265.023C264.276 61.5988 263.903 62.0321 263.903 62.8988V66.8188C263.903 68.0588 263.33 68.8921 262.183 69.3188C263.33 69.7988 263.903 70.6321 263.903 71.8188V75.7588C263.903 76.6121 264.276 77.0388 265.023 77.0388H266.203V78.6588H264.663C263.796 78.6588 263.116 78.3721 262.623 77.7988C262.183 77.2788 261.963 76.5721 261.963 75.6788V71.9188C261.963 71.3321 261.843 70.9121 261.603 70.6588C261.336 70.3521 260.836 70.1788 260.103 70.1388V68.4988C260.823 68.4588 261.323 68.2855 261.603 67.9788C261.843 67.6988 261.963 67.2788 261.963 66.7188V62.9788C261.963 62.0721 262.183 61.3588 262.623 60.8388C263.103 60.2655 263.783 59.9788 264.663 59.9788H266.203ZM286.483 64.8388L286.243 65.7388C286.71 67.7921 287.29 69.5921 287.983 71.1388C288.61 69.3655 288.963 67.2655 289.043 64.8388H286.483ZM287.123 73.0988C286.43 71.7255 285.83 70.1721 285.323 68.4388C284.963 69.2788 284.63 69.9521 284.323 70.4588L283.123 68.9788C284.243 66.7788 285.003 63.8188 285.403 60.0988L287.263 60.4188C287.117 61.5255 286.983 62.3921 286.863 63.0188H291.943V64.8388H290.803C290.683 68.0921 290.097 70.8588 289.043 73.1388C290.057 74.7788 291.23 76.0388 292.563 76.9188L291.463 78.5188C290.197 77.5988 289.083 76.3855 288.123 74.8788C287.15 76.3855 285.963 77.6388 284.563 78.6388L283.563 77.0188C285.057 76.0188 286.243 74.7121 287.123 73.0988ZM277.603 69.3988L279.443 69.5988L279.103 70.5188H283.163V72.1188C282.803 73.3188 282.17 74.3721 281.263 75.2788C282.237 75.7188 283.017 76.0921 283.603 76.3988L282.583 77.9188C281.823 77.4788 280.89 76.9988 279.783 76.4788C278.49 77.3188 276.837 78.0055 274.823 78.5388L273.903 76.9188C275.397 76.5588 276.683 76.1188 277.763 75.5988C277.137 75.3321 276.263 74.9788 275.143 74.5388C275.65 73.6988 276.083 72.9255 276.443 72.2188H274.363V70.5188H277.203L277.603 69.3988ZM279.463 74.5388C280.33 73.8721 280.977 73.0988 281.403 72.2188H278.363C278.097 72.7521 277.797 73.2788 277.463 73.7988C278.223 74.0655 278.89 74.3121 279.463 74.5388ZM276.203 60.5188C276.63 61.2121 277.037 62.0055 277.423 62.8988L275.943 63.5788C275.53 62.5788 275.09 61.7321 274.623 61.0388L276.203 60.5188ZM283.383 61.1388C282.97 62.0188 282.463 62.8521 281.863 63.6388L280.463 62.8988C281.01 62.1255 281.483 61.2988 281.883 60.4188L283.383 61.1388ZM274.423 63.8188H278.203V60.1388H279.943V63.8188H283.423V65.4788H279.943V65.5788C280.943 65.9921 282.023 66.5055 283.183 67.1188L282.183 68.6188C281.237 67.8588 280.49 67.3055 279.943 66.9588V69.1988H278.203V65.8188C277.55 67.2588 276.45 68.5188 274.903 69.5988L273.963 68.0588C275.337 67.2721 276.33 66.4121 276.943 65.4788H274.423V63.8188ZM294.743 78.3988L294.343 76.5988C294.93 76.6921 295.417 76.7388 295.803 76.7388C296.257 76.7388 296.483 76.4721 296.483 75.9388V71.6588C296.003 71.8321 295.297 72.0788 294.363 72.3988L293.883 70.5188C294.683 70.3321 295.55 70.0788 296.483 69.7588V65.6188H294.243V63.7988H296.483V60.1788H298.323V63.7988H300.083V65.6188H298.323V69.0388C298.99 68.7321 299.557 68.4521 300.023 68.1988V70.0588L298.323 70.8788V76.4188C298.323 77.7388 297.697 78.3988 296.443 78.3988H294.743ZM302.663 69.7188C302.397 73.0921 301.63 76.0521 300.363 78.5988L298.883 77.2788C300.23 74.6921 300.91 71.3721 300.923 67.3188V60.7988H311.743V65.9788H308.103V67.9788H312.223V69.7188H308.103V71.7788H311.323V78.5788H309.563V77.7188H304.823V78.5788H303.063V71.7788H306.263V69.7188H302.663ZM306.263 65.9788H302.763V67.6388L302.743 67.9788H306.263V65.9788ZM304.823 76.0388H309.563V73.4588H304.823V76.0388ZM309.903 62.5388H302.763V64.2788H309.903V62.5388ZM320.084 59.9788H321.624C322.504 59.9788 323.184 60.2655 323.664 60.8388C324.104 61.3588 324.324 62.0721 324.324 62.9788V66.7188C324.324 67.3055 324.45 67.7321 324.704 67.9988C324.97 68.2921 325.464 68.4588 326.184 68.4988V70.1388C325.45 70.1788 324.95 70.3521 324.684 70.6588C324.444 70.9121 324.324 71.3321 324.324 71.9188V75.6788C324.324 76.5721 324.104 77.2788 323.664 77.7988C323.17 78.3721 322.49 78.6588 321.624 78.6588H320.084V77.0388H321.264C322.01 77.0388 322.384 76.6121 322.384 75.7588V71.8188C322.384 70.6321 322.957 69.7988 324.104 69.3188C322.957 68.9055 322.384 68.0721 322.384 66.8188V62.8988C322.384 62.0321 322.01 61.5988 321.264 61.5988H320.084V59.9788Z" fill="white"/>
<circle cx="290.5" cy="70.5" r="69.6188" stroke="white" stroke-width="1.7625" stroke-dasharray="4.41 4.41"/>
<path d="M492.565 65.2666V66.8866H491.385C490.638 66.8866 490.265 67.32 490.265 68.1866V72.1066C490.265 73.3466 489.692 74.18 488.545 74.6066C489.692 75.0866 490.265 75.92 490.265 77.1066V81.0466C490.265 81.9 490.638 82.3266 491.385 82.3266H492.565V83.9466H491.025C490.158 83.9466 489.478 83.66 488.985 83.0866C488.545 82.5666 488.325 81.86 488.325 80.9666V77.2066C488.325 76.62 488.205 76.2 487.965 75.9466C487.698 75.64 487.198 75.4666 486.465 75.4266V73.7866C487.185 73.7466 487.685 73.5733 487.965 73.2666C488.205 72.9866 488.325 72.5666 488.325 72.0066V68.2666C488.325 67.36 488.545 66.6466 488.985 66.1266C489.465 65.5533 490.145 65.2666 491.025 65.2666H492.565ZM503.945 67.5266H506.425L511.925 81.8066H509.585L508.245 78.1266H502.105L500.765 81.8066H498.445L503.945 67.5266ZM502.765 76.3266H507.585L505.225 69.8666H505.145L502.765 76.3266ZM518.962 67.5266H521.122V81.8066H518.962V67.5266ZM528.441 65.2666H529.981C530.861 65.2666 531.541 65.5533 532.021 66.1266C532.461 66.6466 532.681 67.36 532.681 68.2666V72.0066C532.681 72.5933 532.808 73.02 533.061 73.2866C533.328 73.58 533.821 73.7466 534.541 73.7866V75.4266C533.808 75.4666 533.308 75.64 533.041 75.9466C532.801 76.2 532.681 76.62 532.681 77.2066V80.9666C532.681 81.86 532.461 82.5666 532.021 83.0866C531.528 83.66 530.848 83.9466 529.981 83.9466H528.441V82.3266H529.621C530.368 82.3266 530.741 81.9 530.741 81.0466V77.1066C530.741 75.92 531.314 75.0866 532.461 74.6066C531.314 74.1933 530.741 73.36 530.741 72.1066V68.1866C530.741 67.32 530.368 66.8866 529.621 66.8866H528.441V65.2666Z" fill="white"/>
<circle cx="510.5" cy="70.5" r="69.6188" stroke="white" stroke-width="1.7625" stroke-dasharray="4.41 4.41"/>
</svg>
